<svg width="469" height="73" viewBox="0 0 469 73" fill="none" xmlns="http://www.w3.org/2000/svg">
<g clip-path="url(#clip0_712_15475)">
<path d="M467.855 64.2405C459.315 45.5405 449.855 21.8605 441.015 3.52051C437.235 10.9905 434.095 18.9505 430.635 26.6605C429.285 29.7505 427.955 32.8905 426.585 35.9805C422.265 45.9105 418.045 56.0005 413.625 65.7605C413.545 65.9405 413.675 66.5505 413.905 66.5005C424.645 65.4105 425.235 54.5705 429.445 47.8605C430.465 48.8205 449.665 45.8705 453.565 49.0605L460.465 65.4505C461.355 67.8305 466.685 66.0705 468.895 66.4605V66.2605C468.525 65.6805 468.255 65.1605 467.855 64.2405ZM450.395 41.5505H432.015C431.705 41.5905 431.395 41.4405 431.545 41.1005C431.555 40.9905 431.615 40.8805 431.655 40.7605C434.875 34.8605 437.105 25.2505 441.285 19.7705C444.005 26.5205 448.375 34.8505 450.395 41.5505Z" fill="#E4E4E4"/>
<path d="M393.169 18.8109C392.369 20.7609 379.119 51.9009 378.829 52.6009C378.089 52.6109 377.549 51.0209 376.399 48.8409C371.129 38.2309 363.409 16.7209 357.119 3.61086C352.649 22.3509 349.599 41.7609 345.759 60.7109C345.459 62.2009 344.889 65.3109 344.609 66.3309C346.899 66.0609 351.439 68.2709 351.979 64.9709C354.889 54.2609 356.079 33.0409 359.959 26.4209C360.569 26.8809 377.459 68.6409 378.619 68.5009L396.989 25.9209H397.509L404.899 65.3709C405.029 66.0609 405.299 66.5909 405.959 66.5909C407.729 66.4309 410.459 66.9509 412.199 66.2809L399.829 3.13086L393.169 18.8109Z" fill="#E4E4E4"/>
<path d="M26.0259 34.1202C38.4559 30.1102 36.6259 10.3302 24.8359 6.69021C19.5159 4.70021 7.46589 5.81021 0.59589 5.50021C-0.37411 6.39021 0.585894 65.3702 0.255893 66.5702C7.52589 66.4702 18.0559 66.9302 24.3759 65.8802C40.3659 63.3302 41.8059 36.9502 26.0259 34.1202ZM7.2459 14.7802C7.3959 13.1502 7.35589 11.9002 7.86589 11.7402C14.0459 12.2602 23.6159 10.1302 26.4059 17.5002C30.7359 31.5302 18.2659 33.0902 7.48589 32.1702C7.12589 28.1802 7.0159 19.0702 7.2459 14.7802ZM29.4859 50.0602C29.6659 61.1702 15.6259 60.7402 7.78589 60.1602C6.38589 54.1902 7.4959 47.1102 7.3059 41.0302C7.3059 41.2902 7.30589 41.5602 7.29589 41.8502C7.57589 40.3102 6.72589 38.5302 7.81589 37.9302C12.7959 37.8902 18.6859 37.4402 23.5559 39.3402C28.0459 40.8902 29.9159 45.5402 29.4859 50.0602Z" fill="#E4E4E4"/>
<path d="M228.421 28.63C228.131 28.78 227.671 28.9 227.251 28.9H195.861L195.881 6.39005C195.871 6.10005 195.851 5.69005 195.651 5.56005C194.961 5.46005 189.391 5.47005 188.931 5.51005C188.661 5.51005 188.591 6.36005 188.591 6.71005C189.091 8.00005 187.061 64.31 190.521 63.22C191.301 64.1 192.181 64.92 193.161 65.57H193.171C193.391 65.71 193.601 65.83 193.811 65.93C193.801 65.93 193.781 65.92 193.771 65.91C194.461 66.25 195.321 66.47 195.881 65.85L195.821 36.7C195.831 36.31 195.881 36.08 196.111 35.91C198.931 35.91 225.281 35.57 228.411 36.12V66.59L235.861 66.56V5.53005L228.391 5.50005L228.421 28.63Z" fill="#E4E4E4"/>
<path d="M339.981 61.8109C333.831 53.7609 326.361 45.5109 320.761 37.6209C320.761 37.6109 320.771 37.6009 320.781 37.6009C337.261 39.2109 343.661 20.4609 333.391 9.27087C326.821 3.14087 312.921 6.25087 303.961 5.50087L303.981 59.5609C303.981 62.0409 307.921 66.4709 311.131 66.5009V37.9009C314.211 36.2709 332.191 67.0609 335.661 66.5909C335.911 66.5509 343.511 66.6709 343.461 66.4009C343.701 66.5709 341.281 63.4109 339.981 61.8109ZM318.321 32.1109C315.931 32.2209 313.521 32.1509 311.131 32.0409V11.5709C317.201 12.0409 327.381 9.98087 330.201 17.0409C333.871 26.5309 327.701 32.3809 318.321 32.1109Z" fill="#E4E4E4"/>
<path d="M289.045 46.8704C281.895 31.0804 275.755 13.3404 269.445 3.94043C269.445 3.94043 269.435 3.94043 269.435 3.95043C269.745 3.74043 266.915 10.0004 264.765 14.8504C257.425 31.8604 248.925 48.6104 242.695 66.0304C251.845 67.4204 254.065 54.5604 258.365 47.8604C258.835 47.8604 280.595 47.8504 281.035 47.8504C286.115 52.4304 285.485 62.1004 290.655 66.5904L297.315 66.5604C297.405 66.5104 297.455 66.0104 297.365 65.8204C297.095 65.7904 293.535 57.4304 289.045 46.8704ZM260.435 40.8004C260.435 40.8004 269.505 19.9204 269.515 19.8704C269.765 19.4404 269.855 19.3004 270.165 19.9304L279.215 40.7504C279.355 41.0904 279.315 41.5604 278.945 41.5604C273.675 40.8104 265.325 43.0604 260.435 40.8004Z" fill="#E4E4E4"/>
<path d="M168.735 6.36058C161.405 4.80058 152.295 5.76058 145.055 5.50058L145.105 59.8306C145.105 62.8006 152.245 68.1406 152.245 65.7506V40.0806C156.055 37.3306 165.555 40.6306 170.495 37.5906C183.415 32.5206 182.535 9.71058 168.735 6.36058ZM171.535 25.0806C170.395 33.8606 158.905 32.3006 152.245 32.6006V12.2006C161.475 11.4606 174.075 12.6406 171.535 25.0806Z" fill="#E4E4E4"/>
<path d="M83.2227 35.9104C83.8727 38.3204 100.453 43.3504 95.8727 40.3704C81.4527 35.5904 85.0427 16.6804 96.5027 10.6104C103.293 6.3904 111.633 5.2304 119.313 4.0304C110.323 0.250403 98.6427 -2.5096 89.4327 2.2004C77.1827 8.5404 72.8427 26.2804 83.2227 35.9104Z" fill="#CF2B2D"/>
<path d="M132.776 21.6901C123.686 8.83009 100.826 10.6501 96.4557 26.2101C95.7557 28.5801 95.4557 30.8601 95.4957 33.5001C99.1957 15.6501 121.086 20.9901 126.986 34.5201C130.536 41.2101 131.216 47.8001 132.456 54.9301C132.496 54.9301 132.536 54.9301 132.576 54.9101C132.576 54.9101 132.579 54.9068 132.586 54.9001C136.966 45.0001 139.346 31.0601 132.776 21.6901Z" fill="#CF2B2D"/>
<path d="M103.181 31.2305C116.751 33.7305 117.301 51.2205 107.821 58.7305C100.731 64.9905 90.0513 67.2205 81.2812 68.0905C122.401 89.0505 140.861 34.3805 103.181 31.2305Z" fill="#CF2B2D"/>
<path d="M93.7508 57.8003C101.161 54.6303 104.901 46.7303 105.541 38.9203C101.461 52.3903 86.3408 53.6603 76.6208 42.4703C70.5108 34.9503 69.5408 26.2203 68.1808 16.7803C53.8108 47.7703 77.9708 64.7103 93.7508 57.8003Z" fill="#CF2B2D"/>
<path d="M48.4497 12.5207L48.4297 66.5707C50.4397 66.4207 53.5997 66.9107 55.6697 66.4007C55.7297 65.4107 55.6697 6.56074 55.6797 5.51074C52.4897 6.78074 49.2997 9.09074 48.4497 12.5207Z" fill="#E4E4E4"/>
</g>
<defs>
<clipPath id="clip0_712_15475">
<rect width="469" height="73" fill="white"/>
</clipPath>
</defs>
</svg>
