<svg width="268" height="64" viewBox="0 0 268 64" fill="none" xmlns="http://www.w3.org/2000/svg">
<path d="M49.5006 13.1328H28.4023V50.8649H49.5006V13.1328Z" fill="#939393"/>
<path d="M29.806 32C29.806 24.334 33.4264 17.5301 38.9818 13.134C34.8933 9.93398 29.7357 8 24.1101 8C10.7832 8 0 18.734 0 32C0 45.266 10.7832 56 24.1101 56C29.7357 56 34.8933 54.066 38.9818 50.866C33.4186 46.532 29.806 39.666 29.806 32Z" fill="#626262"/>
<path d="M77.9623 32C77.9623 45.266 67.1791 56 53.8522 56C48.2266 56 43.069 54.066 38.9805 50.866C44.6061 46.4621 48.1563 39.666 48.1563 32C48.1563 24.334 44.5359 17.5301 38.9805 13.134C43.0612 9.93398 48.2188 8 53.8444 8C67.1791 8 77.9623 18.8039 77.9623 32Z" fill="#B7B7B7"/>
<path d="M118.397 39.9399V29.9992C118.397 26.1966 116.066 23.7066 112.063 23.7066C110.062 23.7066 107.886 24.3629 106.39 26.5248C105.224 24.7103 103.553 23.7066 101.047 23.7066C99.376 23.7066 97.7051 24.2085 96.3839 26.0229V24.0348H92.8867V39.9399H96.3839V31.1573C96.3839 28.3392 97.88 27.0073 100.211 27.0073C102.543 27.0073 103.709 28.4936 103.709 31.1573V39.9399H107.206V31.1573C107.206 28.3392 108.877 27.0073 111.033 27.0073C113.365 27.0073 114.531 28.4936 114.531 31.1573V39.9399H118.397ZM170.272 24.0348H164.599V19.2285H161.102V24.0348H157.935V27.181H161.102V34.4773C161.102 38.1255 162.598 40.268 166.6 40.268C168.096 40.268 169.767 39.7662 170.933 39.1099L169.923 36.118C168.912 36.7743 167.747 36.948 166.911 36.948C165.24 36.948 164.58 35.9443 164.58 34.3036V27.181H170.253V24.0348H170.272ZM199.96 23.6873C197.959 23.6873 196.618 24.691 195.783 26.0036V24.0155H192.286V39.9206H195.783V30.9643C195.783 28.3199 196.948 26.8143 199.125 26.8143C199.785 26.8143 200.621 26.988 201.301 27.1424L202.311 23.8224C201.611 23.6873 200.621 23.6873 199.96 23.6873ZM155.098 25.3473C153.428 24.1892 151.096 23.6873 148.59 23.6873C144.587 23.6873 141.926 25.6755 141.926 28.8217C141.926 31.4662 143.927 32.9717 147.424 33.4543L149.095 33.628C150.921 33.9562 151.931 34.458 151.931 35.288C151.931 36.4462 150.591 37.2762 148.259 37.2762C145.928 37.2762 144.082 36.4462 142.916 35.6162L141.246 38.2606C143.072 39.5924 145.578 40.2487 148.085 40.2487C152.747 40.2487 155.429 38.0869 155.429 35.1143C155.429 32.2962 153.253 30.8099 149.93 30.308L148.259 30.1343C146.763 29.9606 145.598 29.6324 145.598 28.648C145.598 27.4899 146.763 26.8336 148.609 26.8336C150.61 26.8336 152.611 27.6636 153.622 28.1655L155.098 25.3473ZM248.144 23.6873C246.143 23.6873 244.802 24.691 243.967 26.0036V24.0155H240.469V39.9206H243.967V30.9643C243.967 28.3199 245.132 26.8143 247.308 26.8143C247.969 26.8143 248.804 26.988 249.484 27.1424L250.495 23.861C249.815 23.6873 248.824 23.6873 248.144 23.6873ZM203.457 31.9873C203.457 36.7936 206.799 40.268 211.967 40.268C214.299 40.268 215.969 39.7662 217.64 38.4536L215.969 35.6355C214.629 36.6392 213.308 37.1218 211.792 37.1218C208.956 37.1218 206.954 35.1336 206.954 31.9873C206.954 28.9955 208.956 27.0073 211.792 26.8529C213.288 26.8529 214.629 27.3548 215.969 28.3392L217.64 25.521C215.969 24.1892 214.299 23.7066 211.967 23.7066C206.799 23.6873 203.457 27.181 203.457 31.9873ZM235.806 31.9873V24.0348H232.309V26.0229C231.144 24.5366 229.473 23.7066 227.297 23.7066C222.789 23.7066 219.292 27.181 219.292 31.9873C219.292 36.7936 222.789 40.268 227.297 40.268C229.628 40.268 231.299 39.438 232.309 37.9517V39.9399H235.806V31.9873ZM222.964 31.9873C222.964 29.1692 224.79 26.8529 227.802 26.8529C230.638 26.8529 232.64 29.0148 232.64 31.9873C232.64 34.8055 230.638 37.1218 227.802 37.1218C224.81 36.948 222.964 34.7862 222.964 31.9873ZM181.114 23.6873C176.451 23.6873 173.109 27.0073 173.109 31.968C173.109 36.948 176.451 40.2487 181.289 40.2487C183.62 40.2487 185.952 39.5925 187.797 38.0869L186.127 35.5969C184.786 36.6006 183.115 37.2569 181.464 37.2569C179.288 37.2569 177.131 36.2531 176.626 33.4543H188.458C188.458 32.9524 188.458 32.6243 188.458 32.1224C188.613 27.0073 185.602 23.6873 181.114 23.6873ZM181.114 26.6792C183.29 26.6792 184.786 28.011 185.116 30.4817H176.781C177.111 28.3392 178.607 26.6792 181.114 26.6792ZM268 31.9873V17.7422H264.503V26.0229C263.337 24.5366 261.666 23.7066 259.49 23.7066C254.983 23.7066 251.486 27.181 251.486 31.9873C251.486 36.7936 254.983 40.268 259.49 40.268C261.822 40.268 263.493 39.438 264.503 37.9517V39.9399H268V31.9873ZM255.158 31.9873C255.158 29.1692 256.984 26.8529 259.996 26.8529C262.832 26.8529 264.833 29.0148 264.833 31.9873C264.833 34.8055 262.832 37.1218 259.996 37.1218C256.984 36.948 255.158 34.7862 255.158 31.9873ZM138.079 31.9873V24.0348H134.581V26.0229C133.416 24.5366 131.745 23.7066 129.569 23.7066C125.061 23.7066 121.564 27.181 121.564 31.9873C121.564 36.7936 125.061 40.268 129.569 40.268C131.9 40.268 133.571 39.438 134.581 37.9517V39.9399H138.079V31.9873ZM125.081 31.9873C125.081 29.1692 126.907 26.8529 129.918 26.8529C132.755 26.8529 134.756 29.0148 134.756 31.9873C134.756 34.8055 132.755 37.1218 129.918 37.1218C126.907 36.948 125.081 34.7862 125.081 31.9873Z" fill="white"/>
</svg>
