<svg width="224" height="40" viewBox="0 0 224 40" fill="none" xmlns="http://www.w3.org/2000/svg">
<path d="M94.2509 16.6247L92.2789 16.6707V8.78469H94.5389C96.2509 8.78469 96.8129 10.0407 96.8129 12.7847C96.8129 15.5287 96.1809 16.6247 94.2509 16.6247ZM104.201 34.6047V26.1527C104.201 22.1447 102.771 19.8147 99.7149 19.2667C103.267 18.3247 104.239 15.3447 104.239 11.5287C104.239 6.14869 102.305 2.80469 96.0309 2.80469H84.7949L84.8009 37.6387H92.2809V22.4927H94.1249C95.9249 22.4927 96.7789 23.7347 96.7789 25.3927V34.6587C96.7789 36.1987 97.0889 37.3347 97.3009 37.6367H104.867C104.603 37.3487 104.201 36.1467 104.201 34.6047Z" fill="#D1D1D1"/>
<path d="M20.2945 31.7153C21.6325 30.5993 21.8625 29.2173 21.8625 27.9773V22.7693H14.5905V29.8353C14.5905 30.8473 13.7725 31.6673 12.7625 31.6673C11.7525 31.6673 11.0005 30.8473 11.0005 29.8353V9.81728C11.0005 8.80728 11.7525 7.98728 12.7625 7.98728C13.7725 7.98728 14.5905 8.80728 14.5905 9.81728V16.9293H21.8525V9.55128C21.8525 5.47528 19.1885 2.12128 12.7005 2.11328C6.03851 2.11328 3.52051 5.48328 3.52051 9.55928V30.4613C3.52051 34.5013 6.72851 37.5573 10.8305 37.5573H13.0825L20.2945 31.7153Z" fill="#D1D1D1"/>
<path d="M210.148 16.6091H208.162V8.76906H210.434C212.142 8.76906 212.708 10.0251 212.708 12.7671C212.708 15.5131 212.08 16.6091 210.148 16.6091ZM220.09 34.5891V26.1351C220.09 22.1291 218.666 19.7991 215.61 19.2491C219.162 18.3091 220.134 15.3311 220.134 11.5171C220.134 6.13306 218.194 2.78906 211.926 2.78906H200.688V37.6231H208.186V22.4791H210.016C211.82 22.4791 212.664 23.7191 212.664 25.3791V34.6451C212.664 36.1871 212.982 37.3211 213.192 37.6231H220.752C220.492 37.3331 220.09 36.1291 220.09 34.5891Z" fill="#D1D1D1"/>
<path d="M185.112 25.0868L187.06 8.83275L189.004 25.0868H185.112ZM192.07 2.71875H182.012L176.036 37.6188H183.608L184.35 31.4607L189.76 31.4567L190.498 37.6188H198.076L192.07 2.71875Z" fill="#D1D1D1"/>
<path d="M141.916 37.6169V2.79688H149.588V31.0069H157.582V37.6169H141.916Z" fill="#D1D1D1"/>
<path d="M137.853 2.79688H130.187V37.6169H137.853V2.79688Z" fill="#D1D1D1"/>
<path d="M141.916 37.6169V2.79688H149.588V31.0069H157.582V37.6169H141.916Z" fill="#D1D1D1"/>
<path d="M159.429 37.6169V2.79688H167.095V31.0069H175.093V37.6169H159.429Z" fill="#D1D1D1"/>
<path d="M117.634 17.6409L115.346 17.6129V8.78088H117.622C119.566 8.78088 119.892 10.1129 119.892 13.3009C119.892 16.5949 119.564 17.6409 117.634 17.6409ZM119.564 2.79688H107.874V37.6309H115.37V23.8069H119.564C126.45 23.8069 127.612 19.4189 127.612 13.3009C127.614 7.18487 126.452 2.79688 119.564 2.79688Z" fill="#D1D1D1"/>
<path d="M71.8422 9.43306V16.3331H79.7803V23.1551H71.8422V30.8871L81.2742 30.8831V37.6051L64.1642 37.6131V2.78906H64.1562H80.9642V9.43306H71.8422Z" fill="#D1D1D1"/>
<path d="M48.9624 32.5368V9.56678H43.9424V2.80078H62.1064V9.56678H57.0624V37.5168H54.9104L48.9624 32.5368Z" fill="#D1D1D1"/>
<path d="M52.2162 37.5681L34.5282 22.7461L16.2002 37.5681H52.2162Z" fill="#ADADAD"/>
<path d="M32.572 18.7519L34.53 8.74394L36.478 18.7519H32.572ZM39.574 2.83594H29.442L23.54 29.3219L34.532 20.4479L45.992 30.0519L39.574 2.83594Z" fill="#D1D1D1"/>
</svg>
