<svg width="104" height="40" viewBox="0 0 104 40" fill="none" xmlns="http://www.w3.org/2000/svg">
<g clip-path="url(#clip0_3722_6657)">
<path d="M25.4093 27.7567C24.2603 30.2958 21.6004 33.025 16.8979 33.0392C11.5507 33.0392 7.5945 29.0783 7.5945 23.5575C7.5945 20.86 8.58707 18.3575 10.1995 16.715C12.0232 14.9342 14.1556 14.0033 16.9154 14.0767C21.0355 14.06 24.0581 16.3517 25.4234 19.5975L31.7757 16.0442C28.9702 10.5983 23.1978 7.18583 16.64 7.18583C7.16768 7.18583 0 14.4608 0 23.53C0 32.3583 6.92474 39.925 16.8838 39.925C23.613 39.925 29.0276 36.3058 31.7549 31.2233L25.5524 27.7567H25.4093ZM51.2163 7.22667C40.2289 7.22667 34.3167 15.6075 34.3167 23.4983V23.555C34.3167 31.5167 40.2289 39.8833 51.2163 39.8833C62.2086 39.8833 68.1183 31.5167 68.1183 23.555C68.1183 15.6075 62.2086 7.22667 51.2163 7.22667ZM51.2163 32.9408C46.0587 32.9408 41.8704 28.935 41.8704 23.555V23.4983C41.8704 18.0642 46.0587 14.0583 51.2163 14.0583C56.383 14.0583 60.5646 18.0617 60.5646 23.4983C60.5646 28.935 56.383 32.9408 51.2163 32.9408ZM82.4745 33.1825C82.4745 33.1825 80.2863 33.2025 80.2231 31.2992V0H72.6677V31.2033C72.6677 31.2033 72.0836 38.935 79.5783 38.935V38.9417H85.6086V33.18H82.4745V33.1825ZM99.642 33.1825C99.642 33.1825 97.4522 33.2025 97.3906 31.2992V14.6467H103.462V8.88333H97.3906V0H89.8369V31.2033C89.8369 31.2033 89.3876 38.9558 96.7416 38.935L96.7433 38.9417H104V33.18H99.642V33.1825Z" fill="#D1D1D1"/>
</g>
<defs>
<clipPath id="clip0_3722_6657">
<rect width="104" height="40" fill="white"/>
</clipPath>
</defs>
</svg>
