<svg width="375" height="60" viewBox="0 0 375 60" fill="none" xmlns="http://www.w3.org/2000/svg">
<g clip-path="url(#clip0_3722_6381)">
<path fill-rule="evenodd" clip-rule="evenodd" d="M19.7308 37.5463C17.2166 37.5463 14.8984 37.0983 12.7761 36.2023C10.6543 35.3063 8.80918 34.0823 7.25009 32.5301C5.691 30.9779 4.46645 29.1456 3.57699 27.0336C2.68681 24.9212 2.24609 22.665 2.24609 20.2652V20.1691C2.24609 17.7687 2.67917 15.5207 3.55208 13.4243C4.42572 11.3285 5.65026 9.48796 7.2259 7.90413C8.80099 6.31978 10.6703 5.07199 12.825 4.15999C14.9799 3.24782 17.3635 2.79178 19.9755 2.79178C21.5424 2.79178 22.9715 2.91978 24.261 3.17578C25.5506 3.43178 26.7344 3.79194 27.8115 4.25559C28.8893 4.71977 29.885 5.27216 30.7994 5.91216C31.7132 6.55216 32.5784 7.25614 33.3948 8.02414L29.5257 12.3923C28.1543 11.1445 26.7014 10.1362 25.1666 9.36816C23.6323 8.60016 21.8857 8.21615 19.9266 8.21615C18.2944 8.21615 16.7843 8.52797 15.3963 9.15251C14.009 9.77633 12.8086 10.6245 11.7963 11.6963C10.7846 12.7687 10.0012 14.0245 9.44572 15.4647C8.89063 16.905 8.61337 18.441 8.61337 20.0732V20.1691C8.61337 21.8012 8.89063 23.3454 9.44572 24.8012C10.0012 26.2576 10.7846 27.5296 11.7963 28.6176C12.8086 29.7056 14.009 30.5617 15.3963 31.1861C16.7843 31.8099 18.2944 32.1219 19.9266 32.1219C22.0161 32.1219 23.8121 31.7297 25.3141 30.9457C26.8154 30.1616 28.3012 29.0977 29.7712 27.7537L33.6395 31.5938C32.7577 32.5219 31.8357 33.3459 30.8724 34.0661C29.9092 34.7863 28.8728 35.4101 27.7626 35.9383C26.6524 36.4663 25.4361 36.8664 24.1137 37.1381C22.7912 37.4103 21.3306 37.5463 19.7308 37.5463ZM366.486 2.32812C366.935 2.32812 367.382 2.38501 367.824 2.49897C368.262 2.61132 368.696 2.7811 369.124 3.00635C369.553 3.23266 369.938 3.50931 370.274 3.83393C370.61 4.15837 370.899 4.53278 371.139 4.95464C371.377 5.37491 371.557 5.80476 371.676 6.24262C371.796 6.68422 371.857 7.1326 371.857 7.58664C371.857 8.0382 371.797 8.48423 371.678 8.92209C371.561 9.35605 371.384 9.7813 371.148 10.195C370.913 10.6133 370.628 10.9868 370.296 11.3129C369.964 11.6384 369.583 11.918 369.156 12.1488C368.732 12.3786 368.296 12.5515 367.853 12.6668C367.405 12.7827 366.948 12.8412 366.486 12.8412C366.022 12.8412 365.565 12.7827 365.118 12.6668C364.673 12.552 364.238 12.3787 363.813 12.1484C363.384 11.9175 363.003 11.6384 362.671 11.3137C362.34 10.9904 362.054 10.6169 361.816 10.1961C361.58 9.78078 361.402 9.35393 361.284 8.92068C361.165 8.48264 361.105 8.03767 361.105 7.58664C361.105 7.13224 361.166 6.68265 361.286 6.2423C361.406 5.80479 361.587 5.37384 361.826 4.95464C362.067 4.53384 362.358 4.15889 362.696 3.83285C363.032 3.50876 363.416 3.23213 363.845 3.00635C364.273 2.7811 364.707 2.61132 365.145 2.49897C365.588 2.38555 366.036 2.32812 366.486 2.32812ZM366.486 3.66059C366.147 3.66059 365.812 3.7029 365.486 3.78646C365.156 3.87126 364.827 4.00069 364.505 4.17046C364.188 4.33829 363.904 4.54399 363.656 4.78434C363.407 5.02523 363.191 5.30378 363.011 5.61827C362.83 5.93436 362.693 6.25829 362.603 6.58594C362.513 6.91145 362.468 7.24549 362.468 7.58664C362.468 7.92691 362.513 8.259 362.601 8.58149C362.689 8.90647 362.824 9.22647 363.002 9.53847C363.177 9.84584 363.39 10.1219 363.639 10.365C363.886 10.6067 364.168 10.8138 364.485 10.9863C364.806 11.1601 365.134 11.2922 365.468 11.3793C365.798 11.465 366.138 11.5088 366.486 11.5088C366.832 11.5088 367.172 11.465 367.501 11.3793C367.835 11.2922 368.163 11.1601 368.483 10.9863C368.691 10.8734 368.885 10.7443 369.064 10.6003H367.634L367.07 9.62554C366.882 9.29897 366.713 9.03607 366.565 8.83643C366.424 8.64745 366.305 8.51799 366.211 8.4515L366.202 8.44618C366.148 8.40494 366.078 8.37311 365.996 8.35249C365.901 8.32831 365.785 8.31622 365.651 8.31711L365.384 8.3182V10.5996H363.979V4.71767H366.13C366.807 4.71767 367.304 4.77261 367.622 4.88194C367.794 4.94079 367.949 5.02255 368.084 5.12424C368.22 5.22664 368.34 5.35162 368.442 5.49864C368.542 5.6398 368.617 5.79053 368.667 5.94466C368.719 6.10235 368.745 6.26307 368.745 6.42752C368.745 6.65525 368.702 6.87195 368.617 7.07444C368.532 7.27497 368.406 7.46004 368.239 7.62679C368.074 7.79604 367.878 7.92977 367.656 8.02452L367.567 8.05968C367.686 8.17364 367.814 8.32174 367.952 8.50271C368.09 8.68351 368.243 8.9038 368.408 9.16086L369.233 10.4538L369.329 10.3637C369.577 10.1212 369.789 9.84567 369.964 9.53776C370.141 9.22576 370.275 8.90519 370.362 8.58181C370.449 8.25915 370.493 7.92674 370.493 7.58594C370.493 7.24478 370.448 6.91074 370.359 6.58523C370.269 6.2567 370.133 5.93314 369.953 5.6167C369.774 5.30274 369.559 5.02395 369.311 4.78413C369.062 4.54377 368.776 4.33758 368.458 4.16976C368.135 3.99945 367.806 3.87055 367.477 3.78575C367.152 3.70273 366.822 3.66059 366.486 3.66059ZM365.384 7.06771H366.205C366.66 7.06771 366.958 7.01171 367.099 6.90131C367.162 6.85047 367.21 6.79195 367.24 6.72955C367.27 6.66501 367.286 6.5884 367.286 6.50271C367.286 6.44885 367.278 6.39782 367.264 6.35249C367.249 6.30715 367.227 6.26237 367.198 6.22255C367.167 6.1797 367.13 6.14292 367.088 6.11127C367.048 6.08052 366.997 6.05278 366.939 6.03109C366.88 6.00833 366.785 5.98965 366.658 5.97667C366.523 5.96245 366.35 5.95551 366.138 5.95551H365.384V7.06771ZM254.606 26.0727C254.858 25.9013 255.111 25.7319 255.365 25.5651C258.132 23.7429 260.986 22.1756 263.765 20.925L260.528 14.7199L254.606 26.0727ZM266.106 25.4124C259.412 28.24 253.825 32.267 248.865 36.9703H242.75L260.472 3.12777L278.502 36.9703H272.136L266.106 25.4124ZM60.5085 32.1219C62.1985 32.1219 63.7486 31.8099 65.1697 31.1861C66.5813 30.5617 67.7894 29.7136 68.8021 28.6418C69.8055 27.5698 70.5972 26.3136 71.161 24.8732C71.7321 23.4336 72.0181 21.897 72.0181 20.2652V20.1691C72.0181 18.5367 71.7321 16.9927 71.161 15.5368C70.5972 14.0805 69.7979 12.8165 68.7774 11.7441C67.7492 10.6723 66.5241 9.81616 65.0959 9.17616C63.6595 8.53616 62.0999 8.21615 60.4104 8.21615C58.721 8.21615 57.1697 8.52797 55.7499 9.15251C54.3377 9.77633 53.1296 10.6245 52.1174 11.6963C51.1134 12.7687 50.3217 14.0245 49.7584 15.4647C49.1868 16.905 48.9013 18.441 48.9013 20.0732V20.1691C48.9013 21.8012 49.1868 23.3454 49.7584 24.8012C50.3217 26.2576 51.1217 27.5214 52.1415 28.5938C53.1703 29.6658 54.3948 30.5219 55.8235 31.1619C57.2599 31.8019 58.819 32.1219 60.5085 32.1219ZM60.4104 37.5463C57.7661 37.5463 55.3499 37.0903 53.1621 36.1781C50.9748 35.2659 49.0977 34.0263 47.5299 32.4579C45.9626 30.8897 44.7386 29.0574 43.8566 26.9616C42.9748 24.8652 42.5343 22.6332 42.5343 20.2652V20.1691C42.5343 17.8011 42.9748 15.5685 43.8566 13.4727C44.7386 11.3763 45.9792 9.53652 47.5793 7.95199C49.1786 6.36816 51.0726 5.11177 53.2601 4.18359C55.4479 3.25577 57.8639 2.79178 60.5085 2.79178C63.153 2.79178 65.5695 3.24782 67.7574 4.15999C69.9443 5.07199 71.8217 6.31235 73.389 7.87999C74.9564 9.44835 76.181 11.2805 77.0623 13.3765C77.9441 15.4729 78.3848 17.7047 78.3848 20.0732V20.1691C78.3848 22.5371 77.9441 24.7694 77.0623 26.8654C76.181 28.9618 74.9405 30.8016 73.3401 32.3859C71.7403 33.9697 69.8468 35.2261 67.659 36.1545C65.4712 37.0821 63.0555 37.5463 60.4104 37.5463ZM103.882 37.4985C101.662 37.4985 99.6534 37.1865 97.8577 36.5621C96.0621 35.9383 94.5274 35.0019 93.2537 33.7541C91.9803 32.5059 91.001 30.9617 90.3156 29.1214C89.6301 27.2815 89.2868 25.1454 89.2868 22.7134V3.36778H95.2623V22.473C95.2623 25.6096 96.0374 27.9936 97.5799 29.6259C99.123 31.2576 101.254 32.0739 103.98 32.0739C106.674 32.0739 108.787 31.2899 110.33 29.7216C111.873 28.1534 112.648 25.8176 112.648 22.7134V3.36778H118.623V22.4252C118.623 24.9212 118.273 27.1138 117.57 29.0016C116.868 30.8898 115.881 32.4661 114.607 33.7299C113.334 34.9943 111.791 35.9383 109.979 36.5621C108.167 37.1865 106.135 37.4985 103.882 37.4985ZM145.86 20.0248C148.023 20.0248 149.745 19.5209 151.018 18.505C152.3 17.4967 152.936 16.1209 152.936 14.3849V14.2885C152.936 12.4563 152.316 11.0643 151.067 10.1205C149.827 9.16796 148.072 8.69634 145.811 8.69634H137.019V20.0248H145.86ZM131.044 3.36778H146.324C148.48 3.36778 150.39 3.66394 152.055 4.25559C153.72 4.84777 155.108 5.6718 156.218 6.72797C157.132 7.65633 157.834 8.72812 158.324 9.94412C158.814 11.1601 159.058 12.5047 159.058 13.9767V14.0723C159.058 15.4487 158.854 16.6889 158.446 17.7929C158.038 18.897 157.475 19.8732 156.756 20.7214C156.039 21.5689 155.182 22.289 154.185 22.8812C153.19 23.4734 152.088 23.9294 150.88 24.2494L160.136 36.9703H153.035L144.587 25.2572H144.488H137.019V36.9703H131.044V3.36778ZM179.021 8.83995H168.149V3.36778H195.967V8.83995H185.095V36.9703H179.021V8.83995ZM219.016 23.7212L205.401 3.36778H212.503L222.101 18.249L231.799 3.36778H238.704L225.089 23.5772V36.9703H219.016V23.7212ZM303.339 20.0248C305.502 20.0248 307.224 19.5209 308.497 18.505C309.779 17.4967 310.416 16.1209 310.416 14.3849V14.2885C310.416 12.4563 309.795 11.0643 308.546 10.1205C307.306 9.16796 305.551 8.69634 303.29 8.69634H294.498V20.0248H303.339ZM288.524 3.36778H303.804C305.959 3.36778 307.869 3.66394 309.534 4.25559C311.199 4.84777 312.587 5.6718 313.697 6.72797C314.611 7.65633 315.313 8.72812 315.803 9.94412C316.293 11.1601 316.538 12.5047 316.538 13.9767V14.0723C316.538 15.4487 316.334 16.6889 315.925 17.7929C315.517 18.897 314.954 19.8732 314.236 20.7214C313.518 21.5689 312.66 22.289 311.665 22.8812C310.668 23.4734 309.567 23.9294 308.358 24.2494L317.616 36.9703H310.514L302.066 25.2572H301.967H294.498V36.9703H288.524V3.36778ZM340.811 31.6416C342.607 31.6416 344.239 31.3619 345.708 30.8015C347.177 30.2335 348.426 29.4496 349.455 28.4336C350.483 27.4258 351.283 26.2172 351.854 24.8174C352.427 23.4254 352.712 21.905 352.712 20.2652V20.1691C352.712 18.5287 352.427 17.0007 351.854 15.5927C351.283 14.1767 350.483 12.9607 349.455 11.9523C348.426 10.9363 347.177 10.1442 345.708 9.56017C344.239 8.98417 342.607 8.69634 340.811 8.69634H334.052V31.6416H340.811ZM328.077 3.36778H340.86C343.537 3.36778 345.994 3.79195 348.23 4.63959C350.467 5.48777 352.394 6.66399 354.01 8.16835C355.626 9.67253 356.875 11.4403 357.756 13.4727C358.637 15.5045 359.079 17.7047 359.079 20.0732V20.1691C359.079 22.5371 358.637 24.7452 357.756 26.7937C356.875 28.8417 355.626 30.6176 354.01 32.1219C352.394 33.6261 350.467 34.8099 348.23 35.6741C345.994 36.5385 343.537 36.9703 340.86 36.9703H328.077V3.36778Z" fill="#D1D1D1"/>
<path fill-rule="evenodd" clip-rule="evenodd" d="M226.348 56.0276C227.004 56.0276 227.517 55.9051 227.893 55.6603C228.265 55.4153 228.452 55.0479 228.452 54.5576V54.5268C228.452 54.0678 228.267 53.7129 227.9 53.4626C227.53 53.2127 226.967 53.0877 226.21 53.0877H223.171V56.0276H226.348ZM225.788 51.4946C226.411 51.4946 226.908 51.3748 227.283 51.1348C227.656 50.895 227.843 50.5297 227.843 50.0399V50.0091C227.843 49.5803 227.679 49.2461 227.353 49.0063C227.025 48.7665 226.551 48.6464 225.926 48.6464H223.171V51.4946H225.788ZM221.265 46.9769H226.163C227.421 46.9769 228.371 47.2934 229.017 47.9263C229.504 48.4061 229.749 48.9983 229.749 49.7026V49.7334C229.749 50.0605 229.705 50.3487 229.616 50.5986C229.53 50.8491 229.416 51.0683 229.277 51.2573C229.137 51.4463 228.97 51.6122 228.78 51.7553C228.59 51.8978 228.395 52.0203 228.199 52.1226C228.52 52.2349 228.811 52.365 229.077 52.5131C229.34 52.6614 229.569 52.8372 229.759 53.0413C229.952 53.2459 230.1 53.4858 230.202 53.7615C230.306 54.0371 230.358 54.3586 230.358 54.7259V54.7567C230.358 55.2365 230.262 55.6603 230.069 56.0276C229.876 56.3954 229.606 56.7019 229.251 56.9467C228.898 57.1917 228.47 57.3782 227.973 57.5056C227.473 57.6331 226.92 57.6971 226.319 57.6971H221.265V46.9769ZM237.086 53.4701L232.743 46.9769H235.009L238.071 51.7245L241.164 46.9769H243.368L239.024 53.4242V57.6971H237.086V53.4701ZM255.283 46.9769H257.33L260.657 52.0459L263.986 46.9769H266.032V57.6971H264.126V50.0091L260.673 55.063H260.611L257.189 50.0399V57.6971H255.283V46.9769ZM276.792 53.4399L274.901 49.1514L273.026 53.4399H276.792ZM274.042 46.9003H275.823L280.636 57.6971H278.605L277.495 55.1088H272.323L271.199 57.6971H269.23L274.042 46.9003ZM288.559 52.2909C289.249 52.2909 289.799 52.1302 290.205 51.8061C290.614 51.4847 290.816 51.0458 290.816 50.4918V50.4612C290.816 49.8765 290.619 49.4326 290.221 49.1312C289.825 48.8274 289.265 48.6767 288.544 48.6767H285.739V52.2909H288.559ZM283.832 46.9769H288.708C289.395 46.9769 290.004 47.0712 290.536 47.2601C291.067 47.4491 291.51 47.7122 291.864 48.0488C292.156 48.3451 292.379 48.6873 292.535 49.0747C292.692 49.4628 292.77 49.8916 292.77 50.3613V50.392C292.77 50.831 292.705 51.2265 292.574 51.5789C292.445 51.9311 292.265 52.2426 292.035 52.5131C291.807 52.7837 291.533 53.0136 291.215 53.2025C290.897 53.391 290.546 53.5366 290.16 53.639L293.114 57.6971H290.848L288.153 53.9604H288.122H285.739V57.6971H283.832V46.9769ZM302.115 52.2909C302.806 52.2909 303.355 52.1302 303.761 51.8061C304.17 51.4847 304.373 51.0458 304.373 50.4918V50.4612C304.373 49.8765 304.175 49.4326 303.777 49.1312C303.381 48.8274 302.822 48.6767 302.1 48.6767H299.295V52.2909H302.115ZM297.389 46.9769H302.264C302.951 46.9769 303.561 47.0712 304.092 47.2601C304.623 47.4491 305.066 47.7122 305.42 48.0488C305.712 48.3451 305.936 48.6873 306.092 49.0747C306.248 49.4628 306.326 49.8916 306.326 50.3613V50.392C306.326 50.831 306.261 51.2265 306.131 51.5789C306.001 51.9311 305.822 52.2426 305.592 52.5131C305.363 52.7837 305.089 53.0136 304.771 53.2025C304.454 53.391 304.103 53.5366 303.717 53.639L306.67 57.6971H304.404L301.709 53.9604H301.678H299.295V57.6971H297.389V46.9769ZM311.992 46.9769H313.898V57.6971H311.992V46.9769ZM325.751 56.1506C326.29 56.1506 326.785 56.0507 327.238 55.8518C327.689 55.6527 328.074 55.3821 328.397 55.0399C328.717 54.6982 328.97 54.2971 329.15 53.8379C329.332 53.3784 329.423 52.8886 329.423 52.3675V52.3373C329.423 51.8162 329.332 51.3238 329.15 50.8593C328.97 50.3946 328.715 49.9915 328.389 49.6493C328.061 49.3071 327.67 49.034 327.215 48.8299C326.756 48.6258 326.259 48.5234 325.72 48.5234C325.181 48.5234 324.686 48.6233 324.233 48.8223C323.782 49.0214 323.397 49.2919 323.074 49.6342C322.754 49.9759 322.501 50.377 322.322 50.836C322.139 51.2957 322.048 51.7855 322.048 52.3065V52.3373C322.048 52.8578 322.139 53.3503 322.322 53.8148C322.501 54.2795 322.756 54.6825 323.082 55.0247C323.41 55.367 323.8 55.64 324.257 55.8441C324.715 56.0482 325.212 56.1506 325.751 56.1506ZM325.72 57.8811C324.876 57.8811 324.105 57.7355 323.408 57.4447C322.709 57.1535 322.11 56.7578 321.611 56.2575C321.111 55.7576 320.72 55.1729 320.439 54.5042C320.158 53.8354 320.017 53.1234 320.017 52.3675V52.3373C320.017 51.5814 320.158 50.8694 320.439 50.2006C320.72 49.5318 321.116 48.9448 321.626 48.4393C322.137 47.9339 322.741 47.5332 323.439 47.2374C324.136 46.9412 324.908 46.793 325.751 46.793C326.595 46.793 327.365 46.9385 328.064 47.2294C328.761 47.5206 329.36 47.9163 329.86 48.4166C330.36 48.9165 330.751 49.5012 331.032 50.1698C331.313 50.8386 331.454 51.5506 331.454 52.3065V52.3373C331.454 53.0927 331.313 53.8047 331.032 54.4735C330.751 55.1423 330.355 55.7293 329.844 56.2347C329.335 56.7401 328.73 57.1409 328.032 57.4367C327.334 57.7329 326.564 57.8811 325.72 57.8811ZM337.791 48.7225H334.323V46.9769H343.197V48.7225H339.729V57.6971H337.791V48.7225ZM351.582 48.7225H348.114V46.9769H356.988V48.7225H353.52V57.6971H351.582V48.7225Z" fill="#D1D1D1"/>
<path d="M-29.4746 -178.387V241.214H399.663V-178.387H-29.4746Z" stroke="#D1D1D1" stroke-width="0.755867"/>
</g>
<defs>
<clipPath id="clip0_3722_6381">
<rect width="375" height="60" fill="white"/>
</clipPath>
</defs>
</svg>
