<svg width="332" height="48" viewBox="0 0 332 48" fill="none" xmlns="http://www.w3.org/2000/svg">
<path fill-rule="evenodd" clip-rule="evenodd" d="M1.26367 46.7716H13.3582V33.6763H36.2422V27.4858H13.3582V19.6287H38.258V11.8906H12.528C7.94314 11.8906 1.44153 17.9118 1.44153 23.0216L1.26367 46.7716Z" fill="#D1D1D1"/>
<path fill-rule="evenodd" clip-rule="evenodd" d="M53.7964 12.2734C49.8152 12.2734 43.1309 18.6769 43.1309 22.2734V36.6693C43.1309 40.5109 49.83 46.7734 53.0701 46.7734H76.9949C79.6497 46.7734 86.6851 41.1123 86.6851 36.6693V22.9192C86.6851 18.6133 80.5946 12.2734 76.4346 12.2734H53.7964ZM55.1036 19.8984H75.1274C75.1274 19.8984 75.2835 38.7091 75.1274 39.2943C74.9712 39.8794 55.1036 39.2943 55.1036 39.2943V19.8984Z" fill="#D1D1D1"/>
<path fill-rule="evenodd" clip-rule="evenodd" d="M90.0741 11.7734H103.828L111.417 20.9401L119.836 11.7734H134.183L118.768 29.3928L133.708 46.7734H120.073L111.417 37.1306L103.473 46.7734H89.2441L104.54 29.3928L90.0741 11.7734Z" fill="#D1D1D1"/>
<path fill-rule="evenodd" clip-rule="evenodd" d="M173.43 20.1051H148.292V39.3908H173.43V46.7718H148.292C145.739 46.7718 136.791 40.9765 136.791 36.5337V22.1289C136.791 19.0602 143.984 12.1289 148.292 12.1289H173.548L173.43 20.1051Z" fill="#D1D1D1"/>
<path fill-rule="evenodd" clip-rule="evenodd" d="M227.616 46.7717H239.829V19.9857H259.393V46.7717H271.201V23.5571C271.285 18.9414 265.392 11.8658 259.808 11.95H227.853L227.616 46.7717Z" fill="#D1D1D1"/>
<path d="M324.897 1.22656C325.878 1.22656 326.836 1.47936 327.771 1.98482C328.705 2.49036 329.434 3.21362 329.955 4.15462C330.477 5.09569 330.737 6.07689 330.737 7.09823C330.737 8.10929 330.481 9.08145 329.967 10.0146C329.453 10.9479 328.733 11.6724 327.806 12.1884C326.879 12.7042 325.909 12.9622 324.897 12.9622C323.885 12.9622 322.915 12.7042 321.988 12.1884C321.062 11.6724 320.34 10.9479 319.823 10.0146C319.307 9.08145 319.049 8.10929 319.049 7.09823C319.049 6.07689 319.311 5.09569 319.835 4.15462C320.359 3.21362 321.089 2.49036 322.023 1.98482C322.958 1.47936 323.916 1.22656 324.897 1.22656ZM324.897 2.19869C324.076 2.19869 323.277 2.40996 322.5 2.83256C321.722 3.25509 321.114 3.85911 320.675 4.64457C320.237 5.43011 320.017 6.24796 320.017 7.09823C320.017 7.94336 320.233 8.7535 320.664 9.52856C321.095 10.3037 321.698 10.9077 322.473 11.3407C323.247 11.7736 324.055 11.99 324.897 11.99C325.739 11.99 326.547 11.7736 327.322 11.3407C328.096 10.9077 328.698 10.3037 329.126 9.52856C329.555 8.7535 329.769 7.94336 329.769 7.09823C329.769 6.24796 329.551 5.43011 329.115 4.64457C328.678 3.85911 328.07 3.25509 327.291 2.83256C326.511 2.40996 325.713 2.19869 324.897 2.19869ZM322.333 10.3413V4.02629H324.494C325.233 4.02629 325.767 4.08463 326.098 4.20129C326.428 4.31796 326.692 4.52152 326.888 4.81185C327.084 5.10218 327.182 5.41064 327.182 5.7373C327.182 6.1987 327.018 6.60051 326.69 6.94271C326.362 7.28491 325.927 7.47676 325.385 7.51823C325.607 7.61156 325.785 7.72302 325.92 7.85262C326.173 8.10149 326.482 8.51891 326.849 9.10478L327.616 10.3413H326.376L325.819 9.34583C325.38 8.56296 325.026 8.07298 324.758 7.87598C324.572 7.73078 324.301 7.65824 323.944 7.65824H323.348V10.3413H322.333ZM323.348 6.78719H324.579C325.168 6.78719 325.57 6.69905 325.784 6.52279C325.998 6.34652 326.105 6.11317 326.105 5.82284C326.105 5.63617 326.054 5.46897 325.95 5.32117C325.847 5.17343 325.704 5.06332 325.521 4.99072C325.337 4.91812 324.998 4.88182 324.502 4.88175H323.348V6.78719Z" fill="#D1D1D1"/>
<path fill-rule="evenodd" clip-rule="evenodd" d="M189.525 12.2734C185.544 12.2734 178.859 18.6769 178.859 22.2734V36.6693C178.859 40.5109 185.558 46.7734 188.799 46.7734H212.723C215.378 46.7734 222.414 41.1123 222.414 36.6693V22.9192C222.414 18.6133 216.323 12.2734 212.163 12.2734H189.525ZM190.832 19.8984H210.856C210.856 19.8984 211.012 38.7091 210.856 39.2943C210.7 39.8794 190.832 39.2943 190.832 39.2943V19.8984Z" fill="#D1D1D1"/>
<path fill-rule="evenodd" clip-rule="evenodd" d="M275.934 46.7717H288.146V19.9857H307.711V46.7717H319.519V23.5571C319.603 18.9414 313.709 11.8658 308.126 11.95H276.171L275.934 46.7717Z" fill="#D1D1D1"/>
</svg>
