<svg width="167" height="70" viewBox="0 0 167 70" fill="none" xmlns="http://www.w3.org/2000/svg">
<g clip-path="url(#clip0_3722_6353)">
<path d="M37.8453 6.88413C31.4469 6.88413 27.4989 11.7235 27.4989 19.9708C27.4989 28.1499 31.4469 33.0575 37.8453 33.0575C44.2438 33.0575 48.1918 28.2182 48.1918 19.9708C48.1918 11.7235 44.3119 6.88413 37.8453 6.88413ZM37.8453 31.5579C35.3949 31.5579 34.6461 28.8997 34.6461 19.9026C34.6461 10.9056 35.3949 8.24732 37.8453 8.24732C40.2958 8.24732 41.0445 10.9737 41.0445 19.9708C41.0445 28.8997 40.2958 31.5579 37.8453 31.5579ZM85.0172 43.8949C82.2945 43.8949 80.3204 44.9172 79.1633 46.6894V37.6923H72.2883V54.3914C72.2883 63.4567 67.115 67.7507 62.4182 67.7507C58.9468 67.7507 57.5173 65.3652 57.5173 57.1859C57.5173 49.0068 58.4023 45.3262 61.1931 45.3262C63.0309 45.3262 64.5966 47.0983 66.1621 51.1879H67.8638V45.1218C65.8217 44.3038 63.3031 43.8949 61.3292 43.8949C54.3181 43.8949 50.3701 48.9388 50.3701 57.1859C50.3701 65.3652 54.3181 70 60.9888 70C66.5025 70 70.4505 67.0691 72.2883 62.0935V69.3865H79.1633V50.8472C79.1633 47.9844 80.7288 46.5531 82.3625 46.5531C83.9282 46.5531 84.4727 47.8481 84.4727 49.8246V69.4548H91.3477V51.1198C91.3477 46.0077 88.8291 43.8949 85.0172 43.8949ZM52.4122 0.681598V32.444H59.2872V0.681598H52.4122ZM77.1894 0.681598V9.33788C76.5767 7.83837 75.0791 6.88413 72.6967 6.88413C67.3193 6.88413 63.7117 11.7235 63.7117 19.8345C63.7117 28.1499 66.9109 32.9893 72.4244 32.9893C75.011 32.9893 76.7808 31.7625 77.5977 29.2406V32.3758H83.9962V0.681598H77.1894ZM73.7859 31.0127C71.6077 31.0127 70.8589 28.8316 70.8589 19.7662C70.8589 11.2464 71.6077 8.72445 73.922 8.72445C76.4406 8.72445 77.3255 11.7235 77.3255 19.7662C77.3255 27.8773 76.1683 31.0127 73.7859 31.0127ZM113.674 6.88413C110.611 6.88413 108.365 8.51995 107.412 10.7692C106.459 8.17917 104.553 6.88413 101.83 6.88413C98.9033 6.88413 96.7932 8.17917 95.7722 10.2921V7.49756H89.3736V32.444H96.1806V13.8364C96.1806 10.9737 97.542 9.54236 99.2437 9.54236C100.673 9.54236 101.286 10.7011 101.286 12.6777V32.444H108.161V13.8364C108.161 10.9737 109.522 9.54236 111.224 9.54236C112.653 9.54236 113.266 10.7011 113.266 12.6777V32.444H120.141V14.1091C120.141 8.99708 117.554 6.88413 113.674 6.88413ZM108.025 54.8005L104.077 52.4148C101.422 50.8472 100.469 49.8929 100.469 48.257C100.469 46.4168 101.762 45.2581 103.94 45.2581C106.527 45.2581 108.433 46.962 109.59 51.1198H111.292V44.7127C109.114 44.2357 106.663 43.8266 104.485 43.8266C98.9714 43.8266 95.6361 46.5531 95.6361 50.9835C95.6361 54.0507 97.3377 56.1635 100.809 58.2766L104.077 60.2531C106.799 61.8889 107.752 63.0476 107.752 64.8881C107.752 67.2737 106.255 68.5005 103.668 68.5005C100.469 68.5005 98.631 66.4557 97.4059 61.9572H95.704V68.9776C98.2226 69.6591 100.877 69.9317 103.056 69.9317C109.318 69.9317 112.926 67.0009 112.926 62.0935C112.857 58.7537 111.224 56.7089 108.025 54.8005ZM134.231 6.88413C131.645 6.88413 128.581 7.36124 125.722 8.24732V14.1091H127.424C128.854 10.4284 130.76 8.38365 133.482 8.38365C135.184 8.38365 135.865 9.20156 135.865 11.11V14.3135C135.865 15.8812 135.456 16.3583 133.687 16.9718L131.849 17.5852C126.403 19.4255 123.953 21.811 123.953 26.1051C123.953 30.6719 126.676 33.0575 130.624 33.0575C133.414 33.0575 135.797 31.8306 136.546 29.4449V32.444H142.808V14.3135C142.74 9.40604 139.813 6.88413 134.231 6.88413ZM135.865 25.7643C135.865 29.036 134.776 30.5356 133.074 30.5356C131.44 30.5356 130.896 29.2406 130.896 25.9008V25.2191C130.896 21.3341 131.713 19.7663 133.959 18.6076L135.865 17.6534V25.7643ZM160.642 6.88413C157.647 6.88413 155.469 8.17917 154.38 10.2921V7.49756H147.913V32.444H154.788V13.7683C154.788 10.9056 156.354 9.47419 157.987 9.47419C159.553 9.47419 160.097 10.7692 160.097 12.7459V32.3758H166.972V14.1091C166.972 8.99708 164.454 6.88413 160.642 6.88413ZM24.5719 58.7537C24.5719 65.1607 19.9431 69.4548 12.5236 69.4548H1.63258V58.072H3.26623C4.76376 64.8198 7.5546 67.8189 12.2514 67.8189C16.0632 67.8189 18.1053 65.7741 18.1053 62.4344C18.1053 58.89 15.9271 57.2542 12.7278 55.4137L7.89493 52.5511C3.81079 50.1655 1.49644 47.2346 1.49644 43.1451C1.49644 38.5784 4.15114 35.6475 8.43948 34.4206C2.38134 32.7849 0.203125 27.2638 0.203125 17.4489C0.203125 6.2707 4.83182 0 14.2934 0H23.0744V9.40604H21.3725C19.3305 3.40799 17.5608 1.56767 14.3615 1.56767C9.66474 1.56767 8.37142 6.6115 8.37142 17.7215C8.37142 30.5356 9.5286 33.3982 13.0001 33.3982C15.6548 33.3982 16.9481 31.6943 16.9481 27.6727V22.7654C16.9481 19.7663 15.9952 18.6757 12.864 18.1986V16.631H23.3466V43.4177H21.7811C19.3986 36.6699 16.3355 35.1703 12.9321 35.1703C9.59666 35.1703 7.5546 36.7381 7.5546 39.8053C7.5546 42.6679 9.25631 44.0312 12.4556 45.9396L17.6969 49.0751C21.8491 51.6651 24.5719 54.0507 24.5719 58.7537ZM37.7774 43.8949C35.1906 43.8949 32.1275 44.372 29.2687 45.2581V51.1198H30.9704C32.3998 47.4392 34.3057 45.3944 37.0286 45.3944C38.7302 45.3944 39.4109 46.2122 39.4109 48.1207V51.2561C39.4109 52.8237 39.0025 53.3009 37.2327 53.9144L35.3949 54.5277C29.9493 56.3681 27.4989 58.7537 27.4989 63.0476C27.4989 67.6144 30.2216 70 34.1696 70C36.9604 70 39.3429 68.7731 40.0917 66.3876V69.3865H46.2858V51.3924C46.2858 46.4168 43.2909 43.8949 37.7774 43.8949ZM39.4109 62.775C39.4109 66.0468 38.3219 67.5463 36.62 67.5463C34.9865 67.5463 34.4418 66.2513 34.4418 62.9113V62.2298C34.4418 58.3446 35.2588 56.777 37.5049 55.6183L39.4109 54.664V62.775Z" fill="#CACACA"/>
</g>
<defs>
<clipPath id="clip0_3722_6353">
<rect width="167" height="70" fill="white"/>
</clipPath>
</defs>
</svg>
