<svg width="136" height="81" viewBox="0 0 136 81" fill="none" xmlns="http://www.w3.org/2000/svg">
<path d="M38.1707 29.4204C38.1707 31.0875 38.3509 32.4391 38.6663 33.4303C39.0267 34.4215 39.4772 35.5028 40.1079 36.6742C40.3331 37.0346 40.4232 37.3951 40.4232 37.7104C40.4232 38.161 40.1529 38.6115 39.5673 39.0621L36.7291 40.9543C36.3237 41.2247 35.9182 41.3598 35.5578 41.3598C35.1073 41.3598 34.6568 41.1346 34.2063 40.7291C33.5756 40.0533 33.035 39.3324 32.5845 38.6115C32.134 37.8456 31.6835 36.9896 31.188 35.9533C27.6741 40.0983 23.2592 42.1708 17.9433 42.1708C14.1591 42.1708 11.1408 41.0895 8.93331 38.9269C6.72586 36.7643 5.59961 33.8808 5.59961 30.2765C5.59961 26.4469 6.95111 23.3381 9.69915 20.9953C12.4472 18.6525 16.0962 17.4811 20.7364 17.4811C22.2681 17.4811 23.8448 17.6162 25.5117 17.8415C27.1785 18.0668 28.8904 18.4272 30.6924 18.8327V15.5437C30.6924 12.1196 29.9716 9.73172 28.5751 8.33504C27.1335 6.93836 24.7008 6.26254 21.2319 6.26254C19.6552 6.26254 18.0334 6.44276 16.3665 6.84825C14.6997 7.25374 13.0779 7.74934 11.5012 8.3801C10.7804 8.69548 10.2398 8.87569 9.9244 8.9658C9.60906 9.05591 9.38381 9.10096 9.20361 9.10096C8.57291 9.10096 8.25756 8.65042 8.25756 7.70428V5.49662C8.25756 4.77575 8.34766 4.2351 8.57291 3.91972C8.79816 3.60434 9.20361 3.28896 9.8343 2.97358C11.4111 2.16261 13.3032 1.48679 15.5106 0.94614C17.718 0.360434 20.0606 0.0901085 22.5384 0.0901085C27.8993 0.0901085 31.8187 1.30657 34.3415 3.7395C36.8192 6.17244 38.0806 9.86689 38.0806 14.8229V29.4204H38.1707ZM19.8804 36.2687C21.3671 36.2687 22.8988 35.9984 24.5206 35.4577C26.1424 34.9171 27.584 33.9259 28.8003 32.5742C29.5211 31.7182 30.0617 30.7721 30.332 29.6908C30.6023 28.6095 30.7825 27.3029 30.7825 25.771V23.8788C29.4761 23.5634 28.0795 23.2931 26.6379 23.1128C25.1963 22.9326 23.7998 22.8425 22.4032 22.8425C19.3849 22.8425 17.1774 23.4282 15.6908 24.6447C14.2042 25.8612 13.4834 27.5732 13.4834 29.8259C13.4834 31.9435 14.0239 33.5204 15.1502 34.6017C16.2314 35.728 17.8081 36.2687 19.8804 36.2687ZM56.0556 41.1346C55.2447 41.1346 54.7041 40.9994 54.3437 40.684C53.9833 40.4137 53.6679 39.7829 53.3976 38.9269L42.8109 4.09994C42.5406 3.19885 42.4054 2.61315 42.4054 2.29777C42.4054 1.5769 42.7658 1.17141 43.4866 1.17141H47.9015C48.7575 1.17141 49.3431 1.30657 49.6585 1.62195C50.0189 1.89228 50.2892 2.52304 50.5595 3.37907L58.1278 33.205L65.1556 3.37907C65.3809 2.47799 65.6512 1.89228 66.0116 1.62195C66.372 1.35163 67.0027 1.17141 67.8136 1.17141H71.4176C72.2735 1.17141 72.8592 1.30657 73.2196 1.62195C73.58 1.89228 73.8953 2.52304 74.0755 3.37907L81.1934 33.5654L88.9871 3.37907C89.2574 2.47799 89.5727 1.89228 89.8881 1.62195C90.2485 1.35163 90.8341 1.17141 91.645 1.17141H95.8347C96.5555 1.17141 96.9609 1.53185 96.9609 2.29777C96.9609 2.52304 96.9159 2.74831 96.8708 3.01864C96.8258 3.28896 96.7357 3.6494 96.5555 4.14499L85.6984 38.972C85.4281 39.873 85.1128 40.4587 84.7524 40.7291C84.392 40.9994 83.8063 41.1796 83.0405 41.1796H79.1662C78.3102 41.1796 77.7246 41.0444 77.3642 40.7291C77.0038 40.4137 76.6884 39.828 76.5082 38.9269L69.5255 9.86689L62.5878 38.8818C62.3625 39.7829 62.0922 40.3686 61.7318 40.684C61.3714 40.9994 60.7407 41.1346 59.9298 41.1346H56.0556ZM113.945 42.351C111.602 42.351 109.26 42.0807 107.007 41.54C104.755 40.9994 102.998 40.4137 101.826 39.7379C101.105 39.3324 100.61 38.8818 100.43 38.4764C100.25 38.0709 100.159 37.6203 100.159 37.2148V34.9171C100.159 33.9709 100.52 33.5204 101.196 33.5204C101.466 33.5204 101.736 33.5654 102.007 33.6555C102.277 33.7457 102.682 33.9259 103.133 34.1061C104.664 34.7819 106.331 35.3226 108.088 35.683C109.89 36.0434 111.647 36.2236 113.449 36.2236C116.287 36.2236 118.495 35.728 120.026 34.7368C121.558 33.7457 122.369 32.3039 122.369 30.4567C122.369 29.1952 121.964 28.1589 121.153 27.3029C120.342 26.4469 118.81 25.6809 116.603 24.9601L110.07 22.9326C106.782 21.8964 104.349 20.3645 102.862 18.3371C101.376 16.3547 100.61 14.147 100.61 11.8042C100.61 9.91194 101.015 8.24493 101.826 6.8032C102.637 5.36146 103.718 4.09994 105.07 3.10875C106.421 2.0725 107.953 1.30657 109.755 0.765923C111.557 0.225271 113.449 0 115.431 0C116.422 0 117.459 0.0450543 118.45 0.180217C119.486 0.31538 120.432 0.495597 121.378 0.675814C122.279 0.901085 123.135 1.12636 123.946 1.39668C124.757 1.66701 125.387 1.93733 125.838 2.20766C126.469 2.56809 126.919 2.92853 127.189 3.33402C127.46 3.69445 127.595 4.19005 127.595 4.82081V6.93836C127.595 7.8845 127.234 8.3801 126.559 8.3801C126.198 8.3801 125.613 8.19988 124.847 7.83944C122.279 6.66803 119.396 6.08233 116.197 6.08233C113.629 6.08233 111.602 6.48782 110.206 7.34385C108.809 8.19988 108.088 9.50645 108.088 11.3537C108.088 12.6152 108.539 13.6965 109.44 14.5525C110.341 15.4086 112.008 16.2646 114.395 17.0305L120.792 19.058C124.036 20.0942 126.379 21.5359 127.775 23.3832C129.172 25.2304 129.847 27.3479 129.847 29.6908C129.847 31.6281 129.442 33.3852 128.676 34.9171C127.865 36.4489 126.784 37.8005 125.387 38.8818C123.991 40.0082 122.324 40.8192 120.387 41.4049C118.36 42.0356 116.242 42.351 113.945 42.351Z" fill="#D1D1D1"/>
<path fill-rule="evenodd" clip-rule="evenodd" d="M122.46 64.2398C107.639 75.188 86.1049 81 67.5893 81C41.6406 81 18.2597 71.4034 0.600073 55.4542C-0.796475 54.1927 0.464923 52.4806 2.13177 53.4718C21.233 64.5552 44.7941 71.2682 69.1661 71.2682C85.6093 71.2682 103.674 67.8441 120.298 60.8157C122.776 59.6893 124.893 62.4376 122.46 64.2398Z" fill="#D1D1D1"/>
<path fill-rule="evenodd" clip-rule="evenodd" d="M128.631 57.2166C126.739 54.7837 116.107 56.0452 111.287 56.6309C109.845 56.8111 109.62 55.5496 110.926 54.6034C119.396 48.6563 133.316 50.3683 134.938 52.3507C136.56 54.3782 134.488 68.2999 126.559 74.968C125.342 76.0042 124.171 75.4636 124.712 74.1119C126.514 69.6516 130.523 59.6045 128.631 57.2166Z" fill="#D1D1D1"/>
</svg>
