<svg width="116" height="112" viewBox="0 0 116 112" fill="none" xmlns="http://www.w3.org/2000/svg">
<path fill-rule="evenodd" clip-rule="evenodd" d="M26.8115 17.7773L24.2793 22.9172L33.039 24.8648L35.5289 19.7665L26.8115 17.7773ZM37.438 20.2236L34.9466 25.3627L43.707 27.3518L46.1532 22.2527L37.438 20.2236ZM65.8694 26.771L63.421 31.9101L72.1807 33.9415L74.6698 28.8023L65.8694 26.771ZM76.5375 29.2595L74.0475 34.3971L82.8465 36.3877L85.2948 31.2886L76.5375 29.2595Z" fill="#ADADAD"/>
<path fill-rule="evenodd" clip-rule="evenodd" d="M66.742 62.457C66.2437 62.457 65.7878 62.6648 65.3729 63.0386C65.0393 63.3697 64.7913 63.9078 64.7913 64.4461C64.7913 64.9865 65.0393 65.4415 65.3729 65.856C65.7878 66.1871 66.2437 66.4368 66.742 66.4368C67.3237 66.4368 67.8628 66.1871 68.1943 65.856C68.6092 65.4415 68.7758 64.9865 68.7758 64.4461C68.7758 63.9078 68.6092 63.3697 68.1943 63.0386C67.8628 62.6648 67.3237 62.457 66.742 62.457ZM63.1299 67.4732V69.8357H68.7758H69.8127H77.1186C75.2088 70.2501 73.5086 71.1617 72.2619 72.4456C71.5988 73.1099 70.9759 74.1461 70.3942 75.4727C70.1441 76.0516 69.937 76.6328 69.6889 77.2951C73.7566 77.3377 76.2887 77.5022 77.4094 77.9166C78.1558 78.2071 78.8212 78.6213 79.527 79.119C80.3975 79.7812 80.8544 80.405 80.9785 81.0266H72.7603L69.9796 83.804H79.61C82.431 81.6893 83.8014 79.948 83.8014 78.5382C83.8014 77.9166 83.5113 77.3379 83.013 76.8402C81.8924 75.7209 80.3972 75.0155 78.5301 74.6844C77.5762 74.5178 75.8737 74.394 73.4657 74.394C73.7972 73.939 74.1717 73.3581 74.4625 72.8197C74.9608 72.1981 75.4161 71.9078 75.9571 71.9078C77.2018 71.9078 79.319 72.7362 82.14 74.3533L84.963 71.4929C83.885 70.8307 82.7647 70.2501 81.7254 69.8357H85.9598H100.571H114.684V67.4732H100.571H85.9598H69.8127H68.7758H63.1299ZM65.0398 71.7411V83.804H68.4851V71.7411H65.0398ZM86.5821 71.7411V83.804H90.0682V75.5964C90.9814 75.2226 91.8944 74.9748 92.8504 74.9748C93.8042 74.9748 94.5529 75.2658 95.1326 75.7208C95.8383 76.4664 96.1289 77.6284 96.0049 79.2027L98.9517 76.3424C99.0351 74.8513 98.6612 73.689 97.9148 72.9435C97.2904 72.3625 96.5441 72.0315 95.5902 72.0315C94.677 72.0315 93.6396 72.3218 92.5596 72.9435C91.563 73.3985 90.7332 74.0629 90.0682 74.7251V71.7411H86.5821ZM100.735 71.7411V80.7362C100.735 80.7362 100.819 82.4775 101.982 83.3469C102.769 83.8446 103.89 83.804 103.89 83.804H113.313V74.9748C113.313 74.1033 113.022 73.3576 112.524 72.736C112.068 72.0738 111.446 71.7411 110.697 71.7411H100.735ZM109.238 74.9122C110.139 74.8954 110.075 75.1342 110.075 76.5491V80.5695H104.638C104.638 80.5695 104.098 80.6124 103.974 80.4458C103.809 80.2386 103.89 79.9905 103.89 78.7879V74.9326H108.79C108.961 74.9224 109.109 74.9146 109.238 74.9122Z" fill="#ADADAD"/>
<path fill-rule="evenodd" clip-rule="evenodd" d="M29.0527 65.1504L60.5571 1.36328L60.3497 110.785L51.6753 38.0043L29.0527 65.1504Z" fill="#D1D1D1"/>
<path fill-rule="evenodd" clip-rule="evenodd" d="M42.7907 60.8805C42.5887 60.8878 42.3819 60.9021 42.1691 60.9227L41.0076 63.7001C44.2831 63.1091 45.6817 64.0214 46.9179 67.3887H0.912109V69.7919H11.9948V71.161C11.9948 71.161 7.59309 69.42 3.85893 72.776C0.911875 76.1746 3.40128 79.4924 3.40128 79.4924C3.40128 79.4924 5.80967 78.1655 9.62721 78.7871C13.1966 79.4087 13.0317 81.1073 13.0317 81.1073C13.0317 81.1073 12.5332 83.222 9.66951 82.8076C6.80584 82.3505 7.01344 79.4924 7.01344 79.4924L3.85893 81.6052C3.85893 81.6052 5.05759 83.6429 7.75656 84.2943L10.1679 87.9067H13.7378L10.9843 84.3531C11.296 84.2978 11.6176 84.2269 11.9517 84.1344C18.8831 82.3102 16.4343 77.0872 11.2887 75.7201C7.71722 74.8079 3.85893 76.5483 3.85893 76.5483C3.85893 76.5483 4.35554 72.1543 10.7479 73.1924C14.3174 73.812 15.6047 75.2644 15.6047 75.2644V69.7919H22.7595L19.7561 71.2017C19.7561 71.2017 21.2917 72.9019 21.8306 75.1385C22.2882 77.4604 21.2915 77.8752 20.6691 77.9159C20.2542 77.6274 18.3038 74.8503 18.3038 74.8503L16.9331 76.0512L21.8729 83.8032H25.359C25.359 83.8032 22.1635 79.9476 21.6652 79.2427C22.4839 79.215 23.6112 78.954 24.3523 77.9536C24.8697 78.2229 25.4979 78.4422 26.2312 78.4967C28.4298 78.7039 29.8011 77.6269 29.8011 77.6269V83.8032H33.411V69.7919H41.2236L38.1847 71.2017C38.1847 71.2017 39.8031 72.9019 40.2607 75.1385C40.7163 77.4604 39.7628 77.8752 39.0977 77.9159C38.7662 77.6274 36.7324 74.8503 36.7324 74.8503L35.3617 76.0512L40.2607 83.8032H43.7876C43.7876 83.8032 40.676 79.9476 40.1777 79.2427C41.2983 79.2021 43.1653 78.6635 43.4968 76.0105C43.9811 72.4909 42.4079 70.4008 41.8625 69.7919H46.1529V83.801H49.765V69.7919H51.675V67.3887H49.04C47.5488 62.1765 45.7269 60.7743 42.7907 60.8805ZM23.3969 69.7919H29.8011V73.8546C29.8011 73.8546 29.801 74.9745 27.6004 76.0512C26.672 76.5559 25.7202 76.7512 24.9036 76.8055C24.9741 76.563 25.0318 76.3018 25.0682 76.0105C25.5525 72.4911 23.9519 70.401 23.3969 69.7919Z" fill="#D1D1D1"/>
</svg>
