<svg width="370" height="40" viewBox="0 0 370 40" fill="none" xmlns="http://www.w3.org/2000/svg">
<path fill-rule="evenodd" clip-rule="evenodd" d="M48.3754 28.5306L46.1869 39.0117H36.6216C37.3486 35.5423 38.0775 31.8221 38.9038 28.2726C39.0724 27.5022 39.2598 26.7141 39.4378 25.8547C39.4378 25.2462 39.5259 24.6413 39.6252 24.0346C39.9868 19.7949 36.7996 19.012 33.7117 20.3126C31.8736 21.0047 31.0548 22.2128 30.1573 23.7766C29.3272 25.1626 29.0668 26.4561 28.6902 28.1872L26.3199 39.0117H16.8408L22.3964 13.2137C25.3156 13.1265 28.2255 13.0393 31.1504 12.9593C30.7906 14.5997 30.3334 16.16 30.0599 17.804C33.6199 13.735 38.158 11.6605 43.4569 13.1265C48.7408 14.5125 49.8425 19.5404 49.0087 24.378C48.9057 25.8547 48.7408 27.1482 48.3754 28.5306Z" fill="#D1D1D1"/>
<path fill-rule="evenodd" clip-rule="evenodd" d="M221.252 1.5378H230.551L222.258 39.0944H213.699C214.057 37.7084 214.416 36.3296 214.881 34.9329C213.142 36.4986 211.692 37.792 209.775 38.6638V33.0345C210.504 32.8673 211.242 32.6004 211.872 32.2606C214.617 30.6131 215.692 27.6703 215.692 24.7258L215.516 23.2562C215.338 21.8773 214.705 20.6568 213.054 19.9718C212.155 19.447 210.869 19.447 209.775 19.6249V12.9565C210.317 12.9565 210.774 13.1273 211.242 13.1273C213.88 13.734 216.149 15.3851 217.442 17.8902L221.252 1.5378ZM209.775 38.6638C209.142 39.0108 208.42 39.1816 207.583 39.3488C205.048 39.9537 203.571 40.1299 200.933 39.1816C197.841 38.139 196.297 36.1516 195.111 33.4686C192.378 26.8946 195.374 17.5468 202.119 14.3425C204.304 13.2999 207.126 12.7021 209.775 12.9565V19.6249C209.05 19.7121 208.239 19.9718 207.682 20.3134C206.131 21.2688 205.125 22.6513 204.583 24.2917C203.953 25.9321 203.571 28.2735 204.128 30.001C204.304 30.8693 204.677 31.4849 205.214 31.9955C206.489 33.0345 208.239 33.2925 209.775 33.0345" fill="#D1D1D1"/>
<path fill-rule="evenodd" clip-rule="evenodd" d="M143.972 13.5692L142.061 19.1042C139.423 18.4175 137.499 18.0616 134.772 17.8926C133.944 17.8926 133.322 17.8054 132.687 17.9727C130.761 18.4175 129.938 20.0543 131.401 21.2695C133.217 22.9971 136.412 23.4241 138.688 24.8136C139.245 25.1659 139.876 25.6836 140.51 26.2014C142.318 28.8826 142.061 31.7399 140.152 34.5154C137.137 38.7481 131.401 39.1822 126.206 38.8353C123.38 38.6556 121.008 38.1414 118.179 37.6237L119.921 31.3894C123.38 32.2612 125.572 33.0423 128.833 32.6847C130.304 32.601 132.411 32.6847 132.411 30.7881C132.039 29.4003 130.676 28.5321 129.209 27.9307C127.032 26.9789 124.66 26.3739 122.93 24.7264C121.913 23.344 121.634 22.305 121.634 20.5756C121.634 18.8445 122.194 17.6382 123.013 16.5084C127.669 10.1977 137.242 12.0124 143.972 13.5692Z" fill="#D1D1D1"/>
<path fill-rule="evenodd" clip-rule="evenodd" d="M89.934 12.9561L99.5911 12.7853C98.8641 15.9896 98.1277 19.1903 97.3988 22.5601C96.9566 24.7253 96.0423 27.5026 96.6831 29.6607C97.0522 30.8688 97.4869 31.3047 98.6842 31.6481C100.052 32.0858 101.795 31.8224 102.885 31.0432C106.157 28.7978 107.069 25.0705 107.888 21.4356L109.893 12.7853H119.284L113.443 39.0121C110.713 39.0939 107.976 38.9249 105.15 39.0121C105.422 37.5336 105.795 35.3701 106.157 33.8987C105.15 34.7688 104.337 35.7242 103.241 36.4981C101.879 37.5336 100.232 38.2292 98.5043 38.6634C96.4957 39.0939 93.762 39.0939 91.847 38.3129C89.7466 37.5336 88.2027 35.7242 87.3801 33.7262C86.2896 31.0432 86.7393 29.232 87.2002 26.4564C87.9254 21.9605 88.9353 17.372 89.934 12.9561Z" fill="#D1D1D1"/>
<path fill-rule="evenodd" clip-rule="evenodd" d="M79.1753 1.5378H88.4746L80.0935 39.0944H71.5231C71.8885 37.7084 72.3438 36.3296 72.7017 34.9329C71.0734 36.4986 69.5257 37.792 67.6989 38.6638V33.0345C68.4315 32.8673 69.151 32.6004 69.7993 32.2606C72.43 30.6131 73.5355 27.6703 73.5355 24.7258L73.4305 23.2562C73.2544 21.8773 72.5255 20.6568 70.901 19.9718C69.9679 19.447 68.6975 19.447 67.6989 19.6249V12.9565C68.156 12.9565 68.5982 13.1273 69.151 13.1273C71.7067 13.734 73.9833 15.3851 75.3511 17.8902L79.1753 1.5378ZM67.6989 38.6638C66.9737 39.0108 66.2392 39.1816 65.4991 39.3488C62.964 39.9537 61.4219 40.1299 58.7762 39.1816C55.7539 38.139 54.1144 36.1516 52.9246 33.4686C50.2752 26.8946 53.3125 17.5468 59.9548 14.3425C62.1395 13.2999 65.0532 12.7021 67.6989 12.9565V19.6249C66.88 19.7121 66.1549 19.9718 65.4991 20.3134C64.0545 21.2688 62.964 22.6513 62.4075 24.2917C61.7779 25.9321 61.4219 28.2735 61.9503 30.001C62.1395 30.8693 62.503 31.4849 63.1289 31.9955C64.4199 33.0345 66.0481 33.2925 67.6989 33.0345" fill="#D1D1D1"/>
<path fill-rule="evenodd" clip-rule="evenodd" d="M9.82542 1.53875H19.5743L11.4687 39.0117H1.62793" fill="#D1D1D1"/>
<path fill-rule="evenodd" clip-rule="evenodd" d="M190.643 28.5306L188.355 39.0117H178.698C179.515 35.5423 180.333 31.8221 181.07 28.2726C181.252 27.5022 181.443 26.7141 181.713 25.9455C181.713 25.2462 181.713 24.6413 181.793 24.0346C182.262 19.7949 178.866 19.012 175.868 20.3126C174.137 21.0901 173.318 22.2128 172.411 23.7766C171.506 25.1626 171.225 26.5468 170.954 28.1872L168.484 39.0117H159.192L164.572 13.2137C167.478 13.1265 170.416 13.1265 173.318 12.9593C172.959 14.5997 172.586 16.16 172.217 17.804C175.773 13.735 180.333 11.6605 185.617 13.1265C190.911 14.5125 192.009 19.5404 191.28 24.4687C191.092 25.8547 190.911 27.1482 190.643 28.5306Z" fill="#D1D1D1"/>
<path fill-rule="evenodd" clip-rule="evenodd" d="M151.444 1.53875H161.289L153.183 39.0117H143.327" fill="#D1D1D1"/>
<path fill-rule="evenodd" clip-rule="evenodd" d="M333.893 28.8011L331.62 39.3516H321.959C322.688 35.8074 323.603 31.9982 324.341 28.5342C324.502 27.6713 324.693 26.8973 324.882 26.0273C324.882 25.4206 324.959 24.8157 325.059 24.2001C325.431 19.9603 322.145 19.1935 319.038 20.4816C317.307 21.1844 316.496 22.3925 315.505 23.9528C314.673 25.337 314.403 26.6394 314.039 28.3634L311.654 39.2715H302.179L307.657 13.3027C310.556 13.2155 313.575 13.1283 316.496 13.0429C316.127 14.6851 315.756 16.3362 315.398 17.8929C318.866 13.824 323.603 11.7459 328.802 13.1283C334.262 14.6032 335.265 19.7148 334.538 24.5613C334.438 26.0273 334.167 27.3243 333.893 28.8011Z" fill="#D1D1D1"/>
<path fill-rule="evenodd" clip-rule="evenodd" d="M344.836 1.53983H354.401L349.477 23.8667L359.146 13.1294H369.893L358.604 24.9893L365.7 39.1836H355.49L349.213 25.4199L346.202 39.1836H336.818" fill="#D1D1D1"/>
<path fill-rule="evenodd" clip-rule="evenodd" d="M300.457 25.4188C299.637 29.1408 298.818 32.7757 298.076 36.4141L297.72 39.3497H289.79L290.349 35.3715C288.981 36.6667 287.514 37.7929 285.97 38.5758V34.0745C286.052 33.9873 286.23 33.9873 286.408 33.8948C287.426 33.3806 288.158 33.0354 288.696 32.5106C289.976 31.2189 290.62 29.2351 291.149 27.584H289.79C288.619 27.584 287.238 27.504 285.97 27.584V23.2571C287.875 23.0863 290.066 23.1663 292.245 23.1663C292.245 20.9121 291.338 19.1917 288.878 18.6775C287.787 18.4996 286.792 18.4996 285.97 18.4996V13.1282C291.894 12.4433 298.183 13.3916 300.369 18.4996C301.454 21.0918 300.83 22.7358 300.457 25.4188ZM285.97 38.5758C284.508 39.2696 282.861 39.7073 281.317 39.871C277.757 40.2144 274.027 38.6647 272.479 35.5441C271.377 33.8111 271.664 31.9128 272.104 29.9254C272.573 28.0217 273.489 26.9791 275.839 25.4188C279.217 23.8656 282.515 23.3407 285.97 23.2571V27.584C284.598 27.6712 283.232 28.0217 282.322 28.6302C280.502 29.9254 279.781 32.3487 281.771 33.8111C282.957 34.5886 284.598 34.5157 285.97 34.0745V38.5758ZM285.97 18.4996C284.684 18.4996 283.586 18.5832 282.142 18.9337C280.502 19.2753 279.316 19.7966 277.757 20.4816L278.852 14.4306C281.051 13.9164 283.399 13.3916 285.97 13.1282" fill="#D1D1D1"/>
<path fill-rule="evenodd" clip-rule="evenodd" d="M253.704 4.56852H258.714C263.099 4.56852 269.839 5.17344 271.098 10.0199C271.377 10.7992 271.465 11.5714 271.465 12.3488V12.4431C271.465 15.288 270.019 17.8038 267.285 19.542C265.364 20.3996 263.736 20.8355 261.821 21.3532C266.732 22.1307 269.934 25.335 268.924 30.443C267.453 37.5348 260.446 38.6539 253.704 39.0952V32.8681C254.066 32.8681 254.44 32.7755 254.71 32.6848C260.354 31.8219 261.624 25.5912 256.262 24.4704C255.428 24.2924 254.622 24.1981 253.704 24.2924V18.7503C254.798 18.7503 255.984 18.6631 256.979 18.4995C259.994 17.8038 263.995 14.8646 260.712 11.5714C259.344 10.1978 256.072 10.3651 253.704 10.5359V4.56852ZM244.592 4.56852H253.704V10.5359H252.882L250.963 18.6631C251.787 18.6631 252.801 18.7503 253.704 18.7503V24.2924C252.426 24.2924 251.058 24.4704 249.784 24.5593L247.871 33.2061C249.503 33.1189 251.703 33.1189 253.704 32.8681V39.0952C253.151 39.1824 252.533 39.1824 251.962 39.2695H237.206" fill="#D1D1D1"/>
</svg>
