<svg width="341" height="69" viewBox="0 0 341 69" fill="none" xmlns="http://www.w3.org/2000/svg">
<path fill-rule="evenodd" clip-rule="evenodd" d="M38.4068 4.98234C54.75 4.98234 68.004 18.2256 68.004 34.5544C68.004 50.7411 54.9785 63.8928 38.8319 64.1207L52.4948 39.4698H61.7976L66.8337 30.3796H57.5329H52.1813H43.4492L38.4135 39.4698H47.1428L33.6855 63.7494C19.5864 61.4893 8.80963 49.2778 8.80963 34.5544C8.80963 21.202 17.6736 9.91316 29.8407 6.24174L16.4624 30.3796H16.4598L11.4241 39.4698H16.7759H34.8081L39.8443 30.3796H21.8142L35.8286 5.09483C36.6783 5.02142 37.5376 4.98234 38.4068 4.98234ZM38.4068 0.671684C57.1321 0.671684 72.3188 15.8445 72.3188 34.5544C72.3188 53.2637 57.1321 68.4375 38.4068 68.4375C19.6811 68.4375 4.49512 53.2637 4.49512 34.5544C4.49512 15.8445 19.6811 0.671684 38.4068 0.671684Z" fill="#ADADAD"/>
<path d="M86.8633 43.6289H99.5806L100.338 40.2358H92.1647L95.4466 25.4788H90.9023L86.8633 43.6289ZM114.131 38.9162L114.573 43.6289H119.338L116.846 25.4788H111.007L100.651 43.6289H105.485L108.009 38.9162H114.131ZM109.335 35.954L111.449 32.0494C112.018 30.9993 112.617 29.5988 113.153 28.4948H113.216C113.311 29.5988 113.437 31.0527 113.532 32.0494L113.942 35.954H109.335ZM121.077 43.6289H125.59L127.168 36.4655H128.557C130.355 36.4655 131.239 37.1387 131.428 39.3471C131.649 41.5823 131.87 43.144 132.059 43.6289H136.73C136.351 42.8749 136.162 40.5051 135.91 38.4853C135.688 36.8428 135.152 35.6312 133.89 35.1732V35.0654C136.603 34.3113 138.718 32.6415 138.718 29.9487C138.718 28.2522 137.74 27.0943 136.351 26.3941C134.868 25.6133 132.785 25.3439 130.766 25.3439C128.651 25.3439 126.505 25.5327 125.085 25.8287L121.077 43.6289ZM128.967 28.5487C129.345 28.4681 129.882 28.4138 130.734 28.4138C132.533 28.4138 133.984 29.0602 133.984 30.514C133.984 32.2916 132.186 33.5572 129.724 33.5572H127.831L128.967 28.5487ZM138.31 42.6055C139.32 43.2516 141.434 43.8758 144.401 43.9294C149.134 43.9294 153.048 41.8247 153.048 37.7852C153.048 35.6312 151.407 34.1497 148.819 32.9918C147.021 32.13 145.726 31.4841 145.726 30.4335C145.726 29.4367 146.831 28.5215 148.945 28.5215C150.712 28.4948 152.227 29.0063 152.921 29.3295L154.342 26.1252C153.426 25.6671 151.912 25.1823 149.324 25.1823C144.685 25.1823 140.929 27.4175 140.929 31.0799C140.929 33.4499 143.075 34.85 145.348 35.9001C147.304 36.762 148.219 37.4351 148.219 38.4585C148.219 39.8857 146.61 40.5859 144.843 40.5859C142.887 40.5859 141.088 40.0742 139.825 39.4277L138.31 42.6055ZM168.987 32.6687H161.413L162.297 28.7908H170.312L171.07 25.4788H158.478L154.439 43.6289H167.472L168.198 40.3165H159.709L160.687 35.9273H168.261L168.987 32.6687ZM174.418 43.6289L175.806 37.2737C176.437 34.419 176.942 31.8607 177.195 30.0836L177.289 30.0564C177.857 32.2916 178.425 33.9343 179.372 36.3849L182.338 43.6289H187.041L191.048 25.4788H186.82L185.368 32.0766C184.768 34.7422 184.484 36.7352 184.39 38.5929H184.295C183.79 36.6004 183.222 34.7155 182.37 32.3993L179.561 25.4788H174.228L170.189 43.6289H174.418ZM215.098 43.6289C213.899 42.444 212.826 41.2592 212.005 40.2358C214.436 38.2971 215.887 35.954 217.023 33.1806H212.857C212.195 34.7961 211.28 36.4655 209.923 37.7852C209.071 36.7888 207.903 35.442 207.082 34.3113V34.2308C210.491 32.8841 212.353 31.3225 212.353 29.2218C212.353 26.7983 210.144 25.1823 206.956 25.1823C203.044 25.1823 200.298 27.4447 200.298 30.3796C200.298 31.4841 200.803 32.5342 201.466 33.4499L201.434 33.5305C198.689 34.6073 196.322 36.3577 196.322 39.1318C196.322 42.0671 198.941 43.9294 202.886 43.9294C205.442 43.9294 207.241 43.2516 208.566 42.3902C208.976 42.8209 209.291 43.2248 209.733 43.6289H215.098ZM204.148 41.0168C202.033 41.0168 200.929 39.8586 200.929 38.4585C200.929 37.0852 202.065 36.1961 203.012 35.6041C204.243 37.2467 205.694 38.9434 206.767 40.155C206.136 40.6399 205.315 41.0168 204.18 41.0168H204.148ZM206.578 27.6868C207.776 27.6868 208.314 28.4138 208.314 29.2484C208.314 30.5951 206.956 31.5913 205.315 32.2377C204.748 31.5647 204.369 30.8377 204.369 30.0026C204.369 28.6831 205.347 27.6868 206.546 27.6868H206.578ZM226.588 43.6289H231.133L234.383 28.8719H240.064L240.821 25.4788H225.01L224.222 28.8719H229.839L226.588 43.6289ZM250.859 25.1823C247.798 25.1823 245.084 26.1519 243.096 27.7679C240.603 29.8143 239.183 33.0724 239.183 36.3577C239.183 40.5859 242.275 43.9294 247.798 43.9294C250.986 43.9294 253.668 42.9555 255.656 41.313C258.086 39.2662 259.442 36.0617 259.442 32.7492C259.442 28.4138 256.476 25.1823 250.859 25.1823ZM250.323 28.4138C253.668 28.4138 254.615 30.5951 254.615 32.8574C254.615 34.9577 253.699 37.9468 252.027 39.3743C251.049 40.1818 249.786 40.6933 248.461 40.6933C245.368 40.6933 244.011 38.7817 244.011 36.2233C244.011 34.042 244.958 31.2415 246.662 29.7871C247.64 28.9529 248.903 28.4138 250.323 28.4138ZM263.895 25.4788L261.655 35.6041C261.465 36.4655 261.339 37.3543 261.339 38.1353C261.339 42.0131 264.022 43.9566 268.408 43.9294C274.183 43.9294 277.023 41.2859 278.254 35.7924L280.557 25.4788H276.013L273.677 35.954C272.921 39.3203 271.343 40.6667 268.976 40.6667C266.925 40.6667 265.884 39.5357 265.884 38.0813C265.884 37.2737 265.946 36.5464 266.104 35.9273L268.439 25.4788H263.895ZM280.087 43.4132C281.128 43.602 283.053 43.7681 285.451 43.7681C288.986 43.7681 291.668 43.3058 293.467 42.2824C295.14 41.3398 296.371 39.9126 296.371 37.9736C296.371 35.9811 295.076 34.5539 293.025 34.0148V33.9342C295.329 33.3689 297.317 31.915 297.317 29.626C297.317 28.0906 296.276 26.9327 294.856 26.3135C293.436 25.5866 291.794 25.3439 289.585 25.3439C287.471 25.3439 285.514 25.5327 284 25.7749L280.087 43.4132ZM287.913 28.4948C288.26 28.4138 288.892 28.3604 289.68 28.3604C291.416 28.3604 292.678 28.9253 292.678 30.2452C292.678 31.7801 290.974 32.6958 288.481 32.6958H286.967L287.913 28.4948ZM286.272 35.523H287.692C289.806 35.523 291.574 36.0617 291.574 37.866C291.574 39.8857 289.334 40.7207 286.872 40.7207C286.209 40.7207 285.672 40.6933 285.136 40.6399L286.272 35.523ZM297.856 43.6289H302.37L303.947 36.4655H305.336C307.135 36.4655 308.018 37.1387 308.207 39.3471C308.429 41.5823 308.649 43.144 308.838 43.6289H313.509C313.13 42.8749 312.941 40.5051 312.689 38.4853C312.467 36.8428 311.931 35.6312 310.669 35.1732V35.0654C313.383 34.3113 315.498 32.6415 315.498 29.9487C315.498 28.2522 314.519 27.0943 313.13 26.3941C311.647 25.6133 309.564 25.3439 307.545 25.3439C305.43 25.3439 303.285 25.5327 301.864 25.8287L297.856 43.6289ZM305.746 28.5487C306.125 28.4681 306.661 28.4138 307.513 28.4138C309.312 28.4138 310.763 29.0602 310.763 30.514C310.763 32.2916 308.965 33.5572 306.503 33.5572H304.609L305.746 28.5487ZM328.281 25.1823C325.22 25.1823 322.506 26.1519 320.518 27.7679C318.024 29.8143 316.604 33.0724 316.604 36.3577C316.604 40.5859 319.696 43.9294 325.22 43.9294C328.407 43.9294 331.089 42.9555 333.077 41.313C335.507 39.2662 336.864 36.0617 336.864 32.7492C336.864 28.4138 333.898 25.1823 328.281 25.1823ZM327.744 28.4138C331.089 28.4138 332.036 30.5951 332.036 32.8574C332.036 34.9577 331.121 37.9468 329.449 39.3743C328.47 40.1818 327.207 40.6933 325.882 40.6933C322.789 40.6933 321.433 38.7817 321.433 36.2233C321.433 34.042 322.379 31.2415 324.084 29.7871C325.061 28.9529 326.324 28.4138 327.744 28.4138Z" fill="#D1D1D1"/>
</svg>
