<svg width="325" height="40" viewBox="0 0 325 40" fill="none" xmlns="http://www.w3.org/2000/svg">
<g clip-path="url(#clip0_3722_6397)">
<mask id="mask0_3722_6397" style="mask-type:luminance" maskUnits="userSpaceOnUse" x="0" y="0" width="325" height="40">
<path d="M324.972 0H0V39.5535H324.972V0Z" fill="white"/>
</mask>
<g mask="url(#mask0_3722_6397)">
<path fill-rule="evenodd" clip-rule="evenodd" d="M69.6542 10.6H91.7765C96.7933 10.6 100.903 14.5628 100.903 19.4V39.5535H67.8222C64.8094 39.6 62.3265 37.2047 62.2661 34.1907V27.214C62.3405 24.4233 64.6373 22.2047 67.4317 22.2326H85.7833L83.8398 26.2837H70.3562C69.7239 26.2558 69.1753 26.7256 69.1102 27.3581V32.8651C69.1753 33.4977 69.7239 33.9674 70.3562 33.9395H93.7758V20.7302C93.7758 18.1674 91.4929 16.214 88.9589 16.214H66.976L69.6542 10.6ZM251.45 0.0697674V39.5535H219.201C216.183 39.6093 213.686 37.214 213.621 34.1953V19.4C213.621 14.5628 217.727 10.6 222.748 10.6H241.128L238.422 16.214H225.589C223.055 16.214 220.772 18.1674 220.772 20.7302V32.8651C220.837 33.4977 221.386 33.9674 222.018 33.9395H244.299V0.0697674H251.45ZM138.113 39.5488H145.26V19.4C145.26 14.5628 141.154 10.6 136.133 10.6H120.975L118.279 16.214H133.296C135.835 16.214 138.113 18.1674 138.113 20.7302V39.5488ZM108.389 0.0697674V39.5535H115.535V0.0697674H108.389ZM48.8104 39.5535H55.9567V19.4C55.9567 14.5628 51.8512 10.6 46.8298 10.6H0V39.5535H7.14628V17.2884C7.21602 16.6558 7.76001 16.186 8.397 16.214H23.1592C23.7915 16.186 24.3401 16.6558 24.4052 17.2884V39.5535H31.5515V17.2884C31.6166 16.6558 32.1652 16.1814 32.8022 16.214H43.9936C46.5322 16.214 48.8104 18.1674 48.8104 20.7302V39.5535ZM288.748 10.6H270.819C265.798 10.6 261.692 14.5628 261.692 19.4V39.5535H268.829V20.7302C268.829 18.1674 271.108 16.214 273.646 16.214H286.033L288.748 10.6ZM197.297 10.6C202.318 10.6 206.428 14.5628 206.428 19.4V39.5535H199.282V20.7302C199.282 18.1674 196.999 16.214 194.465 16.214H177.299V39.5535H170.148V10.614C179.178 10.614 188.226 10.614 197.297 10.6ZM154.131 12.4279L161.277 8.35814V39.5535H154.131V12.4279ZM161.277 4.28837V0H154.131V8.37209L161.277 4.28837ZM293.723 10.6H315.845C320.867 10.6 324.972 14.5628 324.972 19.4V39.5535H291.891C288.873 39.6093 286.377 37.214 286.312 34.1953V27.214C286.386 24.4186 288.687 22.2 291.482 22.2326H309.829L307.908 26.2837H294.402C293.769 26.2558 293.221 26.7256 293.156 27.3581V32.8651C293.221 33.4977 293.769 33.9674 294.402 33.9395H317.821V20.7302C317.821 18.1674 315.538 16.214 313.004 16.214H291.045L293.723 10.6Z" fill="#D1D1D1"/>
</g>
</g>
<defs>
<clipPath id="clip0_3722_6397">
<rect width="325" height="40" fill="white"/>
</clipPath>
</defs>
</svg>
