<svg width="110" height="40" viewBox="0 0 110 40" fill="none" xmlns="http://www.w3.org/2000/svg">
<path fill-rule="evenodd" clip-rule="evenodd" d="M101.875 23.7778C101.875 27.7166 98.8854 31.6015 94.3004 31.6015C89.9089 31.6015 86.727 28.2213 86.727 23.7778C86.727 18.8504 90.3591 15.9241 94.2085 15.9241C98.9852 15.9241 101.875 19.8375 101.875 23.7778ZM101.3 9.87465V11.4695C98.9932 9.60964 96.1315 8.62891 93.0131 8.62891C85.1162 8.62891 78.9301 15.2829 78.9316 23.7778C78.9316 27.5706 80.2317 31.1841 82.5971 33.9565C85.2114 37.032 89.2589 38.868 93.4253 38.868C96.4106 38.868 99.0598 37.9143 101.3 36.0322V37.6223C101.3 37.9809 101.587 38.2729 101.942 38.2729H108.16C108.331 38.2717 108.495 38.2025 108.615 38.0805C108.736 37.9585 108.803 37.7937 108.802 37.6223V9.87465C108.803 9.70321 108.736 9.53842 108.615 9.41645C108.495 9.29447 108.331 9.22527 108.16 9.22401H101.942C101.771 9.22527 101.607 9.29447 101.487 9.41645C101.366 9.53842 101.299 9.70321 101.3 9.87465Z" fill="#D1D1D1"/>
<path fill-rule="evenodd" clip-rule="evenodd" d="M37.9378 14.9839C40.3793 14.9839 43.1854 16.8628 43.5088 19.9034H31.8974C32.2652 17.523 34.6544 14.9839 37.9378 14.9839ZM37.9378 8.58219C33.9331 8.58219 30.3184 10.1961 27.7595 13.1272C25.318 15.9234 23.9736 19.6892 23.9736 23.7311C23.9736 32.618 30.1503 38.8229 38.9968 38.8229C42.8858 38.8229 46.7145 37.3915 49.4144 35.0032C49.5349 34.8953 49.6776 34.7588 49.8234 34.6096C49.9335 34.4985 50.0001 34.3516 50.0111 34.1955C50.0222 34.0394 49.977 33.8845 49.8837 33.759L46.7985 29.6441C46.7447 29.5715 46.676 29.5112 46.5971 29.4672C46.5182 29.4233 46.4308 29.3967 46.3408 29.3892C46.2508 29.3817 46.1602 29.3934 46.0751 29.4237C45.99 29.454 45.9124 29.502 45.8473 29.5647C45.6697 29.7361 45.4573 29.9297 45.2353 30.1138C43.9591 31.158 41.8917 32.4196 39.1728 32.4196C35.1078 32.4196 31.9814 29.6663 31.5407 25.7116H50.5083C50.7365 25.7111 50.9563 25.6257 51.125 25.472C51.2938 25.3184 51.3995 25.1074 51.4215 24.8801C51.4681 24.3996 51.4908 23.9171 51.4897 23.4344C51.4897 19.4559 50.1389 15.7425 47.6879 12.978C46.4722 11.5889 44.9725 10.4775 43.2903 9.71908C41.6081 8.96066 39.7827 8.57295 37.9378 8.58219Z" fill="#D1D1D1"/>
<path fill-rule="evenodd" clip-rule="evenodd" d="M65.6582 31.3805L65.6709 27.2291C65.6741 25.5358 66.0244 23.6458 66.6744 21.7177C67.4116 19.5229 68.4723 17.6567 69.6455 16.2998L71.437 13.9766V23.6855L65.6582 31.3821V31.3805Z" fill="#7A7A7A"/>
<path fill-rule="evenodd" clip-rule="evenodd" d="M71.4375 13.9735L75.2424 9.03814C75.3834 8.84595 75.584 8.7059 75.8129 8.63987C76.0418 8.57383 76.286 8.58554 76.5076 8.67315C76.7356 8.7675 76.9297 8.92891 77.0642 9.13604C77.1987 9.34317 77.2672 9.58627 77.2606 9.8332L77.2321 15.9651L71.4375 23.6824V13.9735Z" fill="#ADADAD"/>
<path fill-rule="evenodd" clip-rule="evenodd" d="M77.2321 15.9648L77.2162 19.4879C77.2749 21.297 76.9753 23.379 76.265 25.4881C75.615 27.4178 74.7684 29.1111 73.7633 30.4108L71.4375 33.4402V23.6837L77.2321 15.9664V15.9648Z" fill="#7A7A7A"/>
<path fill-rule="evenodd" clip-rule="evenodd" d="M71.4389 23.6836V33.4433L67.6609 38.3628C67.5196 38.5555 67.3185 38.696 67.0891 38.7623C66.8596 38.8286 66.6147 38.8171 66.3926 38.7294C66.1647 38.6345 65.9708 38.4727 65.8367 38.2653C65.7025 38.0579 65.6343 37.8147 65.6411 37.5677L65.6601 31.3803L71.4389 23.6836Z" fill="#D1D1D1"/>
<path fill-rule="evenodd" clip-rule="evenodd" d="M64.8387 31.3805L64.8276 27.2291C64.8244 25.5358 64.474 23.6458 63.8256 21.7177C63.0868 19.5229 62.0278 17.6567 60.853 16.2998L59.0615 13.9766V23.6855L64.8387 31.3805Z" fill="#7A7A7A"/>
<path fill-rule="evenodd" clip-rule="evenodd" d="M59.0618 13.974L55.2569 9.03863C55.1158 8.84609 54.915 8.70581 54.6858 8.63977C54.4565 8.57372 54.2119 8.58563 53.9902 8.67363C53.7625 8.76842 53.5689 8.92998 53.4348 9.13705C53.3006 9.34411 53.2323 9.58698 53.2387 9.83369L53.2657 15.9656L59.0603 23.6829L59.0618 13.974Z" fill="#ADADAD"/>
<path fill-rule="evenodd" clip-rule="evenodd" d="M53.2672 15.9648L53.2831 19.4879C53.2244 21.297 53.524 23.3774 54.2343 25.4897C54.8843 27.4178 55.7325 29.1126 56.736 30.4108L59.0618 33.4386V23.6821L53.2672 15.9648Z" fill="#7A7A7A"/>
<path fill-rule="evenodd" clip-rule="evenodd" d="M59.0621 23.6836V33.4433L62.8401 38.3628C62.9814 38.5555 63.1824 38.696 63.4119 38.7623C63.6413 38.8286 63.8863 38.8171 64.1084 38.7294C64.3363 38.6345 64.5301 38.4727 64.6643 38.2653C64.7984 38.0579 64.8667 37.8147 64.8599 37.5677L64.8393 31.3803L59.0621 23.6836Z" fill="#D1D1D1"/>
<path fill-rule="evenodd" clip-rule="evenodd" d="M18.9673 31.8242C17.2234 31.8242 15.9773 31.2847 15.137 30.2309C14.5076 29.4406 14.2127 28.3822 14.2127 26.6429V15.9263H22.2475C22.3285 15.9259 22.4086 15.9095 22.4832 15.8781C22.5579 15.8467 22.6257 15.8008 22.6826 15.7432C22.7396 15.6856 22.7847 15.6173 22.8153 15.5423C22.8459 15.4672 22.8614 15.3868 22.861 15.3058V9.79909C22.8614 9.71802 22.8459 9.63767 22.8153 9.56261C22.7847 9.48755 22.7396 9.41927 22.6826 9.36165C22.6257 9.30403 22.5579 9.25821 22.4832 9.2268C22.4086 9.19539 22.3285 9.17901 22.2475 9.1786H14.2143V1.78346C14.2149 1.69851 14.1988 1.61426 14.1669 1.53556C14.1349 1.45685 14.0878 1.38523 14.0281 1.32479C13.9685 1.26435 13.8975 1.21628 13.8193 1.18334C13.741 1.1504 13.6571 1.13323 13.5722 1.13281H7.05944C6.97457 1.13323 6.89061 1.1504 6.81238 1.18334C6.73415 1.21628 6.66318 1.26435 6.60354 1.32479C6.54389 1.38523 6.49675 1.45685 6.4648 1.53556C6.43285 1.61426 6.41673 1.69851 6.41736 1.78346V9.1786H1.84033C1.66906 9.17986 1.50527 9.24906 1.3849 9.37104C1.26453 9.49301 1.19741 9.6578 1.19825 9.82924V15.2772C1.19825 15.6359 1.48679 15.9279 1.84033 15.9279H6.41736V25.9367C6.41736 30.0262 7.05468 32.6241 8.54971 34.622C10.5853 37.3706 14.0256 38.8226 18.4964 38.8226C21.9415 38.8226 24.1436 37.9974 25.3311 37.0548C25.6735 36.7818 25.7433 36.1693 25.5419 35.8789C24.5954 34.385 23.6547 32.8875 22.7199 31.3862C22.4805 30.9927 21.97 30.9022 21.542 31.1387C20.9617 31.4592 19.8535 31.8242 18.9673 31.8242Z" fill="#D1D1D1"/>
</svg>
