<svg width="138" height="48" viewBox="0 0 138 48" fill="none" xmlns="http://www.w3.org/2000/svg">
<mask id="mask0_3722_6077" style="mask-type:luminance" maskUnits="userSpaceOnUse" x="0" y="0" width="138" height="48">
<path d="M129.636 4.58748C129.636 6.67871 131.236 8.46316 133.468 8.46316C135.577 8.46316 137.24 6.67871 137.24 4.58748C137.24 2.48866 135.577 0.847031 133.468 0.847031C131.236 0.847031 129.636 2.48866 129.636 4.58748ZM54.5059 4.58451V14.099C52.3996 13.1468 49.2111 12.2629 46.1403 12.2629C37.9092 12.2629 33.1815 17.1395 32.4738 25.0123C32.2843 27.3025 32.2843 31.8069 32.4738 34.0288C33.1815 41.8257 38.4121 47.1016 47.036 47.1016C53.2281 47.1016 58.399 44.3649 60.0636 43.153C61.0877 42.462 61.2818 41.7604 61.2818 40.6168V4.58451C61.2818 2.68312 59.8053 1.15681 57.89 1.15681C56.0451 1.15681 54.5059 2.68312 54.5059 4.58451ZM39.2375 33.195C39.0541 31.2298 39.1137 27.4923 39.2375 25.7717C39.5019 21.1458 41.7993 18.7295 46.6508 18.7295C49.9784 18.7295 53.1684 19.8761 54.5059 20.7023V38.3342C53.228 39.2925 49.9127 40.6168 47.1629 40.6168C42.2426 40.6168 39.6288 38.0821 39.2375 33.195ZM98.3622 15.7484C97.4099 16.3877 97.014 17.024 97.014 18.3483V43.2806C97.014 45.1865 98.6128 46.7143 100.407 46.7143C102.316 46.7143 103.793 45.1865 103.793 43.2806V20.5155C105.25 19.6225 108.258 18.7295 111.381 18.7295C115.347 18.7295 118.802 20.8921 118.802 25.9691V43.2806C118.802 45.1865 120.391 46.7143 122.18 46.7143C124.165 46.7143 125.568 45.1865 125.568 43.2806V25.6487C125.568 17.0787 120.838 12.2629 111.581 12.2629C104.877 12.2629 100.212 14.3573 98.3622 15.7484ZM69.5052 14.1582C67.7826 14.9252 67.2644 16.1933 67.2644 17.2761C67.2644 19.2413 69.1231 20.7023 71.9325 19.8108C73.7224 19.176 76.2781 18.4166 78.8949 18.4166C83.8687 18.4166 85.9827 20.2573 85.9827 24.5704V26.6601C83.0418 25.9691 80.8637 25.5909 77.8678 25.5909C68.9305 25.5909 64.9044 30.6041 64.9044 36.1199C64.9044 42.3389 69.2423 47.1016 77.9931 47.1016C84.6376 47.1016 89.4952 44.743 91.2866 43.5433C92.2404 42.9039 92.4942 42.2145 92.4942 41.0679V24.5704C92.4942 16.0019 87.447 12.2629 79.274 12.2629C75.3885 12.2629 71.3593 13.2698 69.5052 14.1582ZM71.5473 35.8724C71.5473 32.8229 74.3537 31.1037 78.2499 31.1037C81.1296 31.1037 83.1717 31.4879 85.9827 32.1805V39.2317C85.3392 39.7314 82.9837 41.1985 78.5724 41.1985C74.0404 41.1985 71.5473 39.2925 71.5473 35.8724ZM5.46336 14.1582C3.74225 14.9252 3.22255 16.1933 3.22255 17.2761C3.22255 19.2413 5.07817 20.7023 7.89065 19.8108C9.67901 19.176 12.2393 18.4166 14.85 18.4166C19.836 18.4166 21.9408 20.2573 21.9408 24.5704V26.6601C18.9999 25.9691 16.831 25.5909 13.8289 25.5909C5.19281 25.5909 1.14529 30.2731 0.880859 35.5596V36.7244C1.15446 42.6412 5.49087 47.1016 13.9528 47.1016C20.6033 47.1016 25.4503 44.743 27.2463 43.5433C28.2016 42.9039 28.4538 42.2145 28.4538 41.0679V24.5704C28.4538 16.0019 23.4066 12.2629 15.2352 12.2629C11.339 12.2629 7.31898 13.2698 5.46336 14.1582ZM7.51158 35.8724C7.51158 32.8229 10.3164 31.1037 14.2126 31.1037C17.0847 31.1037 19.1344 31.4879 21.9408 32.1805V39.2317C21.3049 39.7314 18.9342 41.1985 14.529 41.1985C9.99848 41.1985 7.51158 39.2925 7.51158 35.8724ZM130.082 16.2647V43.4157C130.082 45.3201 131.681 46.8494 133.468 46.8494C135.381 46.8494 136.861 45.3201 136.861 43.4157V16.2647C136.861 14.3633 135.322 12.837 133.468 12.837C131.551 12.837 130.082 14.3633 130.082 16.2647Z" fill="white"/>
</mask>
<g mask="url(#mask0_3722_6077)">
<path d="M129.636 4.58748C129.636 6.67871 131.236 8.46316 133.468 8.46316C135.577 8.46316 137.24 6.67871 137.24 4.58748C137.24 2.48866 135.577 0.847031 133.468 0.847031C131.236 0.847031 129.636 2.48866 129.636 4.58748ZM54.5059 4.58451V14.099C52.3996 13.1468 49.2111 12.2629 46.1403 12.2629C37.9092 12.2629 33.1815 17.1395 32.4738 25.0123C32.2843 27.3025 32.2843 31.8069 32.4738 34.0288C33.1815 41.8257 38.4121 47.1016 47.036 47.1016C53.2281 47.1016 58.399 44.3649 60.0636 43.153C61.0877 42.462 61.2818 41.7604 61.2818 40.6168V4.58451C61.2818 2.68312 59.8053 1.15681 57.89 1.15681C56.0451 1.15681 54.5059 2.68312 54.5059 4.58451ZM39.2375 33.195C39.0541 31.2298 39.1137 27.4923 39.2375 25.7717C39.5019 21.1458 41.7993 18.7295 46.6508 18.7295C49.9784 18.7295 53.1684 19.8761 54.5059 20.7023V38.3342C53.228 39.2925 49.9127 40.6168 47.1629 40.6168C42.2426 40.6168 39.6288 38.0821 39.2375 33.195ZM98.3622 15.7484C97.4099 16.3877 97.014 17.024 97.014 18.3483V43.2806C97.014 45.1865 98.6128 46.7143 100.407 46.7143C102.316 46.7143 103.793 45.1865 103.793 43.2806V20.5155C105.25 19.6225 108.258 18.7295 111.381 18.7295C115.347 18.7295 118.802 20.8921 118.802 25.9691V43.2806C118.802 45.1865 120.391 46.7143 122.18 46.7143C124.165 46.7143 125.568 45.1865 125.568 43.2806V25.6487C125.568 17.0787 120.838 12.2629 111.581 12.2629C104.877 12.2629 100.212 14.3573 98.3622 15.7484ZM69.5052 14.1582C67.7826 14.9252 67.2644 16.1933 67.2644 17.2761C67.2644 19.2413 69.1231 20.7023 71.9325 19.8108C73.7224 19.176 76.2781 18.4166 78.8949 18.4166C83.8687 18.4166 85.9827 20.2573 85.9827 24.5704V26.6601C83.0418 25.9691 80.8637 25.5909 77.8678 25.5909C68.9305 25.5909 64.9044 30.6041 64.9044 36.1199C64.9044 42.3389 69.2423 47.1016 77.9931 47.1016C84.6376 47.1016 89.4952 44.743 91.2866 43.5433C92.2404 42.9039 92.4942 42.2145 92.4942 41.0679V24.5704C92.4942 16.0019 87.447 12.2629 79.274 12.2629C75.3885 12.2629 71.3593 13.2698 69.5052 14.1582ZM71.5473 35.8724C71.5473 32.8229 74.3537 31.1037 78.2499 31.1037C81.1296 31.1037 83.1717 31.4879 85.9827 32.1805V39.2317C85.3392 39.7314 82.9837 41.1985 78.5724 41.1985C74.0404 41.1985 71.5473 39.2925 71.5473 35.8724ZM5.46336 14.1582C3.74225 14.9252 3.22255 16.1933 3.22255 17.2761C3.22255 19.2413 5.07817 20.7023 7.89065 19.8108C9.67901 19.176 12.2393 18.4166 14.85 18.4166C19.836 18.4166 21.9408 20.2573 21.9408 24.5704V26.6601C18.9999 25.9691 16.831 25.5909 13.8289 25.5909C5.19281 25.5909 1.14529 30.2731 0.880859 35.5596V36.7244C1.15446 42.6412 5.49087 47.1016 13.9528 47.1016C20.6033 47.1016 25.4503 44.743 27.2463 43.5433C28.2016 42.9039 28.4538 42.2145 28.4538 41.0679V24.5704C28.4538 16.0019 23.4066 12.2629 15.2352 12.2629C11.339 12.2629 7.31898 13.2698 5.46336 14.1582ZM7.51158 35.8724C7.51158 32.8229 10.3164 31.1037 14.2126 31.1037C17.0847 31.1037 19.1344 31.4879 21.9408 32.1805V39.2317C21.3049 39.7314 18.9342 41.1985 14.529 41.1985C9.99848 41.1985 7.51158 39.2925 7.51158 35.8724ZM130.082 16.2647V43.4157C130.082 45.3201 131.681 46.8494 133.468 46.8494C135.381 46.8494 136.861 45.3201 136.861 43.4157V16.2647C136.861 14.3633 135.322 12.837 133.468 12.837C131.551 12.837 130.082 14.3633 130.082 16.2647Z" fill="#D1D1D1"/>
</g>
</svg>
