<svg width="203" height="68" viewBox="0 0 203 68" fill="none" xmlns="http://www.w3.org/2000/svg">
<g clip-path="url(#clip0_3722_6392)">
<path d="M9.92553 36.0582C7.95975 36.0582 6.22931 35.629 4.73404 34.7704C3.23892 33.8843 2.07606 32.6657 1.24544 31.1146C0.414821 29.5363 -0.000488281 27.7223 -0.000488281 25.6727C-0.000488281 23.2079 0.608649 21.0478 1.82687 19.1926C3.0728 17.337 4.8309 15.9107 7.10138 14.9136C9.39941 13.9168 12.0851 13.4183 15.1585 13.4183C16.5706 13.4183 17.7196 13.5151 18.6056 13.7091V12.8368C18.6056 10.7319 18.218 9.16714 17.4428 8.14248C16.6675 7.0901 15.4908 6.56389 13.9126 6.56389C11.3654 6.56389 9.73186 7.90708 9.01201 10.5934C8.79052 11.3689 8.33371 11.7012 7.64151 11.5904L1.9932 10.5934C1.57788 10.5103 1.28715 10.3303 1.12103 10.0534C0.982596 9.77643 0.968749 9.40258 1.07952 8.93179C1.79937 6.10696 3.32219 3.91908 5.64787 2.36816C8.00131 0.789572 10.9499 0.000305641 14.4939 0.000305641C18.7023 0.000305641 21.9002 1.13576 24.0875 3.40672C26.3025 5.67764 27.4099 8.98722 27.4099 13.3355V34.2306C27.4099 34.5352 27.2993 34.7981 27.0778 35.0197C26.884 35.2136 26.6346 35.3104 26.3301 35.3104H20.9314C20.2669 35.3104 19.8516 34.9504 19.6855 34.2306L18.8549 30.3257H18.5226C17.7751 32.1535 16.6537 33.5657 15.1586 34.5628C13.6912 35.5598 11.9466 36.0582 9.92553 36.0582ZM9.05336 24.6757C9.05336 26.1437 9.42716 27.3206 10.1747 28.2067C10.95 29.0653 11.9882 29.4945 13.2895 29.4945C15.0061 29.4945 16.3212 28.7328 17.2349 27.2097C18.1486 25.6589 18.6055 23.4433 18.6055 20.563V18.3612C17.8302 18.2227 17.0965 18.1534 16.4043 18.1534C14.134 18.1534 12.3343 18.7488 11.0055 19.9398C9.70426 21.1029 9.05336 22.6818 9.05336 24.6757ZM32.5597 1.82799C32.5597 1.52335 32.6568 1.27411 32.8505 1.08024C33.0719 0.858672 33.335 0.747903 33.6396 0.747903H39.1219C39.4264 0.747903 39.6757 0.844822 39.8693 1.03868C40.0911 1.23255 40.2293 1.49564 40.2847 1.82795L41.1154 5.89898H41.4475C42.1953 3.98812 43.261 2.53413 44.6456 1.53713C46.0575 0.512422 47.7187 0.000117162 49.629 0.000117162C51.6778 0.000117162 53.4363 0.540134 54.9035 1.62022C56.3987 2.7003 57.5476 4.23732 58.3508 6.23127H58.6828C59.901 4.12652 61.2719 2.56179 62.7947 1.53708C64.3174 0.512371 66.0199 6.62222e-05 67.9026 6.62222e-05C69.9514 6.62222e-05 71.7237 0.553938 73.2184 1.66168C74.7416 2.76948 75.9043 4.34806 76.7069 6.39738C77.51 8.44681 77.9118 10.87 77.9118 13.6671V34.2301C77.9118 34.5346 77.8008 34.7976 77.5793 35.0191C77.3852 35.2131 77.1362 35.3099 76.8316 35.3099H70.1867C69.8822 35.3099 69.6194 35.2131 69.3978 35.0191C69.2038 34.7976 69.107 34.5346 69.107 34.2301V14.3313C69.107 12.3096 68.7195 10.7588 67.9444 9.67874C67.1688 8.59871 66.0479 8.05864 64.5802 8.05864C62.9744 8.05864 61.7425 8.6956 60.8839 9.96956C60.0532 11.2435 59.6382 13.0851 59.6382 15.4945V34.2298C59.6382 34.5344 59.5272 34.7973 59.3056 35.0189C59.1121 35.2128 58.8626 35.3096 58.558 35.3096H51.9131C51.6091 35.3096 51.3458 35.2128 51.1242 35.0189C50.9302 34.7973 50.8335 34.5344 50.8335 34.2298V14.3311C50.8335 12.3093 50.446 10.7586 49.6707 9.67849C48.8954 8.59846 47.7742 8.05839 46.3068 8.05839C44.7008 8.05839 43.4687 8.69534 42.6104 9.96931C41.7799 11.2432 41.3645 13.0849 41.3645 15.4943V34.2295C41.3645 34.5341 41.2539 34.7971 41.0324 35.0186C40.8385 35.2125 40.5892 35.3094 40.2847 35.3094H33.6397C33.3352 35.3094 33.0721 35.2125 32.8506 35.0186C32.657 34.7971 32.5599 34.5341 32.5599 34.2295L32.5597 1.82799ZM82.2303 25.6726C82.2303 23.2078 82.8399 21.0476 84.0581 19.1925C85.3038 17.3369 87.0618 15.9105 89.3326 14.9135C91.6304 13.9167 94.3163 13.4181 97.3892 13.4181C98.8014 13.4181 99.9503 13.515 100.836 13.709V12.8366C100.836 10.7318 100.448 9.16698 99.6733 8.14232C98.8982 7.08995 97.7218 6.56374 96.1436 6.56374C93.5962 6.56374 91.9625 7.90693 91.2429 10.5933C91.0213 11.3687 90.5645 11.7011 89.8724 11.5903L84.2241 10.5933C83.8085 10.5102 83.5178 10.3302 83.3517 10.0532C83.2137 9.77628 83.1995 9.40243 83.3105 8.93164C84.0301 6.10681 85.5528 3.91893 87.8791 2.368C90.232 0.789419 93.1806 0.00015282 96.7246 0.00015282C100.933 0.00015282 104.131 1.13561 106.318 3.40657C108.533 5.67748 109.641 8.98706 109.641 13.3353V34.2304C109.641 34.535 109.53 34.798 109.309 35.0195C109.115 35.2134 108.866 35.3103 108.561 35.3103H103.162C102.498 35.3103 102.082 34.9502 101.916 34.2304L101.086 30.3256H100.753C100.006 32.1533 98.8845 33.5656 97.3892 34.5626C95.922 35.5597 94.1778 36.0582 92.1565 36.0582C90.1352 36.0582 88.4602 35.6289 86.965 34.7704C85.4698 33.8842 84.3071 32.6656 83.4765 31.1146C82.6459 29.5363 82.2303 27.7222 82.2303 25.6726ZM91.2846 24.6755C91.2846 26.1435 91.6579 27.3204 92.4055 28.2066C93.1806 29.0651 94.219 29.4944 95.5202 29.4944C97.237 29.4944 98.5519 28.7327 99.466 27.2095C100.379 25.6588 100.836 23.4431 100.836 20.5629V18.361C100.061 18.2226 99.3275 18.1533 98.6349 18.1533C96.3651 18.1533 94.5653 18.7487 93.2361 19.9397C91.935 21.1028 91.2846 22.6817 91.2846 24.6755ZM114.126 29.2036C114.126 28.5944 114.292 28.0681 114.624 27.625L128.828 7.72675H115.538C115.234 7.72675 114.971 7.62981 114.749 7.43599C114.555 7.2144 114.458 6.95134 114.458 6.64667V1.82788C114.458 1.52325 114.555 1.27401 114.749 1.08013C114.971 0.858571 115.234 0.747801 115.538 0.747801H137.383C137.688 0.747801 137.937 0.858571 138.131 1.08013C138.352 1.274 138.463 1.52323 138.463 1.82788V6.8544C138.463 7.46365 138.297 7.98986 137.965 8.43299L125.09 26.1296C125.866 25.9913 126.654 25.9221 127.458 25.9221C129.451 25.9221 131.279 26.102 132.94 26.462C134.629 26.7945 136.373 27.3482 138.173 28.1237C138.809 28.4007 139.127 28.8713 139.127 29.5362V34.3134C139.127 34.7565 138.989 35.0611 138.712 35.2272C138.435 35.3657 138.09 35.3519 137.674 35.1858C135.598 34.4103 133.756 33.8704 132.15 33.5655C130.572 33.2333 128.842 33.067 126.959 33.067C125.076 33.067 123.277 33.2333 121.477 33.5655C119.705 33.898 117.74 34.4379 115.58 35.1858C115.164 35.3243 114.818 35.3243 114.541 35.1858C114.265 35.0194 114.126 34.7286 114.126 34.3134V29.2036ZM140.955 18.0289C140.955 14.6504 141.606 11.5901 142.907 8.84846C144.208 6.07904 145.994 3.91888 148.264 2.36785C150.563 0.789267 153.109 0 155.906 0C158.702 0 161.277 0.789267 163.547 2.36785C165.846 3.91872 167.646 6.07889 168.947 8.84846C170.275 11.5902 170.94 14.6505 170.94 18.0289C170.94 21.4077 170.275 24.482 168.947 27.2511C167.646 29.9928 165.846 32.153 163.547 33.7317C161.277 35.2824 158.73 36.0579 155.906 36.0579C153.082 36.0579 150.563 35.2824 148.264 33.7317C145.994 32.1531 144.208 29.9929 142.907 27.2511C141.606 24.4817 140.955 21.4077 140.955 18.0289ZM150.092 18.0289C150.092 21.5462 150.59 24.2604 151.587 26.1712C152.584 28.0544 154.023 28.996 155.906 28.996C157.789 28.996 159.243 28.0544 160.267 26.1712C161.291 24.2604 161.803 21.5462 161.803 18.0289C161.803 14.5119 161.291 11.8116 160.267 9.92839C159.243 8.01742 157.789 7.06198 155.906 7.06198C154.023 7.06198 152.584 8.01742 151.587 9.92839C150.59 11.8115 150.092 14.5118 150.092 18.0289ZM175.425 1.82788C175.425 1.52325 175.522 1.27401 175.716 1.08013C175.938 0.858571 176.201 0.747801 176.505 0.747801H181.987C182.292 0.747801 182.541 0.84472 182.735 1.03858C182.956 1.23245 183.095 1.49554 183.15 1.82785L183.981 5.89888H184.313C185.061 4.01568 186.154 2.56174 187.594 1.53703C189.061 0.51232 190.778 1.52821e-05 192.744 1.52821e-05C194.848 1.52821e-05 196.661 0.553887 198.184 1.66163C199.735 2.76943 200.925 4.34801 201.756 6.39733C202.587 8.44676 203.002 10.87 203.002 13.667V34.23C203.002 34.5346 202.891 34.7975 202.67 35.0191C202.476 35.213 202.226 35.3098 201.922 35.3098H195.277C194.972 35.3098 194.71 35.213 194.488 35.0191C194.294 34.7975 194.197 34.5346 194.197 34.23V14.3313C194.197 12.3095 193.782 10.7588 192.951 9.67869C192.121 8.59866 190.944 8.05859 189.421 8.05859C187.732 8.05859 186.445 8.69555 185.559 9.96951C184.673 11.2434 184.23 13.0851 184.23 15.4945V34.2298C184.23 34.5343 184.119 34.7973 183.898 35.0188C183.704 35.2127 183.455 35.3096 183.15 35.3096H176.505C176.201 35.3096 175.938 35.2127 175.716 35.0188C175.522 34.7973 175.425 34.5343 175.425 34.2298V1.82788Z" fill="#D1D1D1"/>
<path d="M23.0916 40.0848C22.5655 40.5003 22.4547 41.1925 22.7593 42.1619C23.0362 43.0205 23.6868 44.0865 24.7113 45.3606C28.8365 50.4566 33.7508 54.6933 39.4546 58.0722C45.1584 61.451 51.2636 63.9435 57.77 65.5497C64.3039 67.1833 70.9764 68.0004 77.7873 68.0004C86.5091 68.0004 94.8153 66.7269 102.706 64.1789C110.597 61.6583 117.186 58.1134 122.475 53.5441C124.329 51.9104 125.257 50.6086 125.257 49.6391C125.257 49.2791 125.105 48.9191 124.801 48.559C124.385 48.1438 123.886 48.0053 123.305 48.1438C122.724 48.2821 121.907 48.6283 120.855 49.1822C115.788 51.8412 109.614 53.9593 102.332 55.538C95.0786 57.1447 87.5057 57.9475 79.6151 57.9475C69.8417 57.9475 60.4004 56.6185 51.2911 53.9594C42.1823 51.3008 34.1114 47.1467 27.0788 41.4974C26.0545 40.6943 25.2237 40.1817 24.587 39.9602C23.9779 39.7386 23.4792 39.7802 23.0916 40.0848Z" fill="#ADADAD"/>
<path d="M115.37 42.1651C114.788 42.7191 114.636 43.3006 114.913 43.9101C115.106 44.3531 115.48 44.6023 116.034 44.6577C116.588 44.7408 117.377 44.6853 118.401 44.4916C120.063 44.1316 121.793 43.8822 123.592 43.7437C125.392 43.6331 126.957 43.6607 128.286 43.8267C129.615 44.0207 130.445 44.3531 130.778 44.8238C131.276 45.5717 131.096 47.1501 130.237 49.5597C129.407 51.969 128.272 54.3092 126.832 56.5802C126.278 57.4941 125.946 58.2139 125.835 58.7406C125.725 59.2668 125.863 59.7095 126.251 60.0696C126.5 60.3187 126.777 60.4435 127.081 60.4435C127.885 60.4435 129.047 59.7375 130.57 58.3249C133.311 55.9435 135.235 53.1183 136.343 49.8505C136.952 48.161 137.325 46.3887 137.464 44.5334C137.602 42.678 137.395 41.3486 136.841 40.5454C136.315 39.7699 135.152 39.1329 133.353 38.6347C131.58 38.1361 129.795 37.8867 127.995 37.8867C124.479 37.8867 121.142 38.7177 117.986 40.3794C116.823 41.0164 115.951 41.6114 115.37 42.1651Z" fill="#ADADAD"/>
</g>
<defs>
<clipPath id="clip0_3722_6392">
<rect width="203" height="68" fill="white"/>
</clipPath>
</defs>
</svg>
