<svg width="126" height="32" viewBox="0 0 126 32" fill="none" xmlns="http://www.w3.org/2000/svg">
<g clip-path="url(#clip0_3250_8221)">
<path d="M27.2529 30.8622V1.25103C30.9982 1.4986 34.0539 3.24477 36.6096 5.96017C39.3494 8.85728 41.0576 12.455 42.5368 16.1238C45.0292 9.29975 49.7247 1.93844 57.6627 1.25103V11.5463C58.7734 8.33053 60.4289 5.41235 63.1503 3.27902C66.0586 0.987658 69.6592 0 73.315 0C79.9317 0 86.5564 4.54058 87.7355 11.2751H80.1028C78.8 8.25942 76.0259 7.06107 72.8386 7.06107C67.7905 7.06107 63.9215 10.8063 63.9215 15.9105C63.9215 21.2016 67.4299 25.0785 72.7938 25.0785C75.0573 25.0785 77.2156 24.3832 78.8474 22.7687C79.7554 21.8601 80.3002 20.7328 80.7845 19.5635H72.0122V12.4839H88.2751V1.25103H103.522V8.37531H95.5577V12.4813H103.522V19.5529H95.5577V23.7406H103.522V30.8517H88.2751V19.5529C87.7703 21.9975 86.6822 24.2836 85.1036 26.2163C82.0557 30.051 77.5551 32.0105 72.6833 32.0105C68.9986 32.0105 65.3638 31.0492 62.5081 28.6156C59.9867 26.4744 58.4812 23.6958 57.6627 20.5432V30.8728H50.5274V14.828C47.1059 19.3765 45.9452 25.2629 45.8399 30.8622H39.1284C39.0047 25.2207 37.5071 19.5714 34.3908 14.828V30.8622H27.2529Z" fill="#D1D1D1"/>
<path d="M118.445 1.25018H125.581V30.8614H119.14C118.187 25.96 115.871 19.7259 111.847 16.6154V30.8614H104.701V1.23438C107.944 1.89281 112.181 5.22713 114.542 7.49216C116.055 8.95652 117.537 10.5605 118.445 12.4805V1.25018Z" fill="#D1D1D1"/>
<path d="M0.578125 30.864L0.791314 30.1397L2.01781 25.9705C3.06358 22.5268 4.34666 19.1598 5.85785 15.8938C9.60314 7.60801 15.8409 1.12109 25.4055 1.12109C25.6266 1.12109 25.8476 1.12109 26.0661 1.12109V30.8561H18.8756V23.6791H9.73211L9.52944 24.3139L9.0978 25.6307L8.50824 27.7114L7.945 29.9922L7.71339 30.8666L0.578125 30.864ZM12.9747 16.618H18.8756V9.85723C15.7488 11.3111 14.4354 13.6314 12.9747 16.618Z" fill="#D1D1D1"/>
</g>
<defs>
<clipPath id="clip0_3250_8221">
<rect width="125" height="32" fill="white" transform="translate(0.578125)"/>
</clipPath>
</defs>
</svg>
