<svg width="150" height="72" viewBox="0 0 150 72" fill="none" xmlns="http://www.w3.org/2000/svg">
<g clip-path="url(#clip0_3722_6255)">
<path d="M0 0H149.701V15H0V0Z" fill="#ADADAD"/>
<path d="M148.75 32.8313C147.906 31.718 146.625 31.1053 145.143 31.1053C142.369 31.1053 140.045 32.689 137.374 36.3997C135.101 39.5587 132.271 43.4892 130.2 43.4892C129.702 43.4892 129.333 43.3267 129.07 42.991C128.431 42.1783 128.437 40.3805 129.087 37.7916C129.824 34.8598 131.237 32.8125 132.524 32.8125C133.451 32.8125 133.793 33.3305 133.916 33.6491C133.533 33.6226 133.114 33.7417 132.778 33.9868C132.335 34.3117 132.092 34.8169 132.092 35.4104C132.092 35.9412 132.278 36.4186 132.616 36.7552C132.944 37.0808 133.387 37.253 133.895 37.253C135.188 37.253 136.091 36.1834 136.091 34.6517C136.091 33.6776 135.724 32.754 135.085 32.1185C134.381 31.421 133.389 31.0665 132.132 31.0665C129.049 31.0665 126.338 33.6867 124.995 35.2481C123.488 37.0023 121.763 38.751 120.916 39.5946C121.736 36.8815 121.558 34.3463 120.4 32.7085C119.662 31.6641 118.566 31.0895 117.314 31.0895C115.413 31.0895 114.147 31.9395 113.501 32.523L113.819 31.3452H107.325L106.937 32.9239H108.748C107.907 35.6588 105.602 38.179 104.504 39.2674C104.64 38.8333 104.782 38.2213 104.847 37.4239C105.013 35.3927 104.484 33.5559 103.396 32.3839C102.609 31.5369 101.595 31.0895 100.46 31.0895C97.2144 31.0895 94.3949 33.0459 92.0829 36.9047L91.3841 38.1007C89.8877 40.6977 88.3398 43.3826 85.8289 43.3826C85.139 43.3826 84.5832 43.1128 84.1764 42.579C83.1416 41.2224 83.0877 38.1657 84.0394 34.7896C85.2396 30.5336 87.8113 26.2253 90.406 26.2253C90.8443 26.2253 91.2054 26.3924 91.5108 26.7354C92.5069 27.8529 92.559 30.5342 92.4296 31.5854L92.4045 31.7861H94.297L96.2766 24.6413H94.4695L93.6763 25.7203C93.256 25.2216 91.9392 24 89.1139 24C85.8917 24 80.2314 27.4349 78.3182 34.8084C77.3914 38.3795 77.7951 41.5198 79.456 43.6489C80.6411 45.1685 82.3883 46.0395 84.2515 46.0395C87.4043 46.0395 90.2165 43.6571 91.4111 41.782C91.5961 43.066 92.4242 46.0404 96.115 46.0404C99.4239 46.0404 103.293 43.5498 107.334 38.8309L104.208 51H108.886L110.426 44.7282C110.812 45.2235 111.713 46.0404 113.48 46.0404C115.978 46.0404 120.128 43.1941 123.723 39.0558C123.227 41.121 123.511 42.981 124.534 44.3299C125.358 45.4142 126.578 46.0353 127.884 46.0353C132.223 46.0353 135.26 42.4299 136.285 41.0125C136.265 42.3267 136.693 43.5657 137.506 44.4866C138.388 45.486 139.661 46.0353 141.091 46.0353C144.895 46.0353 148.018 43.6575 149.155 39.7372C149.947 37.0092 149.93 34.3916 148.75 32.8313ZM101.133 38.9112C100.504 41.3491 99.0799 44.1962 97.1416 44.1962C96.6979 44.1962 96.3736 44.0527 96.1509 43.7588C95.5392 42.9543 95.6685 41.0158 96.5344 37.995C97.5099 34.595 98.6739 32.9421 100.095 32.9421C100.456 32.9421 100.743 33.0868 100.976 33.3842C101.678 34.2831 101.742 36.5562 101.133 38.9112ZM116.307 38.9926C115.559 42.1618 114.283 43.9795 112.807 43.9795C111.654 43.9795 111.131 42.9011 111.029 42.6612C111.137 42.2041 111.89 38.9832 112.268 37.4977C112.857 35.1796 114.209 33.4318 115.411 33.4318C115.775 33.4318 116.071 33.5709 116.289 33.8448C116.722 34.3886 117.078 35.7229 116.307 38.9926ZM146.172 38.9112C145.541 41.3491 144.119 44.1962 142.179 44.1962C141.737 44.1962 141.412 44.0527 141.189 43.7588C140.578 42.9543 140.707 41.0158 141.573 37.995C142.548 34.595 143.712 32.9421 145.134 32.9421C145.494 32.9421 145.782 33.0868 146.016 33.3842C146.716 34.2831 146.781 36.5562 146.172 38.9112ZM72.1669 35.961C72.4893 36.2824 72.9192 36.4519 73.4112 36.4519C74.2989 36.4519 75.2477 35.8957 75.2477 34.3335C75.2477 33.5571 74.9569 32.8565 74.4059 32.3071C73.6042 31.5055 72.3026 31.0645 70.7411 31.0645C67.615 31.0645 65.4495 32.3381 64.6448 34.6496C64.0465 36.3674 64.9652 38.2007 67.2306 39.8125L67.5392 40.0317C68.8561 40.9603 69.6502 41.5209 69.4496 42.7127C69.2896 43.6597 68.2644 44.3393 67.0099 44.3284C65.0904 44.3107 64.7735 43.3168 64.7217 42.9744C65.0619 42.8212 65.9229 42.3285 65.9229 41.2561C65.9229 40.7466 65.7667 40.3312 65.4572 40.0226C64.9823 39.5491 64.3208 39.498 64.0581 39.498C63.4412 39.498 62.3805 39.7154 62.2086 41.178C62.1841 41.3857 62.2069 41.619 62.2211 41.7336C62.0773 41.9428 61.4722 42.7402 60.4852 43.0525C60.26 43.1242 59.9296 43.0958 59.697 42.8716C59.384 42.5686 59.3271 41.9905 59.537 41.2425C59.7503 40.4851 62.0263 31.2907 62.0263 31.2907H57.4029L57.0517 32.5484C56.6955 31.9727 55.8127 31.0645 53.7862 31.0645C50.6764 31.0645 48.0533 34.1011 46.7506 36.7006C45.6574 38.8855 43.6197 42.9508 42.0401 42.9508C41.8712 42.9508 41.7436 42.8932 41.6522 42.7744C41.4824 42.5536 41.2733 41.9011 41.7807 40.0116C42.1961 38.4619 45.5035 24.9162 45.5035 24.9162H37.6134L37.1877 26.7716H40.151L38.1072 34.9417C36.5995 40.8534 33.9672 42.9508 32.1707 42.9508C31.7946 42.9508 31.528 42.8472 31.3574 42.6339C30.8754 42.0331 31.1958 40.6089 31.4292 39.568C31.7564 38.1148 32.797 33.9268 32.9902 33.1483H36.2587L36.7347 31.2594H33.4858L34.6116 26.6665L32.8375 26.6659L32.7837 26.7463C30.4503 30.2448 29.4029 31.3761 25.9132 31.3761H25.772L25.3368 33.1459H28.1316C28.0097 33.7277 27.6853 35.2832 27.6871 35.2758C26.1448 41.0808 23.1957 43.4908 21.9583 43.4908C21.3506 43.4908 21.0128 43.3889 20.8284 43.1502C20.5234 42.7544 20.563 41.8843 20.9527 40.4098C21.6583 37.7474 24.646 27.0875 25.0063 25.8014H27.9848L28.5295 24.015L22.182 24C19.8997 24 17.2126 24.1925 14.5842 25.62C11.2963 27.4067 8.91868 30.7538 7.51539 35.5738C7.50651 35.6081 6.63844 39.0224 5.86535 41.5629C5.04877 44.2431 2.89458 44.5325 2.0058 44.5325C1.45342 44.5325 0.862281 44.264 0.386531 43.7961L0 43.4958V45.8691L0.217592 45.939C1.04306 46.1366 2.02651 46.2353 3.14015 46.2353C6.19346 46.2353 8.90477 44.033 10.2977 42.1451C11.4335 40.6089 11.8093 39.2387 12.3767 37.1635L12.5022 36.7033H17.094C16.8987 37.3592 16.3218 39.3128 15.8174 41.1653C15.3857 42.752 15.4966 43.9876 16.1478 44.837C16.7887 45.6738 17.939 46.0979 19.568 46.0979C21.2184 46.0979 24.1998 45.6939 26.2244 43.1094C26.2735 43.7401 26.4679 44.5611 27.075 45.1885C27.6534 45.7851 28.4942 46.0879 29.5739 46.0879C32.081 46.0879 34.916 44.4486 36.2926 42.7762C36.3241 43.4119 36.4885 44.4595 37.1797 45.2127C37.7131 45.7934 38.4578 46.0879 39.3939 46.0879C42.1919 46.0879 44.7559 43.8523 45.9224 42.0358C46.1236 43.245 46.9518 46.0879 50.3214 46.0879C52.4774 46.0879 54.0718 44.7292 54.9461 43.7427C55.1307 44.4932 55.7496 46.0879 57.7053 46.0879C59.7689 46.0879 61.8335 44.7074 62.782 43.629C63.661 45.3273 64.651 46.0879 68.0135 46.0879C71.2029 46.0879 73.8397 43.9175 74.3009 41.8916C74.8001 39.6971 73.5894 38.8069 71.5834 37.3306L71.3405 37.1516L70.926 36.8522C69.9357 36.1395 69.0789 35.5248 69.0789 34.4689C69.0789 33.3222 70.0106 32.8092 70.9336 32.8092C71.6982 32.8092 72.118 33.1099 72.2979 33.2827C72.0692 33.4995 71.66 33.9839 71.66 34.6851C71.66 35.1812 71.8399 35.6347 72.1669 35.961ZM17.6215 34.7745H12.9759C14.7786 28.665 16.9263 25.9671 20.0943 25.8374L17.6215 34.7745ZM55.5774 38.1148C54.6644 41.6155 53.5779 43.1762 52.0563 43.1762C51.7176 43.1762 51.4513 43.043 51.2404 42.7686C50.5779 41.9011 50.6027 39.7706 51.3072 37.2122C52.293 33.6274 53.5413 33.1438 54.6327 33.1438C54.9653 33.1438 55.2475 33.2903 55.4709 33.5786C56.0842 34.3711 56.1236 36.0245 55.5774 38.1148Z" fill="#D1D1D1"/>
<path d="M0 57H149.701V72H0V57Z" fill="#ADADAD"/>
<path d="M0 14.625V15H149.701V14.625H0Z" fill="#D1D1D1"/>
<path d="M128.597 41.2637C128.619 40.4181 128.782 39.3791 129.087 38.1665C129.823 35.2348 131.236 33.1875 132.523 33.1875C133.129 33.1875 133.484 33.4079 133.693 33.6497C133.768 33.6443 133.843 33.644 133.916 33.6491C133.792 33.3305 133.451 32.8125 132.523 32.8125C131.236 32.8125 129.823 34.8598 129.087 37.7916C128.736 39.1899 128.572 40.3575 128.597 41.2637Z" fill="#D1D1D1"/>
<path d="M132.1 35.6014C132.094 35.6621 132.092 35.7238 132.092 35.7865C132.092 36.3174 132.278 36.7947 132.616 37.1312C132.944 37.457 133.387 37.6292 133.895 37.6292C135.188 37.6292 136.092 36.5596 136.092 35.0279C136.092 34.9649 136.091 34.9023 136.087 34.8398C136.017 36.2709 135.135 37.2542 133.895 37.2542C133.387 37.2542 132.944 37.0819 132.616 36.7563C132.319 36.4604 132.139 36.0557 132.1 35.6014Z" fill="#D1D1D1"/>
<path d="M121.062 39.4507C121.32 38.4467 121.44 37.4742 121.421 36.5703C121.401 37.5246 121.233 38.547 120.916 39.596C120.962 39.5502 121.011 39.5017 121.062 39.4507Z" fill="#D1D1D1"/>
<path d="M113.634 32.4088L113.919 31.3477H113.818L113.501 32.5244C113.543 32.4869 113.587 32.4482 113.634 32.4088Z" fill="#D1D1D1"/>
<path d="M106.937 32.9258L106.845 33.3008H108.623C108.667 33.1763 108.709 33.0512 108.748 32.9258H106.937Z" fill="#D1D1D1"/>
<path d="M104.643 39.1281C104.728 38.763 104.804 38.3209 104.847 37.7994C104.872 37.4902 104.881 37.1853 104.875 36.8867C104.87 37.0642 104.861 37.2436 104.847 37.4245C104.781 38.2219 104.64 38.8339 104.504 39.268C104.548 39.2237 104.595 39.177 104.643 39.1281Z" fill="#D1D1D1"/>
<path d="M83.3629 39.4318C83.3833 38.1613 83.6081 36.6964 84.0396 35.1658C85.2397 30.9099 87.8115 26.6016 90.4061 26.6016C90.8444 26.6016 91.2055 26.7685 91.5109 27.1116C92.2331 27.9215 92.4585 29.5531 92.4792 30.7898C92.5007 29.5296 92.3085 27.6316 91.5109 26.7366C91.2055 26.3936 90.8444 26.2266 90.4061 26.2266C87.8115 26.2266 85.2397 30.5349 84.0396 34.7908C83.565 36.4743 83.3404 38.0784 83.3629 39.4318Z" fill="#D1D1D1"/>
<path d="M92.4035 31.7866C92.3909 31.9309 92.3604 32.1617 92.3604 32.1617H94.2969L96.2765 25.0169V24.6406L96.1723 25.0169L94.2969 31.7866H92.4035Z" fill="#D1D1D1"/>
<path d="M77.8325 38.5781C77.7985 40.7293 78.347 42.6023 79.4562 44.0241C80.6413 45.5439 82.3886 46.4148 84.2517 46.4148C87.4045 46.4148 90.2167 44.0324 91.4113 42.1573C91.5964 43.4413 92.4245 46.4156 96.1152 46.4156C99.3874 46.4156 103.207 43.9813 107.197 39.3658L107.335 38.8312C103.294 43.5501 99.4242 46.0407 96.1152 46.0407C92.4245 46.0407 91.5964 43.0662 91.4113 41.7823C90.2167 43.6574 87.4045 46.0398 84.2517 46.0398C82.3886 46.0398 80.6413 45.1688 79.4562 43.6492C78.412 42.3105 77.8647 40.5721 77.8325 38.5781Z" fill="#D1D1D1"/>
<path d="M104.208 50.9989V51.3738H108.886L110.426 45.1021C110.813 45.5973 111.713 46.4142 113.48 46.4142C115.954 46.4142 120.048 43.6228 123.618 39.5494C123.649 39.3859 123.683 39.2209 123.723 39.0547C120.128 43.193 115.978 46.0392 113.48 46.0392C111.713 46.0392 110.813 45.2224 110.426 44.727L108.886 50.9989H104.208Z" fill="#D1D1D1"/>
<path d="M123.488 41.1556C123.452 42.5243 123.806 43.7442 124.534 44.705C125.358 45.7893 126.579 46.4104 127.884 46.4104C132.223 46.4104 135.26 42.8049 136.285 41.3876C136.265 42.7018 136.693 43.9407 137.506 44.8617C138.388 45.861 139.661 46.4104 141.091 46.4104C144.896 46.4104 148.018 44.0326 149.155 40.1123C149.529 38.8258 149.723 37.5638 149.699 36.4258C149.678 37.4632 149.488 38.5905 149.155 39.7373C148.018 43.6576 144.896 46.0354 141.091 46.0354C139.661 46.0354 138.388 45.486 137.506 44.4866C136.693 43.5658 136.265 42.3267 136.285 41.0125C135.26 42.43 132.223 46.0354 127.884 46.0354C126.579 46.0354 125.358 45.4143 124.534 44.3299C123.873 43.4579 123.52 42.3722 123.488 41.1556Z" fill="#D1D1D1"/>
<path d="M101.548 36.0413C101.571 34.866 101.378 33.8989 100.976 33.3835C100.743 33.086 100.456 32.9414 100.095 32.9414C98.6738 32.9414 97.5097 34.5943 96.5342 37.9943C95.9953 39.876 95.7411 41.3378 95.7744 42.3671C95.804 41.3686 96.0573 40.033 96.5342 38.3692C97.5097 34.9693 98.6738 33.3164 100.095 33.3164C100.456 33.3164 100.743 33.4611 100.976 33.7585C101.334 34.218 101.526 35.0364 101.548 36.0413Z" fill="#D1D1D1"/>
<path d="M111.087 42.7886C111.299 41.8849 111.932 39.1945 112.268 37.8744C112.857 35.5564 114.209 33.8086 115.411 33.8086C115.774 33.8086 116.071 33.9477 116.288 34.2216C116.522 34.5143 116.733 35.036 116.757 35.9652C116.786 34.7975 116.551 34.1765 116.288 33.8466C116.071 33.5726 115.774 33.4336 115.411 33.4336C114.209 33.4336 112.857 35.1814 112.268 37.4994C111.899 38.9477 111.173 42.0456 111.038 42.6235L111.028 42.663C111.042 42.693 111.061 42.7361 111.087 42.7886Z" fill="#D1D1D1"/>
<path d="M146.587 36.0405C146.61 34.8655 146.417 33.8987 146.016 33.3835C145.782 33.086 145.494 32.9414 145.134 32.9414C143.712 32.9414 142.548 34.5943 141.573 37.9943C141.033 39.8765 140.78 41.3386 140.813 42.3679C140.843 41.3694 141.096 40.0335 141.573 38.3692C142.548 34.9693 143.712 33.3164 145.134 33.3164C145.494 33.3164 145.782 33.4611 146.016 33.7585C146.374 34.2178 146.566 35.036 146.587 36.0405Z" fill="#D1D1D1"/>
<path d="M72.167 35.9623C72.4895 36.2837 72.9193 36.4533 73.4114 36.4533C74.2607 36.4533 75.1662 35.944 75.2426 34.5312C75.246 34.5903 75.2479 34.6499 75.2479 34.7099C75.2479 36.2721 74.299 36.8282 73.4114 36.8282C72.9193 36.8282 72.4895 36.6588 72.167 36.3374C71.8401 36.011 71.6602 35.5576 71.6602 35.0614C71.6602 34.9992 71.6634 34.9386 71.6694 34.8798C71.71 35.2997 71.883 35.6789 72.167 35.9623Z" fill="#D1D1D1"/>
<path d="M72.0986 33.4981C72.1703 33.4094 72.24 33.3371 72.2981 33.2821C72.1182 33.1093 71.6984 32.8086 70.9338 32.8086C70.0107 32.8086 69.0791 33.3216 69.0791 34.4683C69.0791 34.5312 69.0821 34.5926 69.088 34.6525C69.1857 33.6396 70.0635 33.1836 70.9338 33.1836C71.4926 33.1836 71.8672 33.3442 72.0986 33.4981Z" fill="#D1D1D1"/>
<path d="M74.4077 41.1641C74.4274 41.4945 74.3937 41.8578 74.3008 42.2665C73.8396 44.2924 71.2028 46.4627 68.0134 46.4627C64.6509 46.4627 63.6609 45.7021 62.7819 44.0037C61.8334 45.0821 59.7688 46.4627 57.7052 46.4627C55.7495 46.4627 55.1305 44.868 54.946 44.1175C54.0717 45.104 52.4773 46.4627 50.3213 46.4627C46.9517 46.4627 46.1235 43.6198 45.9223 42.4106C44.7558 44.227 42.1918 46.4627 39.3938 46.4627C38.4577 46.4627 37.713 46.1682 37.1796 45.5875C36.4884 44.8344 36.324 43.7867 36.2925 43.1511C34.9159 44.8234 32.0809 46.4627 29.5738 46.4627C28.4941 46.4627 27.6533 46.16 27.0749 45.5633C26.4678 44.936 26.2734 44.1148 26.2243 43.4843C24.1996 46.0687 21.2182 46.4727 19.5679 46.4727C17.9389 46.4727 16.7886 46.0485 16.1477 45.2118C15.7245 44.6598 15.5295 43.9446 15.5633 43.076C15.5921 43.7774 15.7871 44.3664 16.1477 44.8368C16.7886 45.6736 17.9389 46.0977 19.5679 46.0977C21.2182 46.0977 24.1996 45.6937 26.2243 43.1092C26.2734 43.7399 26.4678 44.5609 27.0749 45.1883C27.6533 45.7849 28.4941 46.0877 29.5738 46.0877C32.0809 46.0877 34.9159 44.4484 36.2925 42.7761C36.324 43.4117 36.4884 44.4593 37.1796 45.2125C37.713 45.7932 38.4577 46.0877 39.3938 46.0877C42.1918 46.0877 44.7558 43.8521 45.9223 42.0356C46.1235 43.2448 46.9517 46.0877 50.3213 46.0877C52.4773 46.0877 54.0717 44.729 54.946 43.7425C55.1305 44.493 55.7495 46.0877 57.7052 46.0877C59.7688 46.0877 61.8334 44.7072 62.7819 43.6288C63.6609 45.3271 64.6509 46.0877 68.0134 46.0877C71.2028 46.0877 73.8396 43.9173 74.3008 41.8914C74.3598 41.6318 74.3949 41.3903 74.4077 41.1641Z" fill="#D1D1D1"/>
<path d="M17.094 36.7031C17.0649 36.8009 17.0273 36.9274 16.9828 37.0781H12.5022L12.3767 37.5382C11.8093 39.6135 11.4335 40.9837 10.2977 42.5199C8.90477 44.4078 6.19346 46.6101 3.14015 46.6101C2.02651 46.6101 1.04306 46.5114 0.217592 46.3139L0 46.2438V45.8689L0.217592 45.9388C1.04306 46.1364 2.02651 46.2351 3.14015 46.2351C6.19346 46.2351 8.90477 44.0328 10.2977 42.1449C11.4335 40.6087 11.8093 39.2385 12.3767 37.1633L12.5022 36.7031H17.094Z" fill="#D1D1D1"/>
<path d="M28.4148 24.3905L27.9843 25.8021H25.0059C23.6426 30.6675 22.2467 35.5262 20.9522 40.4105C20.7054 41.3445 20.599 42.0361 20.6317 42.5181C20.6568 42.0726 20.7634 41.5 20.9522 40.7855C22.2467 35.9012 23.6426 31.0425 25.0059 26.1771H27.9843L28.529 24.3907L28.5287 24.0156L28.4148 24.3905Z" fill="#D1D1D1"/>
<path d="M28.1317 33.1445C28.1107 33.245 28.0836 33.3743 28.0533 33.5196H25.3369V33.1445H28.1317Z" fill="#D1D1D1"/>
<path d="M34.5202 27.0432L33.4863 31.2611H33.5782L34.612 27.0433L34.6112 26.668L34.5202 27.0432Z" fill="#D1D1D1"/>
<path d="M36.7345 31.2656L36.2584 33.1495H32.9899L32.968 33.2379L32.9678 33.2389C32.7279 34.2052 31.7452 38.1647 31.429 39.5692L31.4279 39.5742C31.2699 40.2788 31.0727 41.1576 31.1114 41.8378C31.1408 41.2291 31.2976 40.53 31.4279 39.9493L31.429 39.9442C31.7448 38.5417 32.7251 34.5918 32.9667 33.6181L32.9674 33.6152L32.9677 33.6141L32.968 33.6128L32.9899 33.5244H36.2584L36.7345 31.6356V31.2656Z" fill="#D1D1D1"/>
<path d="M40.1509 26.7734L40.057 27.1485H37.1875V26.7734H40.1509Z" fill="#D1D1D1"/>
<path d="M45.4122 25.2898C44.8761 27.4843 42.1551 38.6142 41.7809 40.0102C41.5058 41.0346 41.4414 41.6954 41.4671 42.121C41.4881 41.7084 41.5762 41.1475 41.7809 40.3852C42.1964 38.8354 45.5038 25.2898 45.5038 25.2898V24.9141L45.4122 25.2898Z" fill="#D1D1D1"/>
<path d="M59.5365 41.2425C59.724 40.5772 61.5037 33.3989 61.933 31.6658L62.0259 31.2891V31.6658C62.0259 31.6658 59.7499 40.8602 59.5365 41.6175C59.4753 41.8358 59.4368 42.0396 59.4208 42.2263C59.3932 41.9499 59.4314 41.6176 59.5365 41.2425Z" fill="#D1D1D1"/>
<path d="M65.9148 41.4336C65.9202 41.4976 65.9229 41.5632 65.9229 41.6304C65.9229 42.6112 65.2028 43.1071 64.8195 43.302C64.7607 43.1707 64.7339 43.0543 64.7217 42.9739C65.0425 42.8293 65.8263 42.3831 65.9148 41.4336Z" fill="#D1D1D1"/>
<path d="M67.5396 40.0305C68.7967 40.917 69.5773 41.4681 69.4711 42.5531C69.3797 41.7036 68.6432 41.1838 67.5396 40.4055L67.2309 40.1864C65.3364 38.8384 64.3838 37.3357 64.4725 35.875C64.5534 37.2162 65.4982 38.5786 67.2309 39.8113L67.5396 40.0305Z" fill="#D1D1D1"/>
<path d="M13.088 34.773H12.9756C14.7783 28.6635 16.926 25.9656 20.094 25.8359L19.9889 26.2162C16.9434 26.3971 14.8474 28.9942 13.088 34.773Z" fill="#D1D1D1"/>
<path d="M55.9581 35.6991C55.9842 34.7645 55.8211 34.0317 55.471 33.5793C55.2476 33.2911 54.9654 33.1445 54.6328 33.1445C53.5414 33.1445 52.2932 33.6281 51.3073 37.2129C50.92 38.6195 50.7381 39.8968 50.763 40.9059C50.7848 39.963 50.9665 38.8256 51.3073 37.5879C52.2932 34.003 53.5414 33.5196 54.6328 33.5196C54.9654 33.5196 55.2476 33.6661 55.471 33.9544C55.7728 34.3443 55.9357 34.9427 55.9581 35.6991Z" fill="#D1D1D1"/>
<path d="M0 71.625V72H149.701V71.625H0Z" fill="#D1D1D1"/>
<path d="M0 0H149.701V0.375H0V0Z" fill="#D1D1D1"/>
<path d="M148.749 32.8315C147.906 31.7181 146.625 31.1055 145.142 31.1055C142.368 31.1055 140.045 32.6892 137.374 36.3999C135.1 39.5589 132.271 43.4894 130.2 43.4894C129.702 43.4894 129.333 43.3268 129.07 42.9911C128.776 42.6175 128.619 42.0353 128.597 41.2639C128.573 42.2236 128.73 42.9341 129.07 43.3662C129.333 43.7019 129.702 43.8644 130.2 43.8644C132.271 43.8644 135.1 39.9338 137.374 36.7749C140.045 33.0642 142.368 31.4805 145.142 31.4805C146.625 31.4805 147.906 32.093 148.749 33.2065C149.374 34.0309 149.672 35.1507 149.699 36.4259C149.726 34.9954 149.434 33.7358 148.749 32.8315Z" fill="#D1D1D1"/>
<path d="M123.488 41.154C123.502 40.601 123.58 40.0236 123.723 39.4293L123.799 39.0547H123.724C123.707 39.0739 123.618 39.5491 123.618 39.5491C123.517 40.1033 123.474 40.6403 123.488 41.154Z" fill="#D1D1D1"/>
<path d="M104.304 50.9998L107.335 39.2057C107.41 38.9997 107.361 38.802 107.336 38.831L107.197 39.3653L104.208 50.9998H104.304Z" fill="#D1D1D1"/>
<path d="M77.8325 38.5778C77.8495 37.5081 78.0106 36.3694 78.3185 35.1834C80.2316 27.81 85.8919 24.3749 89.1142 24.3749C91.9395 24.3749 93.2562 25.5966 93.6766 26.0954L94.4697 25.0164H96.1727L96.2769 24.6413H94.4697L93.6766 25.7203C93.2562 25.2216 91.9395 24 89.1142 24C85.8919 24 80.2316 27.4349 78.3185 34.8084C77.9744 36.1342 77.8137 37.4006 77.8325 38.5778Z" fill="#D1D1D1"/>
<path d="M83.3629 39.431C83.3382 40.9631 83.6108 42.2128 84.1765 42.9543C84.5833 43.4881 85.1391 43.7579 85.8291 43.7579C88.3399 43.7579 89.8879 41.0731 91.3843 38.4761L92.0831 37.2801C94.395 33.4213 97.2145 31.4649 100.461 31.4649C101.595 31.4649 102.609 31.9122 103.396 32.7593C104.318 33.7529 104.838 35.2241 104.875 36.8865C104.914 35.0712 104.388 33.4519 103.396 32.3843C102.609 31.5372 101.595 31.0898 100.461 31.0898C97.2145 31.0898 94.395 33.0463 92.0831 36.9051L91.3843 38.1011C89.8879 40.6981 88.3399 43.3829 85.8291 43.3829C85.1391 43.3829 84.5833 43.1131 84.1765 42.5793C83.6577 41.8992 83.3855 40.7918 83.3629 39.431Z" fill="#D1D1D1"/>
<path d="M104.643 39.1283L104.502 39.2671C104.476 39.3627 104.416 39.5633 104.504 39.6433C105.602 38.5548 107.907 36.0346 108.748 33.2998L108.869 32.9258H108.746L108.623 33.2998C107.737 35.7774 105.733 38.0294 104.643 39.1283Z" fill="#D1D1D1"/>
<path d="M107.029 32.9225L107.325 31.7188H113.718L113.819 31.3438H107.325L106.937 32.9225H107.029Z" fill="#D1D1D1"/>
<path d="M113.634 32.4076L113.499 32.5241L113.387 32.8984C114.033 32.3149 115.413 31.4649 117.315 31.4649C118.566 31.4649 119.662 32.0395 120.4 33.0839C121.051 34.0046 121.392 35.2091 121.421 36.5692C121.453 35.0555 121.11 33.7134 120.4 32.7089C119.662 31.6645 118.566 31.0898 117.315 31.0898C115.535 31.0898 114.313 31.834 113.634 32.4076Z" fill="#D1D1D1"/>
<path d="M121.061 39.4491L120.917 39.5961C120.89 39.6942 120.879 39.9695 120.879 39.9695C121.726 39.1258 123.487 37.3772 124.994 35.623C126.337 34.0616 129.049 31.4414 132.132 31.4414C133.388 31.4414 134.381 31.7959 135.085 32.4934C135.682 33.0879 136.042 33.9344 136.086 34.8386C136.09 34.7771 136.091 34.7147 136.091 34.6516C136.091 33.6775 135.724 32.7539 135.085 32.1184C134.381 31.4209 133.388 31.0664 132.132 31.0664C129.049 31.0664 126.337 33.6866 124.994 35.248C123.569 36.9069 121.95 38.5608 121.061 39.4491Z" fill="#D1D1D1"/>
<path d="M132.1 35.5999C132.145 35.0867 132.382 34.6519 132.778 34.3614C133.114 34.1162 133.533 33.9972 133.916 34.0237C133.983 33.937 133.961 33.7227 133.916 33.6493L133.805 33.6445L133.693 33.6493C133.376 33.6723 133.049 33.7882 132.778 33.9864C132.335 34.3112 132.092 34.8165 132.092 35.41C132.092 35.474 132.094 35.5374 132.1 35.5999Z" fill="#D1D1D1"/>
<path d="M101.133 38.9122C100.503 41.3501 99.0796 44.1971 97.1413 44.1971C96.6976 44.1971 96.3733 44.0537 96.1506 43.7597C95.9198 43.4564 95.7949 42.9918 95.7742 42.3688C95.7509 43.1831 95.8757 43.7733 96.1506 44.1348C96.3733 44.4287 96.6976 44.5722 97.1413 44.5722C99.0796 44.5722 100.503 41.725 101.133 39.2871C101.431 38.1358 101.568 37.0041 101.548 36.043C101.53 36.9175 101.393 37.9074 101.133 38.9122Z" fill="#D1D1D1"/>
<path d="M116.307 38.994C115.559 42.1632 114.283 43.981 112.807 43.981C111.798 43.981 111.272 43.1554 111.087 42.7883L111.03 42.6614C111.03 42.6614 110.966 42.9389 111.029 43.0377C111.092 43.1364 111.654 44.356 112.807 44.356C114.283 44.356 115.559 42.5383 116.307 39.369C116.663 37.8592 116.779 36.7621 116.757 35.9648C116.739 36.7217 116.61 37.7081 116.307 38.994Z" fill="#D1D1D1"/>
<path d="M146.172 38.913C145.542 41.3509 144.119 44.198 142.18 44.198C141.737 44.198 141.413 44.0545 141.189 43.7606C140.958 43.4573 140.833 42.993 140.814 42.3704C140.789 43.1844 140.914 43.7743 141.189 44.1356C141.413 44.4295 141.737 44.573 142.18 44.573C144.119 44.573 145.542 41.7258 146.172 39.2879C146.47 38.1363 146.607 37.0043 146.587 36.043C146.569 36.9177 146.432 37.9079 146.172 38.913Z" fill="#D1D1D1"/>
<path d="M75.2428 34.5319C75.2015 33.8266 74.9145 33.1909 74.4062 32.6841C73.6045 31.8824 72.3029 31.4414 70.7414 31.4414C67.6153 31.4414 65.4498 32.715 64.6451 35.0266C64.5471 35.3078 64.4899 35.5922 64.4725 35.8782C64.4476 35.4659 64.5044 35.0555 64.6451 34.6516C65.4498 32.3401 67.6153 31.0664 70.7414 31.0664C72.3029 31.0664 73.6045 31.5074 74.4062 32.309C74.9572 32.8584 75.248 33.559 75.248 34.3355C75.248 34.4028 75.2462 34.4682 75.2428 34.5319Z" fill="#D1D1D1"/>
<path d="M71.6694 34.8785C71.7314 34.2749 72.0897 33.8552 72.2981 33.6576L72.4178 33.5625C72.4178 33.5625 72.4178 33.3694 72.2981 33.2812L72.1984 33.3787L72.0986 33.4987C71.8879 33.7594 71.6602 34.1619 71.6602 34.6851C71.6602 34.7503 71.6633 34.8149 71.6694 34.8785Z" fill="#D1D1D1"/>
<path d="M69.088 34.6523C69.0821 34.7139 69.0791 34.7774 69.0791 34.8431C69.0791 35.897 69.9326 36.5113 70.9204 37.2223L70.9262 37.2263L71.3407 37.5259L71.5836 37.7049L71.5853 37.7061C73.2168 38.9068 74.3218 39.72 74.408 41.1635C74.5025 39.478 73.3529 38.632 71.5853 37.3311L71.5836 37.3298L71.3407 37.1508L70.9262 36.8514L70.9204 36.8473C69.9916 36.1787 69.1815 35.5957 69.088 34.6523Z" fill="#D1D1D1"/>
<path d="M15.8173 41.1635C15.6247 41.8714 15.5401 42.5094 15.5633 43.0744C15.5815 42.6065 15.6661 42.094 15.8173 41.5386C16.3217 39.686 17.0876 37.3591 17.2829 36.7031H17.0957C16.8413 37.5641 16.2465 39.587 15.8173 41.1635Z" fill="#D1D1D1"/>
<path d="M0 43.4958V43.8707L0.386531 44.1712C0.862282 44.639 1.45342 44.9075 2.0058 44.9075C2.89458 44.9075 5.04877 44.618 5.86535 41.9379C6.61456 39.4759 7.45296 36.1932 7.51214 35.9615L7.51539 35.9488C8.91868 31.1287 11.2963 27.7817 14.5842 25.995C17.2126 24.5675 19.8997 24.3749 22.182 24.3749L28.4152 24.3898L28.5295 24.015L22.182 24C19.8997 24 17.2126 24.1925 14.5842 25.62C11.2963 27.4067 8.91868 30.7538 7.51539 35.5738L7.51214 35.5865C7.45296 35.8183 6.61456 39.101 5.86535 41.5629C5.04877 44.2431 2.89458 44.5325 2.0058 44.5325C1.45342 44.5325 0.862282 44.264 0.386531 43.7961L0 43.4958Z" fill="#D1D1D1"/>
<path d="M20.828 43.1497C20.7162 43.0047 20.6507 42.7959 20.6318 42.517C20.6051 42.9907 20.6707 43.3207 20.828 43.5248C21.0123 43.7634 21.1448 43.8745 21.9579 43.8652C23.1952 43.8652 26.1444 41.4554 27.6867 35.6503C27.6849 35.6577 28.1336 33.7273 28.2555 33.1454L28.1311 33.1445C27.9854 33.8415 27.6853 35.2814 27.6867 35.2754C26.1444 41.0804 23.1952 43.4903 21.9579 43.4903C21.3501 43.4903 21.0123 43.3884 20.828 43.1497Z" fill="#D1D1D1"/>
<path d="M25.4292 33.1441L25.7721 31.7492H25.9133C29.403 31.7492 30.4504 30.618 32.7838 27.1195L32.8376 27.0391L34.5198 27.0396L34.6117 26.6647L32.8376 26.6641L32.7838 26.7444C30.4504 30.243 29.403 31.3743 25.9133 31.3743H25.7721L25.3369 33.1441H25.4292Z" fill="#D1D1D1"/>
<path d="M33.4815 31.2578L33.3896 31.6328H36.6403L36.7349 31.2578H33.4815Z" fill="#D1D1D1"/>
<path d="M31.1114 41.835C31.1298 42.1593 31.2017 42.4385 31.3571 42.6322C31.5278 42.8455 31.7943 42.9492 32.1704 42.9492C33.9669 42.9492 36.5992 40.8517 38.1069 34.9401L40.1494 26.7695H40.243L38.1069 35.315C36.5992 41.2268 33.9669 43.3241 32.1704 43.3241C31.7943 43.3241 31.5278 43.2204 31.3571 43.0072C31.1445 42.7422 31.088 42.3169 31.1114 41.835Z" fill="#D1D1D1"/>
<path d="M37.2735 26.7734L37.6132 25.293H45.4117C45.4708 25.0513 45.5033 24.918 45.5033 24.918H37.6132L37.1875 26.7734H37.2735Z" fill="#D1D1D1"/>
<path d="M41.4671 42.1243C41.4887 42.4837 41.5748 42.6753 41.6525 42.7764C41.7439 42.8952 41.8715 42.9528 42.0404 42.9528C43.62 42.9528 45.6577 38.8874 46.7509 36.7026C48.0535 34.1031 50.6766 31.0664 53.7865 31.0664C55.8129 31.0664 56.6958 31.9747 57.052 32.5503L57.4032 31.2927H62.0266C62.0266 31.2927 61.9931 31.4282 61.9337 31.6677H57.4032L57.052 32.9254C56.6958 32.3497 55.8129 31.4414 53.7865 31.4414C50.6766 31.4414 48.0535 34.478 46.7509 37.0776C45.6577 39.2623 43.62 43.3277 42.0404 43.3277C41.8715 43.3277 41.7439 43.2701 41.6525 43.1514C41.5513 43.0197 41.4359 42.7343 41.4671 42.1243Z" fill="#D1D1D1"/>
<path d="M59.4208 42.2269C59.4482 42.5018 59.5405 42.7212 59.6966 42.8723C59.9292 43.0965 60.2596 43.1249 60.4848 43.0531C61.4255 42.7555 62.0193 42.0172 62.1974 41.7675L62.2207 41.7344C62.2207 42.1126 62.1433 42.2485 61.8723 42.5321C61.5733 42.845 61.1043 43.2322 60.4848 43.4281C60.2596 43.4999 59.9292 43.4716 59.6966 43.2474C59.4749 43.0327 59.3817 42.6802 59.4208 42.2269Z" fill="#D1D1D1"/>
<path d="M62.2062 41.5782C62.2071 41.5692 62.2081 41.5601 62.2091 41.5512C62.381 40.0885 63.4417 39.8711 64.0585 39.8711C64.3213 39.8711 64.9828 39.9222 65.4577 40.3956C65.7263 40.6636 65.8795 41.0118 65.9152 41.4323C65.9205 41.3748 65.9234 41.3154 65.9234 41.2542C65.9234 40.7447 65.7672 40.3293 65.4577 40.0207C64.9828 39.5472 64.3213 39.4961 64.0585 39.4961C63.4417 39.4961 62.381 39.7135 62.2091 41.1761C62.193 41.3127 62.1973 41.4604 62.2062 41.5782Z" fill="#D1D1D1"/>
<path d="M67.0101 44.3288C65.5415 44.3152 65.011 43.7304 64.8196 43.3029C64.8196 43.3029 64.7456 43.1254 64.7231 42.9753C64.7231 43.0052 64.6878 43.1254 64.7218 43.3498C64.7736 43.6921 65.0905 44.6861 67.0101 44.7038C68.2645 44.7147 69.2897 44.0351 69.4498 43.0881C69.4822 42.8952 69.4887 42.7188 69.471 42.5547C69.4659 42.6063 69.4588 42.659 69.4498 42.7131C69.2897 43.6601 68.2645 44.3397 67.0101 44.3288Z" fill="#D1D1D1"/>
<path d="M12.9787 34.7737H17.6212L20.0932 25.8366C20.1282 25.8345 20.1741 25.838 20.2093 25.8366L17.6212 35.1487H12.8662C12.9036 35.0223 12.941 34.8973 12.9787 34.7737Z" fill="#D1D1D1"/>
<path d="M55.5775 38.1156C54.6645 41.6164 53.578 43.177 52.0564 43.177C51.7177 43.177 51.4514 43.0438 51.2405 42.7694C50.9422 42.3788 50.7833 41.7324 50.763 40.906C50.7396 41.9122 50.8984 42.6965 51.2405 43.1444C51.4514 43.4188 51.7177 43.552 52.0564 43.552C53.578 43.552 54.6645 41.9913 55.5775 38.4907C55.8549 37.4289 55.9813 36.4799 55.9581 35.6992C55.9385 36.4018 55.812 37.2185 55.5775 38.1156Z" fill="#D1D1D1"/>
<path d="M149.701 57H0V57.375H149.701V57Z" fill="#D1D1D1"/>
</g>
<defs>
<clipPath id="clip0_3722_6255">
<rect width="150" height="72" fill="white"/>
</clipPath>
</defs>
</svg>
