<svg width="81" height="48" viewBox="0 0 81 48" fill="none" xmlns="http://www.w3.org/2000/svg">
<path d="M22.6198 17.4344C22.6198 18.4223 22.7266 19.2232 22.9135 19.8106C23.1271 20.398 23.394 21.0388 23.7678 21.7329C23.9013 21.9465 23.9547 22.1601 23.9547 22.347C23.9547 22.614 23.7945 22.881 23.4474 23.148L21.7656 24.2693C21.5253 24.4295 21.285 24.5096 21.0714 24.5096C20.8045 24.5096 20.5375 24.3761 20.2706 24.1358C19.8968 23.7354 19.5765 23.3082 19.3095 22.881C19.0425 22.4271 18.7756 21.9198 18.4819 21.3058C16.3996 23.7621 13.7833 24.9902 10.6332 24.9902C8.39067 24.9902 6.60201 24.3494 5.29389 23.0679C3.98577 21.7863 3.31836 20.0776 3.31836 17.9417C3.31836 15.6723 4.11925 13.8301 5.74773 12.4417C7.37621 11.0534 9.53861 10.3592 12.2883 10.3592C13.196 10.3592 14.1304 10.4393 15.1182 10.5728C16.1059 10.7063 17.1204 10.9199 18.1882 11.1602V9.21113C18.1882 7.18201 17.7611 5.76697 16.9335 4.9393C16.0792 4.11164 14.6376 3.71115 12.582 3.71115C11.6476 3.71115 10.6866 3.81795 9.69879 4.05824C8.71103 4.29853 7.74996 4.59222 6.81558 4.966C6.38844 5.1529 6.06809 5.25969 5.88121 5.31309C5.69434 5.36649 5.56085 5.39319 5.45407 5.39319C5.08032 5.39319 4.89345 5.1262 4.89345 4.56552V3.25727C4.89345 2.83009 4.94684 2.5097 5.08032 2.32281C5.2138 2.13592 5.45407 1.94902 5.82782 1.76213C6.76219 1.28155 7.88344 0.881065 9.19156 0.560678C10.4997 0.213592 11.8879 0.0533979 13.3562 0.0533979C16.5331 0.0533979 18.8557 0.774269 20.3506 2.21601C21.8189 3.65775 22.5664 5.84707 22.5664 8.78395V17.4344H22.6198ZM11.7811 21.4926C12.6621 21.4926 13.5698 21.3325 14.5308 21.0121C15.4919 20.6917 16.3462 20.1043 17.067 19.3033C17.4941 18.7961 17.8145 18.2354 17.9747 17.5946C18.1348 16.9538 18.2416 16.1796 18.2416 15.2718V14.1504C17.4674 13.9635 16.6398 13.8034 15.7856 13.6966C14.9313 13.5898 14.1037 13.5364 13.2761 13.5364C11.4875 13.5364 10.1793 13.8834 9.29835 14.6043C8.41737 15.3252 7.99022 16.3398 7.99022 17.6747C7.99022 18.9296 8.31058 19.864 8.97799 20.5048C9.6187 21.1723 10.5531 21.4926 11.7811 21.4926ZM33.2183 24.3761C32.7378 24.3761 32.4174 24.296 32.2038 24.1091C31.9903 23.949 31.8034 23.5752 31.6432 23.0679L25.3696 2.4296C25.2094 1.89562 25.1293 1.54854 25.1293 1.36165C25.1293 0.934463 25.3429 0.694172 25.77 0.694172H28.3863C28.8935 0.694172 29.2405 0.774269 29.4274 0.961162C29.641 1.12136 29.8012 1.49514 29.9613 2.00242L34.4463 19.6771L38.611 2.00242C38.7444 1.46844 38.9046 1.12136 39.1182 0.961162C39.3318 0.800968 39.7055 0.694172 40.1861 0.694172H42.3218C42.829 0.694172 43.176 0.774269 43.3896 0.961162C43.6032 1.12136 43.7901 1.49514 43.8969 2.00242L48.1149 19.8907L52.7333 2.00242C52.8935 1.46844 53.0804 1.12136 53.2673 0.961162C53.4808 0.800968 53.8279 0.694172 54.3084 0.694172H56.7912C57.2183 0.694172 57.4586 0.907764 57.4586 1.36165C57.4586 1.49514 57.4319 1.62864 57.4052 1.78883C57.3785 1.94902 57.3251 2.16261 57.2183 2.4563L50.7845 23.0946C50.6243 23.6286 50.4375 23.9756 50.2239 24.1358C50.0103 24.296 49.6633 24.4028 49.2094 24.4028H46.9135C46.4063 24.4028 46.0593 24.3227 45.8457 24.1358C45.6321 23.9489 45.4452 23.6019 45.3385 23.0679L41.2005 5.84707L37.0893 23.0412C36.9558 23.5752 36.7956 23.9223 36.582 24.1091C36.3685 24.296 35.9947 24.3761 35.5142 24.3761H33.2183ZM67.5231 25.097C66.1349 25.097 64.7467 24.9368 63.4119 24.6164C62.0771 24.296 61.0359 23.949 60.3418 23.5485C59.9147 23.3082 59.621 23.0412 59.5142 22.8009C59.4074 22.5606 59.354 22.2936 59.354 22.0533V20.6917C59.354 20.131 59.5676 19.864 59.9681 19.864C60.1282 19.864 60.2884 19.8907 60.4486 19.9441C60.6088 19.9975 60.849 20.1043 61.116 20.2111C62.0237 20.6116 63.0115 20.932 64.0526 21.1456C65.1205 21.3592 66.1616 21.4659 67.2295 21.4659C68.9114 21.4659 70.2195 21.1723 71.1272 20.5849C72.0348 19.9975 72.5154 19.1431 72.5154 18.0485C72.5154 17.3009 72.2751 16.6868 71.7946 16.1796C71.314 15.6723 70.4063 15.2184 69.0982 14.7912L65.2273 13.5898C63.2784 12.9757 61.8368 12.0679 60.9558 10.8665C60.0749 9.69172 59.621 8.38347 59.621 6.99512C59.621 5.87377 59.8613 4.88591 60.3418 4.03154C60.8223 3.17717 61.4631 2.4296 62.264 1.84223C63.0648 1.22815 63.9725 0.774269 65.0404 0.453882C66.1082 0.133495 67.2295 0 68.4041 0C68.9914 0 69.6055 0.0266989 70.1928 0.106796C70.8068 0.186893 71.3674 0.293688 71.928 0.400484C72.462 0.533979 72.9692 0.667473 73.4497 0.827667C73.9303 0.987861 74.304 1.14805 74.571 1.30825C74.9447 1.52184 75.2117 1.73543 75.3719 1.97572C75.5321 2.18931 75.6121 2.483 75.6121 2.85679V4.11164C75.6121 4.67231 75.3986 4.966 74.9981 4.966C74.7846 4.966 74.4375 4.85921 73.9837 4.64562C72.462 3.95144 70.7534 3.60436 68.858 3.60436C67.3363 3.60436 66.1349 3.84465 65.3073 4.35193C64.4798 4.85921 64.0526 5.63348 64.0526 6.72813C64.0526 7.4757 64.3196 8.11648 64.8535 8.62376C65.3874 9.13104 66.3752 9.63832 67.7901 10.0922L71.581 11.2937C73.5031 11.9077 74.8913 12.7621 75.7189 13.8568C76.5465 14.9514 76.947 16.2063 76.947 17.5946C76.947 18.7427 76.7067 19.7839 76.2529 20.6917C75.7723 21.5994 75.1316 22.4004 74.304 23.0412C73.4764 23.7087 72.4887 24.1892 71.3407 24.5363C70.1394 24.9101 68.8847 25.097 67.5231 25.097Z" fill="#D1D1D1"/>
<path fill-rule="evenodd" clip-rule="evenodd" d="M72.5693 38.0682C63.7862 44.556 51.0253 48.0002 40.0531 48.0002C24.676 48.0002 10.8206 42.3133 0.3556 32.8619C-0.471987 32.1143 0.275511 31.0998 1.26328 31.6871C12.5825 38.2551 26.5447 42.2332 40.9875 42.2332C50.7317 42.2332 61.4369 40.2041 71.2879 36.0391C72.7562 35.3716 74.0109 37.0002 72.5693 38.0682Z" fill="#D1D1D1"/>
<path fill-rule="evenodd" clip-rule="evenodd" d="M76.2261 33.906C75.1049 32.4643 68.8045 33.2118 65.948 33.5589C65.0937 33.6657 64.9602 32.9181 65.7344 32.3575C70.7534 28.8332 79.0025 29.8478 79.9636 31.0225C80.9247 32.224 79.6966 40.4739 74.9981 44.4254C74.2773 45.0394 73.5832 44.7191 73.9035 43.9181C74.9714 41.2749 77.3474 35.321 76.2261 33.906Z" fill="#D1D1D1"/>
</svg>
