<svg width="474" height="48" viewBox="0 0 474 48" fill="none" xmlns="http://www.w3.org/2000/svg">
<g clip-path="url(#clip0_3722_6087)">
<path d="M430.089 47.408C443.914 35.5724 463.335 24.0655 474 19.9231C472.354 18.871 469.787 17.3587 466.89 15.7148C453.131 20.2518 437.067 30.3121 422.716 41.6874C425.152 43.5285 427.719 45.4354 430.089 47.408Z" fill="#ADADAD"/>
<path d="M423.769 15.2545C421.728 14.2682 419.49 13.3476 417.778 12.5586C412.577 15.123 405.797 19.0024 397.238 25.1175C399.082 26.1038 401.057 27.2874 403.163 28.4709C409.747 23.6052 416.396 19.0024 423.769 15.2545Z" fill="#D1D1D1"/>
<path d="M436.08 9.60075C433.578 8.21993 424.888 4.99801 418.898 3.61719C417.12 4.27472 414.618 5.26102 412.907 5.98431C415.079 6.57609 423.177 8.74595 430.089 12.2309C431.867 11.3761 434.368 10.324 436.08 9.60075Z" fill="#ADADAD"/>
<path d="M406.652 8.74609C398.95 12.2968 390.852 17.1625 386.441 19.9899C388.021 20.7132 389.601 21.305 391.774 22.3571C401.517 15.7817 409.154 11.7708 412.182 10.4557C410.01 9.66664 407.969 9.14061 406.652 8.74609Z" fill="#D1D1D1"/>
<path d="M441.873 7.56164C443.651 6.96986 445.692 6.44384 447.469 5.91781C442.334 3.74795 435.882 1.44658 430.089 0C429.167 0.263014 426.402 0.986301 424.493 1.57808C426.468 2.16986 432.986 3.68219 441.873 7.56164ZM409.417 32.2849C411.524 33.5342 413.762 35.2438 415.935 36.6904C430.352 25.5123 444.572 16.8986 460.175 12.0329C458.002 10.9151 456.093 9.92877 453.657 8.74521C444.309 11.1123 428.312 17.4904 409.417 32.2849Z" fill="#ADADAD"/>
<path d="M0 43.9896H10.5333C15.8658 43.9896 18.3675 41.2279 18.3675 37.3485C18.3675 34.1923 16.7217 32.0882 13.2983 31.4307C16.3267 30.7074 17.7092 28.8663 17.7092 26.1704C17.7092 22.7512 15.2075 19.9896 9.875 19.9896H0.0658333V43.9896H0ZM9.15083 33.7978C11.1258 33.7978 12.5083 34.7841 12.5083 36.7567C12.5083 38.8608 11.1917 39.7156 9.15083 39.7156H5.7275V33.732H9.15083V33.7978ZM8.4925 24.1978C10.4675 24.1978 11.85 25.0526 11.85 27.0252C11.85 28.9978 10.5333 29.8526 8.4925 29.8526H5.7275V24.1978H8.4925ZM39.6317 19.9238H33.7067L24.6875 43.9896H30.6783L32.3242 38.9923H41.0142L42.66 43.9896H48.7167L39.6317 19.9238ZM36.6692 25.7101L39.5 34.5868H33.7067L36.6692 25.7101ZM78.7367 19.9238H73.2725V36.0334L63.0025 19.9238H56.88V43.9896H62.3442V27.9457L72.6142 43.9896H78.7367V19.9238ZM103.951 43.9896L96.0508 31.7594V43.9896H90.1917V19.9238H96.0508V31.4964L103.556 19.9238H110.073L102.173 31.4964L110.797 43.9896H103.951ZM131.535 31.9567C131.535 36.7567 134.432 39.7156 138.184 39.7156C141.937 39.7156 144.833 36.7567 144.833 31.9567C144.833 27.1567 141.937 24.1978 138.184 24.1978C134.432 24.1978 131.535 27.1567 131.535 31.9567ZM125.347 31.9567C125.412 24.9211 130.35 19.3978 138.184 19.3978C146.018 19.3978 150.956 24.9211 151.022 31.9567C150.956 38.9923 146.018 44.5156 138.184 44.5156C130.35 44.5156 125.412 38.9923 125.347 31.9567ZM159.053 43.9896H164.912V34.5211H172.549V29.9183H164.912V24.5266H174.129L175.182 19.9238H159.053V43.9896ZM202.503 19.9238H196.578L187.559 43.9896H193.55L195.196 38.9923H203.886L205.532 43.9896H211.588L202.503 19.9238ZM199.541 25.7101L202.372 34.5868H196.578L199.541 25.7101ZM246.348 19.9238H239.502L233.247 32.943L226.993 19.9238H220.147V43.9896H225.413V27.88L233.182 43.9896L240.95 27.88V43.9896H246.414L246.348 19.9238ZM257.737 43.9896H274.196V39.3868H263.597V33.995H271.957V29.5238H263.597V24.5266H273.274L274.327 19.9238H257.737V43.9896ZM296.513 43.9896H302.899L296.908 33.7978C300.2 32.8772 301.78 30.5759 301.78 27.2224C301.78 22.8827 299.147 19.9896 293.222 19.9896H283.939V44.0553H289.667V34.5868H291.247L296.513 43.9896ZM292.103 24.395C294.538 24.395 295.789 25.4471 295.789 27.4855C295.789 29.5238 294.538 30.5759 292.103 30.5759H289.601V24.395H292.103ZM311.655 43.9896H317.514V19.9896H311.655V43.9896ZM346.349 37.5457C344.111 39.1238 342.136 39.6498 340.095 39.6498C335.618 39.6498 332.458 36.5594 332.458 31.9567C332.458 27.3539 335.552 24.2635 339.897 24.2635C341.872 24.2635 343.847 24.7896 346.02 26.3676V20.9101C344.045 19.7923 341.741 19.332 339.173 19.332C331.207 19.332 326.204 24.8553 326.138 31.8909C326.204 38.9923 331.076 44.4498 339.173 44.4498C341.872 44.4498 344.177 43.9896 346.283 42.8718V37.5457H346.349ZM367.811 19.9238H361.886L352.867 43.9896H358.857L360.503 38.9923H369.193L370.839 43.9896H376.896L367.811 19.9238ZM364.848 25.7101L367.679 34.5868H361.886L364.848 25.7101Z" fill="#D1D1D1"/>
</g>
<defs>
<clipPath id="clip0_3722_6087">
<rect width="474" height="48" fill="white"/>
</clipPath>
</defs>
</svg>
