<svg width="184" height="71" viewBox="0 0 184 71" fill="none" xmlns="http://www.w3.org/2000/svg">
<g clip-path="url(#clip0_3722_6558)">
<path d="M179.528 70.2031H0.797852H179.528Z" fill="#ADADAD"/>
<path d="M179.528 70.2031H0.797852" stroke="#ADADAD" stroke-width="0.8925" stroke-miterlimit="3.864"/>
<path d="M156.731 0.000406265H178.353L158.551 20.2656H137L156.731 0.000406265Z" fill="#ADADAD"/>
<path d="M128.692 0.000406265H150.313L130.513 20.2656H108.962L128.692 0.000406265Z" fill="#ADADAD"/>
<mask id="mask0_3722_6558" style="mask-type:luminance" maskUnits="userSpaceOnUse" x="-5" y="0" width="190" height="76">
<path d="M-4.13574 75.1406H184.464V0.000411987H-4.13574V75.1406Z" fill="white"/>
</mask>
<g mask="url(#mask0_3722_6558)">
<path fill-rule="evenodd" clip-rule="evenodd" d="M25.5747 60.2501C23.5038 61.2738 21.1134 61.5465 18.6783 61.5934C16.0601 61.6381 4.49926 61.5934 4.49926 61.5934C3.04494 61.4347 1.74699 60.6592 1.24658 58.746C1.06339 58.0419 1.01648 56.9266 1.01648 56.9266L0.994141 33.2462C0.994141 33.2462 1.08573 30.5128 1.01648 29.1449C1.01648 27.2563 1.42753 25.7991 3.08962 24.8201C4.66011 23.9775 7.00356 24.3642 8.20991 24.2278L20.5437 24.2502C24.5716 24.3642 28.213 26.3913 29.5802 30.0121C30.7173 32.9959 30.4001 36.9788 28.213 39.3256C27.4646 40.3492 25.4831 41.4869 24.5716 41.6009C26.5062 42.2826 26.9642 42.6268 27.7126 43.2414C30.6279 45.5882 31.6511 49.2515 31.0345 52.803C30.5118 55.8806 28.3939 58.9046 25.5747 60.2501ZM20.6822 54.1708C20.0902 54.5351 19.3619 54.8748 18.2003 54.9888C17.6999 55.0335 16.4488 55.0335 16.4488 55.0335L9.37158 55.0581V45.4943C12.3048 45.472 17.5189 45.472 17.5189 45.472C17.5189 45.472 18.7699 45.539 19.5652 45.6977C21.091 46.0419 22.4806 47.4321 22.7531 48.9788C23.0033 51.0261 22.4806 53.2142 20.6822 54.1708ZM20.3851 38.1634C18.9509 38.9814 17.0833 38.8898 15.3788 38.8696H14.3556H9.27775L9.25541 31.0581L16.8353 31.0805C16.8353 31.0805 19.1564 31.2168 20.0657 31.4917C21.4328 32.084 22.0025 33.5189 22.0919 34.8845C22.045 36.1138 21.4552 37.5487 20.3851 38.1634Z" fill="#D1D1D1"/>
<path fill-rule="evenodd" clip-rule="evenodd" d="M169.34 60.7723C163.125 63.5259 154.706 63.1861 149.474 58.5395C142.917 52.8244 141.554 43.1712 144.103 35.134C145.877 29.6447 150.928 24.9533 156.665 23.9319C163.99 22.4523 171.842 24.3409 176.281 30.5566C180.81 36.7723 180.857 47.7486 176.511 54.5343C174.691 57.3325 172.093 59.3374 169.34 60.7723ZM165.746 54.2593C162.737 55.7635 158.302 55.6942 155.753 53.3944C151.178 48.9779 150.792 41.5754 153.113 35.9073C154.458 32.9481 157.527 30.6483 160.762 30.5566C164.198 30.2839 167.567 32.1055 169.182 35.2458C171.275 39.4812 171.3 44.9682 169.772 49.454C168.974 51.2778 167.656 53.2804 165.746 54.2593Z" fill="#D1D1D1"/>
<path d="M57.7096 61.2976C56.778 61.5926 55.7526 61.6172 55.7526 61.6172H38.7297H37.7043C36.5895 61.4786 35.5195 60.4997 35.0414 59.5453C34.4941 57.6768 34.6549 57.3818 34.5879 56.1748V27.4857C34.7688 25.7312 35.2246 25.0719 36.6342 24.4103C37.7736 24.2516 38.8905 24.2292 38.8905 24.2292L56.434 24.2516C58.3262 24.4103 59.0522 25.1613 59.394 26.5269C59.7113 27.7137 59.3717 28.8714 58.6211 29.761C57.8459 30.512 56.8897 30.7399 55.8666 30.8539H44.2588H42.6191V38.8241C46.9686 38.8018 51.6086 38.8241 55.9805 38.8241C57.3455 38.8241 58.391 39.3695 59.0746 40.5317C59.5996 41.647 59.5527 43.1266 58.6881 44.0832C58.2324 44.6978 57.2315 45.3147 56.3201 45.3147H55.8442H42.6191V54.8763C42.6191 54.8763 51.6332 54.8539 56.3893 54.9433C57.732 54.9679 59.0746 55.8105 59.5527 57.0845C60.234 58.7474 59.2555 60.6584 57.7096 61.2976Z" fill="#D1D1D1"/>
<path d="M84.4968 60.8405C83.5406 61.7524 81.9031 61.5713 81.9031 61.5713H67.132H66.0619C64.4914 61.4126 62.7847 60.3644 62.2843 58.7708L62.0117 57.0856V28.1193C62.2396 25.73 63.2181 24.57 64.6299 24.1141C65.8586 23.6581 67.4961 23.7945 68.6109 24.4784C69.8396 25.4797 70.2484 26.7112 70.3177 28.2802V54.8751H70.7265C70.7265 54.8751 78.2394 54.8974 82.3789 54.8751C83.7461 55.1031 84.633 55.6261 85.1111 56.424C86.0427 57.7896 85.7478 59.9755 84.4968 60.8405Z" fill="#D1D1D1"/>
<path d="M92.3474 62.0467C90.5714 62.3886 89.0009 61.7941 87.9554 60.3145C87.3388 59.4719 87.0909 58.151 87.0439 57.1497V27.7766C87.2271 24.4777 89.6622 23.9524 90.3458 23.8384C91.6884 23.6105 93.1896 23.7267 94.0542 24.8196C94.9634 25.5013 95.2829 26.5719 95.3521 27.6872V55.7148V56.6937C95.3521 59.3132 95.0103 61.4074 92.3474 62.0467Z" fill="#D1D1D1"/>
<path fill-rule="evenodd" clip-rule="evenodd" d="M138.706 58.265C138.614 60.5425 137.661 61.5662 136.271 61.9774C134.951 62.3864 133.452 61.9998 132.563 61.0655C131.743 60.2006 131.539 59.197 131.539 58.4013C131.403 56.6938 131.423 34.198 131.423 34.198C131.423 34.2896 125.668 57.1944 125.668 57.1944C125.668 57.1944 125.324 58.5623 124.936 59.5859C124.14 61.5662 122.572 62.0691 120.821 62.0914C118.998 62.1361 116.543 61.9081 115.562 60.0173C115.562 60.0173 114.776 58.5958 114.333 56.8301L108.666 34.3119V35.4518V57.4671V58.8349C108.507 60.8845 107.348 61.6824 106.003 62.0467C104.776 62.297 103.407 62.0691 102.614 61.3382C101.747 60.7012 101.497 59.9726 101.271 58.2203V29.5759C101.155 26.6837 102.614 25.0901 103.977 24.5202C106.345 23.6351 109.691 23.4496 111.99 24.8845C112.946 25.5684 113.58 27.0033 114.036 28.3689C114.423 29.5759 114.72 30.9415 114.72 30.9415L120.07 53.1423L125.919 28.255C125.919 28.255 126.03 27.7543 126.303 27.0257C126.736 25.9551 127.603 24.5895 129.468 24.1805C131.651 23.8161 134.727 23.5882 136.729 24.8398C138.456 26.0914 138.775 27.8236 138.706 29.5759V58.265Z" fill="#D1D1D1"/>
<path fill-rule="evenodd" clip-rule="evenodd" d="M182.019 29.5859H180.951C180.815 29.3133 180.723 29.1546 180.335 28.4461C180.198 28.1734 180.062 27.9678 179.857 27.9678C179.606 27.9923 179.428 27.9678 179.428 27.9678V29.5859H178.512V25.3505C178.512 25.3505 180.516 25.3282 180.766 25.3974C181.494 25.5114 181.61 25.8981 181.744 26.4211C181.814 27.1721 181.402 27.7644 180.743 27.7867C180.835 27.8337 181.201 27.9007 181.449 28.6293C181.655 28.9691 181.7 29.2216 181.86 29.4272C181.883 29.5412 182.019 29.5859 182.019 29.5859ZM179.428 26.1484L179.401 27.1028H180.382C180.607 27.1028 180.766 26.991 180.766 26.6245C180.766 26.4211 180.723 26.1484 180.404 26.1484H179.428Z" fill="#D1D1D1"/>
<path fill-rule="evenodd" clip-rule="evenodd" d="M176.191 27.5128C176.191 25.394 177.97 23.597 180.085 23.597C182.199 23.597 183.999 25.394 183.999 27.5128C183.999 29.6517 182.199 31.4062 180.085 31.4062C177.97 31.4062 176.191 29.6517 176.191 27.5128ZM176.875 27.5128C176.875 25.7829 178.354 24.348 180.085 24.348C181.812 24.348 183.316 25.7829 183.316 27.5128C183.316 29.2204 181.812 30.6307 180.085 30.6307C178.354 30.6307 176.875 29.2204 176.875 27.5128Z" fill="#D1D1D1"/>
</g>
</g>
<defs>
<clipPath id="clip0_3722_6558">
<rect width="184" height="71" fill="white"/>
</clipPath>
</defs>
</svg>
