<svg width="135" height="47" viewBox="0 0 135 47" fill="none" xmlns="http://www.w3.org/2000/svg">
<path d="M41.7554 1.66406H51.4037V7.8418H41.7554V1.66406Z" fill="#D1D1D1"/>
<path d="M27.5203 15.8687H38.0339C38.0339 15.8687 35.6317 2.56233 20.6192 1.3654C20.6192 1.3654 7.07 0.664439 2.29985 14.3808C2.29985 14.3808 -1.44042 23.5172 5.71481 32.2805C5.71481 32.2805 10.3757 38.7572 19.9686 38.9198C19.9686 38.9198 27.8271 39.5732 33.7352 32.6614C33.7352 32.6614 37.7046 28.0523 37.9943 24.2062H27.6599C27.6599 24.2062 24.7744 30.1578 18.5595 28.9238C18.5595 28.9238 12.7107 28.6977 11.2607 21.5214C11.2607 21.5214 10.2347 14.5792 16.7947 11.8164C16.7947 11.8164 23.9789 9.41722 27.5203 15.8687Z" fill="#D1D1D1"/>
<path d="M41.7555 10.6719H51.3762V38.2938H41.7397L41.7555 10.6719Z" fill="#D1D1D1"/>
<path d="M66.6905 27.4975C67.9377 29.2565 70.2872 30.3357 72.4062 29.7895C72.8606 29.6797 73.261 29.4179 73.7153 29.3081C75.5723 28.258 76.801 26.048 76.5574 23.711C76.2242 22.0882 75.1825 20.4284 73.6495 19.6917C72.4207 19 70.6454 18.8783 69.3864 19.3584C68.3301 19.7843 67.3793 20.4627 66.6865 21.4414C65.4999 23.1423 65.546 25.7874 66.6905 27.4975ZM65.7936 13.338C65.7936 13.338 67.6901 11.4864 69.3166 10.8886C69.3166 10.8886 72.7855 9.49993 76.7681 11.0791C76.7681 11.0791 80.698 12.1398 83.814 16.413C83.814 16.413 86.7417 20.386 86.3071 25.1486C86.3071 25.1486 86.3348 30.4283 82.2969 34.2929C82.2969 34.2929 78.5842 38.5648 72.6762 38.5106C72.6762 38.5106 69.4786 39.1639 65.7936 35.5163V45.6406H56.0913V10.6863H65.7936V13.2164" fill="#D1D1D1"/>
<path d="M89.9932 1.57422H99.6941V38.2941H89.9932V1.57422Z" fill="#D1D1D1"/>
<path d="M112.811 25.0927C113.052 27.3278 114.705 29.0802 116.59 29.7587C118.629 30.4359 121.1 29.7309 122.491 28.0275C123.731 26.5303 123.999 24.4393 123.359 22.6181C122.664 20.5946 120.513 19.2072 118.383 19.1424C116.558 19.1239 114.851 20.0193 113.762 21.4635C113.122 22.5427 112.687 23.7714 112.811 25.0927ZM123.705 10.67H133.677V38.2919H123.705V35.7407C123.705 35.7407 120.759 38.8554 117.129 38.5736C117.129 38.5736 109.397 38.9731 105.205 31.6791C105.205 31.6791 102.857 27.7603 103.29 24.0597C103.29 24.0597 103.326 20.5761 105.06 17.7101C105.06 17.7101 106.469 15.0967 108.421 13.6088C108.421 13.6088 111.891 10.961 114.456 10.8155C114.456 10.8155 119.838 9.18079 123.705 13.3535V10.67Z" fill="#D1D1D1"/>
</svg>
