<svg width="81" height="48" viewBox="0 0 81 48" fill="none" xmlns="http://www.w3.org/2000/svg">
<path d="M0 31.6789C0 23.2804 6.83871 16.7422 15.7502 16.7422C20.9081 16.7422 25.6162 19.052 28.3066 22.5473L24.4389 26.4367C23.4133 25.116 22.1043 24.0455 20.6102 23.3036C19.116 22.5618 17.4729 22.1691 15.8066 22.1531C10.4823 22.1531 6.22109 26.156 6.22109 31.6789C6.22109 37.26 10.4823 41.2629 15.8066 41.2629C17.5336 41.26 19.2361 40.8571 20.7823 40.0847C22.3271 39.3124 23.6751 38.1909 24.7195 36.8091L28.5308 40.5865C25.9533 44.2505 21.0195 46.6738 15.7502 46.6738C6.83871 46.6738 0 40.1356 0 31.6789Z" fill="#D1D1D1"/>
<path d="M39.6859 17.7578H33.5762V45.6604H39.6859V17.7578Z" fill="#D1D1D1"/>
<path d="M51.0664 38.1648V22.9459H44.3955V17.759H51.3456V11.7838L57.0633 8.96484V17.759H66.1455V22.9459H57.0633V37.151C57.0633 39.9685 58.6341 41.2092 61.6051 41.2092C63.1499 41.2165 64.6802 40.8907 66.089 40.2507V45.5496C64.323 46.3292 62.4108 46.7132 60.4827 46.6768C55.0456 46.6768 51.0664 43.6892 51.0664 38.1648Z" fill="#D1D1D1"/>
<path d="M77.0765 17.7578H70.9668V45.6604H77.0765V17.7578Z" fill="#D1D1D1"/>
<path d="M55.2696 8.36257e-05C60.2887 -0.0115527 65.2355 1.19136 69.6934 3.50699C74.1527 5.82263 77.9915 9.18263 80.8873 13.3048H73.768C71.4349 10.6954 68.5825 8.61099 65.396 7.18263C62.2081 5.75572 58.7584 5.01681 55.2696 5.01681C51.7808 5.01681 48.3311 5.75572 45.1446 7.18263C41.9581 8.61099 39.1057 10.6954 36.7712 13.3048H29.6533C32.5476 9.18263 36.3879 5.82263 40.8458 3.50699C45.3051 1.19136 50.2519 -0.0115527 55.2696 8.36257e-05Z" fill="#7A7A7A"/>
</svg>
