<svg width="145" height="48" viewBox="0 0 145 48" fill="none" xmlns="http://www.w3.org/2000/svg">
<path fill-rule="evenodd" clip-rule="evenodd" d="M20.891 8.21501C23.2887 7.96447 25.6897 8.65759 27.5849 10.1474C29.4801 11.6372 30.7205 13.8066 31.0432 16.1955H40.5498C40.0216 9.47663 34.5348 0.117188 20.9204 0.117188C9.18385 0.117188 0 8.21502 0 24.1173C0 40.0195 8.80241 48 20.7737 48C32.1875 48 38.6426 41.0758 40.5498 31.2175H31.0432C30.7351 33.6495 29.5159 35.874 27.6317 37.4423C25.7476 39.0105 23.3386 39.8057 20.891 39.6674C12.8222 39.6674 9.59463 32.3325 9.59463 24.1466C9.59463 11.2957 16.3138 8.24436 20.891 8.24436M56.9222 3.8727H48.1198V12.9681H43.5719V19.3055H48.1492V39.8435C48.1492 44.2151 49.5282 47.1491 57.1863 47.1491H58.3306C59.739 47.1491 61.2648 47.1491 62.5264 47.0024V40.1956C61.9109 40.2358 61.2934 40.2358 60.6779 40.1956C57.0689 40.1956 57.0103 39.4327 57.0103 37.467V19.3055H62.5264V12.9681H57.0103L56.9222 3.8727ZM73.9696 18.8361V12.9681H65.4606V46.6797H74.263V29.0757C74.263 25.3202 75.5247 21.0366 82.4199 21.0366C83.2697 20.9767 84.1227 20.9767 84.9726 21.0366V12.2052C84.3959 12.1761 83.8181 12.1761 83.2414 12.2052C77.872 12.2052 75.8474 15.4913 73.9989 18.9241M87.7013 46.7971H96.5037V1.20276H87.7013V46.7971Z" fill="#D1D1D1"/>
<path fill-rule="evenodd" clip-rule="evenodd" d="M111.844 32.6847C111.844 35.208 113.194 40.0197 121.468 40.0197C125.987 40.0197 130.975 38.9341 130.975 34.1517C130.975 30.6016 127.542 29.6627 122.73 28.5184L117.712 27.3448C110.377 25.6431 103.276 24.0001 103.276 13.9952C103.276 8.91935 106.005 0 120.881 0C134.818 0 138.486 9.12473 138.486 14.67H129.449C129.214 12.6455 128.451 7.80443 120.148 7.80443C116.539 7.80443 112.225 9.15407 112.225 13.2617C112.225 16.8118 115.16 17.5746 117.037 18.0147L128.128 20.7434C134.349 22.269 140.041 24.7923 140.041 32.9488C140.041 46.6505 126.104 47.8535 122.113 47.8535C105.506 47.8535 102.66 38.2887 102.66 32.6554L111.844 32.6847Z" fill="#D1D1D1"/>
<path fill-rule="evenodd" clip-rule="evenodd" d="M141.687 1.26181L142.802 4.1958L143.829 1.26181H144.474V4.60656H144.122V1.52587L142.978 4.45986H142.655L141.452 1.52587V4.45986H141.188V1.26181H141.687ZM140.22 1.26181V1.52587H139.105V4.45986H138.694V1.52587H137.55V1.20312L140.22 1.26181Z" fill="#D1D1D1"/>
</svg>
