<svg width="362" height="65" viewBox="0 0 362 65" fill="none" xmlns="http://www.w3.org/2000/svg">
<path d="M66.8617 6.94922H38.3633V58.0447H66.8617V6.94922Z" fill="#ADADAD"/>
<path d="M40.2603 32.5C40.2603 22.1189 45.1505 12.9053 52.6545 6.95227C47.1319 2.61893 40.1654 0 32.5666 0C14.5654 0 0 14.5356 0 32.5C0 50.4644 14.5654 65 32.5666 65C40.1654 65 47.1319 62.3811 52.6545 58.0477C45.14 52.1788 40.2603 42.8811 40.2603 32.5Z" fill="#7A7A7A"/>
<path d="M105.309 32.5C105.309 50.4644 90.7435 65 72.7423 65C65.1434 65 58.1769 62.3811 52.6543 58.0477C60.2532 52.0841 65.0486 42.8811 65.0486 32.5C65.0486 22.1189 60.1583 12.9053 52.6543 6.95227C58.1664 2.61893 65.1329 0 72.7317 0C90.7435 0 105.309 14.6303 105.309 32.5Z" fill="#D1D1D1"/>
<path d="M159.924 43.2508V29.7894C159.924 24.6401 156.775 21.2682 151.368 21.2682C148.665 21.2682 145.726 22.1569 143.705 25.0845C142.131 22.6274 139.874 21.2682 136.488 21.2682C134.231 21.2682 131.974 21.9478 130.19 24.4049V21.7126H125.466V43.2508H130.19V31.3577C130.19 27.5415 132.21 25.7379 135.36 25.7379C138.509 25.7379 140.084 27.7506 140.084 31.3577V43.2508H144.807V31.3577C144.807 27.5415 147.064 25.7379 149.977 25.7379C153.127 25.7379 154.701 27.7506 154.701 31.3577V43.2508H159.924ZM229.994 21.7126H222.331V15.2041H217.607V21.7126H213.33V25.9732H217.607V35.8536C217.607 40.7938 219.628 43.6952 225.034 43.6952C227.055 43.6952 229.312 43.0155 230.887 42.1268L229.522 38.0754C228.157 38.9641 226.583 39.1993 225.454 39.1993C223.197 39.1993 222.305 37.8401 222.305 35.6183V25.9732H229.968V21.7126H229.994ZM270.095 21.2421C267.392 21.2421 265.581 22.6013 264.452 24.3787V21.6865H259.728V43.2247H264.452V31.0963C264.452 27.5154 266.027 25.4765 268.966 25.4765C269.858 25.4765 270.987 25.7118 271.905 25.9209L273.27 21.4251C272.325 21.2421 270.987 21.2421 270.095 21.2421ZM209.498 23.49C207.241 21.9217 204.092 21.2421 200.706 21.2421C195.3 21.2421 191.705 23.9344 191.705 28.195C191.705 31.776 194.408 33.8148 199.132 34.4682L201.389 34.7035C203.856 35.1478 205.22 35.8274 205.22 36.9514C205.22 38.5197 203.409 39.6437 200.26 39.6437C197.111 39.6437 194.618 38.5197 193.043 37.3958L190.786 40.9767C193.253 42.7803 196.639 43.669 200.024 43.669C206.323 43.669 209.944 40.7415 209.944 36.7161C209.944 32.8999 207.005 30.8872 202.517 30.2076L200.26 29.9724C198.239 29.7371 196.665 29.2928 196.665 27.9597C196.665 26.3914 198.239 25.5027 200.733 25.5027C203.436 25.5027 206.139 26.6266 207.503 27.3062L209.498 23.49ZM335.179 21.2421C332.476 21.2421 330.665 22.6013 329.536 24.3787V21.6865H324.813V43.2247H329.536V31.0963C329.536 27.5154 331.111 25.4765 334.05 25.4765C334.943 25.4765 336.071 25.7118 336.99 25.9209L338.354 21.4773C337.436 21.2421 336.097 21.2421 335.179 21.2421ZM274.818 32.4817C274.818 38.9902 279.332 43.6952 286.313 43.6952C289.462 43.6952 291.719 43.0155 293.976 41.2381L291.719 37.4219C289.909 38.7811 288.124 39.4346 286.077 39.4346C282.245 39.4346 279.542 36.7423 279.542 32.4817C279.542 28.4302 282.245 25.7379 286.077 25.5288C288.098 25.5288 289.909 26.2084 291.719 27.5415L293.976 23.7253C291.719 21.9217 289.462 21.2682 286.313 21.2682C279.332 21.2421 274.818 25.9732 274.818 32.4817ZM318.514 32.4817V21.7126H313.79V24.4049C312.216 22.3922 309.959 21.2682 307.019 21.2682C300.931 21.2682 296.207 25.9732 296.207 32.4817C296.207 38.9902 300.931 43.6952 307.019 43.6952C310.169 43.6952 312.426 42.5712 313.79 40.5585V43.2508H318.514V32.4817ZM301.167 32.4817C301.167 28.6655 303.634 25.5288 307.702 25.5288C311.533 25.5288 314.236 28.4563 314.236 32.4817C314.236 36.2979 311.533 39.4346 307.702 39.4346C303.66 39.1993 301.167 36.2718 301.167 32.4817ZM244.638 21.2421C238.34 21.2421 233.826 25.7379 233.826 32.4556C233.826 39.1993 238.34 43.669 244.874 43.669C248.024 43.669 251.173 42.7803 253.666 40.7415L251.409 37.3696C249.598 38.7288 247.341 39.6175 245.111 39.6175C242.171 39.6175 239.258 38.2583 238.576 34.4682H254.558C254.558 33.7886 254.558 33.3443 254.558 32.6647C254.768 25.7379 250.701 21.2421 244.638 21.2421ZM244.638 25.2936C247.578 25.2936 249.598 27.0971 250.044 30.4429H238.786C239.232 27.5415 241.253 25.2936 244.638 25.2936ZM362 32.4817V13.1914H357.276V24.4049C355.701 22.3922 353.444 21.2682 350.505 21.2682C344.417 21.2682 339.693 25.9732 339.693 32.4817C339.693 38.9902 344.417 43.6952 350.505 43.6952C353.654 43.6952 355.911 42.5712 357.276 40.5585V43.2508H362V32.4817ZM344.653 32.4817C344.653 28.6655 347.12 25.5288 351.188 25.5288C355.019 25.5288 357.722 28.4563 357.722 32.4817C357.722 36.2979 355.019 39.4346 351.188 39.4346C347.12 39.1993 344.653 36.2718 344.653 32.4817ZM186.509 32.4817V21.7126H181.785V24.4049C180.21 22.3922 177.953 21.2682 175.014 21.2682C168.925 21.2682 164.201 25.9732 164.201 32.4817C164.201 38.9902 168.925 43.6952 175.014 43.6952C178.163 43.6952 180.42 42.5712 181.785 40.5585V43.2508H186.509V32.4817ZM168.952 32.4817C168.952 28.6655 171.418 25.5288 175.486 25.5288C179.318 25.5288 182.021 28.4563 182.021 32.4817C182.021 36.2979 179.318 39.4346 175.486 39.4346C171.418 39.1993 168.952 36.2718 168.952 32.4817Z" fill="#D1D1D1"/>
</svg>
