<svg width="104" height="104" viewBox="0 0 104 104" fill="none" xmlns="http://www.w3.org/2000/svg">
<g clip-path="url(#clip0_3722_6360)">
<path d="M100.47 0.157227C101.423 -0.189422 102.507 0.0487089 103.222 0.763672C103.936 1.50016 104.175 2.58304 103.872 3.53613C102.174 9.05789 100.856 14.6904 99.9287 20.3926C98.5204 27.9538 97.2852 37.5515 97.2852 51.9805C97.2852 66.4097 98.5204 76.0295 99.9287 83.5908C101.337 91.1303 102.55 96.8067 103.828 100.425C103.996 100.899 104.026 101.411 103.915 101.902C103.804 102.393 103.556 102.842 103.2 103.198C102.844 103.554 102.395 103.802 101.904 103.913C101.413 104.024 100.901 103.994 100.427 103.826C94.9191 102.135 89.301 100.825 83.6133 99.9053C73.1784 98.0127 62.5858 97.1272 51.9814 97.2617C37.5517 97.2617 27.9314 98.497 20.3916 99.9053C14.6888 100.83 9.05639 102.147 3.53516 103.848C3.06206 104.013 2.55209 104.045 2.0625 103.938C1.573 103.83 1.1225 103.589 0.761719 103.241C0.411888 102.882 0.169688 102.431 0.0625 101.941C-0.0446928 101.451 -0.0126412 100.941 0.155273 100.468C1.86508 94.9492 3.18296 89.3167 4.09863 83.6123C5.50692 76.0728 6.74217 66.4534 6.74219 52.0244C6.74219 37.5952 5.50694 27.9753 4.09863 20.4141C3.17781 14.7268 1.86724 9.10935 0.176758 3.60156C0.00308521 3.12602 -0.0313407 2.61071 0.0771484 2.11621C0.185679 1.62163 0.433124 1.16777 0.790039 0.808594C1.14692 0.449535 1.59898 0.199533 2.09277 0.0878906C2.58662 -0.0237253 3.10244 0.00803156 3.5791 0.178711C9.09375 1.87061 14.7184 3.18042 20.4131 4.09961C30.8481 5.99327 41.4413 6.87877 52.0459 6.74316C66.4756 6.74316 76.0959 5.50787 83.6357 4.09961C89.3305 3.17131 94.9551 1.85446 100.47 0.157227ZM31.333 64.2832C31.3331 65.4313 31.8103 65.7126 33.0234 66.1025C35.1684 66.7525 38.2882 67.164 40.9531 67.1641C50.7029 67.1641 54.3867 61.5314 54.3867 52.7568C54.3867 45.4773 52.133 39.6495 44.7666 39.6494C42.2967 39.6494 39.8268 40.7762 38.0068 42.5527V32.0664C38.0068 30.9398 37.5517 30.3331 36.3818 30.333H31.333V64.2832ZM77.8506 40.0391C71.6109 40.0392 68.8165 43.4841 68.8164 47.6221C68.8164 56.3531 80.0814 55.3135 80.082 59.5596C80.082 61.2495 78.8907 62.1377 75.8574 62.1377C74.0375 62.1377 71.2426 61.6619 69.0977 61.0986V64.5967C69.1109 64.9232 69.2108 65.2412 69.3867 65.5186C69.5878 65.8356 69.8797 66.0842 70.2246 66.2324C72.0878 66.839 74.4059 67.164 77.0273 67.1641C82.6606 67.1641 86.6689 64.1311 86.6689 59.1914C86.6688 50.0488 75.338 50.807 75.3379 47.2539C75.3379 45.9973 75.9878 45.0654 79.0645 45.0654C81.1667 45.1196 83.2517 45.4625 85.2607 46.084V42.7256C85.2607 41.9457 84.8489 41.209 84.1123 40.9707C82.0851 40.3419 79.9731 40.0276 77.8506 40.0391ZM19.5039 65.0625C19.5039 66.1891 19.9589 66.7959 21.1289 66.7959H26.1768V42.0977C26.1768 40.9711 25.7002 40.3643 24.5303 40.3643H19.5039V65.0625ZM58.1777 65.0625C58.1777 66.189 58.6545 66.7958 59.8242 66.7959H64.8516V42.0977C64.8516 40.9712 64.3962 40.3644 63.2266 40.3643H58.1777V65.0625ZM42.9463 45.1094C45.8495 45.1094 47.3232 47.9254 47.3232 53.8398C47.3232 59.5594 45.5032 62.2245 41.2568 62.2246C40.1505 62.2109 39.0533 62.0206 38.0068 61.6611V47.6221C39.545 46.1056 41.0398 45.1095 42.9463 45.1094ZM19.5039 34.7529C19.5039 35.8795 19.959 36.4863 21.1289 36.4863H26.1768V32.0664C26.1768 30.9398 25.7002 30.333 24.5303 30.333H19.5039V34.7529ZM58.1777 34.7529C58.1778 35.8794 58.6545 36.4862 59.8242 36.4863H64.8516V32.0664C64.8516 30.9399 64.3962 30.3332 63.2266 30.333H58.1777V34.7529Z" fill="#D1D1D1"/>
</g>
<defs>
<clipPath id="clip0_3722_6360">
<rect width="104" height="104" fill="white"/>
</clipPath>
</defs>
</svg>
