<svg width="148" height="65" viewBox="0 0 148 65" fill="none" xmlns="http://www.w3.org/2000/svg">
<g clip-path="url(#clip0_3722_5961)">
<path d="M89.7376 12.9922H77.0096H73.0136V14.5004C73.803 14.5977 74.4443 14.6464 74.987 14.7923C75.6283 14.9383 76.0723 15.1329 76.4176 15.4248C77.4043 16.2519 77.4043 17.8575 77.4043 20.6793V39.7998C77.4043 43.692 77.7496 49.1898 72.175 49.0925C69.7576 49.0438 67.3403 47.3896 66.551 44.3245H64.627C65.4163 49.4817 68.2283 52.9847 74.987 52.9847C80.7096 52.9847 85.8403 50.3575 85.8403 41.5513V26.7122V20.6793C85.8403 17.8088 85.8403 16.3492 86.827 15.4735C87.4683 14.9383 87.9616 14.695 89.7376 14.5004V13.0408V12.9922Z" fill="#D1D1D1"/>
<path d="M108.977 12.9922H92.2529V14.4031V14.5004C93.9796 14.6464 94.5716 14.9383 95.1636 15.4735C95.9529 16.1546 96.1009 17.225 96.1009 19.1224C96.1009 19.7063 96.1009 20.2901 96.1009 21.0199V43.8866C96.1009 44.5678 96.1009 45.2003 96.1009 45.7841C96.0516 47.6329 95.9529 48.8006 95.1636 49.433C94.5223 49.9682 94.0289 50.2115 92.2529 50.4061V50.5034V51.9143H108.977H109.026H117.512L120.176 44.2759H118.252C116.328 48.46 113.318 48.9465 110.556 48.9465C108.286 48.9465 106.806 48.8006 105.77 48.1681C104.932 47.6329 104.636 46.222 104.586 43.7893V21.1172V20.6793C104.586 17.8088 104.586 16.2519 105.573 15.4248C106.214 14.8896 107.25 14.695 109.026 14.5491L108.977 12.9922Z" fill="#D1D1D1"/>
<path d="M136.801 12.9922H120.077V14.4031V14.5004C121.804 14.6464 122.396 14.9383 122.988 15.4735C123.777 16.1546 123.925 17.225 123.925 19.1224C123.925 19.7063 123.925 20.2901 123.925 21.0199V43.8866C123.925 44.5678 123.925 45.2003 123.925 45.7841C123.876 47.6329 123.777 48.8006 122.988 49.433C122.346 49.9682 121.853 50.2115 120.077 50.4061V50.5034V51.9143H136.801H136.85H145.336L148 44.2759H146.076C144.152 48.46 141.142 48.9465 138.38 48.9465C136.11 48.9465 134.63 48.8006 133.594 48.1681C132.756 47.6329 132.46 46.222 132.41 43.7893V21.1172V20.6793C132.41 17.8088 132.41 16.2519 133.397 15.4248C134.038 14.8896 135.074 14.695 136.85 14.5491V12.9922H136.801Z" fill="#D1D1D1"/>
<path d="M24.5682 63.7378C25.3575 63.3972 26.0975 62.9593 26.8375 62.4728C26.9855 62.3755 27.1335 62.2782 27.2815 62.1809C28.1695 61.5484 28.9588 60.8186 29.7482 59.9429C30.7348 58.9212 31.6228 57.7535 32.4615 56.5372C33.1028 55.6128 33.6455 54.5911 34.1882 53.5694C36.2108 49.5799 37.5428 45.2011 38.2335 40.871C38.6775 38.0492 38.8748 35.2273 38.8748 32.4541C38.8748 29.6809 38.6775 26.859 38.2335 24.0372C37.5428 19.7071 36.2602 15.2797 34.1882 11.3388C33.9415 10.901 33.6948 10.4144 33.4482 9.97656C32.3628 11.9227 31.4748 14.0147 30.7348 16.2041C32.0668 20.0963 32.8562 24.2318 33.1522 28.3186C33.2508 29.6809 33.3002 31.1405 33.3002 32.5028C33.3002 33.865 33.2508 35.3246 33.1522 36.6869C32.8068 41.6981 31.7708 46.7093 29.7975 51.38C29.0575 53.1802 28.1695 54.9317 27.0842 56.5858C26.8375 56.9751 26.6402 57.3643 26.3442 57.7535C25.8015 58.5319 25.2588 59.2617 24.6668 60.0402C23.9762 60.8673 23.2362 61.6944 22.3975 62.4728C21.5588 63.2999 20.6708 64.0297 19.6842 64.7108C19.5855 64.7595 19.5362 64.8082 19.4375 64.8568V64.9541C21.1642 64.9055 22.9895 64.4676 24.5682 63.7378Z" fill="#D1D1D1"/>
<path d="M34.8294 63.7356C35.6187 63.395 36.3587 62.9571 37.0987 62.4706C37.2467 62.3733 37.3947 62.276 37.5427 62.1787C40.5521 59.9407 42.7721 56.9242 44.4494 53.6645C46.4721 49.675 47.8041 45.2962 48.4947 40.9661C48.9387 38.1443 49.1361 35.3224 49.1361 32.5492C49.1361 29.776 48.9387 26.9542 48.4947 24.1323C47.8041 19.8022 46.5214 15.3748 44.4494 11.4339C42.9201 8.41748 40.8481 5.59562 38.1841 3.40625C37.3454 4.282 36.5561 5.25505 35.8161 6.27676C36.0627 6.61733 36.3094 6.9579 36.5561 7.29847C40.7987 13.526 42.8707 20.9212 43.3641 28.3651C43.4627 29.7274 43.5121 31.1869 43.5121 32.5492C43.5121 33.9115 43.4627 35.3711 43.3641 36.7333C42.8707 44.1772 40.7987 51.6211 36.5561 57.8C36.0134 58.5784 35.4707 59.3082 34.8787 60.0866C34.1881 60.9137 33.4481 61.7408 32.6094 62.5193C31.7707 63.3464 30.8827 64.0762 29.8961 64.7573C29.7974 64.806 29.7481 64.8546 29.6494 64.9032V65.0006C31.4747 64.9033 33.2507 64.4654 34.8294 63.7356Z" fill="#D1D1D1"/>
<path d="M47.8533 62.1295C50.8626 59.8915 53.0826 56.875 54.76 53.6153C56.7826 49.6257 58.1146 45.247 58.8053 40.9169C59.2493 38.0951 59.4466 35.2732 59.4466 32.5C59.4466 29.7268 59.2493 26.9049 58.8053 24.0831C58.1146 19.753 56.832 15.3256 54.76 11.3847C53.0826 8.125 50.8133 5.01123 47.8533 2.87051C45.584 1.11901 42.772 0.0486527 40.0093 0V0.0973054C42.7226 1.94611 45.0413 4.5247 46.8173 7.24925C51.06 13.4768 53.132 20.872 53.6253 28.3159C53.724 29.6781 53.7733 31.1377 53.7733 32.5C53.7733 33.8623 53.724 35.3219 53.6253 36.6841C53.132 44.128 51.06 51.5719 46.8173 57.7507C44.992 60.4266 42.6733 63.0052 39.96 64.9027V65C42.772 64.9027 45.584 63.8323 47.8533 62.1295Z" fill="#D1D1D1"/>
<path d="M34.8291 1.21632C34.0398 1.55689 33.2998 1.99476 32.5598 2.48129C32.4118 2.57859 32.2638 2.6759 32.1158 2.7732C31.2771 3.40569 30.4385 4.13548 29.6491 4.96257C28.6625 5.98428 27.7745 7.15195 26.9358 8.36826C26.2945 9.29267 25.7518 10.3144 25.2091 11.3361C23.1865 15.3256 21.8545 19.7043 21.1638 24.0344C20.7198 26.8563 20.5225 29.6781 20.5225 32.4513C20.5225 35.2246 20.7198 38.0464 21.1638 40.8683C21.8545 45.1984 23.1371 49.6258 25.2091 53.5666C25.4558 54.0045 25.7025 54.491 25.9491 54.9289C27.0345 52.9828 27.9225 50.8907 28.6625 48.7013C27.3305 44.8091 26.5411 40.6737 26.2451 36.5868C26.1465 35.2246 26.0971 33.765 26.0971 32.4027C26.0971 31.0404 26.1465 29.5808 26.2451 28.2186C26.5905 23.2073 27.6265 18.1961 29.5998 13.5254C30.3891 11.774 31.2771 9.9738 32.3625 8.31961C32.6091 7.93039 32.8065 7.54117 33.1025 7.15195C33.6451 6.3735 34.1878 5.64371 34.7798 4.86527C35.4705 4.03817 36.2105 3.21108 37.0491 2.43263C37.8878 1.60554 38.7758 0.875749 39.7625 0.194611C39.8611 0.145958 39.9105 0.0973054 40.0091 0.0486527V0C38.2331 0.0486527 36.5065 0.486527 34.8291 1.21632Z" fill="#D1D1D1"/>
<path d="M24.5684 1.21632C23.7791 1.55689 23.0391 1.99476 22.2991 2.48129C22.1511 2.57859 22.0031 2.6759 21.8551 2.7732C18.8951 5.01123 16.6751 8.02769 14.9484 11.2874C12.9257 15.2769 11.5937 19.6557 10.9031 23.9858C10.4591 26.8563 10.2617 29.6295 10.2617 32.4513C10.2617 35.2245 10.4591 38.0464 10.9031 40.8683C11.5937 45.1984 12.8764 49.6257 14.9484 53.5666C16.4777 56.5831 18.5497 59.4049 21.2137 61.5943C22.0524 60.7186 22.8417 59.7455 23.5817 58.7238C23.3351 58.3832 23.0884 58.0427 22.8417 57.7021C18.5991 51.4745 16.5271 44.0793 16.0337 36.6355C15.9351 35.2732 15.8857 33.8136 15.8857 32.4513C15.8857 31.0891 15.9351 29.6295 16.0337 28.2672C16.5271 20.8234 18.5991 13.3795 22.8417 7.2006C23.3844 6.42216 23.9271 5.69237 24.5191 4.91392C25.2097 4.08683 25.9497 3.25973 26.7884 2.48129C27.6271 1.70284 28.5151 0.973054 29.4524 0.340569C29.5511 0.291916 29.6004 0.243263 29.6991 0.194611V0C27.9724 0.0486527 26.1964 0.486527 24.5684 1.21632Z" fill="#D1D1D1"/>
<path d="M11.5933 2.82186C8.584 5.05988 6.364 8.07635 4.68667 11.3361C2.664 15.3256 1.332 19.7043 0.641333 24.0344C0.197333 26.9049 0 29.6781 0 32.5C0 35.2732 0.197333 38.0951 0.641333 40.9169C1.332 45.247 2.61467 49.6744 4.68667 53.6153C6.364 56.875 8.63333 59.9888 11.5933 62.1295C13.8627 63.735 16.6253 64.854 19.4373 64.9513V64.854C16.6747 63.0052 14.4053 60.4266 12.58 57.7021C8.33733 51.4745 6.26533 44.0793 5.772 36.6355C5.67333 35.2732 5.624 33.8136 5.624 32.4513C5.624 31.0891 5.67333 29.6295 5.772 28.2672C6.26533 20.8234 8.33733 13.3795 12.58 7.2006C14.356 4.5247 16.6747 1.94611 19.4373 0.0973054V0C16.6253 0.0486527 13.8133 1.11901 11.5933 2.82186Z" fill="#D1D1D1"/>
<path d="M31.5246 61.6458C32.3632 60.7701 33.1525 59.797 33.8925 58.7753C33.6459 58.4347 33.3992 58.0942 33.1525 57.7536C32.9059 57.3644 32.6592 56.9752 32.4125 56.5859C31.6232 57.7536 30.7352 58.9699 29.6992 59.9916C30.2419 60.5755 30.9326 61.1106 31.5246 61.6458Z" fill="#D1D1D1"/>
<path d="M37.0984 62.4727C36.4078 62.9592 35.6678 63.3484 34.8291 63.7376C36.4078 64.4674 38.2331 64.9053 39.9598 64.9539V64.8566C38.9731 64.1755 37.9864 63.3484 37.0984 62.4727Z" fill="#D1D1D1"/>
<path d="M28.7617 64.9056C29.0577 64.857 29.3044 64.8083 29.6004 64.8083C29.3044 64.6137 29.0577 64.4191 28.7617 64.2245C28.071 63.6893 27.4297 63.1541 26.8377 62.5703C26.147 63.0568 25.407 63.4461 24.5684 63.8353C25.6044 64.3218 26.7884 64.6624 27.923 64.857C28.219 64.8083 28.4657 64.857 28.7617 64.9056ZM29.699 64.9543V64.857C29.6497 64.8083 29.6004 64.8083 29.551 64.7597C29.255 64.8083 29.0084 64.857 28.7124 64.857C29.0577 64.9543 29.403 64.9543 29.699 64.9543Z" fill="#D1D1D1"/>
<path d="M27.9227 3.35938C27.084 4.23512 26.2947 5.20818 25.5547 6.22988C25.8014 6.57045 26.048 6.91102 26.2947 7.25159C26.5414 7.64081 26.788 8.03003 27.0347 8.41926C27.824 7.25159 28.712 6.03527 29.748 5.01357C29.156 4.38108 28.564 3.8459 27.9227 3.35938Z" fill="#D1D1D1"/>
<path d="M22.2988 2.52994C22.9895 2.04341 23.7295 1.65419 24.5682 1.26497C22.9895 0.486527 21.1642 0.0486527 19.4375 0V0.0973054C20.4735 0.778443 21.4108 1.60554 22.2988 2.52994Z" fill="#D1D1D1"/>
<path d="M34.8289 1.21632C33.7929 0.72979 32.6089 0.389222 31.4742 0.194611C31.1782 0.145958 30.9316 0.0973054 30.6356 0.0973054C30.3396 0.0486527 30.0436 0 29.6982 0V0.0973054C29.7476 0.145958 29.7969 0.145958 29.8462 0.194611C30.1422 0.389222 30.3889 0.583832 30.6849 0.778443C31.3756 1.31362 32.0169 1.8488 32.6089 2.43263C33.3489 1.99476 34.0889 1.55689 34.8289 1.21632Z" fill="#D1D1D1"/>
</g>
<defs>
<clipPath id="clip0_3722_5961">
<rect width="148" height="65" fill="white"/>
</clipPath>
</defs>
</svg>
