<svg width="140" height="36" viewBox="0 0 140 36" fill="none" xmlns="http://www.w3.org/2000/svg">
<g clip-path="url(#clip0_3722_6365)">
<path d="M29.876 34.72V1.40741C34.0707 1.68593 37.4931 3.65037 40.3554 6.70519C43.4241 9.96445 45.3372 14.0119 46.9939 18.1393C49.7854 10.4622 55.0443 2.18074 63.9349 1.40741V12.9896C65.1789 9.37185 67.033 6.08889 70.0811 3.68889C73.3384 1.11111 77.371 0 81.4655 0C88.8763 0 96.2959 5.10815 97.6165 12.6844H89.0679C87.6087 9.29185 84.5017 7.9437 80.9319 7.9437C75.278 7.9437 70.9448 12.157 70.9448 17.8993C70.9448 23.8519 74.8742 28.2133 80.8818 28.2133C83.4169 28.2133 85.8341 27.4311 87.6618 25.6148C88.6787 24.5926 89.2889 23.3244 89.8313 22.0089H80.0063V14.0444H98.2208V1.40741H115.297V9.42222H106.377V14.0415H115.297V21.997H106.377V26.7082H115.297V34.7081H98.2208V21.997C97.6554 24.7471 96.4368 27.319 94.6687 29.4933C91.2551 33.8074 86.2144 36.0119 80.758 36.0119C76.6311 36.0119 72.5602 34.9304 69.3618 32.1926C66.5378 29.7837 64.8517 26.6578 63.9349 23.1111V34.7318H55.9434V16.6815C52.1113 21.7985 50.8113 28.4207 50.6934 34.72H43.1765C43.0379 28.3733 41.3606 22.0178 37.8704 16.6815V34.72H29.876Z" fill="#D1D1D1"/>
<path d="M132.012 1.4084H140.003V34.721H132.79C131.723 29.2069 129.129 22.1936 124.621 18.6943V34.721H116.618V1.39062C120.25 2.13137 124.996 5.88248 127.64 8.43063C129.335 10.078 130.995 11.8825 132.012 14.0425V1.4084Z" fill="#D1D1D1"/>
<path d="M0 34.7186L0.238771 33.9037L1.61245 29.2134C2.78371 25.3392 4.22076 21.5514 5.91329 17.8771C10.108 8.55559 17.0943 1.25781 27.8066 1.25781C28.0542 1.25781 28.3019 1.25781 28.5465 1.25781V34.7097H20.4931V26.6356H10.2525L10.0255 27.3497L9.54204 28.8311L8.88173 31.1719L8.2509 33.7378L7.99149 34.7215L0 34.7186ZM13.8842 18.6919H20.4931V11.086C16.9911 12.7215 15.5202 15.3319 13.8842 18.6919Z" fill="#D1D1D1"/>
</g>
<defs>
<clipPath id="clip0_3722_6365">
<rect width="140" height="36" fill="white"/>
</clipPath>
</defs>
</svg>
