<svg width="268" height="48" viewBox="0 0 268 48" fill="none" xmlns="http://www.w3.org/2000/svg">
<path d="M49.4996 5.13281H28.4014V42.8649H49.4996V5.13281Z" fill="#ADADAD"/>
<path d="M29.806 24C29.806 16.334 33.4264 9.5301 38.9818 5.13398C34.8933 1.93398 29.7357 0 24.1101 0C10.7832 0 0 10.734 0 24C0 37.266 10.7832 48 24.1101 48C29.7357 48 34.8933 46.066 38.9818 42.866C33.4186 38.532 29.806 31.666 29.806 24Z" fill="#7A7A7A"/>
<path d="M77.9633 24C77.9633 37.266 67.1801 48 53.8532 48C48.2275 48 43.07 46.066 38.9814 42.866C44.6071 38.4621 48.1573 31.666 48.1573 24C48.1573 16.334 44.5369 9.5301 38.9814 5.13398C43.0622 1.93398 48.2197 0 53.8454 0C67.1801 0 77.9633 10.8039 77.9633 24Z" fill="#D1D1D1"/>
<path d="M118.397 31.9399V21.9992C118.397 18.1966 116.066 15.7066 112.063 15.7066C110.062 15.7066 107.886 16.3629 106.39 18.5248C105.224 16.7103 103.553 15.7066 101.047 15.7066C99.376 15.7066 97.7051 16.2085 96.3839 18.0229V16.0348H92.8867V31.9399H96.3839V23.1573C96.3839 20.3392 97.88 19.0073 100.211 19.0073C102.543 19.0073 103.709 20.4936 103.709 23.1573V31.9399H107.206V23.1573C107.206 20.3392 108.877 19.0073 111.033 19.0073C113.365 19.0073 114.531 20.4936 114.531 23.1573V31.9399H118.397ZM170.272 16.0348H164.599V11.2285H161.102V16.0348H157.935V19.181H161.102V26.4773C161.102 30.1255 162.598 32.268 166.6 32.268C168.096 32.268 169.767 31.7662 170.933 31.1099L169.923 28.118C168.912 28.7743 167.747 28.948 166.911 28.948C165.24 28.948 164.58 27.9443 164.58 26.3036V19.181H170.253V16.0348H170.272ZM199.96 15.6873C197.959 15.6873 196.618 16.691 195.783 18.0036V16.0155H192.286V31.9206H195.783V22.9643C195.783 20.3199 196.948 18.8143 199.125 18.8143C199.785 18.8143 200.621 18.988 201.301 19.1424L202.311 15.8224C201.611 15.6873 200.621 15.6873 199.96 15.6873ZM155.098 17.3473C153.428 16.1892 151.096 15.6873 148.59 15.6873C144.587 15.6873 141.926 17.6755 141.926 20.8217C141.926 23.4662 143.927 24.9717 147.424 25.4543L149.095 25.628C150.921 25.9562 151.931 26.458 151.931 27.288C151.931 28.4462 150.591 29.2762 148.259 29.2762C145.928 29.2762 144.082 28.4462 142.916 27.6162L141.246 30.2606C143.072 31.5924 145.578 32.2487 148.085 32.2487C152.747 32.2487 155.429 30.0869 155.429 27.1143C155.429 24.2962 153.253 22.8099 149.93 22.308L148.259 22.1343C146.763 21.9606 145.598 21.6324 145.598 20.648C145.598 19.4899 146.763 18.8336 148.609 18.8336C150.61 18.8336 152.611 19.6636 153.622 20.1655L155.098 17.3473ZM248.144 15.6873C246.143 15.6873 244.802 16.691 243.967 18.0036V16.0155H240.469V31.9206H243.967V22.9643C243.967 20.3199 245.132 18.8143 247.308 18.8143C247.969 18.8143 248.804 18.988 249.484 19.1424L250.495 15.861C249.815 15.6873 248.824 15.6873 248.144 15.6873ZM203.457 23.9873C203.457 28.7936 206.799 32.268 211.967 32.268C214.299 32.268 215.969 31.7662 217.64 30.4536L215.969 27.6355C214.629 28.6392 213.308 29.1218 211.792 29.1218C208.956 29.1218 206.954 27.1336 206.954 23.9873C206.954 20.9955 208.956 19.0073 211.792 18.8529C213.288 18.8529 214.629 19.3548 215.969 20.3392L217.64 17.521C215.969 16.1892 214.299 15.7066 211.967 15.7066C206.799 15.6873 203.457 19.181 203.457 23.9873ZM235.806 23.9873V16.0348H232.309V18.0229C231.144 16.5366 229.473 15.7066 227.297 15.7066C222.789 15.7066 219.292 19.181 219.292 23.9873C219.292 28.7936 222.789 32.268 227.297 32.268C229.628 32.268 231.299 31.438 232.309 29.9517V31.9399H235.806V23.9873ZM222.964 23.9873C222.964 21.1692 224.79 18.8529 227.802 18.8529C230.638 18.8529 232.64 21.0148 232.64 23.9873C232.64 26.8055 230.638 29.1218 227.802 29.1218C224.81 28.948 222.964 26.7862 222.964 23.9873ZM181.114 15.6873C176.451 15.6873 173.109 19.0073 173.109 23.968C173.109 28.948 176.451 32.2487 181.289 32.2487C183.62 32.2487 185.952 31.5925 187.797 30.0869L186.127 27.5969C184.786 28.6006 183.115 29.2569 181.464 29.2569C179.288 29.2569 177.131 28.2531 176.626 25.4543H188.458C188.458 24.9524 188.458 24.6243 188.458 24.1224C188.613 19.0073 185.602 15.6873 181.114 15.6873ZM181.114 18.6792C183.29 18.6792 184.786 20.011 185.116 22.4817H176.781C177.111 20.3392 178.607 18.6792 181.114 18.6792ZM268 23.9873V9.74219H264.503V18.0229C263.337 16.5366 261.666 15.7066 259.49 15.7066C254.983 15.7066 251.486 19.181 251.486 23.9873C251.486 28.7936 254.983 32.268 259.49 32.268C261.822 32.268 263.493 31.438 264.503 29.9517V31.9399H268V23.9873ZM255.158 23.9873C255.158 21.1692 256.984 18.8529 259.996 18.8529C262.832 18.8529 264.833 21.0148 264.833 23.9873C264.833 26.8055 262.832 29.1218 259.996 29.1218C256.984 28.948 255.158 26.7862 255.158 23.9873ZM138.079 23.9873V16.0348H134.581V18.0229C133.416 16.5366 131.745 15.7066 129.569 15.7066C125.061 15.7066 121.564 19.181 121.564 23.9873C121.564 28.7936 125.061 32.268 129.569 32.268C131.9 32.268 133.571 31.438 134.581 29.9517V31.9399H138.079V23.9873ZM125.081 23.9873C125.081 21.1692 126.907 18.8529 129.918 18.8529C132.755 18.8529 134.756 21.0148 134.756 23.9873C134.756 26.8055 132.755 29.1218 129.918 29.1218C126.907 28.948 125.081 26.7862 125.081 23.9873Z" fill="#D1D1D1"/>
</svg>
