<svg width="172" height="48" viewBox="0 0 172 48" fill="none" xmlns="http://www.w3.org/2000/svg">
<g clip-path="url(#clip0_3704_10702)">
<path d="M51.9399 -0.019287C52.0216 -0.0191462 52.1032 -0.0190055 52.1873 -0.0188605C53.369 -0.0155906 54.5306 0.00395344 55.6982 0.19704C55.7808 0.210362 55.8634 0.223684 55.9485 0.237409C57.1399 0.432682 58.3054 0.70128 59.4607 1.04602C59.519 1.06289 59.5772 1.07976 59.6371 1.09714C62.6612 1.97877 65.5064 3.54232 67.9213 5.50578C68.0203 5.58506 68.1205 5.66294 68.2214 5.73983C68.7443 6.14232 69.2139 6.58768 69.6835 7.04713C69.8158 7.17642 69.9488 7.305 70.0819 7.43352C70.5589 7.89672 71.0039 8.36647 71.4201 8.88275C71.4857 8.95946 71.5515 9.03594 71.6177 9.11209C72.5207 10.168 73.2864 11.3416 73.9732 12.5399C74.0129 12.6077 74.0129 12.6077 74.0533 12.6769C77.2325 18.143 77.5328 24.751 75.86 30.719C74.8964 34.0626 73.2017 37.3089 70.7661 39.872C70.6432 40.0026 70.5245 40.135 70.406 40.2692C70.1228 40.5845 69.8215 40.8814 69.5171 41.1772C69.422 41.2698 69.3274 41.3629 69.2328 41.4561C68.8183 41.8599 68.3854 42.2258 67.9264 42.5807C67.8498 42.6429 67.7735 42.7054 67.6975 42.7682C62.7573 46.7849 56.2682 48.35 49.9343 47.8504C46.3218 47.5327 42.9313 46.3822 39.7748 44.6705C39.7748 44.6274 39.7748 44.5843 39.7748 44.5399C39.8991 44.45 40.0273 44.3652 40.1569 44.2828C40.6432 43.9662 41.0816 43.6078 41.5217 43.2338C41.5698 43.1935 41.618 43.1533 41.6676 43.1118C41.7993 43.0013 41.9294 42.8893 42.0592 42.7766C42.1158 42.7276 42.1725 42.6786 42.2308 42.6282C42.6508 42.2597 43.0567 41.8791 43.4575 41.4909C43.5049 41.4452 43.5523 41.3994 43.6011 41.3523C43.8704 41.0897 44.1266 40.82 44.3758 40.5392C44.4937 40.4081 44.6178 40.2853 44.7467 40.1644C44.9665 39.954 45.1695 39.7343 45.3705 39.507C45.5192 39.344 45.6781 39.1929 45.8379 39.0404C45.964 38.9157 46.082 38.7863 46.1996 38.6542C46.2388 38.6111 46.2779 38.568 46.3182 38.5236C46.4115 38.418 46.4993 38.3078 46.5859 38.197C46.7623 38.0746 46.7623 38.0746 46.8883 38.0846C46.9364 38.0964 46.9844 38.1083 47.0339 38.1205C47.0879 38.1336 47.1418 38.1467 47.1974 38.1601C47.418 38.2187 47.6376 38.2801 47.857 38.3428C51.9102 39.4875 56.175 38.9055 59.8639 36.9644C60.6246 36.5461 61.3395 36.0678 62.0139 35.5276C62.0511 35.4981 62.0884 35.4685 62.1268 35.438C63.0699 34.685 63.908 33.8696 64.6342 32.9154C64.6629 32.8784 64.6916 32.8414 64.7212 32.8032C65.1757 32.217 65.5616 31.6069 65.9107 30.9562C65.9356 30.9104 65.9604 30.8646 65.986 30.8174C67.848 27.339 68.0662 23.1536 66.8898 19.4315C66.3473 17.8061 65.5561 16.3193 64.4998 14.9562C64.4522 14.8947 64.4045 14.8331 64.3555 14.7697C64.0038 14.3309 63.6168 13.9228 63.2232 13.5195C63.1914 13.4866 63.1595 13.4538 63.1266 13.4199C62.6165 12.8976 62.07 12.4474 61.4764 12.0174C61.4206 11.9763 61.4206 11.9763 61.3636 11.9343C59.4295 10.5123 57.0893 9.51433 54.6904 9.14398C54.6461 9.13696 54.6018 9.12994 54.5562 9.12271C52.0617 8.73765 49.4207 8.93299 47.0311 9.73173C46.9861 9.7467 46.9411 9.76166 46.8948 9.77708C44.8831 10.4634 43.1617 11.8316 41.5889 13.193C41.5526 13.2243 41.5164 13.2557 41.479 13.288C41.0002 13.7047 40.5409 14.14 40.0855 14.5807C40.0352 14.6293 39.9849 14.678 39.933 14.7281C39.6585 14.9956 39.3969 15.2697 39.1432 15.5559C38.9916 15.7234 38.8304 15.8779 38.6662 16.0338C38.4567 16.2344 38.2524 16.4365 38.0615 16.6542C37.8706 16.8718 37.6662 17.0738 37.4568 17.2746C37.2489 17.474 37.0457 17.6745 36.8563 17.8909C36.6212 18.1591 36.3644 18.4036 36.1067 18.651C35.8813 18.8684 35.6698 19.0927 35.464 19.3279C35.2761 19.5323 35.0739 19.7227 34.8732 19.9152C34.6967 20.0853 34.5275 20.2581 34.3662 20.4419C34.1753 20.6596 33.9709 20.8616 33.7615 21.0623C33.5536 21.2617 33.3504 21.4622 33.161 21.6787C32.9259 21.9469 32.6691 22.1913 32.4114 22.4387C32.1859 22.6562 31.9745 22.8804 31.7687 23.1157C31.5808 23.3201 31.3786 23.5105 31.1779 23.7029C31.0014 23.8731 30.8321 24.0458 30.6709 24.2297C30.426 24.5089 30.1576 24.7634 29.8877 25.0195C29.7453 25.1576 29.6131 25.3017 29.4821 25.4501C29.2341 25.7267 28.9733 25.9883 28.7067 26.2478C28.6584 26.295 28.6101 26.3421 28.5604 26.3907C28.4588 26.4897 28.3572 26.5887 28.2555 26.6875C28.102 26.8369 27.949 26.9868 27.796 27.1367C27.2856 27.6347 26.7757 28.1095 26.2029 28.5399C26.1242 28.6027 26.0457 28.6658 25.9675 28.7292C23.8999 30.3565 23.8999 30.3565 23.1737 30.2904C23.0194 30.2274 22.9402 30.1531 22.8268 30.0338C22.6651 29.8693 22.5013 29.7157 22.3229 29.5685C22.0939 29.3769 21.8798 29.1733 21.6678 28.9644C21.4199 28.7201 21.1655 28.4888 20.897 28.2662C20.6721 28.0712 20.464 27.8601 20.2524 27.6519C20.1136 27.5187 19.9726 27.3934 19.8243 27.2705C19.5644 27.0546 19.3256 26.8203 19.0857 26.5839C18.8696 26.3722 18.6458 26.1749 18.4123 25.9817C18.1813 25.7811 17.967 25.5643 17.7507 25.3488C17.6025 25.2005 17.6025 25.2005 17.4014 25.0787C17.4381 24.8231 17.5559 24.7138 17.7457 24.5399C17.9438 24.354 18.1338 24.1679 18.3126 23.9644C18.5139 23.7362 18.7288 23.5259 18.949 23.3152C19.0758 23.1899 19.1944 23.061 19.312 22.9277C19.532 22.6788 19.7686 22.45 20.0088 22.2197C20.1843 22.0467 20.3464 21.8648 20.5091 21.6805C20.6751 21.4989 20.8536 21.3307 21.0316 21.1603C21.1598 21.0337 21.2799 20.9032 21.399 20.7685C21.5601 20.5863 21.7269 20.4145 21.9029 20.246C22.0776 20.0788 22.2431 19.9085 22.4026 19.7277C22.6226 19.4788 22.8593 19.25 23.0994 19.0197C23.275 18.8467 23.437 18.6648 23.5997 18.4805C23.7657 18.2989 23.9442 18.1307 24.1222 17.9603C24.2505 17.8337 24.3705 17.7032 24.4896 17.5685C24.6924 17.3392 24.9085 17.1275 25.13 16.9154C25.2583 16.7888 25.3783 16.6583 25.4975 16.5236C25.6585 16.3414 25.8253 16.1696 26.0014 16.0011C26.176 15.8339 26.3415 15.6636 26.5011 15.4828C26.721 15.2339 26.9577 15.0052 27.1979 14.7748C27.3734 14.6018 27.5355 14.4199 27.6981 14.2356C27.8641 14.054 28.0426 13.8858 28.2207 13.7154C28.3489 13.5888 28.469 13.4583 28.5881 13.3236C28.7908 13.0943 29.0069 12.8826 29.2285 12.6705C29.3567 12.5439 29.4768 12.4134 29.5959 12.2787C29.7569 12.0965 29.9237 11.9247 30.0998 11.7562C30.2745 11.589 30.44 11.4187 30.5995 11.2379C30.8195 10.989 31.0561 10.7603 31.2963 10.5299C31.4718 10.3569 31.6339 10.175 31.7966 9.99066C31.9203 9.85528 32.0499 9.72818 32.1826 9.60112C32.3545 9.43658 32.5173 9.26929 32.6739 9.09092C32.8694 8.86956 33.0777 8.66303 33.2912 8.45826C33.5006 8.25752 33.705 8.05552 33.8959 7.83786C34.3194 7.35711 34.7904 6.91603 35.2856 6.50571C35.4065 6.40204 35.5182 6.29344 35.6302 6.18071C35.9034 5.9116 36.2037 5.6788 36.507 5.44273C36.6245 5.35033 36.7405 5.25636 36.8563 5.16209C39.993 2.62289 43.7351 0.96831 47.7491 0.278672C47.824 0.265692 47.8988 0.252712 47.9759 0.239339C49.2949 0.0236853 50.6046 -0.0234335 51.9399 -0.019287Z" fill="#7A7A7A"/>
<path d="M35.6429 2.6C35.7187 2.6352 35.7944 2.6704 35.8725 2.70667C36.2711 2.89491 36.6497 3.09412 37.0203 3.33062C36.8001 3.55316 36.5766 3.74221 36.319 3.92245C34.9604 4.90078 33.6456 6.07466 32.5546 7.33036C32.3993 7.50284 32.2305 7.66127 32.061 7.82041C31.9344 7.947 31.8152 8.07616 31.6962 8.20944C31.4374 8.49895 31.1688 8.77852 30.8978 9.05715C30.8515 9.105 30.8051 9.15286 30.7574 9.20217C30.5195 9.44737 30.2796 9.68984 30.0327 9.92653C29.9887 9.91466 29.9447 9.90279 29.8993 9.89056C28.702 9.57024 27.5048 9.28494 26.2702 9.14286C26.1975 9.13427 26.1247 9.12569 26.0498 9.11684C21.8818 8.72237 17.7479 10.1123 14.5358 12.6674C13.7347 13.3155 12.9974 14.0196 12.3624 14.8245C12.3342 14.8596 12.3061 14.8947 12.277 14.9309C9.76204 18.0767 8.84218 22.0721 9.339 25.9918C9.68794 28.45 10.6167 30.8618 12.1609 32.849C12.1912 32.8884 12.2215 32.9278 12.2527 32.9684C12.6824 33.5244 13.1452 34.0441 13.639 34.5469C13.6901 34.5993 13.7412 34.6517 13.7938 34.7056C14.165 35.0767 14.5653 35.402 14.9827 35.7225C15.0468 35.7735 15.1108 35.8245 15.1767 35.877C16.119 36.6112 17.1818 37.1879 18.2749 37.6816C18.3495 37.7156 18.4241 37.7495 18.5009 37.7844C21.5919 39.1296 25.061 39.3691 28.3531 38.6612C28.4081 38.6495 28.4631 38.6378 28.5198 38.6258C31.0724 38.0683 33.2575 36.5459 35.1524 34.8444C35.2948 34.7181 35.4388 34.5956 35.5852 34.4737C35.9121 34.1965 36.2183 33.8995 36.5243 33.6008C36.6212 33.5063 36.7184 33.4121 36.8157 33.318C37.1295 33.0132 37.4337 32.7041 37.7224 32.3766C37.8828 32.1988 38.0555 32.0344 38.2296 31.8694C38.4505 31.6577 38.6669 31.4462 38.8679 31.2163C39.1014 30.9493 39.3571 30.7064 39.6134 30.4604C39.8388 30.2429 40.0502 30.0187 40.256 29.7834C40.444 29.579 40.6462 29.3885 40.847 29.196C41.022 29.0273 41.1899 28.856 41.3496 28.6735C41.5848 28.4053 41.8416 28.1608 42.0993 27.9134C42.3247 27.696 42.5362 27.4717 42.7419 27.2365C42.93 27.032 43.1321 26.8416 43.3329 26.6491C43.508 26.4803 43.6759 26.3091 43.8356 26.1265C44.0707 25.8583 44.3276 25.6139 44.5852 25.3665C44.8107 25.149 45.0221 24.9248 45.2279 24.6895C45.4159 24.4851 45.6181 24.2946 45.8188 24.1021C45.9939 23.9334 46.1618 23.7622 46.3215 23.5796C46.5539 23.3145 46.8067 23.0715 47.0631 22.8286C47.2399 22.6597 47.407 22.4874 47.5676 22.3038C47.9138 21.9152 48.291 21.5552 48.6648 21.1919C48.794 21.0662 48.9226 20.9399 49.0513 20.8137C49.5221 20.354 50.0003 19.9281 50.5249 19.5265C50.6428 19.4302 50.7604 19.3337 50.8777 19.2367C51.492 18.7506 52.1439 18.3344 52.8513 17.9878C52.8958 17.9659 52.9404 17.9441 52.9863 17.9215C53.4681 17.6936 53.4681 17.6936 53.6828 17.698C53.8405 17.8104 53.9661 17.9156 54.1027 18.049C54.141 18.0849 54.1794 18.1208 54.2189 18.1578C54.3324 18.2647 54.4445 18.3729 54.5562 18.4816C54.6131 18.5368 54.67 18.5919 54.7286 18.6487C54.8273 18.745 54.9257 18.8415 55.0239 18.9383C55.1537 19.0625 55.2871 19.1787 55.4254 19.2939C55.6386 19.4714 55.837 19.6589 56.0343 19.8531C56.2289 20.0445 56.4242 20.2295 56.6348 20.4041C56.8947 20.62 57.1335 20.8543 57.3734 21.0907C57.5899 21.3029 57.8143 21.5004 58.0481 21.6941C58.2719 21.8882 58.4791 22.0983 58.6898 22.3056C58.9152 22.522 59.1516 22.724 59.3937 22.9225C59.355 23.1445 59.2855 23.2442 59.1165 23.3959C58.9431 23.557 58.7811 23.7207 58.6252 23.898C58.4627 24.0814 58.2946 24.2547 58.1171 24.4245C57.9411 24.593 57.7743 24.7648 57.6132 24.9469C57.4105 25.1763 57.1944 25.388 56.9728 25.6C56.8446 25.7266 56.7245 25.8571 56.6054 25.9918C56.4444 26.174 56.2776 26.3458 56.1015 26.5143C55.9268 26.6815 55.7614 26.8518 55.6018 27.0327C55.3818 27.2815 55.1452 27.5103 54.905 27.7406C54.7295 27.9136 54.5674 28.0955 54.4048 28.2799C54.2387 28.4614 54.0602 28.6296 53.8822 28.8C53.754 28.9266 53.6339 29.0571 53.5148 29.1918C53.312 29.4212 53.096 29.6329 52.8744 29.8449C52.7462 29.9715 52.6261 30.102 52.507 30.2367C52.3459 30.4189 52.1791 30.5907 52.0031 30.7592C51.8284 30.9264 51.6629 31.0967 51.5034 31.2776C51.2834 31.5264 51.0467 31.7552 50.8065 31.9855C50.631 32.1585 50.469 32.3404 50.3063 32.5248C50.1403 32.7063 49.9618 32.8745 49.7838 33.0449C49.6555 33.1715 49.5355 33.302 49.4163 33.4367C49.2553 33.6189 49.0885 33.7907 48.9124 33.9592C48.7378 34.1264 48.5723 34.2967 48.4127 34.4776C48.1928 34.7264 47.9561 34.9552 47.7159 35.1855C47.5404 35.3585 47.3783 35.5404 47.2157 35.7248C47.0497 35.9063 46.8712 36.0745 46.6932 36.2449C46.5649 36.3715 46.4448 36.502 46.3257 36.6367C46.123 36.8661 45.9069 37.0778 45.6853 37.2898C45.5571 37.4164 45.437 37.5469 45.3179 37.6816C45.1569 37.8638 44.9901 38.0356 44.814 38.2041C44.6407 38.3699 44.4766 38.5388 44.3185 38.7184C44.086 38.9815 43.835 39.2234 43.5794 39.4653C43.4417 39.6023 43.3128 39.7405 43.1844 39.8855C42.9139 40.1887 42.6249 40.4721 42.3323 40.7551C42.2557 40.8299 42.2557 40.8299 42.1775 40.9063C41.8955 41.18 41.6076 41.4427 41.3055 41.6954C41.1471 41.8285 40.9946 41.9674 40.8415 42.1061C40.4552 42.4481 40.05 42.7612 39.6357 43.0703C39.5006 43.1715 39.3665 43.2738 39.2325 43.3763C36.1065 45.752 32.4534 47.1758 28.5546 47.8041C28.4829 47.8159 28.4111 47.8277 28.3372 47.8399C26.0437 48.1977 23.4533 48.1813 21.164 47.8041C21.0405 47.7841 21.0405 47.7841 20.9146 47.7637C18.5546 47.3716 16.2692 46.7278 14.1093 45.7143C14.0503 45.687 13.9913 45.6596 13.9305 45.6314C10.8838 44.2143 7.81487 42.0956 5.71639 39.4865C5.58889 39.3296 5.45576 39.1792 5.31995 39.029C2.64014 36.0434 0.964114 32.1551 0.251889 28.2857C0.236649 28.2033 0.236649 28.2033 0.2211 28.1192C0.188815 27.9329 0.160775 27.7464 0.134311 27.5592C0.128474 27.5181 0.122638 27.4771 0.116624 27.4348C-0.0147779 26.4777 -0.0269117 25.5236 -0.0252593 24.5592C-0.0252228 24.4788 -0.0251863 24.3984 -0.0251486 24.3156C-0.0223344 22.9646 0.0449144 21.6439 0.268686 20.3102C0.276003 20.2662 0.28332 20.2222 0.290859 20.1768C1.0109 15.8879 2.81464 11.8154 5.71087 8.4898C5.76422 8.4259 5.81758 8.36201 5.87254 8.29618C6.31649 7.77073 6.80095 7.28564 7.29398 6.80409C7.32641 6.77222 7.35884 6.74036 7.39225 6.70754C7.8387 6.26993 8.3057 5.86991 8.8015 5.48572C8.87133 5.42857 8.94088 5.3711 9.00989 5.31301C13.8337 1.28476 20.3757 -0.349285 35.6429 2.6Z" fill="#7A7A7A"/>
<path d="M143.646 10.5129C146.096 10.5102 148.546 10.5075 151.071 10.5047C151.84 10.5036 152.61 10.5024 153.403 10.5011C154.353 10.5005 154.353 10.5005 154.799 10.5004C155.107 10.5003 155.415 10.4998 155.723 10.4991C164.445 10.4796 164.445 10.4796 167.431 12.9945C167.482 13.0373 167.533 13.0801 167.585 13.1241C169.056 14.4595 169.643 16.5177 169.724 18.4172C169.782 20.7709 169.263 22.7049 167.585 24.4647C165.792 26.2606 163.468 26.8767 160.981 27.166C161.018 27.1882 161.056 27.2104 161.094 27.2333C161.427 27.4386 161.705 27.6556 161.974 27.9351C162.1 28.0575 162.227 28.1684 162.362 28.2805C162.761 28.6165 163.126 28.986 163.496 29.3509C163.938 29.7884 163.938 29.7884 164.405 30.2007C164.81 30.5371 165.177 30.914 165.55 31.2822C165.897 31.6235 166.245 31.9583 166.62 32.2702C166.96 32.5651 167.275 32.8885 167.595 33.204C168.037 33.6414 168.037 33.6414 168.504 34.0537C168.908 34.3902 169.275 34.7671 169.649 35.1353C169.998 35.4793 170.348 35.8175 170.727 36.132C170.982 36.3503 171.221 36.5853 171.462 36.819C171.514 36.8688 171.566 36.9186 171.62 36.9699C171.669 37.0175 171.718 37.0651 171.769 37.1142C171.813 37.1571 171.858 37.2 171.903 37.2442C172 37.3537 172 37.3537 172 37.4843C170.734 37.5778 169.468 37.6412 168.199 37.6762C168.153 37.6775 168.107 37.6788 168.059 37.6801C163.893 37.7932 163.893 37.7932 162.551 36.6192C162.337 36.4193 162.143 36.206 161.955 35.9823C161.925 35.9467 161.895 35.911 161.864 35.8743C161.57 35.5181 161.304 35.1486 161.063 34.756C160.682 34.1377 160.142 33.6564 159.619 33.1517C159.492 33.0288 159.365 32.9057 159.238 32.7825C158.968 32.521 158.698 32.2598 158.428 31.9986C158.114 31.6956 157.801 31.3925 157.488 31.0892C157.364 30.9687 157.239 30.8483 157.115 30.728C156.777 30.4012 156.446 30.0733 156.136 29.7206C155.859 29.4194 155.559 29.1383 155.264 28.8536C155.139 28.7329 155.014 28.612 154.89 28.491C154.625 28.2342 154.359 27.9776 154.094 27.7211C153.786 27.4235 153.479 27.1258 153.171 26.8278C153.049 26.7095 152.927 26.5913 152.804 26.4732C152.729 26.3997 152.653 26.3261 152.577 26.2526C152.543 26.2205 152.51 26.1884 152.476 26.1553C152.205 25.8922 151.963 25.6194 151.709 25.3374C151.11 24.7555 150.512 24.1736 149.895 23.5741C149.873 28.1645 149.851 32.7549 149.828 37.4843C147.788 37.4843 145.748 37.4843 143.646 37.4843C143.646 28.5838 143.646 19.6832 143.646 10.5129ZM149.828 15.2803C149.828 17.8879 149.828 20.4956 149.828 23.1823C151.775 23.1884 151.775 23.1884 153.762 23.1945C154.373 23.1972 154.373 23.1972 154.995 23.1999C155.367 23.2006 155.367 23.2006 155.738 23.201C155.901 23.2013 156.063 23.202 156.226 23.203C158.309 23.2152 160.724 23.1332 162.315 21.6331C163.147 20.7745 163.424 19.9075 163.421 18.7456C163.422 18.6727 163.423 18.5998 163.424 18.5248C163.424 17.7359 163.224 17.0575 162.678 16.4575C161.214 15.1117 158.818 15.2495 156.957 15.2604C156.705 15.2616 156.453 15.2617 156.201 15.262C155.727 15.2626 155.253 15.2642 154.779 15.2661C154.137 15.2688 153.495 15.2698 152.852 15.2709C151.844 15.2728 150.836 15.2767 149.828 15.2803Z" fill="#D1D1D1"/>
<path d="M84.2529 10.0586C84.479 10.1685 84.6352 10.2689 84.8282 10.4219C84.9168 10.4918 84.9168 10.4918 85.0072 10.5632C85.0687 10.6122 85.1302 10.6612 85.1936 10.7117C85.2537 10.7593 85.3138 10.807 85.3757 10.856C85.5616 11.0036 85.7471 11.1515 85.9326 11.2994C86.0558 11.3974 86.179 11.4953 86.3021 11.5933C88.5193 13.3566 88.5193 13.3566 88.7057 13.5048C88.8236 13.5985 88.9415 13.6922 89.0595 13.7859C89.4901 14.128 89.9195 14.4714 90.3487 14.8152C90.7348 15.1244 91.1217 15.4326 91.5092 15.7402C91.6324 15.8382 91.7555 15.9361 91.8787 16.0341C91.9397 16.0826 92.0007 16.1311 92.0635 16.181C94.835 18.3851 94.835 18.3851 95.0213 18.5333C95.1392 18.6271 95.2571 18.7208 95.3751 18.8145C95.8057 19.1565 96.2351 19.5 96.6643 19.8438C97.0504 20.153 97.4374 20.4612 97.8248 20.7688C97.948 20.8667 98.0712 20.9647 98.1943 21.0627C98.2858 21.1354 98.2858 21.1354 98.3791 21.2096C101.151 23.4137 101.151 23.4137 101.336 23.5611C101.457 23.6576 101.579 23.7538 101.7 23.8499C101.887 23.9978 102.073 24.1465 102.259 24.2953C102.293 24.3224 102.327 24.3495 102.363 24.3774C103.189 25.0349 103.943 25.7172 104.544 26.581C104.535 26.5217 104.535 26.5217 104.525 26.4611C104.379 25.4702 104.313 24.5051 104.319 23.5049C104.319 23.3618 104.319 23.2188 104.319 23.0757C104.319 22.6929 104.32 22.31 104.322 21.9272C104.323 21.5251 104.323 21.1229 104.323 20.7208C104.324 19.9617 104.325 19.2027 104.327 18.4437C104.33 17.5785 104.331 16.7133 104.332 15.8481C104.334 14.0707 104.338 12.2932 104.342 10.5157C106.315 10.5157 108.289 10.5157 110.322 10.5157C110.322 19.6103 110.322 28.7048 110.322 38.0749C110.064 37.9495 109.872 37.8039 109.658 37.6219C109.351 37.3645 109.039 37.116 108.718 36.8749C108.332 36.5841 107.962 36.2784 107.594 35.9658C107.233 35.6592 106.865 35.3635 106.492 35.0708C106.101 34.7619 105.712 34.4502 105.329 34.1321C105.031 33.885 104.727 33.6468 104.418 33.4137C104.036 33.126 103.671 32.8231 103.308 32.5132C103.032 32.2791 102.75 32.0556 102.461 31.8382C102.081 31.5535 101.719 31.2532 101.359 30.9458C101.084 30.7118 100.802 30.4882 100.512 30.2708C100.129 29.9829 99.7618 29.68 99.3972 29.3699C99.0366 29.0633 98.6678 28.7676 98.2951 28.4749C97.9038 28.1659 97.5154 27.8542 97.1319 27.5361C96.8339 27.2891 96.5304 27.0509 96.2207 26.8178C95.8389 26.5301 95.4738 26.2271 95.1108 25.9173C94.8352 25.6832 94.5536 25.4597 94.2639 25.2423C93.8804 24.9544 93.5133 24.6514 93.1488 24.3413C92.7319 23.987 92.3061 23.6438 91.8701 23.3119C91.497 23.0242 91.15 22.7189 90.8121 22.3933C90.7729 22.3558 90.7338 22.3183 90.6934 22.2797C90.4408 22.0324 90.2326 21.7754 90.0311 21.4872C90.0406 21.5265 90.0501 21.5658 90.0599 21.6064C90.2079 22.3184 90.1833 23.0334 90.1807 23.7566C90.1806 23.9066 90.1807 24.0567 90.1807 24.2067C90.1808 24.6121 90.18 25.0175 90.1791 25.4229C90.1782 25.8473 90.1781 26.2717 90.178 26.696C90.1776 27.4077 90.1768 28.1194 90.1756 28.8311C90.1743 29.5637 90.1734 30.2964 90.1728 31.0291C90.1728 31.0743 90.1727 31.1196 90.1727 31.1662C90.1725 31.3932 90.1724 31.6202 90.1722 31.8472C90.1708 33.7272 90.1683 35.6072 90.1654 37.4872C88.2143 37.4872 86.2632 37.4872 84.2529 37.4872C84.2529 28.4357 84.2529 19.3843 84.2529 10.0586Z" fill="#D1D1D1"/>
<path d="M130.124 10.1187C133.432 10.0522 136.787 10.3392 140.019 11.0373C140.019 12.9554 140.019 14.8734 140.019 16.8496C138.608 16.4577 138.608 16.4577 138.112 16.319C135.698 15.6503 133.238 15.201 130.722 15.2047C130.672 15.2047 130.622 15.2048 130.571 15.2048C127.394 15.2116 123.968 15.7082 121.597 17.9394C119.842 19.6587 119.375 22.1611 119.38 24.4912C119.393 25.7009 119.614 26.9373 120.198 28.0169C120.234 28.0859 120.269 28.1548 120.305 28.2259C120.557 28.7045 120.845 29.1127 121.206 29.519C121.243 29.5638 121.28 29.6085 121.319 29.6547C123.034 31.6764 126.039 32.4431 128.597 32.719C128.683 32.7283 128.683 32.7283 128.771 32.7379C132.55 33.0961 136.652 32.5259 140.228 31.3169C140.355 31.2822 140.355 31.2822 140.556 31.2822C140.556 33.1356 140.556 34.989 140.556 36.8986C137.512 37.4296 137.512 37.4296 136.533 37.5394C136.421 37.5525 136.309 37.5656 136.197 37.5787C135.38 37.673 134.563 37.7521 133.742 37.8022C133.582 37.8121 133.421 37.8233 133.26 37.8348C131.473 37.9519 129.637 37.9445 127.858 37.7475C127.747 37.7354 127.747 37.7354 127.634 37.7231C123.139 37.2098 118.407 35.5275 115.484 32.0047C113.149 29.0717 112.566 25.4943 113.034 21.88C113.237 20.4674 113.633 19.1075 114.286 17.8292C114.31 17.782 114.333 17.7348 114.358 17.6862C115.976 14.4926 119.05 12.4338 122.448 11.3049C124.926 10.5129 127.523 10.1803 130.124 10.1187Z" fill="#D1D1D1"/>
<path d="M46.8198 11.2722C47.0149 11.3958 47.1816 11.5441 47.3508 11.6985C47.3864 11.7306 47.4221 11.7628 47.4588 11.7959C47.7064 12.0201 47.9462 12.251 48.1835 12.4855C48.3092 12.6055 48.4391 12.7176 48.5728 12.8291C48.7737 12.9969 48.962 13.1723 49.148 13.3556C49.3327 13.5376 49.5195 13.7117 49.7191 13.8781C49.9188 14.0444 50.1056 14.2186 50.2902 14.4005C50.4735 14.5811 50.6588 14.754 50.8571 14.9189C51.1316 15.1475 51.3825 15.3959 51.6363 15.6457C51.8259 15.8276 52.0229 15.998 52.2258 16.1656C52.3367 16.2594 52.4432 16.3509 52.541 16.4577C52.541 16.5008 52.541 16.5439 52.541 16.5883C52.4728 16.6199 52.4045 16.6516 52.3342 16.6842C50.7923 17.4095 49.4289 18.4618 48.241 19.6577C48.0813 19.8138 47.9208 19.9691 47.76 20.1241C47.5871 20.291 47.4143 20.458 47.2416 20.625C47.1537 20.7097 47.1537 20.7097 47.0639 20.7961C46.7618 21.0886 46.4705 21.3849 46.1928 21.6994C46.0543 21.8536 45.9059 21.9965 45.7551 22.1393C45.5568 22.3297 45.3651 22.5211 45.184 22.7271C44.9499 22.9933 44.6948 23.2361 44.4386 23.4822C44.3002 23.6185 44.1698 23.757 44.0418 23.9026C43.8077 24.1688 43.5526 24.4117 43.2964 24.6577C43.158 24.794 43.0276 24.9326 42.8996 25.0781C42.6655 25.3443 42.4104 25.5872 42.1542 25.8332C42.0158 25.9695 41.8854 26.1081 41.7574 26.2536C41.5233 26.5198 41.2682 26.7627 41.0121 27.0087C40.8736 27.145 40.7432 27.2836 40.6152 27.4291C40.3811 27.6953 40.1261 27.9382 39.8699 28.1842C39.7314 28.3205 39.601 28.4591 39.473 28.6046C39.2389 28.8708 38.9839 29.1137 38.7277 29.3597C38.5892 29.496 38.4588 29.6346 38.3309 29.7801C38.1497 29.9861 37.9581 30.1774 37.7598 30.3679C37.5628 30.557 37.3725 30.7468 37.1929 30.9515C36.9463 31.232 36.6768 31.488 36.4055 31.7454C36.2631 31.8835 36.131 32.0274 36 32.1758C35.6973 32.5154 35.3703 32.8305 35.0429 33.1475C34.9519 33.2363 34.9519 33.2363 34.859 33.3269C34.5154 33.6604 34.1653 33.9803 33.7957 34.2862C33.6962 34.3713 33.6962 34.3713 33.5947 34.4582C32.6974 35.2121 31.7378 35.8744 30.7051 36.4413C30.6482 36.4738 30.5913 36.5063 30.5326 36.5398C30.3901 36.6169 30.3901 36.6169 30.1676 36.7026C29.8893 36.6202 29.7086 36.3988 29.5125 36.2005C29.2457 35.9355 28.9752 35.6831 28.6845 35.4426C28.4799 35.2663 28.2911 35.0751 28.0992 34.886C27.9654 34.7578 27.8286 34.6375 27.6858 34.5189C27.4108 34.2898 27.1594 34.0409 26.905 33.7906C26.7227 33.6156 26.5322 33.4538 26.3376 33.2921C26.1318 33.114 25.9413 32.9217 25.7479 32.7311C25.572 32.5625 25.387 32.4071 25.1994 32.251C24.9842 32.0642 24.7843 31.8632 24.5831 31.6623C24.4649 31.5392 24.4649 31.5392 24.3223 31.4781C24.3223 31.435 24.3223 31.3919 24.3223 31.3475C24.3905 31.3158 24.4588 31.2842 24.5291 31.2515C26.014 30.553 27.3767 29.5469 28.5099 28.3791C28.6223 28.2781 28.6223 28.2781 28.7566 28.2781C28.7725 28.2413 28.7884 28.2045 28.8048 28.1667C28.911 27.9821 29.0408 27.8578 29.1962 27.7097C29.2573 27.651 29.3185 27.5924 29.3814 27.5319C29.4461 27.4704 29.5108 27.4089 29.5755 27.3475C29.9533 26.9871 30.3258 26.6283 30.67 26.2371C30.8193 26.0706 30.9792 25.9181 31.1418 25.7638C31.3933 25.523 31.6311 25.2756 31.8601 25.0146C32.0607 24.796 32.2779 24.5938 32.4921 24.388C32.6291 24.2531 32.758 24.1161 32.8845 23.972C33.1066 23.7193 33.3477 23.4872 33.5908 23.254C33.8091 23.0436 34.0123 22.8254 34.2117 22.5982C34.4122 22.3797 34.6294 22.1774 34.8437 21.9717C34.9807 21.8368 35.1096 21.6998 35.236 21.5556C35.4582 21.303 35.6992 21.0708 35.9424 20.8377C36.1607 20.6272 36.3639 20.4091 36.5633 20.1819C36.7638 19.9634 36.981 19.7611 37.1952 19.5554C37.3323 19.4204 37.4611 19.2835 37.5876 19.1393C37.8097 18.8866 38.0508 18.6545 38.294 18.4213C38.5123 18.2109 38.7155 17.9928 38.9148 17.7656C39.1154 17.5471 39.3325 17.3448 39.5468 17.139C39.6838 17.0041 39.8127 16.8671 39.9392 16.723C40.1316 16.5041 40.3373 16.3006 40.548 16.0985C40.7518 15.9031 40.9513 15.7072 41.1359 15.4944C41.6356 14.9264 42.1983 14.3817 42.7868 13.9005C42.9087 13.8002 43.028 13.6981 43.1468 13.5944C44.0768 12.7882 45.0732 12.0901 46.1582 11.4944C46.2151 11.4619 46.272 11.4294 46.3306 11.3959C46.6552 11.2205 46.6552 11.2205 46.8198 11.2722Z" fill="#7A7A7A"/>
<path d="M76.6605 20.832C76.6827 20.832 76.7049 20.832 76.7277 20.832C76.8932 22.6567 76.8683 24.4295 76.7277 26.2524C76.7055 26.2524 76.6834 26.2524 76.6605 26.2524C76.6609 26.2132 76.6612 26.174 76.6616 26.1336C76.663 25.9569 76.6638 25.7802 76.6647 25.6035C76.6653 25.5417 76.6658 25.48 76.6664 25.4163C76.6666 25.3576 76.6668 25.2989 76.6671 25.2384C76.6676 25.1568 76.6676 25.1568 76.6681 25.0736C76.675 24.946 76.675 24.946 76.5933 24.881C76.5867 24.7891 76.5847 24.697 76.5846 24.6049C76.5844 24.5462 76.5842 24.4876 76.584 24.4272C76.5841 24.3635 76.5843 24.2997 76.5844 24.2341C76.5843 24.1691 76.5843 24.1041 76.5842 24.0372C76.5842 23.8995 76.5843 23.7618 76.5846 23.6241C76.5849 23.4125 76.5846 23.201 76.5841 22.9894C76.5842 22.856 76.5843 22.7226 76.5844 22.5892C76.5843 22.5254 76.5841 22.4617 76.584 22.396C76.5842 22.3374 76.5844 22.2788 76.5846 22.2184C76.5847 22.1665 76.5847 22.1147 76.5848 22.0612C76.5933 21.9422 76.5933 21.9422 76.6605 21.8769C76.6654 21.7008 76.6667 21.5264 76.6647 21.3504C76.6644 21.3009 76.6641 21.2513 76.6638 21.2003C76.663 21.0775 76.6618 20.9548 76.6605 20.832Z" fill="#63AE59"/>
<path d="M53.5484 17.6992C53.5928 17.7208 53.6371 17.7423 53.6828 17.7645C53.4393 17.9604 53.4393 17.9604 53.2125 17.9604C53.1903 18.0251 53.1682 18.0897 53.1453 18.1564C53.0913 18.1658 53.0372 18.1752 52.9815 18.1849C52.8147 18.2048 52.8147 18.2048 52.7422 18.287C52.6302 18.2896 52.5182 18.2898 52.4062 18.287C52.572 18.1008 52.7468 18.0178 52.9773 17.9196C53.0418 17.8918 53.1062 17.8641 53.1726 17.8354C53.3469 17.7645 53.3469 17.7645 53.5484 17.6992Z" fill="#5DB251"/>
<path d="M9.00351 23.3789C9.04785 23.3789 9.0922 23.3789 9.13788 23.3789C9.13788 23.7237 9.13788 24.0685 9.13788 24.4238C9.00351 24.3585 9.00351 24.3585 8.95863 24.235C8.84072 23.7145 8.84072 23.7145 8.93632 23.4442C8.95849 23.4227 8.98066 23.4011 9.00351 23.3789Z" fill="#64AE59"/>
<path d="M36.9527 19.7891C37.0423 19.9632 36.9978 20.0612 36.9527 20.2462C36.889 20.2597 36.8252 20.2731 36.7596 20.287C36.53 20.3578 36.53 20.3578 36.4572 20.5809C36.4434 20.6429 36.4295 20.7048 36.4152 20.7687C36.3265 20.7687 36.2379 20.7687 36.1465 20.7687C36.2421 20.4721 36.3965 20.3089 36.6252 20.0952C36.6863 20.0375 36.7475 19.9799 36.8105 19.9204C36.8574 19.8771 36.9044 19.8337 36.9527 19.7891Z" fill="#5FB156"/>
<path d="M44.7473 12.3438C44.7473 12.4084 44.7473 12.4731 44.7473 12.5397C44.6808 12.5828 44.6142 12.6259 44.5457 12.6703C44.5357 12.7141 44.5256 12.7578 44.5153 12.8029C44.5031 12.8454 44.491 12.8878 44.4785 12.9315C44.3662 12.9907 44.3662 12.9907 44.2266 13.0295C43.975 13.1091 43.8031 13.2142 43.6051 13.3886C43.5607 13.3671 43.5164 13.3455 43.4707 13.3233C43.633 13.1967 43.7954 13.0702 43.9578 12.9437C44.0036 12.908 44.0494 12.8723 44.0966 12.8355C44.3112 12.6684 44.5257 12.502 44.7473 12.3438Z" fill="#5FB153"/>
<path d="M47.9721 9.0795C48.182 9.06725 48.182 9.06725 48.3752 9.0795C48.3752 9.1226 48.3752 9.1657 48.3752 9.21011C48.4861 9.21011 48.5969 9.21011 48.7111 9.21011C48.7111 9.23166 48.7111 9.25321 48.7111 9.27541C48.5363 9.32097 48.3614 9.36576 48.1862 9.41011C48.1366 9.42311 48.0871 9.43612 48.036 9.44952C47.659 9.54404 47.659 9.54404 47.4346 9.47133C47.4983 9.44305 47.5621 9.41476 47.6277 9.38562C47.8512 9.28893 47.8512 9.28893 47.9721 9.0795Z" fill="#969FA9"/>
<path d="M76.1234 17.9609C76.1456 17.9609 76.1678 17.9609 76.1906 17.9609C76.2134 18.0534 76.2357 18.1459 76.2578 18.2385C76.2703 18.29 76.2828 18.3415 76.2956 18.3946C76.325 18.5487 76.325 18.5487 76.325 18.8099C76.2363 18.8099 76.1476 18.8099 76.0563 18.8099C76.0119 18.6591 75.9676 18.5082 75.9219 18.3528C75.9884 18.3312 76.0549 18.3097 76.1234 18.2875C76.1234 18.1797 76.1234 18.072 76.1234 17.9609Z" fill="#969FA9"/>
<path d="M73.839 12.4062C73.9895 12.5943 74.1278 12.7829 74.2421 12.994C74.2199 13.0371 74.1978 13.0802 74.1749 13.1246C73.9754 13.0923 73.9754 13.0923 73.7718 13.0593C73.6836 12.8022 73.7555 12.6593 73.839 12.4062Z" fill="#5CB151"/>
<path d="M38.9691 31.0859C38.9913 31.0859 39.0135 31.0859 39.0363 31.0859C39.0615 31.2329 39.0615 31.2329 39.0363 31.4125C38.86 31.539 38.86 31.539 38.6332 31.6737C38.4919 31.7989 38.3622 31.931 38.2301 32.0655C38.1857 32.044 38.1414 32.0224 38.0957 32.0002C38.1306 31.9671 38.1655 31.9339 38.2015 31.8997C38.4205 31.6896 38.6362 31.4815 38.8306 31.2492C38.8763 31.1953 38.922 31.1414 38.9691 31.0859Z" fill="#969FA9"/>
<path d="M55.6982 9.01172C55.8494 9.01988 55.8494 9.01988 56.0342 9.07702C56.1896 9.27702 56.1896 9.27702 56.3029 9.46886C55.9925 9.40421 55.6821 9.33956 55.3623 9.27294C55.3623 9.25139 55.3623 9.22984 55.3623 9.20764C55.4732 9.20764 55.584 9.20764 55.6982 9.20764C55.6982 9.14298 55.6982 9.07833 55.6982 9.01172Z" fill="#969FA9"/>
<path d="M55.6311 8.88281C55.6754 8.88281 55.7197 8.88281 55.7654 8.88281C55.7433 8.99057 55.7211 9.09832 55.6982 9.20934C55.3539 9.21604 55.0297 9.21169 54.6904 9.14404C54.6904 9.12249 54.6904 9.10093 54.6904 9.07873C55.0104 9.01652 55.3063 9.00798 55.6311 9.01342C55.6311 8.97032 55.6311 8.92722 55.6311 8.88281Z" fill="#59B54E"/>
<path d="M59.3266 46.6289C59.4861 46.6493 59.4861 46.6493 59.6625 46.6942C59.7068 46.7589 59.7512 46.8235 59.7969 46.8901C59.3746 47.0487 59.3746 47.0487 59.125 46.9554C59.1915 46.8477 59.258 46.7399 59.3266 46.6289Z" fill="#56B551"/>
<path d="M52.0027 8.62109C52.1358 8.62109 52.2688 8.62109 52.4059 8.62109C52.4059 8.68575 52.4059 8.7504 52.4059 8.81701C52.4502 8.83856 52.4945 8.86011 52.5402 8.88232C52.2298 8.88232 51.9194 8.88232 51.5996 8.88232C51.8012 8.75171 51.8012 8.75171 52.0027 8.75171C52.0027 8.7086 52.0027 8.6655 52.0027 8.62109Z" fill="#66AC5C"/>
<path d="M75.2498 32.2617C75.317 32.3923 75.317 32.3923 75.2501 32.5908C75.2181 32.6681 75.1861 32.7454 75.1532 32.825C75.1214 32.9026 75.0897 32.9802 75.0569 33.0602C75.0319 33.12 75.0068 33.1797 74.9811 33.2413C74.9047 32.9985 74.9363 32.8841 75.0482 32.6536C75.0039 32.6536 74.9596 32.6536 74.9139 32.6536C74.8917 32.5889 74.8695 32.5242 74.8467 32.4576C74.9797 32.393 75.1127 32.3283 75.2498 32.2617Z" fill="#969FA9"/>
<path d="M39.775 16.8477C39.7972 16.8477 39.8193 16.8477 39.8422 16.8477C39.8422 16.977 39.8422 17.1063 39.8422 17.2395C39.7694 17.2597 39.7694 17.2597 39.6952 17.2803C39.4441 17.3997 39.3388 17.5467 39.1703 17.7619C39.1038 17.7404 39.0373 17.7188 38.9688 17.6966C39.0213 17.6463 39.0739 17.596 39.1281 17.5441C39.1967 17.4779 39.2654 17.4118 39.3341 17.3456C39.3688 17.3124 39.4035 17.2793 39.4392 17.2451C39.631 17.0641 39.631 17.0641 39.775 16.8477Z" fill="#969FA9"/>
<path d="M33.7283 36.1133C33.7283 36.221 33.7283 36.3288 33.7283 36.4398C33.5953 36.4398 33.4623 36.4398 33.3252 36.4398C33.3252 36.5045 33.3252 36.5691 33.3252 36.6357C33.2143 36.6357 33.1035 36.6357 32.9893 36.6357C33.5122 36.1133 33.5122 36.1133 33.7283 36.1133Z" fill="#969FA9"/>
<path d="M9.40606 19.8516C9.49475 19.8516 9.58343 19.8516 9.67481 19.8516C9.61722 20.4113 9.61722 20.4113 9.47325 20.6352C9.35189 20.3438 9.33104 20.1578 9.40606 19.8516Z" fill="#64AD5B"/>
<path d="M31.4438 10.3828C31.4659 10.4259 31.4881 10.469 31.5109 10.5134C31.2638 10.809 31.013 11.0616 30.7047 11.2971C30.6603 11.2755 30.616 11.254 30.5703 11.2318C30.8585 10.9516 31.1468 10.6715 31.4438 10.3828Z" fill="#5CB056"/>
<path d="M29.4277 36.048C29.6774 36.0349 29.7484 36.038 29.9652 36.1786C29.9778 36.3827 29.9778 36.3827 29.9652 36.5704C29.888 36.5081 29.8111 36.4455 29.7343 36.3827C29.6914 36.3478 29.6485 36.313 29.6044 36.2771C29.4949 36.1786 29.4949 36.1786 29.4277 36.048Z" fill="#969FA9"/>
<path d="M20.8277 21.6797C20.872 21.6797 20.9164 21.6797 20.9621 21.6797C20.9159 21.8062 20.9159 21.8062 20.8277 21.9409C20.6513 21.9899 20.6513 21.9899 20.4917 22.0062C20.4696 22.114 20.4474 22.2217 20.4246 22.3327C20.3802 22.3327 20.3359 22.3327 20.2902 22.3327C20.2873 22.1804 20.2874 22.028 20.2902 21.8756C20.3574 21.8103 20.3574 21.8103 20.5967 21.8062C20.6729 21.8076 20.7492 21.8089 20.8277 21.8103C20.8277 21.7672 20.8277 21.7241 20.8277 21.6797Z" fill="#969FA9"/>
<path d="M31.2422 0.980469C31.3374 1.00083 31.4326 1.02125 31.5277 1.04169C31.6072 1.05874 31.6072 1.05874 31.6884 1.07613C31.8313 1.10766 31.9735 1.14123 32.1156 1.17639C32.0935 1.24104 32.0713 1.30569 32.0484 1.37231C31.9376 1.39386 31.8267 1.41541 31.7125 1.43761C31.7347 1.35141 31.7568 1.2652 31.7797 1.17639C31.7159 1.16831 31.6522 1.16022 31.5865 1.1519C31.3766 1.11108 31.3766 1.11108 31.2422 0.980469Z" fill="#5CB351"/>
<path d="M57.8486 47.3453C57.8486 47.3668 57.8486 47.3884 57.8486 47.4106C57.7437 47.4327 57.6387 47.4544 57.5337 47.4759C57.446 47.4941 57.446 47.4941 57.3565 47.5126C57.181 47.5405 57.0183 47.5462 56.8408 47.5412C57.0881 47.1634 57.4515 47.284 57.8486 47.3453Z" fill="#969FA9"/>
<path d="M59.0576 37.4841C58.7184 37.7405 58.494 37.906 58.0498 37.8759C58.2797 37.6816 58.7591 37.339 59.0576 37.4841Z" fill="#969FA9"/>
<path d="M43.0674 27.0352C43.1339 27.0567 43.2004 27.0783 43.2689 27.1005C43.2232 27.1368 43.2232 27.1368 43.1766 27.1739C43.0358 27.3318 42.9921 27.4893 42.933 27.6882C42.8665 27.6882 42.8 27.6882 42.7314 27.6882C42.7314 27.6451 42.7314 27.602 42.7314 27.5576C42.7758 27.5576 42.8201 27.5576 42.8658 27.5576C42.8617 27.4956 42.8575 27.4337 42.8532 27.3699C42.8574 27.3025 42.8615 27.2352 42.8658 27.1658C42.9323 27.1227 42.9989 27.0796 43.0674 27.0352Z" fill="#969FA9"/>
<path d="M27.883 9.07812C27.9495 9.07812 28.016 9.07812 28.0846 9.07812C28.2315 9.27404 28.2315 9.27404 28.3533 9.46996C28.1094 9.42686 27.8655 9.38376 27.6143 9.33935C27.6808 9.3178 27.7473 9.29625 27.8158 9.27404C27.838 9.20939 27.8602 9.14474 27.883 9.07812Z" fill="#969FA9"/>
<path d="M36.3486 3.00391C36.5901 3.09108 36.8025 3.19723 37.0205 3.33044C36.9281 3.46105 36.9281 3.46105 36.8189 3.59166C36.7746 3.59166 36.7303 3.59166 36.6846 3.59166C36.679 3.54317 36.6735 3.49468 36.6678 3.44472C36.608 3.23168 36.5176 3.14696 36.3486 3.00391Z" fill="#5FB059"/>
<path d="M61.477 35.918C61.5213 35.9395 61.5656 35.9611 61.6113 35.9833C61.4188 36.2496 61.2465 36.3769 60.9395 36.5057C60.9395 36.4411 60.9395 36.3764 60.9395 36.3098C61.057 36.205 61.057 36.205 61.2082 36.1016C61.2581 36.067 61.308 36.0324 61.3594 35.9968C61.3982 35.9708 61.437 35.9448 61.477 35.918Z" fill="#969FA9"/>
<path d="M16.1918 1.50019C16.0809 1.52174 15.9701 1.54329 15.8559 1.56549C15.8559 1.6086 15.8559 1.6517 15.8559 1.69611C15.6231 1.79309 15.6231 1.79309 15.3855 1.89202C15.3634 1.82737 15.3412 1.76272 15.3184 1.69611C15.4258 1.65045 15.5337 1.60573 15.6417 1.56141C15.7017 1.53641 15.7617 1.51141 15.8236 1.48565C15.9902 1.43488 15.9902 1.43488 16.1918 1.50019Z" fill="#60AF54"/>
<path d="M29.2266 0.523438C29.333 0.53094 29.4394 0.539264 29.5457 0.547927C29.6346 0.554746 29.6346 0.554746 29.7252 0.561703C29.8978 0.588646 30.0166 0.635216 30.1672 0.719356C30.0707 0.732139 29.9741 0.744256 29.8774 0.756091C29.8237 0.762909 29.7699 0.769728 29.7145 0.776754C29.5625 0.784662 29.5625 0.784662 29.3609 0.719356C29.3609 0.676254 29.3609 0.633152 29.3609 0.588744C29.3166 0.567193 29.2723 0.545642 29.2266 0.523438Z" fill="#5DB158"/>
<path d="M32.053 35.3906C32.1507 35.3926 32.1507 35.3926 32.2504 35.3947C31.9396 35.7131 31.9396 35.7131 31.7129 35.7865C31.785 35.3959 31.785 35.3959 32.053 35.3906Z" fill="#5EB152"/>
<path d="M28.8902 12.9961C28.9798 13.1702 28.9353 13.2682 28.8902 13.4532C28.735 13.4748 28.5798 13.4963 28.4199 13.5185C28.4857 13.4437 28.5515 13.3689 28.6173 13.2941C28.6539 13.2524 28.6906 13.2107 28.7283 13.1678C28.7806 13.1091 28.8338 13.051 28.8902 12.9961Z" fill="#5FB057"/>
<path d="M3.69512 11.168C3.71729 11.168 3.73946 11.168 3.7623 11.168C3.7707 11.3231 3.7707 11.3231 3.7623 11.4945C3.71796 11.5376 3.67362 11.5807 3.62793 11.6251C3.58476 11.7602 3.58476 11.7602 3.56074 11.8863C3.47205 11.8648 3.38337 11.8432 3.29199 11.821C3.35748 11.712 3.42334 11.6032 3.48936 11.4945C3.54431 11.4036 3.54431 11.4036 3.60037 11.3108C3.64727 11.2401 3.64727 11.2401 3.69512 11.168Z" fill="#5EB04E"/>
<path d="M20.291 0.392246C20.2688 0.435348 20.2467 0.47845 20.2238 0.522858C20.0899 0.539929 19.9559 0.556641 19.8215 0.569542C19.6665 0.590898 19.5501 0.638262 19.4176 0.718776C19.3732 0.654123 19.3289 0.58947 19.2832 0.522858C19.3881 0.500686 19.4931 0.479016 19.5981 0.457552C19.6566 0.44543 19.7151 0.433307 19.7753 0.420817C19.9509 0.392917 20.1135 0.387272 20.291 0.392246Z" fill="#969FA9"/>
<path d="M4.23242 37.5508C4.42829 37.6209 4.55345 37.6669 4.70273 37.812C4.67754 37.9508 4.67754 37.9508 4.63555 38.0732C4.30801 37.7712 4.30801 37.7712 4.23242 37.5508Z" fill="#5FB155"/>
<path d="M7.39023 6.72656C7.47982 6.90071 7.43532 6.99868 7.39023 7.18371C7.23503 7.20526 7.07983 7.22681 6.91992 7.24901C6.98568 7.17415 7.05147 7.09933 7.11729 7.02452C7.15392 6.98285 7.19056 6.94118 7.2283 6.89825C7.28058 6.83955 7.33375 6.78146 7.39023 6.72656Z" fill="#969FA9"/>
<path d="M37.2217 30.4336C37.3547 30.4336 37.4877 30.4336 37.6248 30.4336C37.5705 30.51 37.5158 30.5861 37.461 30.6622C37.4306 30.7046 37.4002 30.747 37.3689 30.7907C37.3425 30.8237 37.3161 30.8567 37.2889 30.8907C37.2667 30.8907 37.2445 30.8907 37.2217 30.8907C37.2217 30.7399 37.2217 30.589 37.2217 30.4336Z" fill="#63AD58"/>
<path d="M20.0219 27.168C20.1106 27.2111 20.1993 27.2542 20.2906 27.2986C20.2906 27.4063 20.2906 27.5141 20.2906 27.6251C20.1354 27.5174 19.9802 27.4096 19.8203 27.2986C19.8868 27.2555 19.9533 27.2124 20.0219 27.168Z" fill="#5EB055"/>
<path d="M20.8279 21.3555C20.9175 21.5296 20.873 21.6276 20.8279 21.8126C20.6949 21.8126 20.5619 21.8126 20.4248 21.8126C20.5578 21.6618 20.6909 21.5109 20.8279 21.3555Z" fill="#969FA9"/>
<path d="M72.2264 9.99219C72.5539 10.2942 72.5539 10.2942 72.6295 10.5146C72.4336 10.4445 72.3085 10.3985 72.1592 10.2534C72.1844 10.1146 72.1844 10.1146 72.2264 9.99219Z" fill="#5FB152"/>
<path d="M57.2441 0.523438C57.784 0.575916 57.784 0.575916 58.0504 0.719356C57.8482 0.757268 57.652 0.788574 57.4457 0.784662C57.3071 0.658131 57.3071 0.658131 57.2441 0.523438Z" fill="#5FB056"/>
<path d="M40.7156 43.8867C40.76 43.9083 40.8043 43.9298 40.85 43.952C40.8057 44.0598 40.7613 44.1675 40.7156 44.2786C40.5826 44.2786 40.4496 44.2786 40.3125 44.2786C40.4469 44.1479 40.5812 44.0173 40.7156 43.8867Z" fill="#969FA9"/>
<path d="M14.0418 35.0039C14.2413 35.1332 14.2413 35.1332 14.4449 35.2651C14.4228 35.3082 14.4006 35.3513 14.3777 35.3957C14.289 35.3957 14.2004 35.3957 14.109 35.3957C14.0646 35.288 14.0203 35.1802 13.9746 35.0692C13.9968 35.0477 14.019 35.0261 14.0418 35.0039Z" fill="#59B356"/>
<path d="M65.9783 30.8242C66.0455 31.0854 66.0455 31.0854 65.9657 31.2895C65.8439 31.4773 65.8439 31.4773 65.5752 31.6079C65.7082 31.3493 65.8413 31.0907 65.9783 30.8242Z" fill="#969FA9"/>
<path d="M37.3564 19.3945C37.4008 19.3945 37.4451 19.3945 37.4908 19.3945C37.4908 19.5023 37.4908 19.61 37.4908 19.7211C37.3356 19.7426 37.1804 19.7642 37.0205 19.7864C37.1291 19.6531 37.2413 19.5225 37.3564 19.3945Z" fill="#969FA9"/>
<path d="M11.4891 3.65625C11.4669 3.7209 11.4447 3.78556 11.4219 3.85217C11.2161 3.92972 11.2161 3.92972 11.0187 3.98278C11.0187 4.04743 11.0187 4.11209 11.0187 4.1787C10.9301 4.1356 10.8414 4.09249 10.75 4.04809C10.8477 3.98242 10.9458 3.91719 11.0439 3.85217C11.1258 3.79762 11.1258 3.79762 11.2093 3.74196C11.3547 3.65625 11.3547 3.65625 11.4891 3.65625Z" fill="#969FA9"/>
<path d="M45.8223 36.7031C45.9553 36.7031 46.0883 36.7031 46.2254 36.7031C46.1151 36.8351 46.0031 36.9657 45.8895 37.095C45.8673 37.095 45.8451 37.095 45.8223 37.095C45.8223 36.9657 45.8223 36.8363 45.8223 36.7031Z" fill="#969FA9"/>
<path d="M3.22461 35.9844C3.42416 36.1137 3.42416 36.1137 3.62773 36.2456C3.60556 36.3534 3.58339 36.4611 3.56055 36.5721C3.263 36.2363 3.263 36.2363 3.22461 35.9844Z" fill="#969FA9"/>
<path d="M32.9217 34.6133C33.0547 34.6133 33.1877 34.6133 33.3248 34.6133C33.0057 34.9316 33.0057 34.9316 32.8545 35.0051C32.8767 34.8758 32.8988 34.7465 32.9217 34.6133Z" fill="#5FB058"/>
<path d="M63.7607 33.9609C63.7829 33.9609 63.8051 33.9609 63.8279 33.9609C63.8279 34.0902 63.8279 34.2195 63.8279 34.3528C63.6949 34.3528 63.5619 34.3528 63.4248 34.3528C63.5351 34.2208 63.6471 34.0902 63.7607 33.9609Z" fill="#60AF56"/>
<path d="M37.7598 29.9102C37.8928 29.9102 38.0258 29.9102 38.1629 29.9102C38.0526 30.0421 37.9406 30.1727 37.827 30.302C37.8048 30.302 37.7826 30.302 37.7598 30.302C37.7598 30.1727 37.7598 30.0434 37.7598 29.9102Z" fill="#969FA9"/>
<path d="M28.8904 28.0156C28.9791 28.0156 29.0678 28.0156 29.1592 28.0156C29.137 28.1018 29.1148 28.188 29.092 28.2768C29.0033 28.2984 28.9146 28.32 28.8232 28.3422C28.8454 28.2344 28.8676 28.1266 28.8904 28.0156Z" fill="#969FA9"/>
<path d="M42.7988 27.168C42.821 27.168 42.8432 27.168 42.866 27.168C42.866 27.2973 42.866 27.4266 42.866 27.5598C42.733 27.5598 42.6 27.5598 42.4629 27.5598C42.5732 27.4279 42.6852 27.2972 42.7988 27.168Z" fill="#969FA9"/>
<path d="M57.042 20.832C57.1972 20.9613 57.3524 21.0906 57.5123 21.2239C57.2436 21.2892 57.2436 21.2892 57.1092 21.2239C57.0672 21.0239 57.0672 21.0239 57.042 20.832Z" fill="#969FA9"/>
<path d="M36.4824 20.2461C36.5268 20.2676 36.5711 20.2892 36.6168 20.3114C36.5725 20.3545 36.5281 20.3976 36.4824 20.442C36.4389 20.6099 36.4389 20.6099 36.4152 20.7685C36.3265 20.7685 36.2379 20.7685 36.1465 20.7685C36.2262 20.5481 36.2994 20.3997 36.4824 20.2461Z" fill="#59B54F"/>
<path d="M51.4656 18.8086C51.5493 18.9713 51.5178 19.0313 51.4656 19.2004C51.3548 19.2004 51.2439 19.2004 51.1297 19.2004C51.1075 19.1573 51.0853 19.1142 51.0625 19.0698C51.1955 18.9836 51.3286 18.8974 51.4656 18.8086Z" fill="#969FA9"/>
<path d="M63.492 13.582C63.6583 13.6467 63.6583 13.6467 63.8279 13.7126C63.8279 13.8204 63.8279 13.9282 63.8279 14.0392C63.6949 13.9314 63.5619 13.8237 63.4248 13.7126C63.447 13.6695 63.4691 13.6264 63.492 13.582Z" fill="#969FA9"/>
<path d="M62.417 12.668C62.5279 12.668 62.6387 12.668 62.7529 12.668C62.7973 12.7757 62.8416 12.8835 62.8873 12.9945C62.8208 12.9945 62.7543 12.9945 62.6857 12.9945C62.5388 12.8312 62.5388 12.8312 62.417 12.668Z" fill="#969FA9"/>
<path d="M29.3613 12.5391C29.3835 12.5391 29.4057 12.5391 29.4285 12.5391C29.4285 12.6684 29.4285 12.7977 29.4285 12.9309C29.2955 12.9309 29.1625 12.9309 29.0254 12.9309C29.1357 12.7989 29.2477 12.6683 29.3613 12.5391Z" fill="#65AD59"/>
<path d="M6.78613 7.3125C6.8083 7.3125 6.83048 7.3125 6.85332 7.3125C6.85332 7.44181 6.85332 7.57111 6.85332 7.70434C6.72029 7.70434 6.58726 7.70434 6.4502 7.70434C6.5605 7.57238 6.67253 7.44178 6.78613 7.3125Z" fill="#969FA9"/>
<path d="M7.86133 6.26953C7.8835 6.26953 7.90567 6.26953 7.92852 6.26953C7.92852 6.39884 7.92852 6.52814 7.92852 6.66137C7.79548 6.66137 7.66245 6.66137 7.52539 6.66137C7.63569 6.52941 7.74772 6.39881 7.86133 6.26953Z" fill="#61AE58"/>
<path d="M39.9092 42.4492C40.0422 42.4492 40.1752 42.4492 40.3123 42.4492C40.2263 42.5607 40.1364 42.6695 40.0436 42.7757C39.9992 42.7757 39.9549 42.7757 39.9092 42.7757C39.9092 42.668 39.9092 42.5602 39.9092 42.4492Z" fill="#969FA9"/>
<path d="M29.0918 35.6562C29.2027 35.6562 29.3135 35.6562 29.4277 35.6562C29.4277 35.7856 29.4277 35.9149 29.4277 36.0481C29.313 35.9645 29.2011 35.8771 29.0918 35.7869C29.0918 35.7438 29.0918 35.7007 29.0918 35.6562Z" fill="#5FB24C"/>
<path d="M21.2982 9.07812C21.4091 9.16433 21.52 9.25053 21.6342 9.33935C21.4568 9.3609 21.2794 9.38245 21.0967 9.40466C21.1632 9.2969 21.2297 9.18915 21.2982 9.07812Z" fill="#63AF56"/>
<path d="M21.2314 20.8984C21.3658 21.1433 21.3658 21.1433 21.3658 21.2903C21.2106 21.3118 21.0554 21.3334 20.8955 21.3556C21.0064 21.2047 21.1172 21.0539 21.2314 20.8984Z" fill="#5DB155"/>
<path d="M56.6395 20.4414C56.7503 20.5492 56.8612 20.6569 56.9754 20.7679C56.8424 20.7679 56.7093 20.7679 56.5723 20.7679C56.5944 20.6602 56.6166 20.5524 56.6395 20.4414Z" fill="#5FB14E"/>
<path d="M49.4504 18.2852C49.5391 18.3067 49.6278 18.3283 49.7191 18.3505C49.5418 18.4798 49.3644 18.6091 49.1816 18.7423C49.2669 18.4106 49.2669 18.4106 49.4504 18.2852Z" fill="#5CB24E"/>
<path d="M48.0387 9.20785C48.1988 9.18872 48.1988 9.18872 48.383 9.1956C48.4442 9.19737 48.5053 9.19914 48.5683 9.20096C48.6152 9.20323 48.6622 9.20551 48.7105 9.20785C48.7105 9.2294 48.7105 9.25095 48.7105 9.27315C48.4445 9.31626 48.1784 9.35936 47.9043 9.40377C47.9486 9.33911 47.993 9.27446 48.0387 9.20785Z" fill="#65AB5F"/>
<path d="M66.3811 30.0391C66.4272 30.1493 66.4272 30.1493 66.4482 30.3003C66.2963 30.6027 66.2963 30.6027 66.1123 30.6921C66.1868 30.4644 66.2644 30.2497 66.3811 30.0391Z" fill="#969FA9"/>
<path d="M38.2969 29.3867C38.4077 29.3867 38.5186 29.3867 38.6328 29.3867C38.5452 29.5186 38.4556 29.6492 38.3641 29.7786C38.3419 29.7786 38.3197 29.7786 38.2969 29.7786C38.2969 29.6492 38.2969 29.5199 38.2969 29.3867Z" fill="#969FA9"/>
<path d="M76.2573 28.4062C76.3017 28.4062 76.346 28.4062 76.3917 28.4062C76.3474 28.6218 76.303 28.8373 76.2573 29.0593C76.2352 29.0593 76.213 29.0593 76.1902 29.0593C76.1883 28.9627 76.187 28.8661 76.186 28.7695C76.1852 28.7157 76.1844 28.6619 76.1836 28.6065C76.1902 28.4716 76.1902 28.4716 76.2573 28.4062Z" fill="#969FA9"/>
<path d="M53.8848 28.3438C54.0511 28.3761 54.0511 28.3761 54.2207 28.4091C54.1098 28.5168 53.999 28.6246 53.8848 28.7356C53.8848 28.6063 53.8848 28.477 53.8848 28.3438Z" fill="#5FB24F"/>
<path d="M29.9656 26.9727C30.0543 26.9727 30.143 26.9727 30.2344 26.9727C30.1798 27.0992 30.1798 27.0992 30.1 27.2339C30.0335 27.2554 29.967 27.277 29.8984 27.2992C29.9206 27.1914 29.9428 27.0837 29.9656 26.9727Z" fill="#969FA9"/>
<path d="M43.2684 26.7109C43.3355 26.9069 43.3355 26.9069 43.3355 27.0375C43.1803 27.0806 43.0251 27.1237 42.8652 27.1681C42.9983 27.0172 43.1313 26.8664 43.2684 26.7109Z" fill="#969FA9"/>
<path d="M35.0719 21.6797C35.1162 21.7443 35.1606 21.809 35.2062 21.8756C35.051 22.0049 34.8958 22.1342 34.7359 22.2674C34.6916 22.2459 34.6472 22.2243 34.6016 22.2021C34.7568 22.0297 34.912 21.8573 35.0719 21.6797Z" fill="#969FA9"/>
<path d="M27.6809 14.2383C27.7252 14.2383 27.7695 14.2383 27.8152 14.2383C27.8152 14.3245 27.8152 14.4107 27.8152 14.4995C27.6822 14.5426 27.5492 14.5857 27.4121 14.6301C27.4895 14.4689 27.5497 14.3658 27.6809 14.2383Z" fill="#5EB244"/>
<path d="M45.4857 11.9492C45.412 12.1447 45.3731 12.2004 45.175 12.2921C45.1223 12.3082 45.0697 12.3244 45.0154 12.3411C44.9933 12.298 44.9711 12.2549 44.9482 12.2104C45.3346 11.9492 45.3346 11.9492 45.4857 11.9492Z" fill="#969FA9"/>
<path d="M29.4951 9.73047C29.7168 9.73047 29.9386 9.73047 30.167 9.73047C30.1005 9.82745 30.1005 9.82745 30.0326 9.92639C29.8552 9.88329 29.6779 9.84018 29.4951 9.79577C29.4951 9.77422 29.4951 9.75267 29.4951 9.73047Z" fill="#969FA9"/>
<path d="M37.3566 4.76562C37.401 4.78718 37.4453 4.80873 37.491 4.83093C37.491 4.91714 37.491 5.00334 37.491 5.09216C37.2915 5.05983 37.2915 5.05983 37.0879 5.02685C37.1766 4.94065 37.2653 4.85444 37.3566 4.76562Z" fill="#969FA9"/>
<path d="M59.3941 46.7578C59.5937 46.7901 59.5937 46.7901 59.7973 46.8231C59.6012 46.9501 59.4865 46.9833 59.2598 47.019C59.3041 46.9328 59.3485 46.8466 59.3941 46.7578Z" fill="#5CB05D"/>
<path d="M31.6451 37.4219C31.6451 37.4865 31.6451 37.5512 31.6451 37.6178C31.5107 37.7484 31.5107 37.7484 31.3344 37.7566C31.2817 37.7539 31.2291 37.7512 31.1748 37.7484C31.4939 37.4953 31.4939 37.4953 31.6451 37.4219Z" fill="#60AF59"/>
<path d="M46.3594 36.1797C46.4702 36.1797 46.5811 36.1797 46.6953 36.1797C46.6077 36.3116 46.5181 36.4422 46.4266 36.5715C46.4044 36.5715 46.3822 36.5715 46.3594 36.5715C46.3594 36.4422 46.3594 36.3129 46.3594 36.1797Z" fill="#5EB155"/>
<path d="M26.2029 30.3672C26.2029 30.4749 26.2029 30.5827 26.2029 30.6937C26.0034 30.6614 26.0034 30.6614 25.7998 30.6284C26.1273 30.3672 26.1273 30.3672 26.2029 30.3672Z" fill="#969FA9"/>
<path d="M39.2371 28.8666C39.1263 28.9528 39.0154 29.039 38.9012 29.1278C38.879 29.0416 38.8568 28.9554 38.834 28.8666C39.0013 28.7852 39.0631 28.8159 39.2371 28.8666Z" fill="#5EB153"/>
<path d="M27.8154 26.6445C27.9485 26.6445 28.0815 26.6445 28.2186 26.6445C28.1077 26.7523 27.9968 26.86 27.8826 26.9711C27.8604 26.8633 27.8383 26.7556 27.8154 26.6445Z" fill="#969FA9"/>
<path d="M18.8125 26.2539C18.9234 26.2539 19.0342 26.2539 19.1484 26.2539C19.1706 26.3186 19.1928 26.3832 19.2156 26.4498C19.1713 26.4929 19.1269 26.536 19.0813 26.5804C18.9926 26.4727 18.9039 26.3649 18.8125 26.2539Z" fill="#5DB34F"/>
<path d="M19.6191 22.5977C19.6863 22.7936 19.6863 22.7936 19.6191 22.9895C19.5083 22.9895 19.3974 22.9895 19.2832 22.9895C19.3941 22.8602 19.5049 22.7309 19.6191 22.5977Z" fill="#969FA9"/>
<path d="M48.5098 18.9375C48.6761 18.9698 48.6761 18.9698 48.8457 19.0028C48.757 19.089 48.6683 19.1752 48.577 19.264C48.5548 19.1563 48.5326 19.0485 48.5098 18.9375Z" fill="#5AB356"/>
<path d="M51.667 15.7383C51.7779 15.8029 51.8887 15.8676 52.0029 15.9342C51.9364 15.9665 51.9364 15.9665 51.8686 15.9995C51.8686 16.0642 51.8686 16.1288 51.8686 16.1954C51.8242 16.1954 51.7799 16.1954 51.7342 16.1954C51.712 16.0446 51.6898 15.8937 51.667 15.7383Z" fill="#969FA9"/>
<path d="M46.0906 11.5586C46.0906 11.6663 46.0906 11.7741 46.0906 11.8851C45.8911 11.8528 45.8911 11.8528 45.6875 11.8198C46.015 11.5586 46.015 11.5586 46.0906 11.5586Z" fill="#969FA9"/>
<path d="M52.0033 8.62109C52.1364 8.62109 52.2694 8.62109 52.4064 8.62109C52.4064 8.68575 52.4064 8.7504 52.4064 8.81701C52.369 8.80489 52.3316 8.79277 52.2931 8.78028C52.1109 8.74677 51.9802 8.77364 51.8018 8.81701C51.8683 8.79546 51.9348 8.77391 52.0033 8.75171C52.0033 8.7086 52.0033 8.6655 52.0033 8.62109Z" fill="#969FA9"/>
</g>
<defs>
<clipPath id="clip0_3704_10702">
<rect width="172" height="48" fill="white"/>
</clipPath>
</defs>
</svg>
