<svg width="266" height="48" viewBox="0 0 266 48" fill="none" xmlns="http://www.w3.org/2000/svg">
<path d="M37.1167 21.1871C37.1167 7.87642 45.4184 1.19922 55.6561 1.19922C65.8829 1.19922 74.1846 7.87642 74.1846 21.1871C74.1846 34.5306 65.8829 41.175 55.6561 41.175C45.4184 41.175 37.1167 34.5963 37.1167 21.1871ZM55.6561 36.1069C60.6984 36.1069 64.7891 30.8198 64.7891 21.1871C64.7891 11.6419 60.6984 6.26733 55.6561 6.26733C50.6029 6.26733 46.5012 11.6419 46.5012 21.1871C46.5012 30.7651 50.6029 36.1069 55.6561 36.1069Z" fill="#D1D1D1"/>
<path d="M1.19727 2.65625V39.7094H7.63957V14.8176L27.5024 39.7094H32.9166V2.65625H26.7915V23.082L10.2865 2.65625H1.19727Z" fill="#D1D1D1"/>
<path d="M208.456 2.65625L193.438 39.7094H199.925L204.059 29.5184H217.698L221.887 39.7094H232.409L217.239 2.65625H208.456ZM206.159 24.1985L210.851 12.5845L215.555 24.1985H206.159Z" fill="#D1D1D1"/>
<path d="M148.036 26.9351C147.861 30.3284 147.598 33.6889 143.847 34.9477C142.173 35.495 139.1 35.4841 137.361 34.7945C136.529 34.4551 136.015 34.1705 135.37 33.5247C134.123 32.2878 133.62 29.6607 133.576 27.9531V2.65625H123.929V26.9351C124.017 30.2846 124.564 33.6561 126.74 36.3598C130.47 41.001 137.328 41.6578 142.873 40.9682C146.319 40.5413 149.337 39.4029 151.766 36.8633C153.439 35.1119 154.478 32.3535 154.773 29.9781C154.959 28.5989 154.981 28.369 154.981 26.9351V2.65625H148.036L148.036 26.9351Z" fill="#D1D1D1"/>
<path d="M170.808 7.87763C175.063 7.87763 179.285 7.15519 181.134 11.5775C181.855 13.3289 181.91 17.2914 180.204 18.9771C178.18 20.9803 175.074 21.1773 172.394 21.4072L182.304 39.7094H192.465L183.474 23.3885C188.834 21.5057 191.349 18.4736 191.087 12.683C190.802 6.43271 185.52 2.65625 179.493 2.65625H161.205V39.7094H170.808V7.87763Z" fill="#D1D1D1"/>
<path d="M108.299 39.7094L94.0037 2.65625H86.4895L72.5986 39.7094H79.3472L88.688 14.6643L98.1819 39.7094H108.299Z" fill="#D1D1D1"/>
<path d="M108.759 2.65625H100.894L98.499 8.99415L101.912 17.8606L103.148 14.6643L112.39 39.7094H123.065L108.759 2.65625Z" fill="#D1D1D1"/>
<path d="M91.2914 26.7812L86.4897 39.7088H92.6258L94.4086 34.8377L91.2914 26.7812Z" fill="#D1D1D1"/>
</svg>
