<svg width="282" height="48" viewBox="0 0 282 48" fill="none" xmlns="http://www.w3.org/2000/svg">
<path fill-rule="evenodd" clip-rule="evenodd" d="M20.5928 0.726562H66.4143V37.4635H20.5928V0.726562Z" fill="#7A7A7A"/>
<path fill-rule="evenodd" clip-rule="evenodd" d="M47.8581 36.9913C46.3505 37.2983 44.7753 37.4624 43.1546 37.4624C41.8969 37.4624 40.6672 37.3631 39.4743 37.1756L41.1577 24.1703C39.6309 23.4164 37.9552 23.0348 36.2248 23.522C36.1002 22.9472 35.9756 22.4699 35.8511 21.8952C37.7536 21.7536 39.6641 21.879 41.3472 22.5925L45.3603 22.6758C47.1984 21.9436 49.4206 21.8241 51.3849 22.0668L50.7239 23.4701C49.0163 23.2954 47.388 23.4824 45.934 24.1982L47.8581 36.9913Z" fill="white"/>
<path fill-rule="evenodd" clip-rule="evenodd" d="M43.5572 3.82499C44.0013 3.84483 44.2787 4.24301 44.1768 4.71435C44.0748 5.1856 43.632 5.55183 43.1878 5.53199C42.7436 5.51228 42.466 5.11401 42.568 4.64266C42.6701 4.17137 43.113 3.80519 43.5572 3.82499Z" fill="white"/>
<path fill-rule="evenodd" clip-rule="evenodd" d="M40.0532 5.21484C41.4231 5.79932 42.6065 6.33932 43.216 7.68242C44.1981 5.99692 45.3605 5.51518 46.5491 5.21484C45.1226 7.1269 44.0706 9.54177 44.7316 10.9524C43.7519 10.7412 42.7721 10.7295 41.7941 10.9524C42.3632 9.2072 41.4557 7.1269 40.0532 5.21484Z" fill="white"/>
<path fill-rule="evenodd" clip-rule="evenodd" d="M54.5167 6.76422C54.873 6.99832 54.8507 7.46487 54.4672 7.80622C54.0834 8.14748 53.4835 8.23452 53.1273 8.00041C52.7711 7.7664 52.7933 7.29985 53.1771 6.9585C53.5607 6.61724 54.1605 6.53011 54.5167 6.76422Z" fill="white"/>
<path fill-rule="evenodd" clip-rule="evenodd" d="M50.7261 6.20312C51.4927 7.35936 52.1323 8.38746 51.7863 9.80097C53.6709 8.88292 54.9414 9.05241 56.1186 9.38541C53.7214 10.2739 51.3162 11.7633 50.9701 13.2582C50.2905 12.6029 49.4847 12.113 48.5312 11.819C50.111 10.6491 50.6773 8.47747 50.7261 6.20312Z" fill="white"/>
<path fill-rule="evenodd" clip-rule="evenodd" d="M61.7069 14.485C61.8566 14.8532 61.5445 15.2312 61.01 15.3292C60.4757 15.4273 59.921 15.2083 59.7714 14.8402C59.6217 14.4722 59.9336 14.0942 60.4682 13.996C61.0026 13.898 61.5572 14.1171 61.7069 14.485Z" fill="white"/>
<path fill-rule="evenodd" clip-rule="evenodd" d="M58.9017 12.1758C58.8131 13.5116 58.6994 14.679 57.522 15.689C59.67 15.8394 60.622 16.5978 61.3936 17.4472C58.8371 17.0231 55.8959 17.096 54.6669 18.1734C54.5129 17.2974 54.1494 16.4977 53.54 15.7895C55.5923 15.5819 57.4304 14.0473 58.9017 12.1758Z" fill="white"/>
<path fill-rule="evenodd" clip-rule="evenodd" d="M62.9628 23.8153C62.8713 24.1979 62.3804 24.3766 61.8665 24.2145C61.3526 24.0526 61.0103 23.6109 61.1017 23.2285C61.1932 22.846 61.6843 22.6672 62.198 22.8293C62.7118 22.9913 63.0544 23.4329 62.9628 23.8153Z" fill="white"/>
<path fill-rule="evenodd" clip-rule="evenodd" d="M61.9471 20.5586C61.0764 21.6566 60.2847 22.5993 58.6799 22.919C60.4214 24.0343 60.7815 25.1184 60.9334 26.1969C59.0068 24.6603 56.4566 23.3707 54.7681 23.7243C55.1581 22.9067 55.3244 22.0581 55.2264 21.1744C57.0991 21.9408 59.5791 21.4776 61.9471 20.5586Z" fill="white"/>
<path fill-rule="evenodd" clip-rule="evenodd" d="M32.7791 6.64257C33.1632 6.44526 33.6437 6.64448 33.8523 7.08805C34.0609 7.53138 33.9188 8.05086 33.5349 8.24827C33.151 8.44558 32.6706 8.24637 32.4619 7.80295C32.2532 7.35957 32.3954 6.83998 32.7791 6.64257Z" fill="white"/>
<path fill-rule="evenodd" clip-rule="evenodd" d="M30.7148 9.49529C32.2251 9.32447 33.5517 9.2062 34.8992 10.0362C34.6695 8.15333 35.3414 7.19071 36.1482 6.36719C36.1474 8.6534 36.7737 11.1798 38.2062 12.0415C37.2551 12.3367 36.4281 12.7988 35.7489 13.4561C35.1369 11.7223 33.0803 10.4192 30.7148 9.49529Z" fill="white"/>
<path fill-rule="evenodd" clip-rule="evenodd" d="M25.5177 14.2021C25.7154 13.8521 26.2417 13.7873 26.6928 14.0575C27.1441 14.3275 27.3494 14.8306 27.1516 15.1806C26.9539 15.5307 26.4276 15.5955 25.9765 15.3254C25.5253 15.0552 25.3198 14.5523 25.5177 14.2021Z" fill="white"/>
<path fill-rule="evenodd" clip-rule="evenodd" d="M25.5703 17.5821C26.7267 16.7113 27.7621 15.9731 29.4067 16.0177C28.0397 14.554 28.0005 13.4252 28.1613 12.3477C29.5875 14.2597 31.6879 16.0705 33.4237 16.1005C32.8127 16.8059 32.4095 17.5908 32.2519 18.4677C30.6578 17.3131 28.1251 17.2145 25.5703 17.5821Z" fill="white"/>
<path fill-rule="evenodd" clip-rule="evenodd" d="M24.0311 23.2392C23.9983 22.8494 24.4134 22.5578 24.9582 22.5881C25.5032 22.6184 25.9717 22.959 26.0045 23.3488C26.0375 23.7386 25.6222 24.0302 25.0774 23.9998C24.5327 23.9696 24.064 23.629 24.0311 23.2392Z" fill="white"/>
<path fill-rule="evenodd" clip-rule="evenodd" d="M26.0369 26.1286C26.5265 24.8614 26.9891 23.7625 28.4296 23.0639C26.4045 22.4172 25.716 21.4636 25.229 20.4648C27.5654 21.4707 30.4228 22.0874 31.9333 21.3356C31.8168 22.2163 31.9255 23.072 32.2988 23.897C30.2575 23.6178 28.0215 24.6679 26.0369 26.1286Z" fill="white"/>
<path fill-rule="evenodd" clip-rule="evenodd" d="M43.4979 13.3678C43.8397 13.383 44.0532 13.6894 43.9747 14.0521C43.8963 14.4147 43.5555 14.6965 43.2137 14.6813C42.872 14.666 42.6583 14.3595 42.737 13.9969C42.8153 13.6343 43.1561 13.3526 43.4979 13.3678Z" fill="white"/>
<path fill-rule="evenodd" clip-rule="evenodd" d="M40.8018 14.4375C41.8558 14.8872 42.7662 15.3027 43.2352 16.3361C43.991 15.0393 44.8853 14.6686 45.7998 14.4375C44.7022 15.9088 43.8929 17.7669 44.4015 18.8523C43.6476 18.6899 42.8937 18.6806 42.1412 18.8523C42.5791 17.5094 41.8808 15.9088 40.8018 14.4375Z" fill="white"/>
<path fill-rule="evenodd" clip-rule="evenodd" d="M51.1123 17.5937C51.2561 17.8666 51.0471 18.1755 50.6455 18.2834C50.2437 18.3915 49.8012 18.2577 49.6574 17.9849C49.5133 17.7121 49.7224 17.4032 50.124 17.2952C50.5258 17.1873 50.9683 17.3209 51.1123 17.5937Z" fill="white"/>
<path fill-rule="evenodd" clip-rule="evenodd" d="M48.7787 15.9961C48.8173 17.0253 48.8231 17.9268 48.0012 18.773C49.6593 18.7562 50.449 19.2788 51.1079 19.8821C49.1152 19.7144 46.8672 19.951 46.0113 20.8521C45.8236 20.1903 45.4813 19.5998 44.958 19.0947C46.5142 18.8096 47.8004 17.5206 48.7787 15.9961Z" fill="white"/>
<path fill-rule="evenodd" clip-rule="evenodd" d="M35.6176 17.4319C35.7871 17.1707 36.1945 17.141 36.5275 17.366C36.8607 17.5908 36.9936 17.9852 36.8241 18.2464C36.6546 18.5078 36.2472 18.5373 35.914 18.3124C35.581 18.0875 35.4482 17.6932 35.6176 17.4319Z" fill="white"/>
<path fill-rule="evenodd" clip-rule="evenodd" d="M35.4897 20.0346C36.4215 19.4103 37.2537 18.883 38.515 18.9805C37.5376 17.8035 37.5637 16.9349 37.7411 16.1133C38.7415 17.637 40.2648 19.1089 41.5964 19.1988C41.0919 19.7171 40.7432 20.3044 40.5786 20.972C39.4115 20.0238 37.4706 19.8507 35.4897 20.0346Z" fill="white"/>
<path fill-rule="evenodd" clip-rule="evenodd" d="M43.3011 18.7109C44.8135 18.7109 46.0399 19.7888 46.0399 21.1177C46.0399 22.4469 44.8135 23.5246 43.3011 23.5246C41.7886 23.5246 40.562 22.4469 40.562 21.1177C40.562 19.7888 41.7886 18.7109 43.3011 18.7109Z" fill="#7A7A7A"/>
<path fill-rule="evenodd" clip-rule="evenodd" d="M20.5928 46.6452H66.4143V37.4609H20.5928V46.6452Z" fill="#ADADAD"/>
<path fill-rule="evenodd" clip-rule="evenodd" d="M24.9229 42.9779H25.9061C25.9433 43.2433 26.0521 43.4402 26.2318 43.5684C26.4114 43.6967 26.6717 43.7608 27.0119 43.7608C27.3004 43.7608 27.5192 43.709 27.6662 43.6056C27.8133 43.5032 27.8862 43.3501 27.8862 43.1488C27.8862 42.8541 27.4642 42.6111 26.6201 42.4176L26.5908 42.4109C26.5695 42.4066 26.5348 42.3985 26.4887 42.3884C26.0375 42.2894 25.7154 42.178 25.5222 42.0542C25.3517 41.9452 25.2215 41.7966 25.1317 41.6111C25.0418 41.4254 24.9969 41.2061 24.9969 40.953C24.9969 40.4805 25.1575 40.1183 25.4773 39.8662C25.7972 39.6143 26.2585 39.4883 26.8637 39.4883C27.4295 39.4883 27.8717 39.6222 28.1905 39.8911C28.5093 40.1599 28.6765 40.5378 28.6943 41.0272H27.7381C27.7201 40.7921 27.6302 40.6132 27.4687 40.4895C27.3059 40.3668 27.0758 40.305 26.7749 40.305C26.5146 40.305 26.3136 40.3556 26.1723 40.4579C26.0307 40.5604 25.96 40.7066 25.96 40.8956C25.96 41.1521 26.235 41.3445 26.785 41.4715C26.9344 41.5076 27.0499 41.5345 27.133 41.5548C27.4866 41.6448 27.7369 41.7145 27.885 41.7652C28.0322 41.8158 28.1613 41.872 28.2713 41.9327C28.4689 42.043 28.6158 42.1881 28.7146 42.3693C28.8135 42.5504 28.8629 42.7675 28.8629 43.0206C28.8629 43.5257 28.6934 43.9171 28.3532 44.1951C28.013 44.4729 27.5339 44.6112 26.9164 44.6112C26.307 44.6112 25.8288 44.4695 25.4819 44.186C25.135 43.9036 24.9487 43.4997 24.9229 42.9779Z" fill="white"/>
<path fill-rule="evenodd" clip-rule="evenodd" d="M29.9043 40.4996V39.6289H30.8606V40.4996H29.9043ZM29.9043 44.4818V40.8978H30.8606V44.4818H29.9043Z" fill="white"/>
<path fill-rule="evenodd" clip-rule="evenodd" d="M32.043 44.4793V40.8952H32.9792V41.3205C33.1139 41.1473 33.271 41.0167 33.4527 40.9301C33.6347 40.8436 33.8378 40.8008 34.0612 40.8008C34.4564 40.8008 34.7515 40.9031 34.948 41.109C35.1444 41.3138 35.2421 41.6232 35.2421 42.0359V44.4793H34.2857V42.3126C34.2857 42.0551 34.242 41.8717 34.1554 41.7626C34.069 41.6524 33.9288 41.5972 33.7335 41.5972C33.5067 41.5972 33.3282 41.6647 33.1969 41.7997C33.0656 41.9347 32.9994 42.1191 32.9994 42.3521V44.4793H32.043Z" fill="white"/>
<path fill-rule="evenodd" clip-rule="evenodd" d="M38.5543 43.1241H39.4971C39.4578 43.5785 39.2918 43.9374 38.9998 44.2007C38.7092 44.4638 38.3331 44.5955 37.8752 44.5955C37.3555 44.5955 36.948 44.4256 36.6528 44.0858C36.3576 43.7462 36.2104 43.277 36.2104 42.6763C36.2104 42.079 36.3609 41.611 36.6628 41.2713C36.9649 40.9316 37.379 40.7617 37.9078 40.7617C38.3714 40.7617 38.7416 40.8844 39.0213 41.1307C39.3008 41.377 39.4578 41.719 39.4905 42.1589H38.5409C38.5151 41.9687 38.4476 41.8237 38.3398 41.7224C38.2322 41.6223 38.0906 41.5717 37.9155 41.5717C37.6775 41.5717 37.5015 41.665 37.3835 41.8517C37.2656 42.0385 37.2074 42.3186 37.2074 42.6921C37.2074 43.0363 37.268 43.3018 37.3903 43.4874C37.5115 43.673 37.6865 43.7652 37.9155 43.7652C38.0931 43.7652 38.2354 43.7113 38.3432 43.6044C38.4511 43.4964 38.5216 43.3367 38.5543 43.1241Z" fill="white"/>
<path fill-rule="evenodd" clip-rule="evenodd" d="M42.6322 43.3873H43.5885C43.4921 43.7652 43.2979 44.06 43.0049 44.2749C42.712 44.4886 42.3549 44.5955 41.9328 44.5955C41.4153 44.5955 41.0046 44.4211 40.7027 44.0735C40.3996 43.7248 40.248 43.2523 40.248 42.6572C40.248 42.07 40.3973 41.6077 40.6947 41.2691C40.9933 40.9305 41.4007 40.7617 41.9183 40.7617C42.4673 40.7617 42.8904 40.9282 43.189 41.2612C43.4864 41.5942 43.6357 42.0689 43.6357 42.6843C43.6357 42.7528 43.6357 42.8035 43.6346 42.8384C43.6334 42.872 43.6301 42.9047 43.6268 42.935H41.2381C41.2515 43.2163 41.3199 43.4289 41.4436 43.5718C41.567 43.7146 41.7455 43.7855 41.9777 43.7855C42.1428 43.7855 42.2775 43.7529 42.3819 43.6887C42.4875 43.6235 42.5705 43.5234 42.6322 43.3873ZM41.2381 42.3073H42.6457C42.6367 42.0655 42.5726 41.881 42.4536 41.7551C42.3337 41.6279 42.1618 41.5649 41.9385 41.5649C41.7309 41.5649 41.567 41.6291 41.4469 41.7561C41.3279 41.8844 41.2583 42.0678 41.2381 42.3073Z" fill="white"/>
<path fill-rule="evenodd" clip-rule="evenodd" d="M47.7477 44.4758V41.2495H46.623V40.5881H46.6961C47.1057 40.5881 47.4043 40.524 47.5919 40.3968C47.7793 40.2698 47.8893 40.056 47.923 39.7578H48.6772V44.4758H47.7477Z" fill="white"/>
<path fill-rule="evenodd" clip-rule="evenodd" d="M52.8189 41.3969C52.8189 41.1269 52.7517 40.9131 52.6169 40.7557C52.4822 40.5993 52.2993 40.5205 52.0669 40.5205C51.8479 40.5205 51.6784 40.5959 51.5562 40.7478C51.4349 40.8996 51.3743 41.1112 51.3743 41.3833C51.3743 41.6388 51.4383 41.8378 51.5651 41.9807C51.692 42.1236 51.8705 42.1945 52.1007 42.1945C52.3261 42.1945 52.5025 42.1247 52.6292 41.9841C52.7562 41.8435 52.8189 41.6478 52.8189 41.3969ZM52.8358 42.6265C52.7258 42.7366 52.5967 42.8199 52.4486 42.875C52.2993 42.9302 52.1319 42.9572 51.9457 42.9572C51.4832 42.9572 51.1127 42.8176 50.8356 42.5387C50.5572 42.2597 50.418 41.8863 50.418 41.4183C50.418 40.9222 50.5695 40.5217 50.8715 40.2157C51.1734 39.9109 51.573 39.7578 52.068 39.7578C52.6416 39.7578 53.0782 39.9559 53.3769 40.353C53.6764 40.749 53.8259 41.3272 53.8259 42.0876C53.8259 42.9042 53.6665 43.5309 53.3466 43.9651C53.0266 44.4004 52.5664 44.6176 51.9659 44.6176C51.5517 44.6176 51.2171 44.5096 50.9634 44.2936C50.7086 44.0776 50.5706 43.7828 50.5458 43.4094L51.4955 43.4127C51.5181 43.5635 51.5764 43.676 51.6728 43.7502C51.7693 43.8244 51.9053 43.8616 52.0803 43.8616C52.3172 43.8616 52.498 43.7581 52.6226 43.5523C52.7471 43.3452 52.8177 43.037 52.8358 42.6265Z" fill="white"/>
<path fill-rule="evenodd" clip-rule="evenodd" d="M54.5361 44.4758C54.5404 44.0539 54.6304 43.6962 54.8068 43.4026C54.9819 43.1101 55.2938 42.8131 55.7418 42.5117C55.809 42.4655 55.9078 42.4015 56.038 42.3204C56.6308 41.9403 56.927 41.5746 56.927 41.2237C56.927 41.0145 56.8642 40.8501 56.7395 40.7286C56.6138 40.6083 56.4433 40.5476 56.2265 40.5476C55.9898 40.5476 55.8068 40.6218 55.6788 40.7703C55.5497 40.9188 55.4857 41.1303 55.4857 41.4059V41.4452H54.617C54.617 40.9041 54.7618 40.4879 55.0515 40.1966C55.3409 39.9041 55.7529 39.7578 56.2884 39.7578C56.7721 39.7578 57.1595 39.8906 57.4489 40.1549C57.7385 40.4193 57.8834 40.7714 57.8834 41.2113C57.8834 41.5251 57.8082 41.7974 57.6567 42.028C57.5051 42.2586 57.2122 42.5218 56.7788 42.8155C56.6868 42.8795 56.5588 42.9628 56.3973 43.0662C55.9853 43.3318 55.7518 43.5343 55.7001 43.6727H57.8374V44.4758H54.5361Z" fill="white"/>
<path fill-rule="evenodd" clip-rule="evenodd" d="M60.3991 44.4735H59.4156C59.4505 43.8301 59.6054 43.1912 59.8815 42.559C60.1566 41.9267 60.5493 41.3047 61.0602 40.6938H58.7422V39.8906H62.0827V40.5982C61.5651 41.1696 61.1678 41.7737 60.8906 42.4104C60.6134 43.0483 60.4495 43.7356 60.3991 44.4735Z" fill="white"/>
<path fill-rule="evenodd" clip-rule="evenodd" d="M79.4653 46.5421V37.8114H80.9872V46.5421H79.4653ZM254.022 46.5421V37.8114H255.545V45.0169H261.404V46.5421H254.022ZM246.401 46.5421C245.794 46.5421 245.233 46.4281 244.718 46.1997C244.202 45.9716 243.755 45.6594 243.376 45.2632C242.996 44.8668 242.7 44.3965 242.489 43.8521C242.277 43.3076 242.171 42.7191 242.171 42.0866C242.171 41.4462 242.277 40.8618 242.489 40.3333C242.7 39.8048 242.996 39.3545 243.376 38.9823C243.755 38.61 244.202 38.3217 244.718 38.1177C245.233 37.9134 245.794 37.8114 246.401 37.8114H248.522C249.153 37.8114 249.731 37.9155 250.254 38.1235C250.777 38.3319 251.227 38.624 251.602 39.0002C251.977 39.3766 252.269 39.827 252.477 40.3513C252.685 40.8758 252.788 41.4542 252.788 42.0866C252.788 42.7191 252.682 43.3076 252.471 43.8521C252.259 44.3965 251.964 44.8668 251.584 45.2632C251.205 45.6594 250.755 45.9716 250.236 46.1997C249.717 46.4281 249.145 46.5421 248.522 46.5421H246.401ZM248.522 45.0169C248.922 45.0169 249.289 44.9448 249.625 44.8009C249.96 44.6568 250.25 44.4585 250.493 44.2063C250.737 43.9541 250.927 43.6519 251.063 43.2997C251.198 42.9472 251.266 42.567 251.266 42.1587C251.266 41.7504 251.198 41.3721 251.063 41.0238C250.927 40.6757 250.737 40.3773 250.493 40.1292C250.25 39.881 249.96 39.6868 249.625 39.5467C249.289 39.4067 248.922 39.3365 248.522 39.3365H246.401C246.01 39.3365 245.648 39.4067 245.317 39.5467C244.985 39.6868 244.7 39.881 244.46 40.1292C244.22 40.3773 244.033 40.6735 243.897 41.0178C243.761 41.362 243.693 41.7424 243.693 42.1587C243.693 42.567 243.761 42.9472 243.897 43.2997C244.033 43.6519 244.22 43.9541 244.46 44.2063C244.7 44.4585 244.985 44.6568 245.317 44.8009C245.648 44.9448 246.01 45.0169 246.401 45.0169H248.522ZM234.802 46.5421C234.195 46.5421 233.633 46.4281 233.118 46.1997C232.603 45.9716 232.155 45.6594 231.776 45.2632C231.397 44.8668 231.101 44.3965 230.889 43.8521C230.678 43.3076 230.572 42.7191 230.572 42.0866C230.572 41.4462 230.678 40.8618 230.889 40.3333C231.101 39.8048 231.397 39.3545 231.776 38.9823C232.155 38.61 232.603 38.3217 233.118 38.1177C233.633 37.9134 234.195 37.8114 234.802 37.8114H236.923C237.554 37.8114 238.131 37.9155 238.654 38.1235C239.178 38.3319 239.627 38.624 240.002 39.0002C240.378 39.3766 240.67 39.827 240.877 40.3513C241.085 40.8758 241.189 41.4542 241.189 42.0866C241.189 42.7191 241.083 43.3076 240.871 43.8521C240.659 44.3965 240.364 44.8668 239.985 45.2632C239.605 45.6594 239.156 45.9716 238.636 46.1997C238.117 46.4281 237.546 46.5421 236.923 46.5421H234.802ZM236.923 45.0169C237.322 45.0169 237.69 44.9448 238.025 44.8009C238.361 44.6568 238.65 44.4585 238.894 44.2063C239.138 43.9541 239.328 43.6519 239.463 43.2997C239.599 42.9472 239.667 42.567 239.667 42.1587C239.667 41.7504 239.599 41.3721 239.463 41.0238C239.328 40.6757 239.138 40.3773 238.894 40.1292C238.65 39.881 238.361 39.6868 238.025 39.5467C237.69 39.4067 237.322 39.3365 236.923 39.3365H234.802C234.41 39.3365 234.049 39.4067 233.717 39.5467C233.386 39.6868 233.1 39.881 232.86 40.1292C232.621 40.3773 232.433 40.6735 232.297 41.0178C232.161 41.362 232.094 41.7424 232.094 42.1587C232.094 42.567 232.161 42.9472 232.297 43.2997C232.433 43.6519 232.621 43.9541 232.86 44.2063C233.1 44.4585 233.386 44.6568 233.717 44.8009C234.049 44.9448 234.41 45.0169 234.802 45.0169H236.923ZM227.792 46.578V42.7833H223.406V41.4262H227.792V37.8114H229.313V46.578H227.792ZM220.781 46.578V37.8114H222.304V46.578H220.781ZM214.826 46.5421C214.219 46.5421 213.658 46.4281 213.142 46.1997C212.627 45.9716 212.18 45.6594 211.8 45.2632C211.421 44.8668 211.125 44.3965 210.914 43.8521C210.702 43.3076 210.596 42.7191 210.596 42.0866C210.596 41.4462 210.702 40.8618 210.914 40.3333C211.125 39.8048 211.421 39.3545 211.8 38.9823C212.18 38.61 212.627 38.3217 213.142 38.1177C213.658 37.9134 214.219 37.8114 214.826 37.8114H219.547V39.3365H214.826C214.435 39.3365 214.073 39.4067 213.742 39.5467C213.41 39.6868 213.125 39.881 212.885 40.1292C212.645 40.3773 212.457 40.6735 212.322 41.0178C212.186 41.362 212.118 41.7424 212.118 42.1587C212.118 42.567 212.186 42.9472 212.322 43.2997C212.457 43.6519 212.645 43.9541 212.885 44.2063C213.125 44.4585 213.41 44.6568 213.742 44.8009C214.073 44.9448 214.435 45.0169 214.826 45.0169H219.547V46.5421H214.826ZM200.302 46.5421V45.0169H206.833C207.241 45.0169 207.554 44.9129 207.774 44.7048C207.994 44.4965 208.103 44.2203 208.103 43.8761C208.103 43.4998 207.994 43.2176 207.774 43.0293C207.554 42.8413 207.241 42.7471 206.833 42.7471H202.831C202.423 42.7471 202.054 42.685 201.722 42.561C201.391 42.4369 201.111 42.2648 200.884 42.0446C200.656 41.8245 200.48 41.5624 200.356 41.258C200.233 40.9538 200.171 40.6216 200.171 40.2613C200.171 39.9091 200.229 39.5828 200.345 39.2824C200.46 38.9823 200.632 38.724 200.86 38.5079C201.087 38.2917 201.369 38.1216 201.705 37.9976C202.04 37.8735 202.423 37.8114 202.855 37.8114H209.11V39.3365H202.855C202.503 39.3365 202.232 39.4307 202.04 39.6187C201.849 39.8069 201.753 40.0691 201.753 40.4053C201.753 40.7416 201.85 41.0019 202.046 41.186C202.242 41.3702 202.505 41.4621 202.841 41.4621H206.825C207.71 41.4621 208.383 41.6703 208.843 42.0866C209.3 42.503 209.53 43.1355 209.53 43.9841C209.53 44.3524 209.474 44.6927 209.364 45.0049C209.252 45.3173 209.086 45.5873 208.865 45.8156C208.643 46.0437 208.363 46.2219 208.024 46.3499C207.686 46.478 207.289 46.5421 206.833 46.5421H200.302ZM188.307 46.5421V37.8114H189.829V45.0169H195.689V46.5421H188.307ZM185.539 46.5421L184.233 44.3444H180.111L180.83 43.1075H183.502L181.561 39.841L177.606 46.5421H175.869L180.878 38.1837C180.966 38.0316 181.07 37.9116 181.189 37.8234C181.309 37.7353 181.453 37.6914 181.621 37.6914C181.788 37.6914 181.93 37.7353 182.046 37.8234C182.162 37.9116 182.264 38.0316 182.352 38.1837L187.373 46.5421H185.539ZM167.409 40.1532V46.5421H165.959V38.6161C165.959 38.3357 166.029 38.1136 166.169 37.9495C166.308 37.7853 166.498 37.7032 166.738 37.7032C166.85 37.7032 166.957 37.7273 167.061 37.7754C167.165 37.8234 167.273 37.9033 167.385 38.0156L173.532 44.1283V37.7395H174.982V45.7374C174.982 46.0257 174.912 46.2499 174.772 46.41C174.633 46.5701 174.451 46.6501 174.227 46.6501C173.98 46.6501 173.748 46.5421 173.532 46.3259L167.409 40.1532ZM158.374 46.5421C157.767 46.5421 157.205 46.4281 156.69 46.1997C156.175 45.9716 155.727 45.6594 155.348 45.2632C154.968 44.8668 154.673 44.3965 154.461 43.8521C154.25 43.3076 154.144 42.7191 154.144 42.0866C154.144 41.4462 154.25 40.8618 154.461 40.3333C154.673 39.8048 154.968 39.3545 155.348 38.9823C155.727 38.61 156.175 38.3217 156.69 38.1177C157.205 37.9134 157.767 37.8114 158.374 37.8114H160.495C161.126 37.8114 161.703 37.9155 162.226 38.1235C162.75 38.3319 163.199 38.624 163.575 39.0002C163.95 39.3766 164.242 39.827 164.449 40.3513C164.657 40.8758 164.761 41.4542 164.761 42.0866C164.761 42.7191 164.655 43.3076 164.443 43.8521C164.232 44.3965 163.936 44.8668 163.557 45.2632C163.177 45.6594 162.728 45.9716 162.208 46.1997C161.689 46.4281 161.118 46.5421 160.495 46.5421H158.374ZM160.495 45.0169C160.894 45.0169 161.262 44.9448 161.597 44.8009C161.933 44.6568 162.222 44.4585 162.466 44.2063C162.71 43.9541 162.899 43.6519 163.035 43.2997C163.171 42.9472 163.239 42.567 163.239 42.1587C163.239 41.7504 163.171 41.3721 163.035 41.0238C162.899 40.6757 162.71 40.3773 162.466 40.1292C162.222 39.881 161.933 39.6868 161.597 39.5467C161.262 39.4067 160.894 39.3365 160.495 39.3365H158.374C157.982 39.3365 157.621 39.4067 157.289 39.5467C156.958 39.6868 156.672 39.881 156.432 40.1292C156.193 40.3773 156.005 40.6735 155.869 41.0178C155.733 41.362 155.666 41.7424 155.666 42.1587C155.666 42.567 155.733 42.9472 155.869 43.2997C156.005 43.6519 156.193 43.9541 156.432 44.2063C156.672 44.4585 156.958 44.6568 157.289 44.8009C157.621 44.9448 157.982 45.0169 158.374 45.0169H160.495ZM151.28 46.5421V37.8114H152.801V46.5421H151.28ZM145.36 46.5421V39.3365H142.053V37.8114H150.189V39.3365H146.882V46.5421H145.36ZM141.346 46.5421L140.04 44.3444H135.917L136.636 43.1075H139.309L137.367 39.841L133.413 46.5421H131.675L136.684 38.1837C136.772 38.0316 136.876 37.9116 136.996 37.8234C137.116 37.7353 137.26 37.6914 137.427 37.6914C137.595 37.6914 137.737 37.7353 137.853 37.8234C137.969 37.9116 138.07 38.0316 138.158 38.1837L143.179 46.5421H141.346ZM123.215 40.1532V46.5421H121.765V38.6161C121.765 38.3357 121.835 38.1136 121.975 37.9495C122.115 37.7853 122.305 37.7032 122.544 37.7032C122.656 37.7032 122.764 37.7273 122.868 37.7754C122.972 37.8234 123.08 37.9033 123.191 38.0156L129.339 44.1283V37.7395H130.789V45.7374C130.789 46.0257 130.719 46.2499 130.579 46.41C130.439 46.5701 130.257 46.6501 130.034 46.6501C129.786 46.6501 129.554 46.5421 129.339 46.3259L123.215 40.1532ZM118.854 46.5421L116.649 44.1162H113.389V42.7712H117.02C117.571 42.7712 117.987 42.6211 118.267 42.3208C118.546 42.0207 118.686 41.5863 118.686 41.0178C118.686 40.4494 118.54 40.0271 118.249 39.751C117.959 39.4746 117.55 39.3365 117.025 39.3365H112.287V46.5421H110.765V37.8114H117.02C117.516 37.8114 117.959 37.8854 118.35 38.0335C118.742 38.1816 119.074 38.3939 119.345 38.6699C119.617 38.9463 119.824 39.2805 119.968 39.6728C120.112 40.0651 120.184 40.5054 120.184 40.9938C120.184 41.7224 120.026 42.3329 119.711 42.8253C119.395 43.3176 118.954 43.6719 118.387 43.888L121.011 46.5421H118.854ZM101.67 46.5421V37.8114H109.459V39.3365H103.192V45.0169H109.471V46.5421H101.67ZM104.294 42.7471V41.4621H109.123V42.7471H104.294ZM95.8342 46.5421V39.3365H92.5267V37.8114H100.664V39.3365H97.3559V46.5421H95.8342ZM83.995 40.1532V46.5421H82.5451V38.6161C82.5451 38.3357 82.615 38.1136 82.7549 37.9495C82.8946 37.7853 83.0844 37.7032 83.3241 37.7032C83.4359 37.7032 83.5436 37.7273 83.6477 37.7754C83.7512 37.8234 83.8594 37.9033 83.9711 38.0156L90.1185 44.1283V37.7395H91.5684V45.7374C91.5684 46.0257 91.4983 46.2499 91.3586 46.41C91.2188 46.5701 91.0373 46.6501 90.8134 46.6501C90.5659 46.6501 90.3341 46.5421 90.1185 46.3259L83.995 40.1532Z" fill="#D1D1D1"/>
<path fill-rule="evenodd" clip-rule="evenodd" d="M88.3976 22.5939V17.5665H100.307C102.129 17.5665 103.549 17.0486 104.569 16.0133C105.589 14.9779 106.099 13.6154 106.099 11.926C106.099 10.2094 105.589 8.84689 104.569 7.83864C103.556 6.83049 102.136 6.32638 100.321 6.32638H84.6455V30.8503H79.4658V1.13543H100.307C102.02 1.13543 103.549 1.38734 104.895 1.89149C106.241 2.39564 107.376 3.10417 108.301 4.0169C109.225 4.92987 109.932 6.04024 110.422 7.3482C110.911 8.65603 111.156 10.1275 111.156 11.7625C111.156 13.3702 110.911 14.8348 110.422 16.1562C109.932 17.4779 109.225 18.6155 108.301 19.5692C107.376 20.523 106.241 21.2655 104.895 21.7968C103.549 22.3283 102.02 22.5939 100.307 22.5939H88.3976ZM254.066 30.8503L246.562 22.5939H235.468V18.0161H247.826C249.702 18.0161 251.116 17.5053 252.068 16.4834C253.019 15.4616 253.495 13.9832 253.495 12.0485C253.495 10.1139 252.999 8.67626 252.006 7.73647C251.021 6.79644 249.628 6.32638 247.84 6.32638H231.716V30.8503H226.536V1.13543H247.826C249.512 1.13543 251.021 1.38734 252.353 1.89149C253.686 2.39564 254.814 3.11775 255.739 4.05792C256.663 4.99795 257.37 6.13552 257.859 7.47069C258.349 8.80581 258.594 10.3046 258.594 11.9668C258.594 14.4464 258.056 16.5242 256.983 18.1999C255.909 19.8758 254.406 21.0816 252.476 21.8172L261.407 30.8503H254.066ZM217.115 30.8503L212.67 23.3706H198.639L201.087 19.1607H210.181L203.574 8.04293L190.115 30.8503H184.201L201.25 2.40247C201.549 1.88474 201.902 1.47603 202.31 1.17622C202.718 0.876641 203.207 0.726562 203.778 0.726562C204.35 0.726562 204.832 0.876641 205.226 1.17622C205.62 1.47603 205.967 1.88474 206.266 2.40247L223.355 30.8503H217.115ZM154.306 30.8503V1.13543H171.477C173.571 1.13543 175.501 1.48979 177.268 2.19804C179.035 2.90662 180.558 3.90115 181.836 5.18177C183.114 6.46258 184.113 7.99525 184.834 9.78002C185.555 11.5648 185.915 13.5337 185.915 15.6862C185.915 17.839 185.555 19.8418 184.834 21.6948C184.113 23.5476 183.114 25.1486 181.836 26.4973C180.558 27.8461 179.035 28.9087 177.268 29.6854C175.501 30.462 173.571 30.8503 171.477 30.8503H154.306ZM171.497 25.6593C172.823 25.6593 174.053 25.4141 175.181 24.9237C176.303 24.4333 177.282 23.7588 178.111 22.9004C178.94 22.0421 179.579 21.0136 180.041 19.8146C180.504 18.6155 180.735 17.3213 180.735 15.9316C180.735 14.5418 180.504 13.2544 180.041 12.0691C179.579 10.8836 178.94 9.86871 178.111 9.02397C177.282 8.17922 176.303 7.51846 175.181 7.04165C174.053 6.56471 172.823 6.32638 171.497 6.32638H159.486V25.6593H171.497ZM128.367 30.8503C126.3 30.8503 124.39 30.462 122.637 29.6854C120.883 28.9087 119.36 27.8461 118.069 26.4973C116.777 25.1486 115.771 23.5476 115.051 21.6948C114.33 19.8418 113.97 17.839 113.97 15.6862C113.97 13.5064 114.33 11.5173 115.051 9.71884C115.771 7.92044 116.777 6.38762 118.069 5.12053C119.36 3.85348 120.883 2.87258 122.637 2.17772C124.39 1.48277 126.3 1.13543 128.367 1.13543H135.586C137.734 1.13543 139.698 1.48979 141.479 2.19804C143.26 2.90662 144.79 3.90115 146.068 5.18177C147.345 6.46258 148.338 7.99525 149.045 9.78002C149.752 11.5648 150.105 13.5337 150.105 15.6862C150.105 17.839 149.745 19.8418 149.025 21.6948C148.304 23.5476 147.298 25.1486 146.007 26.4973C144.715 27.8461 143.185 28.9087 141.418 29.6854C139.651 30.462 137.707 30.8503 135.586 30.8503H128.367ZM135.586 25.6593C136.946 25.6593 138.196 25.4141 139.338 24.9237C140.48 24.4333 141.466 23.7588 142.295 22.9004C143.124 22.0421 143.77 21.0136 144.233 19.8146C144.695 18.6155 144.926 17.3213 144.926 15.9316C144.926 14.5418 144.695 13.2544 144.233 12.0691C143.77 10.8836 143.124 9.86871 142.295 9.02397C141.466 8.17922 140.48 7.51846 139.338 7.04165C138.196 6.56471 136.946 6.32638 135.586 6.32638H128.367C127.035 6.32638 125.804 6.56471 124.676 7.04165C123.547 7.51846 122.575 8.17922 121.76 9.02397C120.944 9.86871 120.305 10.8769 119.843 12.0485C119.381 13.2201 119.15 14.5145 119.15 15.9316C119.15 17.3213 119.381 18.6155 119.843 19.8146C120.305 21.0136 120.944 22.0421 121.76 22.9004C122.575 23.7588 123.547 24.4333 124.676 24.9237C125.804 25.4141 127.035 25.6593 128.367 25.6593H135.586Z" fill="#D1D1D1"/>
</svg>
