<svg width="261" height="48" viewBox="0 0 261 48" fill="none" xmlns="http://www.w3.org/2000/svg">
<g clip-path="url(#clip0_3722_6106)">
<path d="M70.446 13.7667C71.1455 13.7667 71.745 14.3333 71.745 15.0667V39.9C71.745 40.6 71.1122 41.1667 70.446 41.1667H67.0819C66.4491 41.1667 65.8162 40.6667 65.8162 39.9667V37.6667C64.1175 40.1667 61.1864 41.9 56.923 41.9C49.7952 41.9 45.3985 37.1667 45.3985 30.1333V15C45.3985 14.3 46.0314 13.7333 46.6976 13.7333H50.0616C50.7611 13.7333 51.3273 14.3 51.3273 15V29.1667C51.3273 33.7333 53.7255 36.7667 58.4552 36.7667C63.085 36.7667 65.8162 33.6333 65.8162 29.2333V15C65.8162 14.3 66.4491 13.7333 67.0819 13.7333H70.446M20.8174 0C9.29288 0 0 8.96667 0 20.9333C0 32.9333 9.29288 41.8667 20.8174 41.8667C22.7825 41.8667 24.6811 41.6 26.4797 41.1L28.7446 46.9333C28.9778 47.5667 29.4441 47.9667 30.2768 47.9667H33.874C34.74 47.9667 35.3729 47.4 34.9732 46.3L32.0421 38.6667C37.8044 35.0333 41.6348 28.6 41.6348 20.9C41.6348 8.96667 32.3419 0 20.8174 0ZM29.8771 33.1L27.2458 26.2667C27.0126 25.7 26.5463 25.1667 25.5471 25.1667H22.1164C21.2504 25.1667 20.5842 25.7333 20.9839 26.8333L24.4479 35.8C23.3155 36.1 22.0831 36.2333 20.8174 36.2333C12.3905 36.2333 6.3951 29.6 6.3951 20.9333C6.3951 12.2667 12.3905 5.63333 20.8174 5.63333C29.2443 5.63333 35.2397 12.2667 35.2397 20.9333C35.2397 26 33.2079 30.3333 29.8771 33.1ZM260.9 39.7667C261.2 40.4667 260.833 41.1333 260.001 41.1333H256.237C255.538 41.1333 254.971 40.8 254.738 40.1L247.777 21.3667L240.716 40.1C240.416 40.8333 239.916 41.1333 239.217 41.1333H235.853C235.153 41.1333 234.654 40.8333 234.354 40.1L227.226 21.2667L220.198 40.1C219.898 40.8 219.399 41.1333 218.699 41.1333H215.168C214.469 41.1333 213.969 40.8 213.67 40.1L206.708 21.2667L199.514 40.1C199.214 40.8333 198.714 41.1333 198.015 41.1333H194.651C193.951 41.1333 193.452 40.8333 193.152 40.1L186.124 21.2667L179.096 40.1C178.863 40.8 178.297 41.1333 177.597 41.1333H173.933C173.067 41.1333 172.734 40.4333 173.034 39.7667L182.56 14.8333C182.86 14.1 183.359 13.7333 184.059 13.7333H188.156C188.855 13.7333 189.355 14.0667 189.655 14.8333L196.516 33.0333L203.311 14.8333C203.611 14.1 204.11 13.7333 204.81 13.7333H208.84C209.539 13.7333 210.039 14.0667 210.339 14.8333L217.067 33.0333L223.795 14.8333C224.095 14.1 224.595 13.7333 225.294 13.7333H229.358C230.057 13.7333 230.557 14.0667 230.856 14.8333L237.685 33.0333L244.346 14.8333C244.646 14.1 245.145 13.7333 245.845 13.7333H249.942C250.641 13.7333 251.141 14.0667 251.441 14.8333L260.9 39.7667ZM103.054 13.7667H99.6903C98.9908 13.7667 98.3913 14.3333 98.3913 15.0667V17.3333C96.6926 14.7667 93.3618 12.9333 89.4315 12.9333C82.0038 12.9333 75.642 18.8 75.642 27.3667C75.642 36.0333 82.0371 41.8667 89.3982 41.8667C93.3951 41.8667 96.626 40.0333 98.4246 37.4667V39.8667C98.4246 40.5667 99.0574 41.1333 99.7236 41.1333H103.088C103.787 41.1333 104.353 40.5667 104.353 39.8667V15.0667C104.32 14.3333 103.754 13.7667 103.054 13.7667ZM90.0643 36.4C85.1681 36.4 81.6708 32.4 81.6708 27.4333C81.6708 22.4 85.1348 18.5333 90.0643 18.5333C94.9273 18.5333 98.4579 22.4 98.4579 27.4333C98.4246 32.4333 94.894 36.4 90.0643 36.4ZM143.19 37.2667C143.923 38.1667 143.29 38.8667 142.891 39.1667C140.559 40.9333 137.461 41.9 134.097 41.9C125.604 41.9 119.941 35.6667 119.941 27.4667C119.941 19.2667 125.604 12.9667 134.097 12.9667C137.461 12.9667 140.526 13.9333 142.891 15.7C143.29 16 143.856 16.6 143.19 17.6L141.592 19.8333C140.959 20.7 140.226 20.4667 139.593 20.0667C138.094 19.1667 136.329 18.4 134.297 18.4C129.334 18.4 126.037 22.4 126.037 27.4667C126.037 32.5333 129.334 36.5 134.297 36.5C136.362 36.5 137.994 35.7 139.493 34.8333C140.126 34.5 140.792 34.2 141.492 35.1333L143.19 37.2667ZM159.045 13C151.051 13 144.689 19.2667 144.689 27.4333C144.689 35.6667 151.084 41.8667 159.045 41.8667C167.039 41.8667 173.4 35.6333 173.4 27.4333C173.434 19.3 167.039 13 159.045 13ZM159.045 36.3667C154.149 36.3667 150.651 32.4333 150.651 27.4667C150.651 22.4333 154.115 18.5667 159.045 18.5667C163.941 18.5667 167.438 22.4333 167.438 27.4667C167.438 32.4333 163.974 36.3667 159.045 36.3667ZM114.845 0.733333C115.578 0.733333 116.111 1.36667 116.111 2.03333V39.8333C116.111 40.5333 115.611 41.1333 114.845 41.1333H111.481C110.782 41.1333 110.182 40.5 110.182 39.8333V2.06667C110.182 1.36667 110.815 0.766667 111.481 0.766667H114.845" fill="#D1D1D1"/>
</g>
<defs>
<clipPath id="clip0_3722_6106">
<rect width="261" height="48" fill="white"/>
</clipPath>
</defs>
</svg>
