<svg width="271" height="59" viewBox="0 0 271 59" fill="none" xmlns="http://www.w3.org/2000/svg">
<g clip-path="url(#clip0_3722_6615)">
<mask id="mask0_3722_6615" style="mask-type:luminance" maskUnits="userSpaceOnUse" x="0" y="0" width="271" height="59">
<path d="M271 0H0V59H271V0Z" fill="white"/>
</mask>
<g mask="url(#mask0_3722_6615)">
<path d="M30.8737 46.4811C30.8737 48.2968 30.5753 49.8547 29.9785 51.1609C29.3817 52.4671 28.613 53.593 27.6723 54.5365C26.1902 56.0231 24.3899 57.0855 22.2734 57.7178C20.1569 58.3521 17.9061 58.6692 15.5189 58.6692C13.4557 58.6692 11.4223 58.3699 9.41447 57.7713C7.40668 57.1727 5.60639 56.148 4.01558 54.697C2.85754 53.6445 1.8991 52.3462 1.14025 50.8061C0.379425 49.266 0 47.5693 0 45.72H7.16361C7.16361 46.6655 7.35135 47.5435 7.73275 48.3582C8.11217 49.1748 8.59041 49.8745 9.1714 50.4533C10.0014 51.2917 11.0053 51.8408 12.1811 52.1163C13.3569 52.3879 14.5051 52.5226 15.6275 52.5226C16.9654 52.5226 18.2321 52.37 19.4257 52.0608C20.6194 51.7536 21.5778 51.2184 22.3011 50.4533C22.7358 49.9855 23.0955 49.486 23.386 48.9568C23.6765 48.4315 23.8188 47.6981 23.8188 46.7547C23.8188 45.3414 23.3603 44.279 22.4374 43.5714C21.5146 42.8657 20.4573 42.4019 19.2617 42.1839C17.9594 41.9302 16.5307 41.7478 14.9754 41.6408C13.4202 41.5337 12.0092 41.3653 10.7444 41.1472C9.40459 40.9292 8.14775 40.5486 6.9739 40.0055C5.79808 39.4604 4.76652 38.7449 3.87922 37.8549C2.9939 36.9669 2.2884 35.8966 1.76472 34.6439C1.23906 33.3931 0.976228 31.97 0.976228 30.3724C0.976228 28.8481 1.28451 27.4527 1.8991 26.1822C2.51369 24.9116 3.32787 23.7699 4.34164 22.7531C5.60639 21.4825 7.23476 20.4855 9.22476 19.7601C11.2148 19.0346 13.349 18.6719 15.6275 18.6719C17.6887 18.6719 19.6688 18.989 21.5679 19.6233C23.467 20.2596 25.0697 21.1931 26.37 22.426C27.528 23.5142 28.4588 24.7491 29.1643 26.1267C29.8698 27.5062 30.2393 29.0107 30.2769 30.6439H23.1153C23.0777 29.9561 22.9058 29.2743 22.5995 28.6043C22.2912 27.9324 21.9019 27.3437 21.4335 26.8343C20.817 26.1822 19.9494 25.6747 18.8289 25.31C17.7065 24.9493 16.6216 24.7669 15.5722 24.7669C14.4873 24.7669 13.3747 24.9116 12.2364 25.201C11.0962 25.4924 10.1279 26.0553 9.33345 26.8898C8.93426 27.3239 8.61807 27.7956 8.38291 28.305C8.14775 28.8124 8.03115 29.4289 8.03115 30.1543C8.03115 31.4249 8.39279 32.3941 9.11607 33.0661C9.83935 33.738 10.78 34.1642 11.938 34.3446C13.1672 34.5289 14.5505 34.6914 16.088 34.8341C17.6255 34.9808 19.0266 35.1434 20.2933 35.3237C21.7398 35.5418 23.1054 35.9342 24.3899 36.4952C25.6744 37.0581 26.7949 37.8014 27.7553 38.7251C28.7118 39.6527 29.4726 40.7666 30.0338 42.0729C30.5911 43.3791 30.8737 44.8478 30.8737 46.4811Z" fill="#D1D1D1"/>
</g>
<mask id="mask1_3722_6615" style="mask-type:luminance" maskUnits="userSpaceOnUse" x="0" y="0" width="271" height="59">
<path d="M271 0H0V59H271V0Z" fill="white"/>
</mask>
<g mask="url(#mask1_3722_6615)">
<path d="M61.1639 58.0227L58.4526 54.9742C56.8954 56.3537 55.186 57.3686 53.3245 58.0227C51.461 58.6748 49.5342 59.0019 47.5442 59.0019C45.8447 59.0019 44.2163 58.7303 42.6611 58.1852C41.1058 57.6441 39.7502 56.8711 38.5921 55.8721C37.4361 54.8751 36.5132 53.6501 35.8255 52.1992C35.1378 50.7483 34.7939 49.113 34.7939 47.2994C34.7939 44.905 35.4184 42.8574 36.6674 41.1488C37.9143 39.4442 39.5703 37.9576 41.6315 36.6871C41.0149 36.033 40.4557 35.3908 39.9498 34.7525C39.4419 34.1202 39.0091 33.474 38.6475 32.8199C38.2839 32.1678 38.0052 31.478 37.8056 30.7526C37.608 30.0271 37.5072 29.2105 37.5072 28.3047C37.5072 26.7804 37.7878 25.4187 38.3491 24.2215C38.9083 23.0243 39.6593 21.9995 40.5999 21.1472C41.5406 20.2949 42.6532 19.6507 43.9377 19.2146C45.2202 18.7805 46.5857 18.5625 48.0343 18.5625C49.4453 18.5625 50.791 18.7706 52.0755 19.1889C53.3601 19.6051 54.4904 20.2215 55.4686 21.0382C56.4449 21.8548 57.2215 22.8538 57.8005 24.0312C58.3795 25.2106 58.67 26.5624 58.67 28.0866C58.67 29.3572 58.4882 30.489 58.1246 31.488C57.7649 32.485 57.2571 33.3928 56.6069 34.2094C55.9567 35.0241 55.186 35.7773 54.3007 36.4671C53.4134 37.1588 52.4471 37.809 51.3977 38.4254L58.0712 45.7196C58.3973 45.1032 58.6226 44.3857 58.7491 43.569C58.8755 42.7524 58.9743 41.8921 59.0475 40.9843C59.1206 40.1142 59.1581 39.2619 59.1581 38.4254V36.255H69.0864V41.6424H64.6381C64.563 43.1666 64.3653 44.6711 64.0413 46.1577C63.7152 47.6482 63.1362 49.0238 62.3042 50.2964L69.4105 58.0227H61.1639ZM45.5917 40.9328C44.9416 41.3332 44.3448 41.7157 43.8013 42.0765C43.2599 42.4392 42.7777 42.8594 42.3627 43.3292C41.9477 43.8009 41.6216 44.3341 41.3864 44.9347C41.1513 45.5353 41.0347 46.231 41.0347 47.0318C41.0347 48.011 41.2244 48.8811 41.6038 49.6442C41.9852 50.4054 42.4911 51.0397 43.1235 51.5491C43.7559 52.0565 44.4871 52.4351 45.321 52.6908C46.153 52.9445 47.0205 53.0694 47.9256 53.0694C49.0816 53.0694 50.2397 52.9068 51.3977 52.5798C52.5558 52.2527 53.5498 51.6204 54.3817 50.6749L45.5917 40.9328ZM52.3206 28.3621C52.3206 27.0202 51.9135 25.9856 51.0993 25.2601C50.2871 24.5346 49.2635 24.1719 48.0343 24.1719C46.9138 24.1719 45.9178 24.5069 45.0503 25.1788C44.1827 25.8508 43.748 26.8577 43.748 28.1996C43.748 28.816 43.8646 29.3968 44.0997 29.9399C44.3349 30.485 44.6234 31.0023 44.9692 31.4919C45.3111 31.9815 45.7004 32.4414 46.1352 32.8794C46.568 33.3135 46.9849 33.7317 47.3841 34.1301C47.9612 33.8051 48.5481 33.4681 49.1469 33.1232C49.7417 32.7803 50.2753 32.3898 50.7456 31.9518C51.2159 31.5157 51.5953 31.0083 51.8858 30.4275C52.1763 29.8507 52.3206 29.1609 52.3206 28.3621Z" fill="#D1D1D1"/>
</g>
<mask id="mask2_3722_6615" style="mask-type:luminance" maskUnits="userSpaceOnUse" x="0" y="0" width="271" height="59">
<path d="M271 0H0V59H271V0Z" fill="white"/>
</mask>
<g mask="url(#mask2_3722_6615)">
<path d="M103.178 31.7354C103.178 33.5867 102.889 35.2715 102.31 36.7978C101.731 38.322 100.872 39.6283 99.7314 40.7164C98.5931 41.8046 97.1742 42.651 95.4727 43.2476C93.7732 43.8462 91.8188 44.1455 89.6134 44.1455H81.4755V57.9689H74.5293V19.3828H89.6134C91.8188 19.3828 93.7732 19.6821 95.4727 20.2807C97.1742 20.8793 98.5931 21.7138 99.7314 22.7841C100.872 23.8545 101.731 25.1508 102.31 26.6751C102.889 28.1993 103.178 29.8861 103.178 31.7354ZM96.1269 31.7909C96.1269 29.9396 95.5834 28.4352 94.4985 27.2737C93.4136 26.1141 91.6943 25.5334 89.3446 25.5334H81.4775V37.995H89.3446C91.6943 37.995 93.4136 37.4241 94.4985 36.2804C95.5814 35.1387 96.1269 33.6422 96.1269 31.7909Z" fill="#D1D1D1"/>
</g>
<mask id="mask3_3722_6615" style="mask-type:luminance" maskUnits="userSpaceOnUse" x="0" y="0" width="271" height="59">
<path d="M271 0H0V59H271V0Z" fill="white"/>
</mask>
<g mask="url(#mask3_3722_6615)">
<path d="M144.414 57.9675L143.6 53.7198C143.312 54.2649 142.877 54.8358 142.3 55.4344C141.719 56.033 141.007 56.5701 140.156 57.0419C139.304 57.5136 138.355 57.9041 137.308 58.2133C136.261 58.5186 135.136 58.6732 133.945 58.6732C131.702 58.6732 129.611 58.366 127.678 57.7475C125.742 57.1311 124.014 56.0072 122.497 54.3739C121.483 53.3234 120.659 52.2154 120.028 51.0539C119.394 49.8924 118.888 48.6595 118.509 47.3533C118.127 46.047 117.867 44.6774 117.72 43.2463C117.576 41.8112 117.505 40.2989 117.505 38.6993C117.505 37.1433 117.566 35.6468 117.695 34.2098C117.821 32.7767 118.066 31.4269 118.426 30.1563C118.787 28.8858 119.295 27.6707 119.945 26.5092C120.598 25.3497 121.445 24.2417 122.497 23.1891C123.979 21.7025 125.742 20.5767 127.785 19.8156C129.828 19.0524 131.883 18.6719 133.945 18.6719C136.332 18.6719 138.502 19.0723 140.456 19.8691C142.409 20.6679 144.037 21.7382 145.339 23.0801C146.282 24.0613 147.074 25.1752 147.726 26.4279C148.377 27.6787 148.758 29.1593 148.865 30.8639H141.703C141.63 30.1008 141.432 29.4487 141.106 28.9036C140.78 28.3605 140.421 27.8352 140.021 27.3258C138.682 25.7659 136.638 24.9849 133.887 24.9849C132.767 24.9849 131.627 25.2129 130.471 25.6668C129.313 26.1207 128.354 26.7629 127.595 27.5974C126.943 28.2872 126.419 29.086 126.02 29.9918C125.623 30.8996 125.315 31.853 125.099 32.85C124.882 33.849 124.746 34.854 124.692 35.8688C124.637 36.8856 124.611 37.8272 124.611 38.6973C124.611 39.5694 124.645 40.5228 124.718 41.5555C124.791 42.5902 124.935 43.615 125.153 44.6298C125.37 45.6486 125.676 46.6159 126.076 47.5435C126.473 48.4692 126.996 49.2759 127.649 49.9657C128.407 50.8002 129.358 51.4146 130.498 51.815C131.636 52.2154 132.767 52.4156 133.887 52.4156C135.156 52.4156 136.267 52.2154 137.225 51.815C138.182 51.4166 138.988 50.8735 139.64 50.1857C140.689 49.0955 141.367 47.9439 141.675 46.7289C141.982 45.5138 142.134 44.162 142.134 42.6754H132.964V36.8519H148.916V57.9675H144.414Z" fill="#D1D1D1"/>
</g>
<mask id="mask4_3722_6615" style="mask-type:luminance" maskUnits="userSpaceOnUse" x="0" y="0" width="271" height="59">
<path d="M271 0H0V59H271V0Z" fill="white"/>
</mask>
<g mask="url(#mask4_3722_6615)">
<path d="M165.896 57.9109C165.206 58.0536 164.708 58.1567 164.404 58.2082C164.097 58.2637 163.599 58.2895 162.912 58.2895C160.596 58.2895 158.734 57.6909 157.323 56.4937C155.912 55.2965 155.207 53.3559 155.207 50.6702V18.6172H162.044V49.5304C162.044 50.3649 162.206 51.0269 162.532 51.5165C162.858 52.0061 163.599 52.2519 164.757 52.2519C165.046 52.2519 165.263 52.242 165.408 52.2242C165.552 52.2063 165.714 52.1944 165.896 52.1944V57.9109Z" fill="#D1D1D1"/>
</g>
<mask id="mask5_3722_6615" style="mask-type:luminance" maskUnits="userSpaceOnUse" x="0" y="0" width="271" height="59">
<path d="M271 0H0V59H271V0Z" fill="white"/>
</mask>
<g mask="url(#mask5_3722_6615)">
<path d="M194.686 43.8151C194.686 46.2095 194.396 48.2154 193.819 49.8288C193.24 51.4423 192.426 52.9229 191.376 54.2629C190.402 55.4601 189.052 56.4927 187.335 57.3649C185.616 58.233 183.671 58.6711 181.501 58.6711C179.332 58.6711 177.387 58.233 175.672 57.3649C173.952 56.4927 172.603 55.4601 171.628 54.2629C170.579 52.921 169.765 51.4423 169.186 49.8288C168.609 48.2154 168.318 46.2095 168.318 43.8151C168.318 41.4206 168.609 39.4147 169.186 37.8013C169.765 36.1878 170.579 34.7072 171.628 33.3653C172.603 32.1681 173.952 31.1354 175.672 30.2633C177.387 29.3931 179.332 28.957 181.501 28.957C183.671 28.957 185.616 29.3931 187.335 30.2633C189.052 31.1354 190.402 32.1681 191.376 33.3653C192.426 34.7092 193.24 36.1878 193.819 37.8013C194.394 39.4147 194.686 41.4206 194.686 43.8151ZM187.793 43.8151C187.793 42.4732 187.667 41.1749 187.414 39.9241C187.159 38.6695 186.62 37.5912 185.788 36.6834C185.317 36.1759 184.721 35.7498 183.997 35.4049C183.274 35.06 182.442 34.8876 181.499 34.8876C180.559 34.8876 179.729 35.06 179.004 35.4049C178.278 35.7498 177.681 36.1759 177.213 36.6834C176.381 37.5912 175.84 38.6695 175.587 39.9241C175.334 41.1749 175.207 42.4732 175.207 43.8151C175.207 45.157 175.334 46.4553 175.587 47.706C175.84 48.9587 176.381 50.0389 177.213 50.9448C177.681 51.4522 178.28 51.8784 179.004 52.2252C179.727 52.5701 180.559 52.7426 181.499 52.7426C182.442 52.7426 183.272 52.5701 183.997 52.2252C184.721 51.8784 185.317 51.4522 185.788 50.9448C186.62 50.0389 187.159 48.9587 187.414 47.706C187.667 46.4553 187.793 45.157 187.793 43.8151Z" fill="#D1D1D1"/>
</g>
<mask id="mask6_3722_6615" style="mask-type:luminance" maskUnits="userSpaceOnUse" x="0" y="0" width="271" height="59">
<path d="M271 0H0V59H271V0Z" fill="white"/>
</mask>
<g mask="url(#mask6_3722_6615)">
<path d="M225.983 43.8707C225.983 46.5545 225.566 48.9409 224.732 51.0261C223.9 53.1133 222.635 54.8457 220.934 56.2253C220.068 56.9487 219.064 57.5295 217.926 57.9656C216.786 58.4016 215.509 58.6177 214.098 58.6177C212.543 58.6177 211.041 58.3204 209.597 57.7218C208.15 57.1212 207.008 56.1698 206.178 54.8635L205.743 57.9656H199.886V18.6719H206.666V31.7341C207.318 30.9373 208.286 30.2752 209.569 29.748C210.853 29.2227 212.345 28.9591 214.047 28.9591C215.492 28.9591 216.788 29.1593 217.928 29.5577C219.066 29.9561 220.07 30.519 220.936 31.2445C224.299 34.0393 225.983 38.2474 225.983 43.8707ZM219.09 43.7636C219.09 42.5307 218.97 41.3137 218.736 40.1145C218.501 38.9173 218.023 37.849 217.298 36.9074C216.79 36.287 216.165 35.7638 215.426 35.3257C214.683 34.8916 213.79 34.6756 212.741 34.6756C211.403 34.6756 210.316 34.957 209.486 35.518C208.654 36.0809 208.002 36.8044 207.535 37.6963C207.065 38.5843 206.747 39.5655 206.585 40.6338C206.423 41.7042 206.342 42.7468 206.342 43.7636C206.342 45.1412 206.504 46.5465 206.83 47.9816C207.154 49.4147 207.806 50.5841 208.782 51.4919C209.251 51.928 209.812 52.2749 210.466 52.5266C211.116 52.7803 211.875 52.9052 212.743 52.9052C213.792 52.9052 214.685 52.6891 215.428 52.2511C216.167 51.817 216.792 51.2917 217.3 50.6733C218.023 49.7298 218.501 48.6515 218.738 47.4345C218.972 46.2195 219.09 44.9985 219.09 43.7636Z" fill="#D1D1D1"/>
</g>
<mask id="mask7_3722_6615" style="mask-type:luminance" maskUnits="userSpaceOnUse" x="0" y="0" width="271" height="59">
<path d="M271 0H0V59H271V0Z" fill="white"/>
</mask>
<g mask="url(#mask7_3722_6615)">
<path d="M256.094 57.6384C255.515 57.8941 255.017 58.0844 254.602 58.2093C254.187 58.3361 253.564 58.4015 252.732 58.4015C251.248 58.4015 250.11 58.0011 249.313 57.2043C248.517 56.4095 248.066 55.4819 247.958 54.4313C247.306 55.5929 246.221 56.5899 244.701 57.4243C243.181 58.2588 241.411 58.6751 239.387 58.6751C237.686 58.6751 236.201 58.4313 234.935 57.9417C233.668 57.4521 232.611 56.798 231.761 55.9814C230.913 55.1647 230.269 54.2232 229.836 53.1529C229.401 52.0825 229.186 50.9666 229.186 49.807C229.186 48.4631 229.429 47.2679 229.917 46.2134C230.403 45.1609 231.085 44.2531 231.951 43.492C232.818 42.7308 233.832 42.1402 234.99 41.7239C236.146 41.3057 237.393 41.0401 238.735 40.933L247.035 40.3344V38.5902C247.035 37.2483 246.719 36.166 246.086 35.3514C245.454 34.5347 244.179 34.1264 242.258 34.1264C240.668 34.1264 239.43 34.4733 238.543 35.1591C237.658 35.8509 237.18 36.8479 237.105 38.1541H230.54C230.648 36.5565 231.018 35.1769 231.652 34.0174C232.283 32.8559 233.127 31.9045 234.172 31.1612C235.221 30.4179 236.435 29.8648 237.808 29.5021C239.183 29.1394 240.666 28.957 242.256 28.957C244.683 28.957 246.843 29.3832 248.742 30.2355C250.639 31.0898 252.007 32.5863 252.837 34.725C253.198 35.6328 253.426 36.5763 253.517 37.5555C253.606 38.5347 253.653 39.498 253.653 40.4395V50.9448C253.653 51.5969 253.77 52.0607 254.005 52.3323C254.24 52.6038 254.647 52.7406 255.226 52.7406C255.515 52.7406 255.714 52.7227 255.823 52.6851C255.933 52.6851 256.022 52.6672 256.094 52.6335V57.6384ZM247.033 45.3928L239.871 45.9359C238.824 46.0093 237.881 46.3542 237.049 46.9686C236.215 47.589 235.8 48.477 235.8 49.6385C235.8 50.7267 236.207 51.587 237.022 52.2232C237.836 52.8595 238.766 53.1727 239.816 53.1727C241.95 53.1727 243.687 52.6216 245.025 51.5136C246.363 50.4076 247.033 48.8021 247.033 46.6971V45.3928Z" fill="#D1D1D1"/>
</g>
<mask id="mask8_3722_6615" style="mask-type:luminance" maskUnits="userSpaceOnUse" x="0" y="0" width="271" height="59">
<path d="M271 0H0V59H271V0Z" fill="white"/>
</mask>
<g mask="url(#mask8_3722_6615)">
<path d="M271 57.9109C270.312 58.0536 269.814 58.1567 269.508 58.2082C269.2 58.2637 268.702 58.2895 268.016 58.2895C265.7 58.2895 263.838 57.6909 262.428 56.4937C261.017 55.2965 260.311 53.3559 260.311 50.6702V18.6172H267.147V49.5304C267.147 50.3649 267.311 51.0269 267.637 51.5165C267.963 52.0061 268.702 52.2519 269.86 52.2519C270.15 52.2519 270.366 52.242 270.512 52.2242C270.656 52.2063 270.818 52.1944 271 52.1944V57.9109Z" fill="#D1D1D1"/>
</g>
<mask id="mask9_3722_6615" style="mask-type:luminance" maskUnits="userSpaceOnUse" x="0" y="0" width="271" height="59">
<path d="M271 0H0V59H271V0Z" fill="white"/>
</mask>
<g mask="url(#mask9_3722_6615)">
<path d="M271 0H0V6.26352H271V0Z" fill="#ADADAD"/>
</g>
</g>
<defs>
<clipPath id="clip0_3722_6615">
<rect width="271" height="59" fill="white"/>
</clipPath>
</defs>
</svg>
