<svg width="236" height="90" viewBox="0 0 236 90" fill="none" xmlns="http://www.w3.org/2000/svg">
<g clip-path="url(#clip0_3722_6150)">
<path d="M133.275 72.5373C133.275 79.1389 130.029 82.8994 124.201 82.8994C120.539 82.8994 118.874 81.5623 117.375 79.9746L115.211 82.1473C117.542 84.4871 120.539 85.657 124.201 85.657C131.61 85.657 136.438 80.6431 136.438 73.1222V44.125H133.275V72.5373Z" fill="#D1D1D1"/>
<path d="M150.424 44.125H147.344V85.4063H150.424V44.125Z" fill="#D1D1D1"/>
<path d="M179.476 75.8799L165.158 44.125H162.078V85.3228H165.158V51.3116L177.895 79.5568H180.975L193.462 51.3116V85.3228H196.542V44.125H193.462L179.476 75.8799Z" fill="#D1D1D1"/>
<path d="M226.01 66.2698C231.754 65.2671 235.5 61.2559 235.5 55.1556C235.5 47.969 230.422 44.125 223.762 44.125H208.112V85.4063H211.192V66.3534H222.514L232.337 85.3228H235.999L226.01 66.2698ZM211.192 63.5958V46.8827H223.346C228.591 46.8827 232.42 49.5568 232.42 55.2392C232.42 60.9217 228.591 63.5958 223.346 63.5958H211.192Z" fill="#D1D1D1"/>
<path d="M81.3303 64.3492C79.4989 62.6779 77.1681 61.7587 73.5053 61.1737L69.01 60.5052C67.3451 60.2545 65.93 59.6696 65.0143 58.9175C64.1818 58.1654 63.8488 57.1626 63.8488 55.9091C63.8488 52.6501 66.263 50.6445 70.1755 50.6445C73.6718 50.6445 76.1691 51.4802 78.167 53.4857L78.833 54.0707L83.9109 49.0568L83.245 48.3882C79.6654 45.0456 75.8361 43.625 70.4252 43.625C61.851 43.625 56.3568 48.5554 56.3568 56.1598C56.3568 59.6696 57.439 62.4272 59.5201 64.3492C61.4347 66.1041 64.1818 67.274 67.5116 67.7754L72.1734 68.4439C74.5042 68.7782 75.2534 69.196 76.0026 69.8646C77.0016 70.7838 77.2513 72.2879 77.2513 73.2907C77.2513 77.8033 72.6728 78.4718 70.009 78.4718C65.7635 78.4718 63.0164 77.469 60.519 74.962L59.7698 74.3771L54.5254 79.5581L55.1914 80.2267C59.0206 84.0707 63.3494 85.742 69.7593 85.742C78.7497 85.742 84.8266 80.7281 84.8266 73.2072C84.8266 69.4467 83.6612 66.4384 81.3303 64.3492Z" fill="#D1D1D1"/>
<path d="M120.956 56.7432C120.956 49.0552 115.378 43.707 107.303 43.707H91.3203V85.4898H99.1454V69.7795H107.303C115.295 69.7795 120.956 64.4313 120.956 56.7432ZM106.97 62.5093H99.1454V50.9772H106.97C110.8 50.9772 113.131 53.1499 113.131 56.7432C113.131 60.3366 110.8 62.5093 106.97 62.5093Z" fill="#D1D1D1"/>
<path d="M66.2637 29.8351C66.9297 29.5844 67.5956 28.8323 67.5956 27.7459C67.5956 26.0746 66.4302 24.9883 64.5988 24.9883H60.7695V34.9326H64.7653C66.5134 34.9326 67.7621 33.9298 67.7621 32.0913C67.7621 30.8379 67.0129 30.1693 66.2637 29.8351ZM62.2679 26.3253H64.5156C65.5145 26.3253 66.0972 26.8267 66.0972 27.7459C66.0972 28.6652 65.4313 29.1666 64.5156 29.1666H62.2679V26.3253ZM64.6821 33.5955H62.3512V30.5872H64.6821C65.681 30.5872 66.2637 31.2557 66.2637 32.0913C66.2637 32.927 65.681 33.5955 64.6821 33.5955Z" fill="#D1D1D1"/>
<path d="M73.5893 27.7459C72.9234 27.7459 72.2574 27.9966 71.7579 28.5816V24.9883H70.3428V34.9326H71.7579V30.5872C71.7579 29.5008 72.4239 29.083 73.1731 29.083C73.9223 29.083 74.5883 29.5844 74.5883 30.5872V34.9326H76.0034V30.3365C76.0867 28.8323 75.171 27.7459 73.5893 27.7459Z" fill="#D1D1D1"/>
<path d="M81.0813 27.7422C79.9159 27.7422 79.2499 27.9929 78.584 28.745L79.4997 29.5806C79.9159 29.0792 80.2489 28.9121 80.9981 28.9121C82.0803 28.9121 82.4965 29.3299 82.4965 30.2492V30.7505H80.6651C79.0834 30.7505 78.251 31.5862 78.251 32.7561C78.251 33.3411 78.4175 33.926 78.8337 34.2603C79.2499 34.6781 79.8326 34.9288 80.7483 34.9288C81.664 34.9288 82.0803 34.7617 82.5797 34.1767V34.8453H83.9949V30.082C83.9949 28.5778 82.996 27.7422 81.0813 27.7422ZM82.5797 32.3383C82.5797 32.8397 82.4965 33.1739 82.2467 33.4246C81.9138 33.7589 81.4975 33.8425 80.9148 33.8425C79.9991 33.8425 79.5829 33.5082 79.5829 32.8397C79.5829 32.1712 79.9991 31.8369 80.8316 31.8369H82.4965V32.3383H82.5797Z" fill="#D1D1D1"/>
<path d="M88.1574 28.6645V27.9124H86.7422V35.0155H88.1574V30.7537C88.1574 29.7509 88.8233 29.1659 89.5725 29.1659C90.072 29.1659 90.3217 29.333 90.6547 29.6673L91.7369 28.581C91.2374 28.0796 90.738 27.9124 90.072 27.9124C89.2395 27.7453 88.4903 28.1631 88.1574 28.6645Z" fill="#D1D1D1"/>
<path d="M95.5662 27.7422C94.4008 27.7422 93.7348 27.9929 93.0688 28.745L93.9845 29.5806C94.4008 29.0792 94.7337 28.9121 95.5662 28.9121C96.6484 28.9121 97.1478 29.3299 97.1478 30.2492V30.7505H95.3165C93.7348 30.7505 92.9023 31.5862 92.9023 32.7561C92.9023 33.3411 93.0688 33.926 93.4851 34.2603C93.9013 34.6781 94.484 34.9288 95.3997 34.9288C96.3154 34.9288 96.7316 34.7617 97.2311 34.1767V34.8453H98.6463V30.082C98.3965 28.5778 97.4808 27.7422 95.5662 27.7422ZM96.9814 32.3383C96.9814 32.8397 96.8981 33.1739 96.6484 33.4246C96.3154 33.7589 95.8992 33.8425 95.3165 33.8425C94.4008 33.8425 93.9845 33.5082 93.9845 32.8397C93.9845 32.1712 94.4008 31.8369 95.2332 31.8369H96.8981L96.9814 32.3383Z" fill="#D1D1D1"/>
<path d="M102.725 25.8242H101.31V27.9969H100.478V29.0833H101.31V33.0108C101.31 34.0136 101.893 35.0164 103.225 35.0164H104.057V33.8465H103.474C102.975 33.8465 102.725 33.5122 102.725 33.0108V29.1668H104.057V28.0805H102.725V25.8242Z" fill="#D1D1D1"/>
<path d="M107.22 24.6523C106.721 24.6523 106.305 25.0702 106.305 25.5716C106.305 26.073 106.721 26.4908 107.22 26.4908C107.72 26.4908 108.136 26.073 108.136 25.5716C108.136 25.0702 107.72 24.6523 107.22 24.6523Z" fill="#D1D1D1"/>
<path d="M107.886 27.832H106.471V34.9351H107.886V27.832Z" fill="#D1D1D1"/>
<path d="M112.881 32.8397L111.216 27.8258H109.718L112.215 34.5946L111.799 35.6809C111.632 36.2659 111.383 36.433 110.8 36.433H110.467V37.6865H111.05C111.549 37.6865 112.132 37.5193 112.465 37.1851C112.631 37.018 112.798 36.6837 112.964 36.2659L116.044 27.7422H114.546L112.881 32.8397Z" fill="#D1D1D1"/>
<path d="M119.874 27.7422C118.708 27.7422 118.042 27.9929 117.376 28.745L118.292 29.5806C118.708 29.0792 119.041 28.9121 119.874 28.9121C120.956 28.9121 121.455 29.3299 121.455 30.2492V30.7505H119.624C118.042 30.7505 117.21 31.5862 117.21 32.7561C117.21 33.3411 117.376 33.926 117.793 34.2603C118.209 34.6781 118.792 34.9288 119.707 34.9288C120.623 34.9288 121.039 34.7617 121.539 34.1767V34.8453H122.954V30.082C122.787 28.5778 121.872 27.7422 119.874 27.7422ZM121.372 32.3383C121.372 32.8397 121.289 33.1739 121.039 33.4246C120.706 33.7589 120.29 33.8425 119.707 33.8425C118.792 33.8425 118.375 33.5082 118.375 32.8397C118.375 32.1712 118.792 31.8369 119.624 31.8369H121.289L121.372 32.3383Z" fill="#D1D1D1"/>
<path d="M132.194 32.2585L129.946 24.9883H128.364L131.611 34.9326H132.776L136.106 24.9883H134.524L132.194 32.2585Z" fill="#D1D1D1"/>
<path d="M138.52 24.6523C138.021 24.6523 137.604 25.0702 137.604 25.5716C137.604 26.073 138.021 26.4908 138.52 26.4908C139.02 26.4908 139.436 26.073 139.436 25.5716C139.436 25.0702 139.02 24.6523 138.52 24.6523Z" fill="#D1D1D1"/>
<path d="M139.27 27.832H137.854V34.9351H139.27V27.832Z" fill="#D1D1D1"/>
<path d="M146.096 28.5816C145.597 27.9966 145.014 27.7459 144.265 27.7459C143.516 27.7459 142.933 27.9966 142.517 28.4145C141.768 29.083 141.768 30.3365 141.768 31.4228C141.768 32.5092 141.851 33.6791 142.517 34.4312C142.933 34.849 143.516 35.0997 144.265 35.0997C145.014 35.0997 145.597 34.9326 146.096 34.264V35.0161H147.511V24.9883H146.096V28.5816ZM144.598 33.7627C143.349 33.7627 143.099 32.6763 143.099 31.4228C143.099 30.1693 143.266 29.083 144.598 29.083C145.847 29.083 146.096 30.1693 146.096 31.4228C146.096 32.6763 145.93 33.7627 144.598 33.7627Z" fill="#D1D1D1"/>
<path d="M152.506 32.8397L150.841 27.8258H149.343L151.84 34.5946L151.424 35.6809C151.257 36.2659 151.008 36.433 150.425 36.433H150.092V37.6865H150.675C151.174 37.6865 151.757 37.5193 152.09 37.1851C152.256 37.018 152.423 36.6837 152.589 36.2659L155.669 27.7422H154.171L152.506 32.8397Z" fill="#D1D1D1"/>
<path d="M159.499 27.7422C158.333 27.7422 157.667 27.9929 157.001 28.745L157.917 29.5806C158.333 29.0792 158.666 28.9121 159.499 28.9121C160.581 28.9121 161.08 29.3299 161.08 30.2492V30.7505H159.249C157.667 30.7505 156.835 31.5862 156.835 32.7561C156.835 33.3411 157.001 33.926 157.418 34.2603C157.834 34.6781 158.417 34.9288 159.332 34.9288C160.248 34.9288 160.664 34.7617 161.247 34.1767V34.8453H162.662V30.082C162.412 28.5778 161.413 27.7422 159.499 27.7422ZM160.997 32.3383C160.997 32.8397 160.914 33.1739 160.664 33.4246C160.331 33.7589 159.915 33.8425 159.332 33.8425C158.417 33.8425 158 33.5082 158 32.8397C158 32.1712 158.417 31.8369 159.249 31.8369H160.914L160.997 32.3383Z" fill="#D1D1D1"/>
<path d="M174.732 29.8351C175.398 29.5844 176.064 28.8323 176.064 27.7459C176.064 26.0746 174.899 24.9883 173.068 24.9883H169.238V34.9326H173.234C174.982 34.9326 176.231 33.9298 176.231 32.0913C176.231 30.8379 175.482 30.1693 174.732 29.8351ZM170.737 26.3253H172.984C173.9 26.3253 174.566 26.8267 174.566 27.7459C174.566 28.6652 173.9 29.1666 172.984 29.1666H170.737V26.3253ZM173.068 33.5955H170.737V30.5872H173.068C174.066 30.5872 174.649 31.2557 174.649 32.0913C174.649 32.927 174.066 33.5955 173.068 33.5955Z" fill="#D1D1D1"/>
<path d="M182.058 27.7459C181.392 27.7459 180.726 27.9966 180.227 28.5816V24.9883H178.812V34.9326H180.227V30.5872C180.227 29.5008 180.893 29.083 181.642 29.083C182.391 29.083 183.057 29.5844 183.057 30.5872V34.9326H184.472V30.3365C184.472 28.8323 183.64 27.7459 182.058 27.7459Z" fill="#D1D1D1"/>
<path d="M189.467 27.7422C188.301 27.7422 187.635 27.9929 186.969 28.745L187.885 29.5806C188.301 29.0792 188.634 28.9121 189.467 28.9121C190.549 28.9121 191.048 29.3299 191.048 30.2492V30.7505H189.217C187.635 30.7505 186.803 31.5862 186.803 32.7561C186.803 33.3411 186.969 33.926 187.385 34.2603C187.802 34.6781 188.384 34.9288 189.3 34.9288C190.216 34.9288 190.632 34.7617 191.131 34.1767V34.8453H192.547V30.082C192.38 28.5778 191.464 27.7422 189.467 27.7422ZM190.965 32.3383C190.965 32.8397 190.882 33.1739 190.632 33.4246C190.299 33.7589 189.883 33.8425 189.3 33.8425C188.384 33.8425 187.968 33.5082 187.968 32.8397C187.968 32.1712 188.384 31.8369 189.217 31.8369H190.882L190.965 32.3383Z" fill="#D1D1D1"/>
<path d="M197.292 32.846L195.627 27.832H194.129L196.71 34.9351H197.875L200.456 27.832H198.957L197.292 32.846Z" fill="#D1D1D1"/>
<path d="M204.368 27.7422C203.203 27.7422 202.537 27.9929 201.871 28.745L202.786 29.5806C203.203 29.0792 203.535 28.9121 204.368 28.9121C205.45 28.9121 205.95 29.3299 205.95 30.2492V30.7505H204.118C202.537 30.7505 201.704 31.5862 201.704 32.7561C201.704 33.3411 201.871 33.926 202.287 34.2603C202.703 34.6781 203.286 34.9288 204.201 34.9288C205.117 34.9288 205.533 34.7617 206.033 34.1767V34.8453H207.448V30.082C207.282 28.5778 206.283 27.7422 204.368 27.7422ZM205.866 32.3383C205.866 32.8397 205.783 33.1739 205.533 33.4246C205.117 33.7589 204.784 33.8425 204.201 33.8425C203.286 33.8425 202.953 33.5082 202.953 32.8397C202.953 32.1712 203.369 31.8369 204.201 31.8369H205.866V32.3383Z" fill="#D1D1D1"/>
<path d="M215.023 28.4107C214.607 27.9929 214.024 27.7422 213.275 27.7422C212.526 27.7422 211.86 27.9929 211.443 28.5778V27.9093H210.028V35.0124H211.443V30.667C211.443 29.5806 212.109 29.0792 212.942 29.0792C213.774 29.0792 214.357 29.5806 214.357 30.667V35.0124H215.772V30.4998C215.772 29.5806 215.606 28.9121 215.023 28.4107Z" fill="#D1D1D1"/>
<path d="M224.263 35.0187C223.098 35.0187 222.099 34.8515 221.267 34.0159L222.182 33.0967C222.765 33.6816 223.514 33.8487 224.18 33.8487C225.013 33.8487 225.762 33.5145 225.762 32.846C225.762 32.3446 225.512 32.0939 224.846 32.0103L223.681 31.9267C222.349 31.8432 221.6 31.2582 221.6 30.0047C221.6 28.5841 222.765 27.832 224.263 27.832C225.346 27.832 226.261 28.0827 226.844 28.6677L225.928 29.5869C225.512 29.1691 224.846 29.0855 224.18 29.0855C223.348 29.0855 222.932 29.5033 222.932 30.0047C222.932 30.4226 223.181 30.7568 223.93 30.8404L225.013 30.924C226.345 31.0075 227.094 31.676 227.094 32.9295C227.26 34.183 226.012 35.0187 224.263 35.0187Z" fill="#D1D1D1"/>
<path d="M220.184 25.7387C220.184 26.1565 220.101 26.5743 219.851 26.9086C219.601 27.3264 219.268 27.4936 218.852 27.4936H218.769V26.9086H218.852C219.102 26.9086 219.268 26.7415 219.435 26.4908C219.351 26.4908 219.351 26.4908 219.268 26.4908C219.019 26.4908 218.769 26.4072 218.602 26.2401C218.436 26.073 218.353 25.8223 218.353 25.5716C218.353 25.3209 218.436 25.0702 218.602 24.903C218.769 24.7359 219.019 24.6523 219.268 24.6523C219.684 24.6523 220.017 24.903 220.101 25.3209C220.184 25.4044 220.184 25.5716 220.184 25.7387Z" fill="#D1D1D1"/>
<path d="M46.7842 37.6017C46.7842 37.4346 46.7842 37.1839 46.701 36.8496C46.6178 36.0139 46.4513 33.3398 46.4513 33.3398C34.0477 44.6212 22.8096 61 16.2333 78.6323C15.3176 81.2229 17.149 84.1476 17.2322 84.2312L17.3987 84.4819L17.4819 84.1476C24.3913 67.8524 35.1299 52.6435 46.6178 41.8635C46.9507 41.5293 46.9507 40.3593 46.7842 38.2702C46.8675 38.0195 46.7842 37.7688 46.7842 37.6017Z" fill="#ADADAD"/>
<path d="M37.9599 63.09C37.9599 62.9228 37.9599 62.5886 37.8767 62.1707C37.7934 61.2515 37.5437 58.8281 37.5437 58.8281C31.6333 65.6805 25.6396 74.037 21.5606 84.817C20.4784 87.6582 22.4763 89.998 22.4763 89.998C26.8883 79.9702 32.7987 72.5329 37.7934 67.3518C38.2097 66.934 38.0432 65.5134 37.9599 63.9256C37.9599 63.5914 37.9599 63.2571 37.9599 63.09Z" fill="#ADADAD"/>
<path d="M15.4008 32.0041C15.6506 31.5028 15.7338 30.1657 15.5673 28.578C15.5673 28.2437 15.4841 27.9094 15.4841 27.7423C15.4841 27.5752 15.4841 27.2409 15.4008 26.8231C15.3176 25.9874 15.0679 23.4805 15.0679 23.4805C6.99308 36.6838 2.16486 50.6392 0.0837274 60.5835C-0.415743 63.2576 1.3324 66.266 1.41565 66.3496L1.66539 66.7674L1.74863 66.3496C4.24599 56.4888 9.0742 42.617 15.4008 32.0041Z" fill="#ADADAD"/>
<path d="M67.8456 4.8468C67.8456 4.5961 67.8456 4.3454 67.8456 4.26184C67.8456 4.17827 67.8456 3.92758 67.7623 3.59332C67.7623 2.92479 67.5126 0 67.5126 0C58.9383 5.09749 51.4463 12.117 45.8688 17.6323C30.1355 33.1755 14.8184 58.4958 10.9059 72.8691C10.2399 75.4596 11.9048 78.2173 11.9881 78.3844L12.1546 78.7187L12.321 78.3844C18.7309 60.4178 30.7182 41.7827 45.6191 26.7409C53.7771 18.5515 60.7697 12.7855 67.7623 8.69081C67.9288 8.44011 68.0121 7.85515 67.8456 4.8468Z" fill="#ADADAD"/>
<path d="M5.41094 66.603C4.66174 69.5277 6.65962 72.369 6.74287 72.4525L6.90936 72.7032L7.07585 72.369C10.9051 55.9901 23.9746 34.5138 41.7891 14.7088C42.1221 14.3745 42.1221 13.2046 41.9556 11.1991C41.9556 10.8648 41.8723 10.6141 41.8723 10.447C41.8723 10.2798 41.8723 10.0291 41.7891 9.61131C41.7058 8.77566 41.4561 6.10156 41.4561 6.10156C18.9799 29.667 8.6575 52.2297 5.41094 66.603Z" fill="#ADADAD"/>
</g>
<defs>
<clipPath id="clip0_3722_6150">
<rect width="236" height="90" fill="white"/>
</clipPath>
</defs>
</svg>
