<svg width="172" height="66" viewBox="0 0 172 66" fill="none" xmlns="http://www.w3.org/2000/svg">
<path fill-rule="evenodd" clip-rule="evenodd" d="M89.8521 18.7409C87.7944 17.5667 85.8423 16.0991 83.8373 14.578C76.9521 9.45448 69.7238 4.14417 62.0735 2.19616C54.7134 0.328211 48.8042 1.90262 46.4564 4.22422C60.0686 -3.08747 77.084 13.7775 87.2668 20.342C85.7895 21.2226 84.2858 22.0498 82.7558 22.7703C73.3116 17.1931 64.2631 9.98818 56.0324 7.85338C55.1883 7.6399 54.3441 7.50648 53.4999 7.37305C44.2932 5.85201 38.9643 12.4966 41.1011 18.981C45.2956 31.5764 66.4791 30.8826 77.6116 27.3601C77.638 27.3601 77.6643 27.3334 77.6643 27.3334C79.0625 26.9065 80.4607 26.3995 81.8324 25.8124C89.984 29.5483 99.6919 32.3769 112.038 30.0286C103.886 30.5356 91.857 28.2674 85.2355 24.238C86.7128 23.4641 88.1637 22.6369 89.5883 21.7563C95.1281 24.5315 102.752 25.8925 107.949 25.9725C142.692 26.5329 133.881 -6.71663 106.683 7.71996C100.8 10.8421 95.1809 15.0583 89.8521 18.7409ZM79.0625 24.2914C73.5226 26.2927 67.6398 27.1733 61.757 26.9332C57.5097 26.7731 53.368 26.1593 48.5932 23.1973C43.8183 20.2085 40.7318 12.3098 46.8257 9.56122C55.7686 5.55847 71.8079 20.2352 79.0625 24.2914ZM92.1208 20.0484C100.431 14.498 116.549 1.58241 125.149 6.81267C128.763 9.00084 129.027 13.4306 127.101 16.3392C120.902 25.759 101.459 24.3447 92.1208 20.0484Z" fill="#D1D1D1"/>
<path fill-rule="evenodd" clip-rule="evenodd" d="M149.499 52.6315L148.892 52.9784V61.3842C148.919 61.6244 148.945 61.9446 148.998 62.3716C149.05 62.7985 149.13 63.2255 149.261 63.6524C149.314 63.8126 149.393 64.026 149.473 64.2128C149.552 64.4263 149.631 64.5597 149.684 64.6665H143.933C143.985 64.5597 144.038 64.4263 144.144 64.2128C144.223 63.9994 144.302 63.8392 144.328 63.7592C144.46 63.3322 144.566 62.9053 144.619 62.4516C144.671 61.998 144.698 61.6244 144.698 61.3842V40.5699C144.698 40.3031 144.645 39.9028 144.592 39.3958C144.513 38.8888 144.408 38.4351 144.276 38.0348C144.249 37.9281 144.196 37.7947 144.144 37.6346C144.065 37.4745 144.012 37.3677 143.959 37.2877L150.211 37.261C151.293 37.261 152.401 37.4478 153.561 37.8214C154.722 38.1949 155.751 38.702 156.674 39.3691C157.598 40.0095 158.363 40.8101 158.969 41.7441C159.576 42.678 159.866 43.6654 159.893 44.6794C159.893 46.1471 159.629 47.4013 159.128 48.442C158.627 49.4827 157.571 50.5501 155.962 51.6175L154.617 52.5515L155.039 53.5655C155.171 53.8857 155.487 54.3394 155.988 54.9531C156.49 55.5669 157.149 56.3941 157.967 57.4082C158.917 58.5556 159.55 59.3295 159.893 59.7564C160.236 60.1567 160.658 60.6104 161.133 61.0907C161.634 61.571 162.214 62.1047 162.9 62.6651L165.327 64.6131H161.792L160.394 63.8926C159.497 63.3856 158.732 62.8519 158.099 62.2915C157.466 61.7311 156.305 60.6637 154.643 59.0359C152.823 57.2214 151.108 55.0866 149.499 52.6315ZM149.789 51.5375C151.425 51.1639 152.823 50.4434 154.01 49.4027C155.197 48.3619 155.777 47.1611 155.777 45.8002C155.777 45.6667 155.751 45.4266 155.698 45.1064C155.487 43.8522 155.039 42.8648 154.379 42.1443C153.72 41.4238 153.06 40.9168 152.427 40.65C151.794 40.3831 150.871 40.0362 149.631 39.6626L148.892 39.4491V51.7242L149.789 51.5375ZM130.373 46.0137H129.925L126.706 52.8183H133.09L130.373 46.0137ZM130.795 37.2877L141.321 61.3842C141.479 61.6511 141.717 62.0513 142.033 62.5584C142.35 63.0654 142.666 63.5457 142.983 63.946C143.115 64.1061 143.22 64.2395 143.352 64.3729C143.458 64.5064 143.563 64.6131 143.616 64.6932H137.232C137.232 64.5864 137.258 64.4797 137.285 64.2929C137.285 64.1061 137.311 63.9727 137.311 63.8392C137.311 63.3856 137.206 62.9053 137.047 62.4516C136.889 61.998 136.757 61.6244 136.652 61.3842L134.515 56.3141H124.912L122.538 61.3842C122.433 61.6244 122.327 61.9446 122.169 62.3982C122.011 62.8519 121.931 63.2522 121.905 63.6524C121.905 63.7325 121.879 63.8659 121.879 64.0794C121.879 64.2929 121.879 64.4263 121.879 64.5064V64.6932H115.442C115.574 64.5597 115.758 64.3463 115.969 64.0794C116.207 63.8126 116.392 63.5724 116.55 63.3322C116.761 63.0387 116.972 62.7185 117.209 62.2915C117.447 61.8912 117.605 61.5977 117.711 61.3842L130.109 37.2877H130.795ZM119.742 40.5699C119.847 40.3031 120.032 39.9295 120.269 39.3958C120.507 38.8888 120.718 38.4885 120.903 38.2216C121.351 37.5812 121.588 37.261 121.615 37.261H114.941C114.967 37.3677 115.02 37.5011 115.073 37.6879C115.125 37.8747 115.152 38.0615 115.178 38.2483C115.178 38.7286 115.125 39.1823 115.02 39.6093C114.914 40.0362 114.835 40.3564 114.782 40.5432L108.108 57.7017L101.83 40.5432C101.724 40.3564 101.619 40.0362 101.487 39.5826C101.355 39.1289 101.302 38.6486 101.302 38.1416C101.328 37.9815 101.381 37.7947 101.46 37.6346C101.539 37.4745 101.592 37.341 101.645 37.261H95.1026C95.1817 37.341 95.2345 37.4211 95.2873 37.4744C95.34 37.5545 95.4983 37.7146 95.7357 37.9815C95.9995 38.3551 96.2369 38.8087 96.448 39.3424C96.659 39.8494 96.8173 40.2497 96.8965 40.5432L106.314 64.6932H109.559L119.742 40.5699ZM73.6026 50.6302C73.7345 52.2579 74.1038 53.7523 74.7106 55.1132C75.3173 56.4742 76.1087 57.6216 77.0848 58.609C78.0609 59.5696 79.1689 60.3168 80.3823 60.8505C81.5958 61.3575 82.8621 61.6244 84.1284 61.6244C84.5241 61.6244 84.8406 61.6244 85.0517 61.5977C86.3443 61.4643 87.5314 60.9039 88.613 59.9165C89.6682 58.9292 90.5124 57.675 91.0928 56.154C91.6995 54.6329 91.9897 53.1119 91.9897 51.5375C91.9897 51.0838 91.9897 50.7636 91.9633 50.5501C91.7523 48.4153 91.0928 46.5207 90.0112 44.8662C88.9032 43.2384 87.5578 41.9842 85.975 41.1303C84.3922 40.2764 82.8093 39.8494 81.2265 39.8494C79.7492 39.9295 78.4038 40.4632 77.2167 41.4238C76.056 42.3845 75.1327 43.612 74.4995 45.1064C73.8664 46.6007 73.5498 48.1485 73.5498 49.7496C73.5762 50.1231 73.5762 50.4167 73.6026 50.6302ZM95.8412 50.4167C95.8412 52.5515 95.4983 54.5262 94.8124 56.2874C94.1265 58.0486 93.1768 59.5429 91.9633 60.7971C90.7498 62.0513 89.3781 63.012 87.8216 63.6791C86.2388 64.3463 84.6296 64.6932 82.9412 64.6932C82.8093 64.6932 82.7038 64.6665 82.5719 64.6665C82.4664 64.6665 82.3081 64.6665 82.1234 64.6665C79.6173 64.5064 77.4541 63.8392 75.5811 62.585C73.7081 61.3575 72.2836 59.7031 71.2811 57.675C70.2787 55.6203 69.7247 53.352 69.6719 50.817C69.6719 48.949 69.9885 47.1611 70.648 45.48C71.3075 43.7988 72.2044 42.3044 73.3916 41.0502C74.5787 39.7694 75.9241 38.782 77.5069 38.0615C79.0633 37.341 80.7253 36.9674 82.4928 36.9141C84.3394 36.9141 86.0541 37.2343 87.6633 37.9014C89.2725 38.5685 90.6707 39.5025 91.8578 40.7033C93.0449 41.9042 93.9946 43.3452 94.6805 44.9996C95.3928 46.6274 95.7885 48.442 95.8412 50.4167ZM55.875 52.6315L55.2682 52.9784V61.3842C55.2946 61.6244 55.321 61.9446 55.3738 62.3716C55.4265 62.7985 55.5057 63.2255 55.6376 63.6524C55.6903 63.8126 55.7695 64.026 55.8486 64.2128C55.9277 64.4263 56.0069 64.5597 56.0333 64.6665H50.2823C50.3351 64.5597 50.3879 64.4263 50.4934 64.2128C50.5725 63.9994 50.6517 63.8392 50.6781 63.7592C50.81 63.3322 50.9155 62.9053 50.9682 62.4516C51.021 61.998 51.0474 61.6244 51.0474 61.3842V40.5699C51.0474 40.3031 50.9946 39.9028 50.9419 39.3958C50.8627 38.8888 50.7572 38.4351 50.6253 38.0348C50.5989 37.9281 50.5462 37.7947 50.467 37.6346C50.3879 37.4745 50.3351 37.3677 50.2823 37.2877L56.5345 37.261C57.6161 37.261 58.7241 37.4478 59.8848 37.8214C61.0455 38.1949 62.0744 38.702 62.9977 39.3691C63.921 40.0095 64.686 40.8101 65.2928 41.7441C65.8995 42.678 66.1897 43.6654 66.2161 44.6794C66.2161 46.1471 65.9523 47.4013 65.4511 48.442C64.9498 49.4827 63.8946 50.5501 62.2854 51.6175L60.94 52.5515L61.3621 53.5655C61.494 53.8857 61.8106 54.3394 62.3118 54.9531C62.813 55.5669 63.4725 56.3941 64.2903 57.4082C65.24 58.5556 65.8731 59.3295 66.2161 59.7564C66.559 60.1567 66.9811 60.6104 67.456 61.0907C67.9572 61.571 68.5376 62.1047 69.2234 62.6651L71.6505 64.6131H68.1155L66.7173 63.8392C65.8204 63.3322 65.0554 62.7985 64.4222 62.2381C63.7891 61.6777 62.6284 60.6104 60.9664 58.9826C59.1989 57.2214 57.4842 55.0866 55.875 52.6315ZM56.1388 51.5375C57.7744 51.1639 59.1725 50.4434 60.3596 49.4027C61.5468 48.3619 62.1271 47.1611 62.1271 45.8002C62.1271 45.6667 62.1008 45.4266 62.048 45.1064C61.8369 43.8522 61.3885 42.8648 60.729 42.1443C60.0695 41.4238 59.41 40.9168 58.7768 40.65C58.1437 40.3831 57.2204 40.0362 56.0069 39.6626L55.2682 39.4491V51.7242L56.1388 51.5375ZM35.694 46.0137H35.2455L32.0271 52.8183H38.4112L35.694 46.0137ZM36.1161 37.2877L46.6419 61.3842C46.8001 61.6511 47.0376 62.0513 47.3277 62.5584C47.6443 63.0654 47.9609 63.5457 48.2774 63.946C48.4093 64.1061 48.5149 64.2395 48.6204 64.3729C48.7259 64.5064 48.8314 64.6131 48.8842 64.6932H42.5001C42.5001 64.5864 42.5265 64.4797 42.5529 64.2929C42.5529 64.1061 42.5793 63.9727 42.5793 63.8392C42.5793 63.3856 42.4738 62.9053 42.3155 62.4516C42.1572 61.998 42.0253 61.6244 41.9198 61.3842L39.783 56.3141H30.1805L27.8063 61.3842C27.7008 61.6244 27.5952 61.9446 27.4369 62.3982C27.2787 62.8519 27.1995 63.2522 27.1731 63.6524C27.1731 63.7325 27.1468 63.8659 27.1468 64.0794C27.1468 64.2929 27.1468 64.4263 27.1468 64.5064V64.6932H20.7363C20.8682 64.5597 21.0529 64.3463 21.2639 64.0794C21.5014 63.8126 21.686 63.5724 21.8443 63.3322C22.0554 63.0387 22.2664 62.7185 22.5038 62.2915C22.7412 61.8912 22.8995 61.5977 23.005 61.3842L35.4038 37.2877H36.1161ZM20.2087 38.1416C18.9425 37.3677 17.2541 36.9674 15.1437 36.9407C14.0621 36.9407 13.0596 37.1809 12.0836 37.6346C11.1075 38.0882 10.2369 38.7286 9.47192 39.5025C8.70689 40.3031 8.12652 41.2103 7.67805 42.2244C7.25596 43.2384 7.04492 44.3058 7.04492 45.3732C7.12406 46.3606 7.30873 47.1878 7.59891 47.8549C7.88909 48.522 8.25842 49.1091 8.6805 49.5894C9.12897 50.0698 9.73572 50.6035 10.4744 51.1372C11.213 51.6976 11.8461 52.1512 12.3474 52.4981C12.4265 52.5515 12.8486 52.8183 13.6664 53.3253C14.4842 53.8324 15.0909 54.2593 15.513 54.6062C15.9351 54.9531 16.3044 55.3534 16.5682 55.8604C16.8584 56.3407 17.0431 56.9278 17.1222 57.5949C17.1222 58.7958 16.7529 59.7564 15.9879 60.4769C15.2492 61.2241 14.3259 61.571 13.2443 61.571C12.4793 61.571 11.7934 61.4109 11.2394 61.0907C10.6854 60.7705 10.105 60.2901 9.44553 59.623L8.12652 58.2621V63.7592C8.78603 64.0527 9.55106 64.2662 10.3952 64.4263C11.2394 64.5597 12.1627 64.6398 13.1652 64.6932C14.6688 64.6932 16.0406 64.3729 17.3069 63.7325C18.5731 63.0921 19.5756 62.1848 20.367 61.064C21.132 59.9432 21.5805 58.689 21.686 57.3281C21.686 56.3141 21.5014 55.4068 21.1057 54.6062C20.7363 53.8057 20.2351 53.1119 19.6284 52.5248C19.0216 51.9377 18.4676 51.4841 17.9928 51.1372C17.4915 50.7903 16.4891 50.1231 14.959 49.0824C14.405 48.7088 13.8774 48.3352 13.429 48.015C12.9541 47.6681 12.5584 47.3479 12.2419 47.001C11.9253 46.6808 11.6615 46.2538 11.4504 45.8002C11.2394 45.3465 11.1603 44.8128 11.1603 44.2258C11.1603 43.2117 11.5296 42.3311 12.2946 41.5839C13.0596 40.8368 13.9302 40.4632 14.959 40.4365C16.0406 40.4365 16.8584 40.5699 17.4124 40.8368C17.9664 41.1036 18.5995 41.5573 19.3118 42.1443L20.2615 42.9182V38.1416" fill="#D1D1D1"/>
</svg>
