<svg width="192" height="40" viewBox="0 0 192 40" fill="none" xmlns="http://www.w3.org/2000/svg">
<mask id="mask0_3250_8216" style="mask-type:luminance" maskUnits="userSpaceOnUse" x="0" y="0" width="192" height="40">
<path d="M0 0H191.577V40H0V0Z" fill="white"/>
</mask>
<g mask="url(#mask0_3250_8216)">
<path d="M127.453 0C133.207 3.2673 137.085 9.45626 137.085 16.5305C137.085 27.0205 128.57 35.5164 118.055 35.5164C110.878 35.5164 104.628 31.5546 101.383 25.7047C104.023 33.9969 111.801 39.9853 120.985 39.9853C132.344 39.9853 141.531 30.8176 141.531 19.4881C141.531 10.4133 135.639 2.70482 127.453 0ZM14.7865 1.04019C6.56284 1.04019 0.867884 4.81617 0.572784 10.8519C0.30866 16.2697 4.09769 19.2256 10.8116 21.7739C14.03 22.9934 22.332 24.9221 22.332 29.4351C22.332 33.6431 18.2821 36.0202 13.4724 36.0202C9.4307 36.0202 5.72808 34.4632 2.59447 32.1904L0.269531 35.6175C3.86128 38.3305 9.14049 39.9853 13.5735 39.9853C21.4956 39.9853 27.7612 35.6126 28.159 29.5345C28.6351 22.2483 22.5782 19.5207 16.606 17.4729C9.71764 15.1088 6.23187 13.4132 6.23187 10.5503C6.23187 7.45251 8.92038 5.0053 15.0898 5.0053C18.4924 5.0053 22.0026 6.3357 24.7221 8.23184L26.677 5.0053C23.3493 2.43906 18.9799 1.04019 14.7865 1.04019ZM50.1856 1.04019C37.4587 1.63039 30.4481 11.2106 30.4481 20.3962C30.4481 30.7769 37.3218 39.9853 50.7921 39.9853C54.8909 39.9853 59.4331 38.7462 62.8504 36.4229L60.7962 33.3317C57.9381 35.2768 54.5403 36.1213 51.0627 36.1213C43.0559 36.1213 36.6468 30.0041 36.6468 20.2951C36.6468 11.2888 42.001 4.90584 51.0627 4.90584C54.2762 4.90584 58.5576 6.02429 61.0994 8.09652L63.289 5.0053C59.8212 2.42928 55.9034 1.04019 51.4328 1.04019C51.0105 1.04019 50.5964 1.02226 50.1856 1.04019ZM118.055 1.04019C109.491 1.04019 102.528 7.98891 102.528 16.5305C102.528 23.5494 107.223 29.4579 113.642 31.3491C109.657 28.8921 107.008 24.5064 107.008 19.4881C107.008 11.7861 113.265 5.54333 120.985 5.54333C126.077 5.54333 130.531 8.23999 132.977 12.298C131.139 5.80093 125.157 1.04019 118.055 1.04019ZM66.7911 1.6793V39.3478H72.6181V20.6978H90.9404V39.3478H96.7348V1.6793H90.9404V16.8338H72.6181V1.6793H66.7911ZM140.486 1.6793V5.54333H149.548V39.3478H155.375V5.54333H164.502V1.6793H140.486ZM167.231 1.6793V5.54333H176.291V39.3478H182.118V5.54333H191.213V1.6793H167.231Z" fill="#D1D1D1"/>
</g>
</svg>
