<svg width="90" height="78" viewBox="0 0 90 78" fill="none" xmlns="http://www.w3.org/2000/svg">
<path d="M72.8735 10.2085L67.8013 7.47386L70.3349 6.10277L72.8735 10.2085ZM74.3744 3.92779V9.38742L71.8482 5.29635L74.3744 3.92779ZM72.6358 11.2495L75.4667 9.72462V0.921875L64.4751 6.85062" fill="#D1D1D1"/>
<path d="M65.8449 17.7325V14.9978H70.9147L65.8449 17.7325ZM65.8449 10.6405L70.9073 13.3727H65.8449V10.6405ZM71.7666 12.6591L63.606 8.25781V20.1129L71.7666 15.714" fill="#D1D1D1"/>
<path d="M82.3372 22.2645L79.8085 18.1709L84.8659 20.9056L82.3372 22.2645ZM78.2903 24.4541V18.9799L80.8265 23.0831L78.2903 24.4541ZM77.208 18.65V27.4502L88.202 21.519L80.0388 17.125" fill="#D1D1D1"/>
<path d="M86.8299 13.3753H81.7676L86.8299 10.643V13.3753ZM86.8299 17.7351L81.7552 15.0005H86.8299V17.7351ZM80.9106 12.6641V15.7164L89.0713 20.1154V8.25781" fill="#D1D1D1"/>
<path d="M82.3372 6.10129L84.8733 7.47481L79.8011 10.2071L82.3372 6.10129ZM78.2928 3.92145L80.8265 5.29487L78.2928 9.39557V3.92145ZM88.2045 6.84915L77.208 0.917969V9.72315L80.0388 11.248" fill="#D1D1D1"/>
<path d="M70.3325 22.2669L67.8037 20.9056L72.8711 18.1734L70.3325 22.2669ZM74.3744 24.4492L71.8457 23.0831L74.3744 18.9896V24.4492ZM64.4751 21.524L75.4642 27.4526V18.65L72.6358 17.125" fill="#D1D1D1"/>
<path d="M15.0504 51.6115C15.0504 55.8491 15.0504 59.4855 14.8027 61.4283C14.6516 62.7602 14.3545 63.7744 13.3514 63.9602C12.9056 64.053 12.3087 64.1438 11.5583 64.1438C10.9589 64.1438 10.7608 64.2831 10.7608 64.5151C10.7608 64.8303 11.11 64.9793 11.7564 64.9793C13.7526 64.9793 16.898 64.84 18.0447 64.84C19.4416 64.84 22.587 64.9793 25.881 64.9793C26.4283 64.9793 26.8246 64.8303 26.8246 64.5151C26.8246 64.2831 26.5769 64.1438 26.0296 64.1438C25.2791 64.1438 24.182 64.0537 23.4835 63.9602C21.9851 63.7745 21.6904 62.7603 21.5393 61.4675C21.2867 59.4855 21.2867 55.8491 21.2867 51.6115V32.7205L27.5775 32.8577C32.0182 32.9533 33.3656 34.2409 33.4622 35.4384L33.512 35.9441C33.5639 36.6354 33.6656 36.8631 34.0619 36.8631C34.364 36.8631 34.4631 36.5915 34.5126 36.1323C34.5126 34.9324 34.6637 31.7505 34.6637 30.7876C34.6637 30.0962 34.6139 29.815 34.2625 29.815C33.8663 29.815 32.6675 30.2792 29.475 30.2792H9.71108C8.06656 30.2792 6.16942 30.1835 4.72056 30.0491C3.47973 29.9535 2.97446 29.4922 2.5757 29.4922C2.27852 29.4922 2.12495 29.7658 1.97639 30.3695C1.87733 30.7388 0.928711 34.9321 0.928711 35.6678C0.928711 36.1735 1.03023 36.4034 1.37698 36.4034C1.67668 36.4034 1.82772 36.2198 1.92685 35.8513C2.02591 35.4848 2.27849 34.9323 2.77881 34.2407C3.52677 33.2241 4.72056 32.9943 7.61829 32.9039L15.0508 32.7204" fill="#D1D1D1"/>
<path d="M42.9428 50.6549C42.7447 50.6549 42.7001 50.5177 42.7447 50.3299L47.225 38.9978C47.2721 38.8142 47.3761 38.5821 47.5173 38.5821C47.6634 38.5821 47.7154 38.8142 47.7625 38.9978L52.1414 50.3739C52.1905 50.518 52.1413 50.6552 51.9012 50.6552L42.9428 50.6549ZM52.8248 52.9593C53.0677 52.9593 53.2137 53.0474 53.3078 53.2774L57.2037 63.0503C57.4487 63.6003 57.1075 64.0181 56.7677 64.1109C56.2797 64.1525 56.0839 64.2481 56.0839 64.5238C56.0839 64.8466 56.6708 64.8465 57.5451 64.9027C61.441 64.9906 64.995 64.9907 66.7485 64.9907C68.5515 64.9907 68.9899 64.9027 68.9899 64.5238C68.9899 64.1989 68.7469 64.1525 68.3559 64.1525C67.769 64.1525 67.0408 64.1109 66.3127 63.9689C65.2873 63.7389 63.8781 63.094 62.0255 58.9443C58.9123 51.9452 51.1206 33.1447 49.9492 30.6079C49.4662 29.5497 49.174 29.1367 48.7331 29.1367C48.2452 29.1367 47.9579 29.6425 47.3759 30.9795L35.1534 59.9121C34.1727 62.2216 33.2514 63.7807 31.0025 64.0593C30.6136 64.1078 29.9326 64.1522 29.4942 64.1522C29.1053 64.1522 28.9097 64.2478 28.9097 64.5235C28.9097 64.9024 29.2044 64.9904 29.8335 64.9904C32.377 64.9904 35.0544 64.856 35.5918 64.856C37.1001 64.856 39.1929 64.9904 40.7507 64.9904C41.2881 64.9904 41.5779 64.9024 41.5779 64.5235C41.5779 64.2471 41.4268 64.1522 40.8448 64.1522H40.1167C38.6084 64.1522 38.17 63.5509 38.17 62.725C38.17 62.1729 38.4127 61.0681 38.9006 59.9121L41.5259 53.326C41.625 53.0475 41.724 52.9595 41.9667 52.9595" fill="#D1D1D1"/>
<path d="M73.9462 56.9439C73.9462 65.9862 73.9954 70.5879 70.3699 74.1388C69.4114 75.0625 68.6981 75.5636 68.0739 75.8862C67.2666 76.3039 67.0264 76.4895 67.0264 76.7195C67.0264 76.9516 67.2195 77.086 67.4104 77.086C67.6484 77.086 68.0247 76.9959 68.3664 76.8123C69.3645 76.3531 70.1298 75.9791 70.7515 75.6125C75.3308 72.8974 77.8571 69.7155 78.8552 66.905C79.8186 64.3194 80.0069 61.3647 80.0069 58.7401C80.0069 56.438 79.8608 54.2287 79.8608 52.2395V43.7202C79.8608 36.7186 79.8608 35.4282 79.9549 33.9546C80.0539 32.3368 80.4302 31.5547 81.7232 31.33C82.2982 31.2344 82.5827 31.1879 83.1102 31.1879C83.6824 31.1879 83.9672 31.0951 83.9672 30.775C83.9672 30.455 83.6329 30.3594 82.9616 30.3594C81.1016 30.3594 78.0949 30.4966 76.9507 30.4966C75.7123 30.4966 72.7056 30.3594 70.1769 30.3594C69.4636 30.3594 69.1243 30.455 69.1243 30.775C69.1243 31.0951 69.4115 31.1879 69.9392 31.1879C70.6083 31.1879 71.4128 31.2364 71.7967 31.33C73.3743 31.6479 73.7532 32.3857 73.8499 33.9546C73.9467 35.4282 73.9467 36.7186 73.9467 43.7202" fill="#D1D1D1"/>
</svg>
