<svg width="225" height="77" viewBox="0 0 225 77" fill="none" xmlns="http://www.w3.org/2000/svg">
<g clip-path="url(#clip0_3722_5994)">
<path d="M111.696 18.9115V26.8702H97.6666V65.0779H88.8007V26.8687H74.7725V18.9101L111.696 18.9115ZM115.466 65.0764H124.335V41.9917V18.9115H115.466V41.9932V65.0764ZM170.173 65.0764H161.047L156.33 53.7164H140.784L136.121 65.0764H127.199L146.748 18.293H150.626L170.173 65.0764ZM213.145 65.0764H204.02L199.302 53.7164H183.754L179.09 65.0764H170.173L189.72 18.293H193.595L213.145 65.0764ZM153.289 46.1741L148.601 34.6768L143.877 46.1741H153.289ZM196.262 46.1741L191.573 34.6768L186.85 46.1741H196.262Z" fill="#D1D1D1"/>
<path d="M37.8161 11.9258C31.6854 11.9258 26.7154 16.9141 26.6875 23.0747V26.8658H49.837V50.1482H53.5509C59.6978 50.1482 64.6796 45.1348 64.6796 38.9551V11.9258H37.8161Z" fill="#D1D1D1"/>
<path d="M60.3085 51.4102C58.3026 52.5174 55.9988 53.1477 53.5512 53.1477H23.709L11.8555 65.0746H42.6573C45.6552 65.0746 48.4726 63.8774 50.593 61.7058L60.5682 51.67L60.3085 51.4102Z" fill="#ADADAD"/>
<path d="M25.4361 16.3262C24.3356 18.3458 23.709 20.6636 23.709 23.1245V53.1477L11.8555 65.0746V34.0859C11.8555 31.0714 13.044 28.2354 15.2026 26.1022L25.1779 16.0664L25.4361 16.3262Z" fill="#7A7A7A"/>
</g>
<defs>
<clipPath id="clip0_3722_5994">
<rect width="225" height="77" fill="white"/>
</clipPath>
</defs>
</svg>
