<svg width="184" height="68" viewBox="0 0 184 68" fill="none" xmlns="http://www.w3.org/2000/svg">
<g clip-path="url(#clip0_3722_6108)">
<path d="M107.491 40.8245C107.491 54.6581 100.011 56.3167 92.5318 56.3167C79.6709 56.3167 76.934 49.6765 76.934 40.1785V13.39H72.1909V10.8088H90.1603V13.39H85.0524V39.3956C85.0524 48.5714 87.4239 53.1364 93.9456 53.1364C100.604 53.1364 103.843 49.8164 103.843 40.2712V13.39H99.0541V10.8088H111.824V13.39H107.491V40.8245ZM120.066 53.2276V13.39H115.062V10.8088H134.993C143.476 10.8088 147.671 15.649 147.671 21.3208C147.671 27.3604 142.244 30.7717 137.41 31.7871C146.805 32.6628 149.359 38.7495 149.359 43.2234C149.359 52.352 141.651 55.8104 134.08 55.8104H114.743V53.2276H120.066ZM139.554 21.8285C139.554 17.6328 137.41 13.39 132.713 13.39H127.533V30.6805H132.165C137.136 30.6805 139.554 26.4377 139.554 21.8285ZM141.15 43.2234C141.15 37.2278 138.596 33.2161 132.621 33.2161H127.533V53.2276H131.663C138.003 53.2277 141.15 49.447 141.15 43.2234ZM169.244 12.7911C164.546 12.7911 161.536 15.6034 161.536 20.4907C161.536 24.9159 166.28 27.0381 170.886 28.6054C173.622 29.5753 177.089 30.8644 179.46 33.1705C182.06 35.6605 183.473 38.9806 183.383 43.1748C183.2 51.0158 177.773 56.3167 168.195 56.3637C164.592 56.3637 158.982 55.5337 155.607 53.5514L155.242 41.7473H158.07C158.298 49.6765 161.992 53.8266 168.468 53.8266C173.668 53.8266 176.541 50.3226 176.541 44.9746C176.541 40.364 172.756 38.3801 167.009 36.445C165.139 35.7989 161.445 34.4155 158.845 31.8343C156.519 29.481 155.425 26.5319 155.425 23.3958C155.425 14.22 161.901 10.2539 169.928 10.2539C173.12 10.2539 177.91 11.4077 180.691 13.0206L180.965 23.2574H178.138C177.545 15.9728 174.398 12.7911 169.244 12.7911Z" fill="#D1D1D1"/>
<path d="M49.7436 19.9151L48.5549 20.9169L49.81 25.0563L46.0454 22.9859L44.7903 23.9876L48.9512 26.2588L44.5268 29.8631L43.338 28.2609L44.923 26.993L43.7337 25.5899L42.1493 26.8592L40.9612 25.3239L42.5456 24.0545L41.3569 22.5192L33.2342 29.3295L40.9612 35.6048L42.3472 33.8688C43.338 33.9357 44.0642 34.6699 44.4605 35.6048L43.0739 37.3408L43.9321 38.0082C45.847 36.2722 48.3571 35.1381 50.9324 35.1381C56.3471 35.1381 60.573 39.6105 60.573 45.0846C60.573 46.8875 60.111 48.8242 59.1207 50.4265L60.573 51.5605C60.5072 52.6292 59.517 53.7633 58.5261 54.0308L57.139 52.8953C55.2247 54.7651 52.7151 55.7669 50.0735 55.7669C44.6583 55.7669 40.4323 51.4283 40.4323 45.8873C40.4323 44.0843 40.9612 42.2145 41.7531 40.6791L40.9612 39.9434L39.5741 41.8132C38.5832 41.6809 37.7249 41.0105 37.4613 39.9434L38.8479 38.2742L32.3097 32.8001V41.4787L34.4893 41.5457C34.7535 41.8801 34.9519 42.3483 34.9519 42.8819C34.9519 43.3486 34.7535 43.8837 34.555 44.2835H32.3097V45.3522C37.0645 46.1533 41.027 50.2258 41.027 55.1649C41.027 60.3061 37.1303 64.3802 32.3097 65.1798V66.9173C31.8477 67.1818 31.2531 67.384 30.7253 67.384C30.1307 67.384 29.4703 67.1818 28.9419 66.9173V65.1798C24.1219 64.3802 20.3573 60.3061 20.3573 55.1649C20.3573 50.2258 24.1219 46.1533 28.9419 45.419V44.2835H26.6971C26.4324 43.8837 26.3004 43.3486 26.3004 42.8819C26.3004 42.3483 26.4324 41.8801 26.6971 41.4787H28.9419V32.8001L22.3385 38.2742L23.7914 39.9434C23.4609 41.0105 22.6026 41.6809 21.6124 41.8132L20.2252 39.9434L19.3664 40.6791C20.2915 42.2145 20.7535 44.0843 20.7535 45.8873C20.7535 51.4283 16.5276 55.7669 11.1129 55.7669C8.537 55.7669 5.96113 54.7651 4.11266 52.8953L2.65976 54.0308C1.73517 53.7633 0.744899 52.6292 0.612793 51.5605L1.99934 50.4265C1.14114 48.8242 0.612793 46.8875 0.612793 45.0846C0.612793 39.6105 4.83875 35.1381 10.2541 35.1381C12.8951 35.1381 15.4046 36.2722 17.3195 38.0082L18.1126 37.4062L16.7254 35.6048C17.0559 34.6699 17.9141 34.0025 18.9044 33.8688L20.2915 35.6048L28.018 29.3295L19.8953 22.5192L18.7066 24.0545L20.2915 25.3239L19.1028 26.8592L17.5179 25.5899L16.3291 26.993L17.8478 28.2609L16.6597 29.8631L12.301 26.2588L16.3955 23.9876L15.2068 22.9859L11.4428 25.0563L12.6972 20.9169L11.5085 19.9151L10.122 24.4559L5.69759 20.85L6.88572 19.3815L8.40493 20.6509L9.66001 19.1824L8.07445 17.7793L9.26317 16.3761L10.8481 17.5801L11.9705 16.177L8.537 13.4407C8.86697 12.3036 9.59366 11.3702 10.6503 10.7013L28.9419 25.7921V15.7088H27.0934V17.6455H25.2443V15.7088H23.3288V17.6455H21.4139V11.9707L25.772 13.839V12.2367L21.7444 10.5691L25.772 8.96681V7.43145L21.4139 9.16747V3.42579H23.3288V5.49476H25.2443V3.42579H27.0934V5.49476H28.9419V0.955504C29.4703 0.754843 30.0649 0.621094 30.6589 0.621094C31.1873 0.621094 31.7814 0.754843 32.3097 0.955504V25.7921L50.6019 10.7013C51.5922 11.3702 52.3189 12.3036 52.7151 13.4407L49.2153 16.177L50.404 17.5801L51.989 16.3761L53.1772 17.7793L51.5922 19.1824L52.7809 20.6509L54.3664 19.3815L55.5546 20.85L51.1302 24.4559L49.7436 19.9151ZM12.3667 47.2205C12.3667 48.8242 13.556 49.8245 14.9426 49.9583L12.6315 51.7612C11.0466 51.1592 9.59366 49.224 9.59366 47.5549C9.59366 47.0213 9.72573 46.6869 9.8578 46.2871C9.66001 46.2871 9.52735 46.354 9.39528 46.354C7.28256 46.354 5.49917 44.3503 5.10353 42.2814L7.48038 40.4116C7.41403 40.6791 7.41403 40.8783 7.41403 41.079C7.41403 42.4137 8.66907 43.6161 9.9899 43.6161C11.3765 43.6161 12.6972 42.4137 12.6972 41.0105C12.6972 39.2775 11.3765 38.142 9.72573 38.142C6.49007 38.142 3.32014 41.2796 3.32014 45.419C3.32014 46.62 3.58371 47.7555 4.11266 48.7558L5.56552 47.6218C6.55583 48.0885 7.34831 49.0903 7.61249 50.2258L6.16018 51.3599C7.54673 52.5623 9.26317 53.0959 11.0466 53.0959C14.7442 53.0959 17.7163 50.092 17.7163 47.4211C17.7163 45.8873 16.6597 44.551 15.0747 44.551C13.6218 44.551 12.3667 45.6851 12.3667 47.2205ZM31.9797 52.9636C31.9797 54.4306 33.1685 55.6331 34.555 55.6331C35.5459 55.6331 35.9416 55.2333 36.6683 54.6313V57.6367C35.9416 58.0365 35.2154 58.2371 34.423 58.2371C32.8385 58.2371 31.5178 57.7689 30.6589 56.3673C29.7344 57.7689 28.4136 58.2371 26.8286 58.2371C26.1025 58.2371 25.31 58.0365 24.5839 57.6367V54.6313C25.2443 55.2986 25.772 55.6331 26.6971 55.6331C28.15 55.6331 29.2724 54.4306 29.2724 52.9636C29.2724 51.5605 28.3479 50.2927 26.8286 50.2927C24.1219 50.2927 22.9989 52.8953 22.9989 55.2986C22.9989 58.8376 25.5747 61.8415 28.9419 62.4435V60.6405C29.4703 60.373 30.0649 60.3061 30.5932 60.3061C31.1873 60.3061 31.7814 60.373 32.3097 60.6405V62.4435C35.4138 61.9752 38.2533 58.6369 38.2533 55.2986C38.2533 52.8284 37.2624 50.2927 34.423 50.2927C32.9706 50.2927 31.9797 51.5605 31.9797 52.9636ZM48.4229 41.0105C48.4229 42.3483 49.81 43.6161 51.1965 43.6161C52.5168 43.6161 53.7718 42.4137 53.7718 41.079C53.7718 40.8783 53.7054 40.6791 53.7054 40.4116L56.0171 42.2814C55.6203 44.551 53.6397 46.5531 51.3286 46.2871C51.4607 46.6869 51.5264 47.0213 51.5264 47.5549C51.5264 49.224 50.0735 51.1592 48.4892 51.7612L46.1775 49.9583C47.6304 49.8245 48.8191 48.8242 48.8191 47.2205C48.8191 45.6851 47.4983 44.551 46.0454 44.551C44.5268 44.551 43.4044 45.8873 43.4044 47.488C43.4044 49.4247 45.7149 53.0959 50.1399 53.0959C51.9233 53.0959 53.6397 52.5623 54.9605 51.3599L53.5076 50.2258C53.8375 49.0903 54.4979 48.0885 55.5546 47.6218L57.0075 48.7558C57.5358 47.7555 57.8663 46.62 57.8663 45.419C57.8663 42.2145 55.4225 38.142 51.5264 38.142C49.8757 38.142 48.4229 39.2775 48.4229 41.0105Z" fill="#ADADAD"/>
</g>
<defs>
<clipPath id="clip0_3722_6108">
<rect width="184" height="68" fill="white"/>
</clipPath>
</defs>
</svg>
