<svg width="226" height="48" viewBox="0 0 226 48" fill="none" xmlns="http://www.w3.org/2000/svg">
<g clip-path="url(#clip0_3722_6069)">
<path d="M18.9747 23.1259C20.3547 23.1259 21.5593 23.1739 22.6268 23.3683C24.1463 23.6347 25.4325 25.7491 25.4325 26.7811C25.4325 27.3091 25.4325 27.8947 25.2017 28.7491C24.8267 30.0595 22.2493 34.7731 21.177 36.5467C19.8859 34.4563 16.8469 28.5523 15.7963 26.2531C15.3395 25.2883 15.1087 24.4867 15.1087 24.0931C15.1087 23.3683 16.5512 23.1259 18.9747 23.1259ZM1.75302 23.1259C3.0417 23.4451 3.79664 23.7115 4.85451 25.6027C8.5787 32.4259 12.3077 39.9475 15.9357 47.3467C16.3925 47.7307 16.9263 47.8171 17.698 47.8171C18.4434 47.8171 18.9723 47.7307 19.4483 47.3491C21.177 44.0923 25.7379 35.3515 27.7046 31.9579C29.9934 36.1531 33.934 43.8091 35.5328 47.3491C35.9752 47.7331 36.5234 47.8171 37.2711 47.8171C38.0284 47.8171 38.5742 47.7307 39.0142 47.3491C42.2333 40.3189 45.6268 33.3696 49.1914 26.5075C50.4079 24.0931 50.9345 23.4451 53.4421 22.9795L54.5048 22.7923C55.1107 22.1851 54.9544 20.7619 54.2812 20.4883C52.6102 20.6203 50.6387 20.6875 48.4244 20.6875C46.5299 20.6875 44.7219 20.6203 42.207 20.4883C41.4473 20.7619 41.4473 22.3243 41.9113 22.7923L43.1904 23.0395C44.4959 23.3059 45.0921 23.6347 45.0921 23.9683C45.0921 24.4267 44.8613 25.3435 44.3901 26.5075C43.1904 29.5387 42.0003 32.7523 40.1562 36.5467C38.4924 33.3931 36.3719 29.1451 34.9967 25.9963C34.5495 24.8899 34.3956 24.4843 34.3956 23.9683C34.3956 23.6347 35.4463 23.3059 37.2038 22.9795L38.3338 22.7923C38.8819 22.5259 38.9396 20.5675 38.1078 20.4883C33.6307 20.6202 29.1518 20.6866 24.6728 20.6875H9.34085C6.15281 20.6875 3.72932 20.6203 0.618212 20.4883C-0.158362 20.8171 -0.158362 22.2571 0.36817 22.7923L1.75302 23.1259Z" fill="#D1D1D1"/>
<path d="M65.1586 22.7052C67.7288 22.7052 69.181 24.1332 69.181 26.3004C69.181 26.958 69.0295 27.6204 68.652 27.8076C67.8033 28.2684 66.5916 28.3908 65.5313 28.3908H62.7279C60.2852 28.3908 59.237 28.3428 59.237 27.414C59.237 25.3116 61.9706 22.7028 65.1611 22.7028L65.1586 22.7052ZM65.0793 47.7276C69.6306 47.7276 75.2637 45.8244 78.3676 40.2588C78.3676 39.1428 77.216 38.6148 76.3913 38.7372C74.3405 41.7636 71.4458 42.1452 69.3276 42.1452C62.2735 42.1452 58.6191 37.3716 58.6191 32.4588C58.6191 31.4124 58.7778 31.2828 60.5281 31.2828H75.0858C77.4564 31.2828 77.8267 30.366 77.8267 29.1228C77.8267 24.0708 73.5711 19.6836 65.6756 19.6836C56.2028 19.6836 49.293 26.1084 49.293 34.3668C49.293 41.5068 54.8348 47.7276 65.0793 47.7276ZM97.217 23.1252C98.6042 23.1252 99.8088 23.1732 100.876 23.3676C102.396 23.634 103.684 25.7484 103.684 26.7804C103.684 27.3084 103.684 27.894 103.458 28.7484C103.069 30.0588 100.494 34.7724 99.4361 36.546C98.1306 34.4556 95.1085 28.5516 94.0458 26.2524C93.5986 25.2876 93.3606 24.486 93.3606 24.0924C93.3606 23.3676 94.7935 23.1252 97.217 23.1252ZM79.9977 23.1252C81.2984 23.4444 82.0461 23.7108 83.1088 25.602C86.821 32.4252 90.5596 39.9468 94.1924 47.346C94.654 47.73 95.183 47.8164 95.9427 47.8164C96.6953 47.8164 97.217 47.73 97.6834 47.3484C99.4385 44.0916 103.983 35.3508 105.961 31.9572C108.245 36.1524 112.174 43.8084 113.773 47.3484C114.229 47.7324 114.758 47.8164 115.513 47.8164C116.28 47.8164 116.814 47.73 117.264 47.3484C120.487 40.3192 123.882 33.3699 127.446 26.5068C128.66 24.0924 129.184 23.4444 131.687 22.9788L132.759 22.7916C133.358 22.1844 133.199 20.7612 132.526 20.4876C130.848 20.6196 128.886 20.6868 126.674 20.6868C124.6 20.6769 122.527 20.6105 120.457 20.4876C119.687 20.7612 119.687 22.3236 120.154 22.7916L121.442 23.0388C122.736 23.3052 123.337 23.634 123.337 23.9676C123.337 24.426 123.108 25.3428 122.661 26.5068C121.442 29.538 120.226 32.7516 118.398 36.546C116.735 33.3924 114.614 29.1444 113.249 25.9956C112.787 24.8892 112.635 24.4836 112.635 23.9676C112.635 23.634 113.691 23.3052 115.448 22.9788L116.578 22.7916C117.112 22.5252 117.192 20.5668 116.352 20.4876C111.501 20.6196 107.692 20.6868 102.917 20.6868H87.5831C84.6744 20.6872 81.7661 20.6208 78.8605 20.4876C78.108 20.8164 78.108 22.2564 78.6369 22.7916L79.9977 23.1252Z" fill="#D1D1D1"/>
<path d="M144.982 22.7052C149.292 22.7052 151.42 28.1964 151.504 34.5612C151.569 40.4604 150.119 44.7156 145.789 44.7156C141.406 44.7156 138.889 39.6612 138.889 32.7924C138.889 25.6596 141.637 22.7028 144.982 22.7028V22.7052ZM144.982 47.7276C154.305 47.7276 162.434 43.2108 162.434 33.6324C162.434 24.3972 154.375 19.6836 145.426 19.6836C136.466 19.6836 127.887 24.8556 127.959 34.2324C128.048 43.266 135.932 47.7276 144.982 47.7276Z" fill="#D1D1D1"/>
<path d="M175.367 25.2326C175.835 25.2326 176.509 25.3046 178.247 26.543C179.221 27.335 180.134 27.7286 181.204 27.7286C183.628 27.7286 186.068 26.4854 186.068 23.4686C186.068 20.9942 183.943 19.6046 181.877 19.6046C178.701 19.6046 176.509 21.7646 174.446 22.8734C173.845 22.7534 173.686 22.5542 173.686 22.091C173.686 21.5054 173.842 20.5958 173.982 19.2734C173.686 18.8846 173.22 18.6758 172.635 18.6758C170.272 20.0054 165.038 21.7646 161.535 22.6262C161.006 23.0102 161.006 24.191 161.535 24.587L162.617 25.1774C164.052 25.9646 164.052 26.747 164.052 29.3726V39.2606C164.052 43.8446 163.747 44.4326 161.239 44.639L159.794 44.759C159.184 45.1526 159.184 46.6694 159.874 47.063C162.858 46.9178 165.846 46.8506 168.834 46.8614C172.393 46.8614 175.436 46.919 179.084 47.0606C179.766 46.6694 179.766 45.1526 179.153 44.759L176.725 44.5766C174.22 44.3678 173.912 43.8422 173.912 39.2606V29.1734C173.912 26.687 174.294 25.2326 175.367 25.2326Z" fill="#D1D1D1"/>
<path d="M205.151 44.544L204.168 44.748C203.552 45.336 203.701 46.704 204.464 47.028C206.589 46.8984 209.313 46.836 213.811 46.836C218.211 46.836 221.014 46.8984 223.361 47.028C224.123 46.776 224.279 45.2016 223.662 44.748L222.534 44.5416C220.565 44.2176 219.125 43.8792 218.062 43.0416C216.153 41.5368 209.472 32.6208 208.125 30.5256C207.733 30.0024 207.572 29.6136 207.572 29.4096C207.572 29.2176 207.652 28.9584 208.024 28.5552C209.092 27.6504 210.251 26.6496 213.124 24.7512C215.165 23.388 216.773 22.7352 218.213 22.4664L220.632 22.0056C221.176 21.4944 221.101 20.0304 220.324 19.7136C215.857 20.3088 209.553 20.6304 205.981 20.6304H204.168C203.41 20.904 203.326 22.3344 204.009 22.9224L205.913 23.196C206.589 23.2488 207.346 23.508 207.346 23.844C207.346 24.2376 206.981 24.9528 205.529 26.4504L202.35 29.6808C200.826 31.1808 199.232 31.5096 197.941 31.5096C197.116 31.5096 196.871 31.3128 196.871 30.5904V10.0248C196.871 5.892 196.967 3.1368 197.116 0.456C196.818 0.12 196.27 0 195.818 0C191.937 1.428 187.319 3.0168 184.21 3.6552C183.672 4.0584 183.672 5.2416 184.21 5.6136L185.499 6.2856C187.011 7.0752 187.011 7.7928 187.011 10.428V39.2376C187.011 43.8216 186.706 44.3472 183.962 44.6184L182.52 44.748C181.921 45.132 181.921 46.644 182.597 47.028C185.684 46.8907 188.773 46.8267 191.863 46.836C195.359 46.836 198.542 46.8984 200.982 47.028C201.655 46.644 201.655 45.132 201.054 44.748L199.847 44.6184C197.179 44.3472 196.871 43.8192 196.871 39.2376V35.4456C196.871 34.1904 197.256 33.8712 197.78 33.8712C198.542 33.8712 199.153 34.1352 199.693 34.836L205.074 41.928C205.682 42.7056 206.36 43.752 206.36 44.0352C206.36 44.2776 205.913 44.4024 205.151 44.544Z" fill="#D1D1D1"/>
</g>
<defs>
<clipPath id="clip0_3722_6069">
<rect width="226" height="48" fill="white"/>
</clipPath>
</defs>
</svg>
